G04 #@! TF.GenerationSoftware,KiCad,Pcbnew,(6.0.2)*
G04 #@! TF.CreationDate,2022-03-04T19:39:09-03:00*
G04 #@! TF.ProjectId,BareDevRev2,42617265-4465-4765-9265-76322e6b6963,V1.1.0*
G04 #@! TF.SameCoordinates,Original*
G04 #@! TF.FileFunction,Soldermask,Top*
G04 #@! TF.FilePolarity,Negative*
%FSLAX46Y46*%
G04 Gerber Fmt 4.6, Leading zero omitted, Abs format (unit mm)*
G04 Created by KiCad (PCBNEW (6.0.2)) date 2022-03-04 19:39:09*
%MOMM*%
%LPD*%
G01*
G04 APERTURE LIST*
G04 Aperture macros list*
%AMRoundRect*
0 Rectangle with rounded corners*
0 $1 Rounding radius*
0 $2 $3 $4 $5 $6 $7 $8 $9 X,Y pos of 4 corners*
0 Add a 4 corners polygon primitive as box body*
4,1,4,$2,$3,$4,$5,$6,$7,$8,$9,$2,$3,0*
0 Add four circle primitives for the rounded corners*
1,1,$1+$1,$2,$3*
1,1,$1+$1,$4,$5*
1,1,$1+$1,$6,$7*
1,1,$1+$1,$8,$9*
0 Add four rect primitives between the rounded corners*
20,1,$1+$1,$2,$3,$4,$5,0*
20,1,$1+$1,$4,$5,$6,$7,0*
20,1,$1+$1,$6,$7,$8,$9,0*
20,1,$1+$1,$8,$9,$2,$3,0*%
G04 Aperture macros list end*
%ADD10C,0.120000*%
%ADD11RoundRect,0.250000X0.350000X-0.250000X0.350000X0.250000X-0.350000X0.250000X-0.350000X-0.250000X0*%
%ADD12C,1.701800*%
%ADD13C,3.987800*%
%ADD14C,2.540000*%
%ADD15RoundRect,0.200000X-0.537500X0.000000X0.537500X0.000000X0.537500X0.000000X-0.537500X0.000000X0*%
%ADD16R,1.475000X0.400000*%
%ADD17C,1.778000*%
%ADD18RoundRect,0.177800X0.711200X0.711200X-0.711200X0.711200X-0.711200X-0.711200X0.711200X-0.711200X0*%
%ADD19RoundRect,0.250000X-0.450000X0.262500X-0.450000X-0.262500X0.450000X-0.262500X0.450000X0.262500X0*%
%ADD20RoundRect,0.135000X0.185000X-0.135000X0.185000X0.135000X-0.185000X0.135000X-0.185000X-0.135000X0*%
%ADD21RoundRect,0.140000X-0.170000X0.140000X-0.170000X-0.140000X0.170000X-0.140000X0.170000X0.140000X0*%
%ADD22C,3.048000*%
%ADD23RoundRect,0.250000X-0.262500X-0.450000X0.262500X-0.450000X0.262500X0.450000X-0.262500X0.450000X0*%
%ADD24RoundRect,0.140000X0.140000X0.170000X-0.140000X0.170000X-0.140000X-0.170000X0.140000X-0.170000X0*%
%ADD25RoundRect,0.150000X-0.150000X0.587500X-0.150000X-0.587500X0.150000X-0.587500X0.150000X0.587500X0*%
%ADD26RoundRect,0.150000X0.000000X-0.750000X0.000000X0.750000X0.000000X0.750000X0.000000X-0.750000X0*%
%ADD27R,0.300000X1.800000*%
%ADD28R,1.800000X0.300000*%
%ADD29C,0.600000*%
%ADD30R,5.200000X5.200000*%
%ADD31R,1.100000X1.800000*%
%ADD32RoundRect,0.250000X-0.250000X-0.350000X0.250000X-0.350000X0.250000X0.350000X-0.250000X0.350000X0*%
%ADD33RoundRect,0.135000X-0.135000X-0.185000X0.135000X-0.185000X0.135000X0.185000X-0.135000X0.185000X0*%
%ADD34RoundRect,0.135000X-0.185000X0.135000X-0.185000X-0.135000X0.185000X-0.135000X0.185000X0.135000X0*%
%ADD35RoundRect,0.250000X0.262500X0.450000X-0.262500X0.450000X-0.262500X-0.450000X0.262500X-0.450000X0*%
%ADD36RoundRect,0.250000X0.475000X-0.250000X0.475000X0.250000X-0.475000X0.250000X-0.475000X-0.250000X0*%
%ADD37R,1.524000X1.524000*%
%ADD38O,1.524000X1.524000*%
%ADD39RoundRect,0.325000X0.000000X-0.205000X0.000000X0.205000X0.000000X0.205000X0.000000X-0.205000X0*%
%ADD40R,0.650000X1.060000*%
%ADD41RoundRect,0.135000X0.135000X0.185000X-0.135000X0.185000X-0.135000X-0.185000X0.135000X-0.185000X0*%
%ADD42RoundRect,0.150000X-0.587500X-0.150000X0.587500X-0.150000X0.587500X0.150000X-0.587500X0.150000X0*%
%ADD43RoundRect,0.250000X0.425000X-0.537500X0.425000X0.537500X-0.425000X0.537500X-0.425000X-0.537500X0*%
%ADD44RoundRect,0.325000X0.000000X0.205000X0.000000X-0.205000X0.000000X-0.205000X0.000000X0.205000X0*%
%ADD45RoundRect,0.250000X0.450000X-0.262500X0.450000X0.262500X-0.450000X0.262500X-0.450000X-0.262500X0*%
%ADD46RoundRect,0.218750X0.218750X0.381250X-0.218750X0.381250X-0.218750X-0.381250X0.218750X-0.381250X0*%
%ADD47C,0.650000*%
%ADD48RoundRect,0.150000X0.150000X0.575000X-0.150000X0.575000X-0.150000X-0.575000X0.150000X-0.575000X0*%
%ADD49RoundRect,0.075000X0.075000X0.650000X-0.075000X0.650000X-0.075000X-0.650000X0.075000X-0.650000X0*%
%ADD50O,1.100000X2.200000*%
%ADD51O,1.300000X1.900000*%
%ADD52R,1.400000X1.200000*%
%ADD53RoundRect,0.250000X-0.250000X-0.475000X0.250000X-0.475000X0.250000X0.475000X-0.250000X0.475000X0*%
%ADD54RoundRect,0.250000X-0.350000X0.250000X-0.350000X-0.250000X0.350000X-0.250000X0.350000X0.250000X0*%
%ADD55RoundRect,0.250000X-0.375000X-0.625000X0.375000X-0.625000X0.375000X0.625000X-0.375000X0.625000X0*%
%ADD56RoundRect,0.140000X-0.140000X-0.170000X0.140000X-0.170000X0.140000X0.170000X-0.140000X0.170000X0*%
G04 APERTURE END LIST*
D10*
X183371512Y-52065000D02*
G75*
G03*
X183371512Y-52065000I-508000J0D01*
G01*
X283384012Y-133027500D02*
G75*
G03*
X283384012Y-133027500I-508000J0D01*
G01*
X97646512Y-52065000D02*
G75*
G03*
X97646512Y-52065000I-508000J0D01*
G01*
X269096512Y-52065000D02*
G75*
G03*
X269096512Y-52065000I-508000J0D01*
G01*
X64309012Y-113977500D02*
G75*
G03*
X64309012Y-113977500I-508000J0D01*
G01*
X254809012Y-113977500D02*
G75*
G03*
X254809012Y-113977500I-508000J0D01*
G01*
X159559012Y-113977500D02*
G75*
G03*
X159559012Y-113977500I-508000J0D01*
G01*
X197659012Y-113977500D02*
G75*
G03*
X197659012Y-113977500I-508000J0D01*
G01*
X140509012Y-113977500D02*
G75*
G03*
X140509012Y-113977500I-508000J0D01*
G01*
X288146512Y-75877500D02*
G75*
G03*
X288146512Y-75877500I-508000J0D01*
G01*
X250046512Y-75877500D02*
G75*
G03*
X250046512Y-75877500I-508000J0D01*
G01*
X59546512Y-52065000D02*
G75*
G03*
X59546512Y-52065000I-508000J0D01*
G01*
X35734012Y-152077500D02*
G75*
G03*
X35734012Y-152077500I-508000J0D01*
G01*
X97646512Y-75877500D02*
G75*
G03*
X97646512Y-75877500I-508000J0D01*
G01*
X269096512Y-75877500D02*
G75*
G03*
X269096512Y-75877500I-508000J0D01*
G01*
X207184012Y-133027500D02*
G75*
G03*
X207184012Y-133027500I-508000J0D01*
G01*
X107171512Y-94927500D02*
G75*
G03*
X107171512Y-94927500I-508000J0D01*
G01*
X102409012Y-113977500D02*
G75*
G03*
X102409012Y-113977500I-508000J0D01*
G01*
X54784012Y-133027500D02*
G75*
G03*
X54784012Y-133027500I-508000J0D01*
G01*
X245284012Y-133027500D02*
G75*
G03*
X245284012Y-133027500I-508000J0D01*
G01*
X188134012Y-133027500D02*
G75*
G03*
X188134012Y-133027500I-508000J0D01*
G01*
X126221512Y-94927500D02*
G75*
G03*
X126221512Y-94927500I-508000J0D01*
G01*
X73834012Y-152077500D02*
G75*
G03*
X73834012Y-152077500I-508000J0D01*
G01*
X78596512Y-75877500D02*
G75*
G03*
X78596512Y-75877500I-508000J0D01*
G01*
X306402762Y-116517500D02*
G75*
G03*
X306402762Y-116517500I-508000J0D01*
G01*
X273859012Y-113977500D02*
G75*
G03*
X273859012Y-113977500I-508000J0D01*
G01*
X307196512Y-52065000D02*
G75*
G03*
X307196512Y-52065000I-508000J0D01*
G01*
X259571512Y-94927500D02*
G75*
G03*
X259571512Y-94927500I-508000J0D01*
G01*
X226234012Y-133027500D02*
G75*
G03*
X226234012Y-133027500I-508000J0D01*
G01*
X240521512Y-94927500D02*
G75*
G03*
X240521512Y-94927500I-508000J0D01*
G01*
X164321512Y-94927500D02*
G75*
G03*
X164321512Y-94927500I-508000J0D01*
G01*
X126221512Y-52065000D02*
G75*
G03*
X126221512Y-52065000I-508000J0D01*
G01*
X145271512Y-52065000D02*
G75*
G03*
X145271512Y-52065000I-508000J0D01*
G01*
X221471512Y-94927500D02*
G75*
G03*
X221471512Y-94927500I-508000J0D01*
G01*
X164321512Y-52065000D02*
G75*
G03*
X164321512Y-52065000I-508000J0D01*
G01*
X69071512Y-94927500D02*
G75*
G03*
X69071512Y-94927500I-508000J0D01*
G01*
X135746512Y-75877500D02*
G75*
G03*
X135746512Y-75877500I-508000J0D01*
G01*
X178609012Y-113977500D02*
G75*
G03*
X178609012Y-113977500I-508000J0D01*
G01*
X116696512Y-75877500D02*
G75*
G03*
X116696512Y-75877500I-508000J0D01*
G01*
X92884012Y-133027500D02*
G75*
G03*
X92884012Y-133027500I-508000J0D01*
G01*
X73834012Y-133027500D02*
G75*
G03*
X73834012Y-133027500I-508000J0D01*
G01*
X250051512Y-52065000D02*
G75*
G03*
X250051512Y-52065000I-508000J0D01*
G01*
X278621512Y-94927500D02*
G75*
G03*
X278621512Y-94927500I-508000J0D01*
G01*
X111934012Y-133027500D02*
G75*
G03*
X111934012Y-133027500I-508000J0D01*
G01*
X121459012Y-113977500D02*
G75*
G03*
X121459012Y-113977500I-508000J0D01*
G01*
X88121512Y-94927500D02*
G75*
G03*
X88121512Y-94927500I-508000J0D01*
G01*
X211946512Y-75877500D02*
G75*
G03*
X211946512Y-75877500I-508000J0D01*
G01*
X307196512Y-75877500D02*
G75*
G03*
X307196512Y-75877500I-508000J0D01*
G01*
X264334012Y-133027500D02*
G75*
G03*
X264334012Y-133027500I-508000J0D01*
G01*
X40496512Y-52065000D02*
G75*
G03*
X40496512Y-52065000I-508000J0D01*
G01*
X130984012Y-133027500D02*
G75*
G03*
X130984012Y-133027500I-508000J0D01*
G01*
X83359012Y-113977500D02*
G75*
G03*
X83359012Y-113977500I-508000J0D01*
G01*
X230996512Y-75877500D02*
G75*
G03*
X230996512Y-75877500I-508000J0D01*
G01*
X235759012Y-113977500D02*
G75*
G03*
X235759012Y-113977500I-508000J0D01*
G01*
X192896512Y-75877500D02*
G75*
G03*
X192896512Y-75877500I-508000J0D01*
G01*
X173846512Y-75877500D02*
G75*
G03*
X173846512Y-75877500I-508000J0D01*
G01*
X230996512Y-52065000D02*
G75*
G03*
X230996512Y-52065000I-508000J0D01*
G01*
X169084012Y-133027500D02*
G75*
G03*
X169084012Y-133027500I-508000J0D01*
G01*
X216709012Y-113977500D02*
G75*
G03*
X216709012Y-113977500I-508000J0D01*
G01*
X183371512Y-94927500D02*
G75*
G03*
X183371512Y-94927500I-508000J0D01*
G01*
X150034012Y-133027500D02*
G75*
G03*
X150034012Y-133027500I-508000J0D01*
G01*
X145271512Y-94927500D02*
G75*
G03*
X145271512Y-94927500I-508000J0D01*
G01*
X78596512Y-52065000D02*
G75*
G03*
X78596512Y-52065000I-508000J0D01*
G01*
X92884012Y-152077500D02*
G75*
G03*
X92884012Y-152077500I-508000J0D01*
G01*
X202421512Y-94927500D02*
G75*
G03*
X202421512Y-94927500I-508000J0D01*
G01*
X54784012Y-152077500D02*
G75*
G03*
X54784012Y-152077500I-508000J0D01*
G01*
X211946512Y-52065000D02*
G75*
G03*
X211946512Y-52065000I-508000J0D01*
G01*
X154796512Y-75877500D02*
G75*
G03*
X154796512Y-75877500I-508000J0D01*
G01*
D11*
X165576012Y-136327500D03*
X165576012Y-133027500D03*
D12*
X191753512Y-49525000D03*
X181593512Y-49525000D03*
D13*
X186673512Y-49525000D03*
D14*
X189213512Y-54605000D03*
X182863512Y-52065000D03*
D15*
X269731947Y-57456502D03*
D16*
X269731947Y-58106502D03*
X269731947Y-58756502D03*
X269731947Y-59406502D03*
X275456947Y-59406502D03*
X275456947Y-58756502D03*
X275456947Y-58106502D03*
X275456947Y-57456502D03*
D12*
X281606012Y-130487500D03*
D13*
X286686012Y-130487500D03*
D12*
X291766012Y-130487500D03*
D14*
X289226012Y-135567500D03*
X282876012Y-133027500D03*
D11*
X175101012Y-117277500D03*
X175101012Y-113977500D03*
D13*
X100948512Y-49525000D03*
D12*
X106028512Y-49525000D03*
X95868512Y-49525000D03*
D14*
X103488512Y-54605000D03*
X97138512Y-52065000D03*
D11*
X256063512Y-98227500D03*
X256063512Y-94927500D03*
D12*
X277478512Y-49525000D03*
D13*
X272398512Y-49525000D03*
D12*
X267318512Y-49525000D03*
D14*
X274938512Y-54605000D03*
X268588512Y-52065000D03*
D17*
X92693512Y-87307500D03*
D18*
X90153512Y-87307500D03*
D12*
X72691012Y-111437500D03*
X62531012Y-111437500D03*
D13*
X67611012Y-111437500D03*
D14*
X70151012Y-116517500D03*
X63801012Y-113977500D03*
D13*
X258111012Y-111437500D03*
D12*
X263191012Y-111437500D03*
X253031012Y-111437500D03*
D14*
X260651012Y-116517500D03*
X254301012Y-113977500D03*
D17*
X54593512Y-68257500D03*
D18*
X52053512Y-68257500D03*
D13*
X162861012Y-111437500D03*
D12*
X167941012Y-111437500D03*
X157781012Y-111437500D03*
D14*
X165401012Y-116517500D03*
X159051012Y-113977500D03*
D17*
X311768512Y-68257500D03*
D18*
X309228512Y-68257500D03*
D17*
X106981012Y-106357500D03*
D18*
X104441012Y-106357500D03*
D19*
X186181012Y-104533000D03*
X186181012Y-106358000D03*
D17*
X68881012Y-106357500D03*
D18*
X66341012Y-106357500D03*
D20*
X211401862Y-152283208D03*
X211401862Y-151263208D03*
D17*
X83168512Y-68257500D03*
D18*
X80628512Y-68257500D03*
D12*
X303037262Y-130487500D03*
D13*
X308117262Y-130487500D03*
D12*
X313197262Y-130487500D03*
D14*
X310657262Y-135567500D03*
X304307262Y-133027500D03*
D12*
X195881012Y-111437500D03*
X206041012Y-111437500D03*
D13*
X200961012Y-111437500D03*
D14*
X203501012Y-116517500D03*
X197151012Y-113977500D03*
D12*
X138731012Y-111437500D03*
X148891012Y-111437500D03*
D13*
X143811012Y-111437500D03*
D14*
X146351012Y-116517500D03*
X140001012Y-113977500D03*
D19*
X119506012Y-123583000D03*
X119506012Y-125408000D03*
X152843512Y-42620500D03*
X152843512Y-44445500D03*
D21*
X289048512Y-64306116D03*
X289048512Y-65266116D03*
D19*
X100456012Y-123583000D03*
X100456012Y-125408000D03*
D17*
X287956012Y-125407500D03*
D18*
X285416012Y-125407500D03*
D11*
X253682262Y-155377500D03*
X253682262Y-152077500D03*
D13*
X291448512Y-73337500D03*
D12*
X286368512Y-73337500D03*
X296528512Y-73337500D03*
D14*
X293988512Y-78417500D03*
X287638512Y-75877500D03*
D12*
X258428512Y-73337500D03*
D13*
X253348512Y-73337500D03*
D12*
X248268512Y-73337500D03*
D14*
X255888512Y-78417500D03*
X249538512Y-75877500D03*
D19*
X171893512Y-42620500D03*
X171893512Y-44445500D03*
X105218512Y-42620500D03*
X105218512Y-44445500D03*
D11*
X303688512Y-79177500D03*
X303688512Y-75877500D03*
D17*
X254618512Y-68257500D03*
D18*
X252078512Y-68257500D03*
D17*
X145081012Y-106357500D03*
D18*
X142541012Y-106357500D03*
D12*
X122697262Y-149537500D03*
D13*
X117617262Y-149537500D03*
D12*
X112537262Y-149537500D03*
D14*
X120157262Y-154617500D03*
X113807262Y-152077500D03*
D12*
X58403512Y-73337500D03*
D13*
X65261512Y-81592500D03*
X53323512Y-73337500D03*
D12*
X48243512Y-73337500D03*
D13*
X41385512Y-81592500D03*
D22*
X41385512Y-66352500D03*
X65261512Y-66352500D03*
D14*
X55863512Y-78417500D03*
X49513512Y-75877500D03*
D11*
X265588512Y-79177500D03*
X265588512Y-75877500D03*
D23*
X199691012Y-51992200D03*
X201516012Y-51992200D03*
D19*
X271906012Y-123583000D03*
X271906012Y-125408000D03*
D24*
X299578540Y-52386117D03*
X298618540Y-52386117D03*
D12*
X57768512Y-49525000D03*
D13*
X62848512Y-49525000D03*
D12*
X67928512Y-49525000D03*
D14*
X65388512Y-54605000D03*
X59038512Y-52065000D03*
D17*
X309387262Y-125407500D03*
D18*
X306847262Y-125407500D03*
D17*
X235568512Y-68257500D03*
D18*
X233028512Y-68257500D03*
D11*
X32226012Y-155377500D03*
X32226012Y-152077500D03*
D24*
X279578540Y-51586117D03*
X278618540Y-51586117D03*
D19*
X86168512Y-66433000D03*
X86168512Y-68258000D03*
D17*
X159368512Y-68257500D03*
D18*
X156828512Y-68257500D03*
D17*
X235568512Y-44445000D03*
D18*
X233028512Y-44445000D03*
D17*
X78406012Y-125407500D03*
D18*
X75866012Y-125407500D03*
D20*
X218249376Y-146113208D03*
X218249376Y-145093208D03*
D11*
X296544762Y-117277500D03*
X296544762Y-113977500D03*
D25*
X216815896Y-145093208D03*
X214915896Y-145093208D03*
X215865896Y-146968208D03*
D17*
X292718512Y-68257500D03*
D18*
X290178512Y-68257500D03*
D26*
X289698512Y-58936116D03*
D27*
X290198512Y-58936116D03*
X290698512Y-58936116D03*
X291198512Y-58936116D03*
X291698512Y-58936116D03*
X292198512Y-58936116D03*
X292698512Y-58936116D03*
X293198512Y-58936116D03*
X293698512Y-58936116D03*
X294198512Y-58936116D03*
X294698512Y-58936116D03*
X295198512Y-58936116D03*
D28*
X296448512Y-57686116D03*
X296448512Y-57186116D03*
X296448512Y-56686116D03*
X296448512Y-56186116D03*
X296448512Y-55686116D03*
X296448512Y-55186116D03*
X296448512Y-54686116D03*
X296448512Y-54186116D03*
X296448512Y-53686116D03*
X296448512Y-53186116D03*
X296448512Y-52686116D03*
X296448512Y-52186116D03*
D27*
X295198512Y-50936116D03*
X294698512Y-50936116D03*
X294198512Y-50936116D03*
X293698512Y-50936116D03*
X293198512Y-50936116D03*
X292698512Y-50936116D03*
X292198512Y-50936116D03*
X291698512Y-50936116D03*
X291198512Y-50936116D03*
X290698512Y-50936116D03*
X290198512Y-50936116D03*
X289698512Y-50936116D03*
D28*
X288448512Y-52186116D03*
X288448512Y-52686116D03*
X288448512Y-53186116D03*
X288448512Y-53686116D03*
X288448512Y-54186116D03*
X288448512Y-54686116D03*
X288448512Y-55186116D03*
X288448512Y-55686116D03*
X288448512Y-56186116D03*
X288448512Y-56686116D03*
X288448512Y-57186116D03*
D29*
X293448512Y-52936116D03*
X293448512Y-56936116D03*
X293448512Y-55936116D03*
X294448512Y-54936116D03*
X290448512Y-54936116D03*
X290448512Y-56936116D03*
X291448512Y-54936116D03*
X290448512Y-52936116D03*
X294448512Y-55936116D03*
X291448512Y-56936116D03*
X291448512Y-52936116D03*
X291448512Y-55936116D03*
X290448512Y-53936116D03*
X291448512Y-53936116D03*
X292448512Y-53936116D03*
X292448512Y-52936116D03*
X293448512Y-53936116D03*
X294448512Y-56936116D03*
X294448512Y-52936116D03*
X293448512Y-54936116D03*
X292448512Y-54936116D03*
X292448512Y-56936116D03*
X290448512Y-55936116D03*
X292448512Y-55936116D03*
X294448512Y-53936116D03*
D28*
X288448512Y-57686116D03*
D30*
X292448512Y-54936116D03*
D19*
X133793512Y-42620500D03*
X133793512Y-44445500D03*
D11*
X227488512Y-79177500D03*
X227488512Y-75877500D03*
D21*
X212908809Y-151293208D03*
X212908809Y-152253208D03*
D31*
X227508497Y-145093208D03*
X227508497Y-151293208D03*
X223808497Y-151293208D03*
X223808497Y-145093208D03*
D19*
X257623512Y-42620500D03*
X257623512Y-44445500D03*
D17*
X97456012Y-125407500D03*
D18*
X94916012Y-125407500D03*
D12*
X33956012Y-149537500D03*
X44116012Y-149537500D03*
D13*
X39036012Y-149537500D03*
D14*
X41576012Y-154617500D03*
X35226012Y-152077500D03*
D17*
X183181012Y-106357500D03*
D18*
X180641012Y-106357500D03*
D32*
X218363968Y-151293208D03*
X221663968Y-151293208D03*
D19*
X314767882Y-42620440D03*
X314767882Y-44445440D03*
D17*
X111743512Y-87307500D03*
D18*
X109203512Y-87307500D03*
D19*
X43306012Y-142633000D03*
X43306012Y-144458000D03*
D11*
X132238512Y-79177500D03*
X132238512Y-75877500D03*
D17*
X173656012Y-125407500D03*
D18*
X171116012Y-125407500D03*
D17*
X187943512Y-44445000D03*
D18*
X185403512Y-44445000D03*
D17*
X154606012Y-125407500D03*
D18*
X152066012Y-125407500D03*
D17*
X216518512Y-44445000D03*
D18*
X213978512Y-44445000D03*
D11*
X51276012Y-155377500D03*
X51276012Y-152077500D03*
D33*
X215529789Y-151293208D03*
X216549789Y-151293208D03*
D19*
X286193512Y-85483000D03*
X286193512Y-87308000D03*
D11*
X170338512Y-79177500D03*
X170338512Y-75877500D03*
D13*
X100948512Y-73337500D03*
D12*
X106028512Y-73337500D03*
X95868512Y-73337500D03*
D14*
X103488512Y-78417500D03*
X97138512Y-75877500D03*
D19*
X281431012Y-104533000D03*
X281431012Y-106358000D03*
D34*
X204647665Y-150920578D03*
X204647665Y-151940578D03*
D35*
X239465015Y-70549248D03*
X237640015Y-70549248D03*
D17*
X249856012Y-125407500D03*
D18*
X247316012Y-125407500D03*
D12*
X267318512Y-73337500D03*
X277478512Y-73337500D03*
D13*
X272398512Y-73337500D03*
D14*
X274938512Y-78417500D03*
X268588512Y-75877500D03*
D12*
X205406012Y-130487500D03*
X215566012Y-130487500D03*
D13*
X210486012Y-130487500D03*
D14*
X213026012Y-135567500D03*
X206676012Y-133027500D03*
D19*
X138556012Y-123583000D03*
X138556012Y-125408000D03*
D17*
X64118512Y-44445000D03*
D18*
X61578512Y-44445000D03*
D17*
X59356012Y-125407500D03*
D18*
X56816012Y-125407500D03*
D17*
X130793512Y-44445000D03*
D18*
X128253512Y-44445000D03*
D11*
X184626012Y-136327500D03*
X184626012Y-133027500D03*
D36*
X272665127Y-39565008D03*
X272665127Y-37665008D03*
D13*
X110473512Y-92387500D03*
D12*
X105393512Y-92387500D03*
X115553512Y-92387500D03*
D14*
X113013512Y-97467500D03*
X106663512Y-94927500D03*
D11*
X246538512Y-79177500D03*
X246538512Y-75877500D03*
X75088512Y-55365000D03*
X75088512Y-52065000D03*
D19*
X310006012Y-85483000D03*
X310006012Y-87308000D03*
D11*
X208438512Y-55365000D03*
X208438512Y-52065000D03*
X203676012Y-136327500D03*
X203676012Y-133027500D03*
D23*
X305624932Y-40371183D03*
X307449932Y-40371183D03*
D11*
X60801012Y-117277500D03*
X60801012Y-113977500D03*
D17*
X40306012Y-144457500D03*
D18*
X37766012Y-144457500D03*
D19*
X193324762Y-142633000D03*
X193324762Y-144458000D03*
X288574762Y-142633000D03*
X288574762Y-144458000D03*
D17*
X202231012Y-106357500D03*
D18*
X199691012Y-106357500D03*
D12*
X100631012Y-111437500D03*
D13*
X105711012Y-111437500D03*
D12*
X110791012Y-111437500D03*
D14*
X108251012Y-116517500D03*
X101901012Y-113977500D03*
D19*
X121887262Y-142633000D03*
X121887262Y-144458000D03*
D11*
X194151012Y-117277500D03*
X194151012Y-113977500D03*
D17*
X259381012Y-106357500D03*
D18*
X256841012Y-106357500D03*
D11*
X222726012Y-136327500D03*
X222726012Y-133027500D03*
D37*
X238917270Y-63348639D03*
D38*
X238917270Y-60808639D03*
X241457270Y-63475639D03*
X241457270Y-60935639D03*
X243997270Y-63348639D03*
X243997270Y-60808639D03*
X246537270Y-63475639D03*
X246537270Y-60935639D03*
X249077270Y-63348639D03*
X249077270Y-60808639D03*
D11*
X251301012Y-117277500D03*
X251301012Y-113977500D03*
D19*
X167131012Y-104533000D03*
X167131012Y-106358000D03*
D17*
X202231012Y-49525000D03*
D18*
X199691012Y-49525000D03*
D11*
X36988512Y-55365000D03*
X36988512Y-52065000D03*
D13*
X58086012Y-130487500D03*
D12*
X53006012Y-130487500D03*
X63166012Y-130487500D03*
D14*
X60626012Y-135567500D03*
X54276012Y-133027500D03*
D17*
X73643512Y-87307500D03*
D18*
X71103512Y-87307500D03*
D17*
X268906012Y-125407500D03*
D18*
X266366012Y-125407500D03*
D12*
X253666012Y-130487500D03*
X243506012Y-130487500D03*
D13*
X248586012Y-130487500D03*
D14*
X251126012Y-135567500D03*
X244776012Y-133027500D03*
D11*
X94138512Y-55365000D03*
X94138512Y-52065000D03*
D12*
X196516012Y-130487500D03*
D13*
X191436012Y-130487500D03*
D12*
X186356012Y-130487500D03*
D14*
X193976012Y-135567500D03*
X187626012Y-133027500D03*
D19*
X243331012Y-104533000D03*
X243331012Y-106358000D03*
D17*
X149843512Y-87307500D03*
D18*
X147303512Y-87307500D03*
D13*
X129523512Y-92387500D03*
D12*
X124443512Y-92387500D03*
X134603512Y-92387500D03*
D14*
X132063512Y-97467500D03*
X125713512Y-94927500D03*
D11*
X301307262Y-136327500D03*
X301307262Y-133027500D03*
D34*
X289625942Y-34649124D03*
X289625942Y-35669124D03*
D12*
X72056012Y-149537500D03*
X82216012Y-149537500D03*
D13*
X77136012Y-149537500D03*
D14*
X79676012Y-154617500D03*
X73326012Y-152077500D03*
D17*
X261762262Y-144457500D03*
D18*
X259222262Y-144457500D03*
D39*
X290498512Y-41008119D03*
D40*
X291448512Y-41008119D03*
X292398512Y-41008119D03*
X292398512Y-38808119D03*
X291448512Y-38808119D03*
X290498512Y-38808119D03*
D11*
X122713512Y-55365000D03*
X122713512Y-52065000D03*
D17*
X304624762Y-106357500D03*
D18*
X302084762Y-106357500D03*
D41*
X295687099Y-35401633D03*
X294667099Y-35401633D03*
D17*
X192706012Y-125407500D03*
D18*
X190166012Y-125407500D03*
D12*
X86978512Y-73337500D03*
X76818512Y-73337500D03*
D13*
X81898512Y-73337500D03*
D14*
X84438512Y-78417500D03*
X78088512Y-75877500D03*
D12*
X298274762Y-111437500D03*
D13*
X303354762Y-111437500D03*
D12*
X308434762Y-111437500D03*
D14*
X305894762Y-116517500D03*
X299544762Y-113977500D03*
D17*
X116506012Y-125407500D03*
D18*
X113966012Y-125407500D03*
D19*
X248093512Y-85483000D03*
X248093512Y-87308000D03*
X171893512Y-85483000D03*
X171893512Y-87308000D03*
D11*
X151288512Y-79177500D03*
X151288512Y-75877500D03*
D13*
X277161012Y-111437500D03*
D12*
X282241012Y-111437500D03*
X272081012Y-111437500D03*
D14*
X279701012Y-116517500D03*
X273351012Y-113977500D03*
D17*
X254623512Y-44445000D03*
D18*
X252083512Y-44445000D03*
D17*
X102218512Y-44445000D03*
D18*
X99678512Y-44445000D03*
D12*
X315578512Y-49525000D03*
X305418512Y-49525000D03*
D13*
X310498512Y-49525000D03*
D14*
X313038512Y-54605000D03*
X306688512Y-52065000D03*
D13*
X262873512Y-92387500D03*
D12*
X257793512Y-92387500D03*
X267953512Y-92387500D03*
D14*
X265413512Y-97467500D03*
X259063512Y-94927500D03*
D17*
X190324762Y-144457500D03*
D18*
X187784762Y-144457500D03*
D19*
X124268512Y-66433000D03*
X124268512Y-68258000D03*
X81406012Y-142633000D03*
X81406012Y-144458000D03*
D11*
X217963512Y-98227500D03*
X217963512Y-94927500D03*
D42*
X309424963Y-38471183D03*
X309424963Y-40371183D03*
X311299963Y-39421183D03*
D11*
X198913512Y-98227500D03*
X198913512Y-94927500D03*
D19*
X205231012Y-104533000D03*
X205231012Y-106358000D03*
D13*
X229536012Y-130487500D03*
D12*
X224456012Y-130487500D03*
X234616012Y-130487500D03*
D14*
X232076012Y-135567500D03*
X225726012Y-133027500D03*
D12*
X248903512Y-92387500D03*
X238743512Y-92387500D03*
D13*
X243823512Y-92387500D03*
D14*
X246363512Y-97467500D03*
X240013512Y-94927500D03*
D12*
X172703512Y-92387500D03*
X162543512Y-92387500D03*
D13*
X167623512Y-92387500D03*
D14*
X170163512Y-97467500D03*
X163813512Y-94927500D03*
D24*
X298158511Y-50586117D03*
X297198511Y-50586117D03*
D33*
X219503968Y-145093208D03*
X220523968Y-145093208D03*
D12*
X124443512Y-49525000D03*
D13*
X129523512Y-49525000D03*
D12*
X134603512Y-49525000D03*
D14*
X132063512Y-54605000D03*
X125713512Y-52065000D03*
D24*
X287428512Y-61536116D03*
X286468512Y-61536116D03*
D43*
X285248512Y-46473616D03*
X285248512Y-43598616D03*
D19*
X162368512Y-66433000D03*
X162368512Y-68258000D03*
D13*
X148573512Y-49525000D03*
D12*
X143493512Y-49525000D03*
X153653512Y-49525000D03*
D14*
X151113512Y-54605000D03*
X144763512Y-52065000D03*
D11*
X110807262Y-155377500D03*
X110807262Y-152077500D03*
X146526012Y-136327500D03*
X146526012Y-133027500D03*
D17*
X311768330Y-44445440D03*
D18*
X309228330Y-44445440D03*
D17*
X197468512Y-68257500D03*
D18*
X194928512Y-68257500D03*
D19*
X62356012Y-142633000D03*
X62356012Y-144458000D03*
D23*
X283504277Y-39533244D03*
X285329277Y-39533244D03*
D12*
X229853512Y-92387500D03*
D13*
X224773512Y-92387500D03*
D12*
X219693512Y-92387500D03*
D14*
X227313512Y-97467500D03*
X220963512Y-94927500D03*
D17*
X187943512Y-87307500D03*
D18*
X185403512Y-87307500D03*
D44*
X278354268Y-37515008D03*
D40*
X277404268Y-37515008D03*
X276454268Y-37515008D03*
X276454268Y-39715008D03*
X278354268Y-39715008D03*
D19*
X219518512Y-66433000D03*
X219518512Y-68258000D03*
D45*
X270631768Y-39527508D03*
X270631768Y-37702508D03*
D11*
X284638512Y-79177500D03*
X284638512Y-75877500D03*
D17*
X97456012Y-144457500D03*
D18*
X94916012Y-144457500D03*
D46*
X300313969Y-37259910D03*
X298188969Y-37259910D03*
D12*
X162543512Y-49525000D03*
X172703512Y-49525000D03*
D13*
X167623512Y-49525000D03*
D14*
X170163512Y-54605000D03*
X163813512Y-52065000D03*
D19*
X238568512Y-42620500D03*
X238568512Y-44445500D03*
D12*
X265572262Y-149537500D03*
D13*
X260492262Y-149537500D03*
D12*
X255412262Y-149537500D03*
D14*
X263032262Y-154617500D03*
X256682262Y-152077500D03*
D11*
X89376012Y-136327500D03*
X89376012Y-133027500D03*
D47*
X288558512Y-30316354D03*
X294338512Y-30316354D03*
D48*
X294698512Y-31642354D03*
X293898512Y-31642354D03*
D49*
X292698512Y-31642354D03*
X291702512Y-31642354D03*
X291198512Y-31642354D03*
X290198512Y-31642354D03*
D48*
X288198512Y-31642354D03*
X288998512Y-31642354D03*
D49*
X289698512Y-31642354D03*
X290698512Y-31642354D03*
X292198512Y-31642354D03*
X293198512Y-31642354D03*
D50*
X295748512Y-30867354D03*
D51*
X295748512Y-26667354D03*
X287148512Y-26667354D03*
D50*
X287148512Y-30867354D03*
D19*
X157606012Y-123583000D03*
X157606012Y-125408000D03*
D21*
X298348512Y-61536116D03*
X298348512Y-62496116D03*
D19*
X100456012Y-142633000D03*
X100456012Y-144458000D03*
X57593512Y-66433000D03*
X57593512Y-68258000D03*
X86168512Y-42620500D03*
X86168512Y-44445500D03*
D17*
X59356012Y-144457500D03*
D18*
X56816012Y-144457500D03*
D13*
X72373512Y-92387500D03*
D12*
X67293512Y-92387500D03*
X77453512Y-92387500D03*
D14*
X74913512Y-97467500D03*
X68563512Y-94927500D03*
D19*
X209993512Y-85483000D03*
X209993512Y-87308000D03*
X312387262Y-142633000D03*
X312387262Y-144458000D03*
D17*
X206993512Y-87307500D03*
D18*
X204453512Y-87307500D03*
D19*
X71881012Y-104533000D03*
X71881012Y-106358000D03*
D35*
X307449932Y-38471183D03*
X305624932Y-38471183D03*
D19*
X181418512Y-66433000D03*
X181418512Y-68258000D03*
D13*
X139048512Y-73337500D03*
D12*
X133968512Y-73337500D03*
X144128512Y-73337500D03*
D14*
X141588512Y-78417500D03*
X135238512Y-75877500D03*
D11*
X84613512Y-98227500D03*
X84613512Y-94927500D03*
D52*
X293236012Y-63336116D03*
X291036012Y-63336116D03*
X291036012Y-65036116D03*
X293236012Y-65036116D03*
D11*
X270351012Y-117277500D03*
X270351012Y-113977500D03*
X39369762Y-107752500D03*
X39369762Y-104452500D03*
D12*
X186991012Y-111437500D03*
X176831012Y-111437500D03*
D13*
X181911012Y-111437500D03*
D14*
X184451012Y-116517500D03*
X178101012Y-113977500D03*
D11*
X89376012Y-155377500D03*
X89376012Y-152077500D03*
D12*
X125078512Y-73337500D03*
X114918512Y-73337500D03*
D13*
X119998512Y-73337500D03*
D14*
X122538512Y-78417500D03*
X116188512Y-75877500D03*
D17*
X309387262Y-144457500D03*
D18*
X306847262Y-144457500D03*
D19*
X90931012Y-104533000D03*
X90931012Y-106358000D03*
X152843512Y-85483000D03*
X152843512Y-87308000D03*
D11*
X56038512Y-55365000D03*
X56038512Y-52065000D03*
D12*
X91106012Y-130487500D03*
X101266012Y-130487500D03*
D13*
X96186012Y-130487500D03*
D14*
X98726012Y-135567500D03*
X92376012Y-133027500D03*
D11*
X117951012Y-117277500D03*
X117951012Y-113977500D03*
D19*
X195706012Y-123583000D03*
X195706012Y-125408000D03*
X224281012Y-104533000D03*
X224281012Y-106358000D03*
D12*
X72056012Y-130487500D03*
X82216012Y-130487500D03*
D13*
X77136012Y-130487500D03*
D14*
X79676012Y-135567500D03*
X73326012Y-133027500D03*
D34*
X214307470Y-151293208D03*
X214307470Y-152313208D03*
D12*
X258433512Y-49525000D03*
D13*
X253353512Y-49525000D03*
D12*
X248273512Y-49525000D03*
D14*
X255893512Y-54605000D03*
X249543512Y-52065000D03*
D12*
X276843512Y-92387500D03*
D13*
X281923512Y-92387500D03*
D12*
X287003512Y-92387500D03*
D14*
X284463512Y-97467500D03*
X278113512Y-94927500D03*
D42*
X204647665Y-153306332D03*
X204647665Y-155206332D03*
X206522665Y-154256332D03*
D12*
X120316012Y-130487500D03*
X110156012Y-130487500D03*
D13*
X115236012Y-130487500D03*
D14*
X117776012Y-135567500D03*
X111426012Y-133027500D03*
D17*
X216518512Y-68257500D03*
D18*
X213978512Y-68257500D03*
D19*
X129031012Y-104533000D03*
X129031012Y-106358000D03*
X219518512Y-42620500D03*
X219518512Y-44445500D03*
D24*
X286128512Y-58936116D03*
X285168512Y-58936116D03*
D11*
X179863512Y-55365000D03*
X179863512Y-52065000D03*
D13*
X124761012Y-111437500D03*
D12*
X129841012Y-111437500D03*
X119681012Y-111437500D03*
D14*
X127301012Y-116517500D03*
X120951012Y-113977500D03*
D19*
X67118512Y-42620500D03*
X67118512Y-44445500D03*
D17*
X126031012Y-106357500D03*
D18*
X123491012Y-106357500D03*
D17*
X178418512Y-68257500D03*
D18*
X175878512Y-68257500D03*
D11*
X303688512Y-55365000D03*
X303688512Y-52065000D03*
D19*
X252856012Y-123583000D03*
X252856012Y-125408000D03*
D11*
X301307262Y-155377500D03*
X301307262Y-152077500D03*
D17*
X87931012Y-106357500D03*
D18*
X85391012Y-106357500D03*
D11*
X79851012Y-117277500D03*
X79851012Y-113977500D03*
D19*
X229043512Y-85483000D03*
X229043512Y-87308000D03*
D11*
X70326012Y-155377500D03*
X70326012Y-152077500D03*
D13*
X91423512Y-92387500D03*
D12*
X96503512Y-92387500D03*
X86343512Y-92387500D03*
D14*
X93963512Y-97467500D03*
X87613512Y-94927500D03*
D12*
X210168512Y-73337500D03*
X220328512Y-73337500D03*
D13*
X215248512Y-73337500D03*
D14*
X217788512Y-78417500D03*
X211438512Y-75877500D03*
D19*
X214756012Y-123583000D03*
X214756012Y-125408000D03*
X200468512Y-66433000D03*
X200468512Y-68258000D03*
D41*
X204652774Y-148191314D03*
X203632774Y-148191314D03*
D12*
X315578512Y-73337500D03*
X305418512Y-73337500D03*
D13*
X310498512Y-73337500D03*
D14*
X313038512Y-78417500D03*
X306688512Y-75877500D03*
D12*
X262556012Y-130487500D03*
D13*
X267636012Y-130487500D03*
D12*
X272716012Y-130487500D03*
D14*
X270176012Y-135567500D03*
X263826012Y-133027500D03*
D19*
X264762262Y-142633000D03*
X264762262Y-144458000D03*
D53*
X283466777Y-41512422D03*
X285366777Y-41512422D03*
D12*
X38718512Y-49525000D03*
D13*
X43798512Y-49525000D03*
D12*
X48878512Y-49525000D03*
D14*
X46338512Y-54605000D03*
X39988512Y-52065000D03*
D19*
X105218512Y-66433000D03*
X105218512Y-68258000D03*
D12*
X313197262Y-149537500D03*
D13*
X308117262Y-149537500D03*
D12*
X303037262Y-149537500D03*
D14*
X310657262Y-154617500D03*
X304307262Y-152077500D03*
D11*
X103663512Y-98227500D03*
X103663512Y-94927500D03*
D12*
X139366012Y-130487500D03*
X129206012Y-130487500D03*
D13*
X134286012Y-130487500D03*
D14*
X136826012Y-135567500D03*
X130476012Y-133027500D03*
D21*
X295248512Y-62786116D03*
X295248512Y-63746116D03*
D17*
X140318512Y-68257500D03*
D18*
X137778512Y-68257500D03*
D13*
X86661012Y-111437500D03*
D12*
X91741012Y-111437500D03*
X81581012Y-111437500D03*
D14*
X89201012Y-116517500D03*
X82851012Y-113977500D03*
D13*
X234298512Y-73337500D03*
D12*
X229218512Y-73337500D03*
X239378512Y-73337500D03*
D14*
X236838512Y-78417500D03*
X230488512Y-75877500D03*
D13*
X239061012Y-111437500D03*
D12*
X233981012Y-111437500D03*
X244141012Y-111437500D03*
D14*
X241601012Y-116517500D03*
X235251012Y-113977500D03*
D17*
X164131012Y-106357500D03*
D18*
X161591012Y-106357500D03*
D17*
X307006012Y-87307500D03*
D18*
X304466012Y-87307500D03*
D17*
X283193512Y-87307500D03*
D18*
X280653512Y-87307500D03*
D41*
X282208540Y-55936116D03*
X281188540Y-55936116D03*
D19*
X276668512Y-66433000D03*
X276668512Y-68258000D03*
D11*
X127476012Y-136327500D03*
X127476012Y-133027500D03*
D19*
X50449762Y-95008000D03*
X50449762Y-96833000D03*
D12*
X191118512Y-73337500D03*
X201278512Y-73337500D03*
D13*
X196198512Y-73337500D03*
D14*
X198738512Y-78417500D03*
X192388512Y-75877500D03*
D20*
X290448513Y-46296118D03*
X290448513Y-45276118D03*
D19*
X307624762Y-104533000D03*
X307624762Y-106358000D03*
D17*
X102218512Y-68257500D03*
D18*
X99678512Y-68257500D03*
D19*
X314768512Y-66433000D03*
X314768512Y-68258000D03*
X143318512Y-66433000D03*
X143318512Y-68258000D03*
X109981012Y-104533000D03*
X109981012Y-106358000D03*
D11*
X260826012Y-136327500D03*
X260826012Y-133027500D03*
D17*
X278431012Y-106357500D03*
D18*
X275891012Y-106357500D03*
D11*
X113188512Y-79177500D03*
X113188512Y-75877500D03*
D45*
X299864473Y-45800255D03*
X299864473Y-43975255D03*
D11*
X213201012Y-117277500D03*
X213201012Y-113977500D03*
D19*
X133793512Y-85483000D03*
X133793512Y-87308000D03*
D13*
X239092762Y-141282500D03*
X189054762Y-149537500D03*
D12*
X194134762Y-149537500D03*
D22*
X239092762Y-156522500D03*
D12*
X183974762Y-149537500D03*
D22*
X139016762Y-156522500D03*
D13*
X139016762Y-141282500D03*
D14*
X191594762Y-154617500D03*
X185244762Y-152077500D03*
D11*
X108426012Y-136327500D03*
X108426012Y-133027500D03*
X179863512Y-98227500D03*
X179863512Y-94927500D03*
X94138512Y-79177500D03*
X94138512Y-75877500D03*
D19*
X290956012Y-123583000D03*
X290956012Y-125408000D03*
D11*
X122713512Y-98227500D03*
X122713512Y-94927500D03*
D13*
X177148512Y-73337500D03*
D12*
X172068512Y-73337500D03*
X182228512Y-73337500D03*
D14*
X179688512Y-78417500D03*
X173338512Y-75877500D03*
D19*
X257618512Y-66433000D03*
X257618512Y-68258000D03*
D11*
X189388512Y-79177500D03*
X189388512Y-75877500D03*
D12*
X239378512Y-49525000D03*
D13*
X234298512Y-49525000D03*
D12*
X229218512Y-49525000D03*
D14*
X236838512Y-54605000D03*
X230488512Y-52065000D03*
D13*
X172386012Y-130487500D03*
D12*
X177466012Y-130487500D03*
X167306012Y-130487500D03*
D14*
X174926012Y-135567500D03*
X168576012Y-133027500D03*
D12*
X225091012Y-111437500D03*
X214931012Y-111437500D03*
D13*
X220011012Y-111437500D03*
D14*
X222551012Y-116517500D03*
X216201012Y-113977500D03*
D41*
X282208540Y-53936116D03*
X281188540Y-53936116D03*
D13*
X186673512Y-92387500D03*
D12*
X191753512Y-92387500D03*
X181593512Y-92387500D03*
D14*
X189213512Y-97467500D03*
X182863512Y-94927500D03*
D11*
X156051012Y-117277500D03*
X156051012Y-113977500D03*
D19*
X95693512Y-85483000D03*
X95693512Y-87308000D03*
D17*
X226043512Y-87307500D03*
D18*
X223503512Y-87307500D03*
D19*
X312387262Y-123583000D03*
X312387262Y-125408000D03*
D17*
X83168512Y-44445000D03*
D18*
X80628512Y-44445000D03*
D17*
X273668512Y-44445000D03*
D18*
X271128512Y-44445000D03*
D11*
X237013512Y-98227500D03*
X237013512Y-94927500D03*
D17*
X285574762Y-144457500D03*
D18*
X283034762Y-144457500D03*
D19*
X190943512Y-42620500D03*
X190943512Y-44445500D03*
D12*
X148256012Y-130487500D03*
X158416012Y-130487500D03*
D13*
X153336012Y-130487500D03*
D14*
X155876012Y-135567500D03*
X149526012Y-133027500D03*
D19*
X233806012Y-123583000D03*
X233806012Y-125408000D03*
D11*
X98901012Y-117277500D03*
X98901012Y-113977500D03*
D19*
X295718512Y-66433000D03*
X295718512Y-68258000D03*
D17*
X245093512Y-87307500D03*
D18*
X242553512Y-87307500D03*
D19*
X190943512Y-85483000D03*
X190943512Y-87308000D03*
X176656012Y-123583000D03*
X176656012Y-125408000D03*
D11*
X160813512Y-55365000D03*
X160813512Y-52065000D03*
D12*
X153653512Y-92387500D03*
D13*
X148573512Y-92387500D03*
D12*
X143493512Y-92387500D03*
D14*
X151113512Y-97467500D03*
X144763512Y-94927500D03*
D11*
X275113512Y-98227500D03*
X275113512Y-94927500D03*
X246543512Y-55365000D03*
X246543512Y-52065000D03*
D17*
X78406012Y-144457500D03*
D18*
X75866012Y-144457500D03*
D11*
X160813512Y-98227500D03*
X160813512Y-94927500D03*
D13*
X284304762Y-149537500D03*
D12*
X279224762Y-149537500D03*
X289384762Y-149537500D03*
D14*
X286844762Y-154617500D03*
X280494762Y-152077500D03*
D17*
X118887262Y-144457500D03*
D18*
X116347262Y-144457500D03*
D19*
X267143512Y-85483000D03*
X267143512Y-87308000D03*
D11*
X70326012Y-136327500D03*
X70326012Y-133027500D03*
D17*
X130793512Y-87307500D03*
D18*
X128253512Y-87307500D03*
D11*
X208438512Y-79177500D03*
X208438512Y-75877500D03*
D17*
X240331012Y-106357500D03*
D18*
X237791012Y-106357500D03*
D17*
X211756012Y-125407500D03*
D18*
X209216012Y-125407500D03*
D17*
X221281012Y-106357500D03*
D18*
X218741012Y-106357500D03*
D11*
X65563512Y-98227500D03*
X65563512Y-94927500D03*
D12*
X76818512Y-49525000D03*
X86978512Y-49525000D03*
D13*
X81898512Y-49525000D03*
D14*
X84438512Y-54605000D03*
X78088512Y-52065000D03*
D12*
X101266012Y-149537500D03*
X91106012Y-149537500D03*
D13*
X96186012Y-149537500D03*
D14*
X98726012Y-154617500D03*
X92376012Y-152077500D03*
D19*
X48068512Y-42620500D03*
X48068512Y-44445500D03*
D11*
X241776012Y-136327500D03*
X241776012Y-133027500D03*
X46513512Y-79177500D03*
X46513512Y-75877500D03*
D17*
X47449762Y-96832500D03*
D18*
X44909762Y-96832500D03*
D13*
X205723512Y-92387500D03*
D12*
X210803512Y-92387500D03*
X200643512Y-92387500D03*
D14*
X208263512Y-97467500D03*
X201913512Y-94927500D03*
D17*
X264143512Y-87307500D03*
D18*
X261603512Y-87307500D03*
D17*
X135556012Y-125407500D03*
D18*
X133016012Y-125407500D03*
D54*
X281180547Y-37515008D03*
X281180547Y-40815008D03*
D11*
X141763512Y-55365000D03*
X141763512Y-52065000D03*
D19*
X81406012Y-123583000D03*
X81406012Y-125408000D03*
D11*
X75088512Y-79177500D03*
X75088512Y-75877500D03*
X265588512Y-55365000D03*
X265588512Y-52065000D03*
D19*
X114743512Y-85483000D03*
X114743512Y-87308000D03*
X262381012Y-104533000D03*
X262381012Y-106358000D03*
D17*
X149843512Y-44445000D03*
D18*
X147303512Y-44445000D03*
D12*
X53006012Y-149537500D03*
X63166012Y-149537500D03*
D13*
X58086012Y-149537500D03*
D14*
X60626012Y-154617500D03*
X54276012Y-152077500D03*
D19*
X76643512Y-85483000D03*
X76643512Y-87308000D03*
D11*
X51276012Y-136327500D03*
X51276012Y-133027500D03*
D12*
X220328512Y-49525000D03*
X210168512Y-49525000D03*
D13*
X215248512Y-49525000D03*
D14*
X217788512Y-54605000D03*
X211438512Y-52065000D03*
D17*
X168893512Y-87307500D03*
D18*
X166353512Y-87307500D03*
D13*
X158098512Y-73337500D03*
D12*
X153018512Y-73337500D03*
X163178512Y-73337500D03*
D14*
X160638512Y-78417500D03*
X154288512Y-75877500D03*
D11*
X182244762Y-155377500D03*
X182244762Y-152077500D03*
X279876012Y-136327500D03*
X279876012Y-133027500D03*
D13*
X305736012Y-92387500D03*
D12*
X310816012Y-92387500D03*
X300656012Y-92387500D03*
D14*
X308276012Y-97467500D03*
X301926012Y-94927500D03*
D55*
X283504277Y-37415008D03*
X286304277Y-37415008D03*
D11*
X232251012Y-117277500D03*
X232251012Y-113977500D03*
D56*
X274149433Y-39715008D03*
X275109433Y-39715008D03*
D19*
X148081012Y-104533000D03*
X148081012Y-106358000D03*
D17*
X230806012Y-125407500D03*
D18*
X228266012Y-125407500D03*
D19*
X276668512Y-42620500D03*
X276668512Y-44445500D03*
D11*
X277494762Y-155377500D03*
X277494762Y-152077500D03*
D19*
X62356012Y-123583000D03*
X62356012Y-125408000D03*
D17*
X45068512Y-44445000D03*
D18*
X42528512Y-44445000D03*
D11*
X298926012Y-98227500D03*
X298926012Y-94927500D03*
D56*
X203662774Y-144590071D03*
X204622774Y-144590071D03*
D17*
X168893512Y-44445000D03*
D18*
X166353512Y-44445000D03*
D21*
X288448512Y-48456116D03*
X288448512Y-49416116D03*
X296848512Y-61536116D03*
X296848512Y-62496116D03*
D17*
X121268512Y-68257500D03*
D18*
X118728512Y-68257500D03*
D17*
X273668512Y-68257500D03*
D18*
X271128512Y-68257500D03*
D11*
X227488512Y-55365000D03*
X227488512Y-52065000D03*
D22*
X39194762Y-89974500D03*
D13*
X54434762Y-113850500D03*
X54434762Y-89974500D03*
D22*
X39194762Y-113850500D03*
D12*
X51259762Y-101912500D03*
D13*
X46179762Y-101912500D03*
D12*
X41099762Y-101912500D03*
D14*
X48719762Y-106992500D03*
X42369762Y-104452500D03*
D11*
X141763512Y-98227500D03*
X141763512Y-94927500D03*
X137001012Y-117277500D03*
X137001012Y-113977500D03*
M02*
