%FSLAX45Y45*%
G04 Gerber Fmt 4.5, Leading zero omitted, Abs format (unit mm)*
G04 Created by KiCad (PCBNEW (6.0.2)) date 2022-03-04 19:39:15*
%MOMM*%
%LPD*%
G01*
G04 APERTURE LIST*
%TA.AperFunction,Profile*%
%ADD10C,0.200000*%
%TD*%
%ADD11C,0.200000*%
%ADD12C,0.030000*%
%ADD13C,0.040000*%
%ADD14C,0.050000*%
%ADD15C,0.060000*%
%ADD16C,0.076200*%
%ADD17C,0.099060*%
%ADD18C,0.101600*%
%ADD19C,0.152400*%
G04 APERTURE END LIST*
D10*
X2871726Y-3603125D02*
X28544851Y-3603125D01*
X28544851Y-2399800D02*
X28544851Y-3603125D01*
X32399226Y-15985625D02*
X32399226Y-3920625D01*
X28544851Y-2399800D02*
X29744851Y-2399800D01*
X2871726Y-3603125D02*
G75*
G03*
X2554226Y-3920625I0J-317500D01*
G01*
X32081726Y-16303125D02*
G75*
G03*
X32399226Y-15985625I0J317500D01*
G01*
X29744851Y-3603125D02*
X32081726Y-3603125D01*
X32399226Y-3920625D02*
G75*
G03*
X32081726Y-3603125I-317500J0D01*
G01*
X2871726Y-16303125D02*
X32081726Y-16303125D01*
X29744851Y-2399800D02*
X29744851Y-3603125D01*
X2554226Y-15985625D02*
G75*
G03*
X2871726Y-16303125I317500J0D01*
G01*
X2554226Y-3920625D02*
X2554226Y-15985625D01*
D11*
D12*
X3382877Y-4854100D02*
X3412877Y-4884100D01*
X3412877Y-4854100D02*
X3382877Y-4884100D01*
X3771497Y-4394360D02*
X3801497Y-4424360D01*
X3801497Y-4394360D02*
X3771497Y-4424360D01*
X5712057Y-6398420D02*
X5742057Y-6428420D01*
X5742057Y-6398420D02*
X5712057Y-6428420D01*
X8399377Y-6533040D02*
X8429377Y-6563040D01*
X8429377Y-6533040D02*
X8399377Y-6563040D01*
X9209637Y-6515260D02*
X9239637Y-6545260D01*
X9239637Y-6515260D02*
X9209637Y-6545260D01*
X10294217Y-6527960D02*
X10324217Y-6557960D01*
X10324217Y-6527960D02*
X10294217Y-6557960D01*
X14800177Y-7930040D02*
X14830177Y-7960040D01*
X14830177Y-7930040D02*
X14800177Y-7960040D01*
X15508837Y-7935120D02*
X15538837Y-7965120D01*
X15538837Y-7935120D02*
X15508837Y-7965120D01*
X17469717Y-7917340D02*
X17499717Y-7947340D01*
X17499717Y-7917340D02*
X17469717Y-7947340D01*
X18727017Y-7637940D02*
X18757017Y-7667940D01*
X18757017Y-7637940D02*
X18727017Y-7667940D01*
X19278197Y-7932580D02*
X19308197Y-7962580D01*
X19308197Y-7932580D02*
X19278197Y-7962580D01*
X20606617Y-7637940D02*
X20636617Y-7667940D01*
X20636617Y-7637940D02*
X20606617Y-7667940D01*
X21244157Y-7178200D02*
X21274157Y-7208200D01*
X21274157Y-7178200D02*
X21244157Y-7208200D01*
X21394017Y-7648100D02*
X21424017Y-7678100D01*
X21424017Y-7648100D02*
X21394017Y-7678100D01*
X21394017Y-7924960D02*
X21424017Y-7954960D01*
X21424017Y-7924960D02*
X21394017Y-7954960D01*
X22531937Y-7645560D02*
X22561937Y-7675560D01*
X22561937Y-7645560D02*
X22531937Y-7675560D01*
X22643697Y-14147960D02*
X22673697Y-14177960D01*
X22673697Y-14147960D02*
X22643697Y-14177960D01*
X22818957Y-14147960D02*
X22848957Y-14177960D01*
X22848957Y-14147960D02*
X22818957Y-14177960D01*
X23126297Y-7183280D02*
X23156297Y-7213280D01*
X23156297Y-7183280D02*
X23126297Y-7213280D01*
X23128837Y-7917340D02*
X23158837Y-7947340D01*
X23158837Y-7917340D02*
X23128837Y-7947340D01*
X24436937Y-7269640D02*
X24466937Y-7299640D01*
X24466937Y-7269640D02*
X24436937Y-7299640D01*
X24607117Y-7437280D02*
X24637117Y-7467280D01*
X24637117Y-7437280D02*
X24607117Y-7467280D01*
X25061777Y-7957980D02*
X25091777Y-7987980D01*
X25091777Y-7957980D02*
X25061777Y-7987980D01*
X25198937Y-7650640D02*
X25228937Y-7680640D01*
X25228937Y-7650640D02*
X25198937Y-7680640D01*
X25389437Y-6527960D02*
X25419437Y-6557960D01*
X25419437Y-6527960D02*
X25389437Y-6557960D01*
X25412297Y-6141880D02*
X25442297Y-6171880D01*
X25442297Y-6141880D02*
X25412297Y-6171880D01*
X26367337Y-7663340D02*
X26397337Y-7693340D01*
X26397337Y-7663340D02*
X26367337Y-7693340D01*
X26601017Y-7439820D02*
X26631017Y-7469820D01*
X26631017Y-7439820D02*
X26601017Y-7469820D01*
X26908357Y-7922420D02*
X26938357Y-7952420D01*
X26938357Y-7922420D02*
X26908357Y-7952420D01*
X27093777Y-7627780D02*
X27123777Y-7657780D01*
X27123777Y-7627780D02*
X27093777Y-7657780D01*
X27845545Y-6545783D02*
X27875545Y-6575783D01*
X27875545Y-6545783D02*
X27845545Y-6575783D01*
X27914854Y-5023612D02*
X27944854Y-5053612D01*
X27944854Y-5023612D02*
X27914854Y-5053612D01*
X27949851Y-5593612D02*
X27979851Y-5623612D01*
X27979851Y-5593612D02*
X27949851Y-5623612D01*
X28028497Y-7305200D02*
X28058497Y-7335200D01*
X28058497Y-7305200D02*
X28028497Y-7335200D01*
X28102929Y-6119906D02*
X28132929Y-6149906D01*
X28132929Y-6119906D02*
X28102929Y-6149906D01*
X28132637Y-6431440D02*
X28162637Y-6461440D01*
X28162637Y-6431440D02*
X28132637Y-6461440D01*
X28147877Y-6855620D02*
X28177877Y-6885620D01*
X28177877Y-6855620D02*
X28147877Y-6885620D01*
X28150417Y-6680360D02*
X28180417Y-6710360D01*
X28180417Y-6680360D02*
X28150417Y-6710360D01*
X28214854Y-4823612D02*
X28244854Y-4853612D01*
X28244854Y-4823612D02*
X28214854Y-4853612D01*
X28234237Y-7648100D02*
X28264237Y-7678100D01*
X28264237Y-7648100D02*
X28234237Y-7678100D01*
X28289851Y-5378612D02*
X28319851Y-5408612D01*
X28319851Y-5378612D02*
X28289851Y-5408612D01*
X28294854Y-5573612D02*
X28324854Y-5603612D01*
X28324854Y-5573612D02*
X28294854Y-5603612D01*
X28589851Y-5598612D02*
X28619851Y-5628612D01*
X28619851Y-5598612D02*
X28589851Y-5628612D01*
X28597851Y-5978612D02*
X28627851Y-6008612D01*
X28627851Y-5978612D02*
X28597851Y-6008612D01*
X28709217Y-5816760D02*
X28739217Y-5846760D01*
X28739217Y-5816760D02*
X28709217Y-5846760D01*
X28727851Y-6038612D02*
X28757851Y-6068612D01*
X28757851Y-6038612D02*
X28727851Y-6068612D01*
X28749851Y-5143612D02*
X28779851Y-5173612D01*
X28779851Y-5143612D02*
X28749851Y-5173612D01*
X28832851Y-5018612D02*
X28862851Y-5048612D01*
X28862851Y-5018612D02*
X28832851Y-5048612D01*
X28851457Y-7178200D02*
X28881457Y-7208200D01*
X28881457Y-7178200D02*
X28851457Y-7208200D01*
X28894854Y-6623612D02*
X28924854Y-6653612D01*
X28924854Y-6623612D02*
X28894854Y-6653612D01*
X28973377Y-7716680D02*
X29003377Y-7746680D01*
X29003377Y-7716680D02*
X28973377Y-7746680D01*
X28973839Y-4832382D02*
X29003839Y-4862382D01*
X29003839Y-4832382D02*
X28973839Y-4862382D01*
X29010402Y-3324185D02*
X29040402Y-3354185D01*
X29040402Y-3324185D02*
X29010402Y-3354185D01*
X29044901Y-4703612D02*
X29074901Y-4733612D01*
X29074901Y-4703612D02*
X29044901Y-4733612D01*
X29095301Y-3477420D02*
X29125301Y-3507420D01*
X29125301Y-3477420D02*
X29095301Y-3507420D01*
X29226069Y-3725935D02*
X29256069Y-3755935D01*
X29256069Y-3725935D02*
X29226069Y-3755935D01*
X29249301Y-3324185D02*
X29279301Y-3354185D01*
X29279301Y-3324185D02*
X29249301Y-3354185D01*
X29269851Y-6083612D02*
X29299851Y-6113612D01*
X29299851Y-6083612D02*
X29269851Y-6113612D01*
X29354854Y-6643612D02*
X29384854Y-6673612D01*
X29384854Y-6643612D02*
X29354854Y-6673612D01*
X29417877Y-6944520D02*
X29447877Y-6974520D01*
X29447877Y-6944520D02*
X29417877Y-6974520D01*
X29580437Y-5933662D02*
X29610437Y-5963662D01*
X29610437Y-5933662D02*
X29580437Y-5963662D01*
X29656637Y-7744620D02*
X29686637Y-7774620D01*
X29686637Y-7744620D02*
X29656637Y-7774620D01*
X29704851Y-4958612D02*
X29734851Y-4988612D01*
X29734851Y-4958612D02*
X29704851Y-4988612D01*
X29871403Y-5464696D02*
X29901403Y-5494696D01*
X29901403Y-5464696D02*
X29871403Y-5494696D01*
X29919851Y-6138612D02*
X29949851Y-6168612D01*
X29949851Y-6138612D02*
X29919851Y-6168612D01*
X29956101Y-5464612D02*
X29986101Y-5494612D01*
X29986101Y-5464612D02*
X29956101Y-5494612D01*
X29961437Y-7165500D02*
X29991437Y-7195500D01*
X29991437Y-7165500D02*
X29961437Y-7195500D01*
X30082351Y-5423612D02*
X30112351Y-5453612D01*
X30112351Y-5423612D02*
X30082351Y-5453612D01*
X30093517Y-5725320D02*
X30123517Y-5755320D01*
X30123517Y-5725320D02*
X30093517Y-5755320D01*
X30119020Y-6011748D02*
X30149020Y-6041748D01*
X30149020Y-6011748D02*
X30119020Y-6041748D01*
X30229851Y-4378612D02*
X30259851Y-4408612D01*
X30259851Y-4378612D02*
X30229851Y-4408612D01*
X30390697Y-4023520D02*
X30420697Y-4053520D01*
X30420697Y-4023520D02*
X30390697Y-4053520D01*
X30512617Y-5707540D02*
X30542617Y-5737540D01*
X30542617Y-5707540D02*
X30512617Y-5737540D01*
X29059851Y-5293612D02*
G75*
G03*
X29059851Y-5293612I-15000J0D01*
G01*
X29059851Y-5393612D02*
G75*
G03*
X29059851Y-5393612I-15000J0D01*
G01*
X29059851Y-5493612D02*
G75*
G03*
X29059851Y-5493612I-15000J0D01*
G01*
X29059851Y-5593612D02*
G75*
G03*
X29059851Y-5593612I-15000J0D01*
G01*
X29059851Y-5693612D02*
G75*
G03*
X29059851Y-5693612I-15000J0D01*
G01*
X29159851Y-5293612D02*
G75*
G03*
X29159851Y-5293612I-15000J0D01*
G01*
X29159851Y-5393612D02*
G75*
G03*
X29159851Y-5393612I-15000J0D01*
G01*
X29159851Y-5493612D02*
G75*
G03*
X29159851Y-5493612I-15000J0D01*
G01*
X29159851Y-5593612D02*
G75*
G03*
X29159851Y-5593612I-15000J0D01*
G01*
X29159851Y-5693612D02*
G75*
G03*
X29159851Y-5693612I-15000J0D01*
G01*
X29259851Y-5293612D02*
G75*
G03*
X29259851Y-5293612I-15000J0D01*
G01*
X29259851Y-5393612D02*
G75*
G03*
X29259851Y-5393612I-15000J0D01*
G01*
X29259851Y-5493612D02*
G75*
G03*
X29259851Y-5493612I-15000J0D01*
G01*
X29259851Y-5593612D02*
G75*
G03*
X29259851Y-5593612I-15000J0D01*
G01*
X29259851Y-5693612D02*
G75*
G03*
X29259851Y-5693612I-15000J0D01*
G01*
X29359851Y-5293612D02*
G75*
G03*
X29359851Y-5293612I-15000J0D01*
G01*
X29359851Y-5393612D02*
G75*
G03*
X29359851Y-5393612I-15000J0D01*
G01*
X29359851Y-5493612D02*
G75*
G03*
X29359851Y-5493612I-15000J0D01*
G01*
X29359851Y-5593612D02*
G75*
G03*
X29359851Y-5593612I-15000J0D01*
G01*
X29359851Y-5693612D02*
G75*
G03*
X29359851Y-5693612I-15000J0D01*
G01*
X29459851Y-5293612D02*
G75*
G03*
X29459851Y-5293612I-15000J0D01*
G01*
X29459851Y-5393612D02*
G75*
G03*
X29459851Y-5393612I-15000J0D01*
G01*
X29459851Y-5493612D02*
G75*
G03*
X29459851Y-5493612I-15000J0D01*
G01*
X29459851Y-5593612D02*
G75*
G03*
X29459851Y-5593612I-15000J0D01*
G01*
X29459851Y-5693612D02*
G75*
G03*
X29459851Y-5693612I-15000J0D01*
G01*
D13*
X7182085Y-7999511D02*
X7182085Y-8039511D01*
X7162085Y-8019511D02*
X7202085Y-8019511D01*
X7224304Y-6840777D02*
X7224304Y-6880777D01*
X7204304Y-6860777D02*
X7244304Y-6860777D01*
X20828372Y-15303715D02*
X20828372Y-15343715D01*
X20808372Y-15323715D02*
X20848372Y-15323715D01*
X22752888Y-14313250D02*
X22752888Y-14353250D01*
X22732888Y-14333250D02*
X22772888Y-14333250D01*
X24262089Y-6676140D02*
X24262089Y-6716140D01*
X24242089Y-6696140D02*
X24282089Y-6696140D01*
X24519821Y-6673909D02*
X24519821Y-6713909D01*
X24499821Y-6693909D02*
X24539821Y-6693909D01*
X24783419Y-6666847D02*
X24783419Y-6706847D01*
X24763419Y-6686847D02*
X24803419Y-6686847D01*
X25214478Y-6105975D02*
X25214478Y-6145975D01*
X25194478Y-6125975D02*
X25234478Y-6125975D01*
X26032357Y-4069509D02*
X26032357Y-4109509D01*
X26012357Y-4089509D02*
X26052357Y-4089509D01*
X26086139Y-4353478D02*
X26086139Y-4393478D01*
X26066139Y-4373478D02*
X26106139Y-4373478D01*
X28253229Y-4289904D02*
X28253229Y-4329904D01*
X28233229Y-4309904D02*
X28273229Y-4309904D01*
X29119851Y-4268300D02*
X29119851Y-4308300D01*
X29099851Y-4288300D02*
X29139851Y-4288300D01*
X29144851Y-3730492D02*
X29144851Y-3770492D01*
X29124851Y-3750492D02*
X29164851Y-3750492D01*
X29343329Y-4268358D02*
X29343329Y-4308358D01*
X29323329Y-4288358D02*
X29363329Y-4288358D01*
X29470157Y-3971224D02*
X29470157Y-4011224D01*
X29450157Y-3991224D02*
X29490157Y-3991224D01*
X29656741Y-4163177D02*
X29656741Y-4203178D01*
X29636741Y-4183177D02*
X29676741Y-4183177D01*
X30218497Y-4559099D02*
X30218497Y-4599099D01*
X30198497Y-4579099D02*
X30238497Y-4579099D01*
D14*
X22659424Y-14360928D02*
X22659424Y-14325572D01*
X22624069Y-14325572D01*
X22624069Y-14360928D01*
X22659424Y-14360928D01*
X27067532Y-5376290D02*
X27067532Y-5340934D01*
X27032176Y-5340934D01*
X27032176Y-5376290D01*
X27067532Y-5376290D01*
X28662529Y-4911289D02*
X28662529Y-4875934D01*
X28627173Y-4875934D01*
X28627173Y-4911289D01*
X28662529Y-4911289D01*
X28782529Y-3534413D02*
X28782529Y-3499058D01*
X28747173Y-3499058D01*
X28747173Y-3534413D01*
X28782529Y-3534413D01*
X28882529Y-3414413D02*
X28882529Y-3379058D01*
X28847173Y-3379058D01*
X28847173Y-3414413D01*
X28882529Y-3414413D01*
X29442529Y-3414413D02*
X29442529Y-3379058D01*
X29407173Y-3379058D01*
X29407173Y-3414413D01*
X29442529Y-3414413D01*
X29563306Y-3418762D02*
X29563306Y-3383407D01*
X29527950Y-3383407D01*
X29527950Y-3418762D01*
X29563306Y-3418762D01*
D15*
X28714851Y-2696735D02*
X28744851Y-2666735D01*
X28714851Y-2636735D01*
X28684851Y-2666735D01*
X28714851Y-2696735D01*
D11*
X28734851Y-2696735D02*
X28734851Y-2636735D01*
X28694851Y-2696735D02*
X28694851Y-2636735D01*
X28734851Y-2636735D02*
G75*
G03*
X28694851Y-2636735I-20000J0D01*
G01*
X28694851Y-2696735D02*
G75*
G03*
X28734851Y-2696735I20000J0D01*
G01*
D15*
X28714851Y-3116735D02*
X28744851Y-3086735D01*
X28714851Y-3056735D01*
X28684851Y-3086735D01*
X28714851Y-3116735D01*
D11*
X28734851Y-3141735D02*
X28734851Y-3031735D01*
X28694851Y-3141735D02*
X28694851Y-3031735D01*
X28734851Y-3031735D02*
G75*
G03*
X28694851Y-3031735I-20000J0D01*
G01*
X28694851Y-3141735D02*
G75*
G03*
X28734851Y-3141735I20000J0D01*
G01*
D15*
X29574851Y-2696735D02*
X29604851Y-2666735D01*
X29574851Y-2636735D01*
X29544851Y-2666735D01*
X29574851Y-2696735D01*
D11*
X29594851Y-2696735D02*
X29594851Y-2636735D01*
X29554851Y-2696735D02*
X29554851Y-2636735D01*
X29594851Y-2636735D02*
G75*
G03*
X29554851Y-2636735I-20000J0D01*
G01*
X29554851Y-2696735D02*
G75*
G03*
X29594851Y-2696735I20000J0D01*
G01*
D15*
X29574851Y-3116735D02*
X29604851Y-3086735D01*
X29574851Y-3056735D01*
X29544851Y-3086735D01*
X29574851Y-3116735D01*
D11*
X29594851Y-3141735D02*
X29594851Y-3031735D01*
X29554851Y-3141735D02*
X29554851Y-3031735D01*
X29594851Y-3031735D02*
G75*
G03*
X29554851Y-3031735I-20000J0D01*
G01*
X29554851Y-3141735D02*
G75*
G03*
X29594851Y-3141735I20000J0D01*
G01*
D16*
X23853627Y-6042764D02*
X23929827Y-6118964D01*
X23929827Y-6042764D02*
X23853627Y-6118964D01*
X23929827Y-6080864D02*
G75*
G03*
X23929827Y-6080864I-38100J0D01*
G01*
X23853627Y-6296764D02*
X23929827Y-6372964D01*
X23929827Y-6296764D02*
X23853627Y-6372964D01*
X23929827Y-6334864D02*
G75*
G03*
X23929827Y-6334864I-38100J0D01*
G01*
X24107627Y-6055464D02*
X24183827Y-6131664D01*
X24183827Y-6055464D02*
X24107627Y-6131664D01*
X24183827Y-6093564D02*
G75*
G03*
X24183827Y-6093564I-38100J0D01*
G01*
X24107627Y-6309464D02*
X24183827Y-6385664D01*
X24183827Y-6309464D02*
X24107627Y-6385664D01*
X24183827Y-6347564D02*
G75*
G03*
X24183827Y-6347564I-38100J0D01*
G01*
X24361627Y-6042764D02*
X24437827Y-6118964D01*
X24437827Y-6042764D02*
X24361627Y-6118964D01*
X24437827Y-6080864D02*
G75*
G03*
X24437827Y-6080864I-38100J0D01*
G01*
X24361627Y-6296764D02*
X24437827Y-6372964D01*
X24437827Y-6296764D02*
X24361627Y-6372964D01*
X24437827Y-6334864D02*
G75*
G03*
X24437827Y-6334864I-38100J0D01*
G01*
X24615627Y-6055464D02*
X24691827Y-6131664D01*
X24691827Y-6055464D02*
X24615627Y-6131664D01*
X24691827Y-6093564D02*
G75*
G03*
X24691827Y-6093564I-38100J0D01*
G01*
X24615627Y-6309464D02*
X24691827Y-6385664D01*
X24691827Y-6309464D02*
X24615627Y-6385664D01*
X24691827Y-6347564D02*
G75*
G03*
X24691827Y-6347564I-38100J0D01*
G01*
X24869627Y-6042764D02*
X24945827Y-6118964D01*
X24945827Y-6042764D02*
X24869627Y-6118964D01*
X24945827Y-6080864D02*
G75*
G03*
X24945827Y-6080864I-38100J0D01*
G01*
X24869627Y-6296764D02*
X24945827Y-6372964D01*
X24945827Y-6296764D02*
X24869627Y-6372964D01*
X24945827Y-6334864D02*
G75*
G03*
X24945827Y-6334864I-38100J0D01*
G01*
D17*
X3727071Y-14396220D02*
X3826131Y-14495280D01*
X3826131Y-14396220D02*
X3727071Y-14495280D01*
X3776601Y-14396220D02*
X3776601Y-14495280D01*
X3727071Y-14445750D02*
X3826131Y-14445750D01*
X4203321Y-4394970D02*
X4302381Y-4494030D01*
X4302381Y-4394970D02*
X4203321Y-4494030D01*
X4252851Y-4394970D02*
X4252851Y-4494030D01*
X4203321Y-4444500D02*
X4302381Y-4444500D01*
X4441446Y-9633720D02*
X4540506Y-9732780D01*
X4540506Y-9633720D02*
X4441446Y-9732780D01*
X4490976Y-9633720D02*
X4490976Y-9732780D01*
X4441446Y-9683250D02*
X4540506Y-9683250D01*
X5155821Y-6776220D02*
X5254881Y-6875280D01*
X5254881Y-6776220D02*
X5155821Y-6875280D01*
X5205351Y-6776220D02*
X5205351Y-6875280D01*
X5155821Y-6825750D02*
X5254881Y-6825750D01*
X5632071Y-12491220D02*
X5731131Y-12590280D01*
X5731131Y-12491220D02*
X5632071Y-12590280D01*
X5681601Y-12491220D02*
X5681601Y-12590280D01*
X5632071Y-12540750D02*
X5731131Y-12540750D01*
X5632071Y-14396220D02*
X5731131Y-14495280D01*
X5731131Y-14396220D02*
X5632071Y-14495280D01*
X5681601Y-14396220D02*
X5681601Y-14495280D01*
X5632071Y-14445750D02*
X5731131Y-14445750D01*
X6108321Y-4394970D02*
X6207381Y-4494030D01*
X6207381Y-4394970D02*
X6108321Y-4494030D01*
X6157851Y-4394970D02*
X6157851Y-4494030D01*
X6108321Y-4444500D02*
X6207381Y-4444500D01*
X6584571Y-10586220D02*
X6683631Y-10685280D01*
X6683631Y-10586220D02*
X6584571Y-10685280D01*
X6634101Y-10586220D02*
X6634101Y-10685280D01*
X6584571Y-10635750D02*
X6683631Y-10635750D01*
X7060821Y-8681220D02*
X7159881Y-8780280D01*
X7159881Y-8681220D02*
X7060821Y-8780280D01*
X7110351Y-8681220D02*
X7110351Y-8780280D01*
X7060821Y-8730750D02*
X7159881Y-8730750D01*
X7537071Y-12491220D02*
X7636131Y-12590280D01*
X7636131Y-12491220D02*
X7537071Y-12590280D01*
X7586601Y-12491220D02*
X7586601Y-12590280D01*
X7537071Y-12540750D02*
X7636131Y-12540750D01*
X7537071Y-14396220D02*
X7636131Y-14495280D01*
X7636131Y-14396220D02*
X7537071Y-14495280D01*
X7586601Y-14396220D02*
X7586601Y-14495280D01*
X7537071Y-14445750D02*
X7636131Y-14445750D01*
X8013321Y-4394970D02*
X8112381Y-4494030D01*
X8112381Y-4394970D02*
X8013321Y-4494030D01*
X8062851Y-4394970D02*
X8062851Y-4494030D01*
X8013321Y-4444500D02*
X8112381Y-4444500D01*
X8013321Y-6776220D02*
X8112381Y-6875280D01*
X8112381Y-6776220D02*
X8013321Y-6875280D01*
X8062851Y-6776220D02*
X8062851Y-6875280D01*
X8013321Y-6825750D02*
X8112381Y-6825750D01*
X8489571Y-10586220D02*
X8588631Y-10685280D01*
X8588631Y-10586220D02*
X8489571Y-10685280D01*
X8539101Y-10586220D02*
X8539101Y-10685280D01*
X8489571Y-10635750D02*
X8588631Y-10635750D01*
X8965821Y-8681220D02*
X9064881Y-8780280D01*
X9064881Y-8681220D02*
X8965821Y-8780280D01*
X9015351Y-8681220D02*
X9015351Y-8780280D01*
X8965821Y-8730750D02*
X9064881Y-8730750D01*
X9442071Y-12491220D02*
X9541131Y-12590280D01*
X9541131Y-12491220D02*
X9442071Y-12590280D01*
X9491601Y-12491220D02*
X9491601Y-12590280D01*
X9442071Y-12540750D02*
X9541131Y-12540750D01*
X9442071Y-14396220D02*
X9541131Y-14495280D01*
X9541131Y-14396220D02*
X9442071Y-14495280D01*
X9491601Y-14396220D02*
X9491601Y-14495280D01*
X9442071Y-14445750D02*
X9541131Y-14445750D01*
X9918321Y-4394970D02*
X10017381Y-4494030D01*
X10017381Y-4394970D02*
X9918321Y-4494030D01*
X9967851Y-4394970D02*
X9967851Y-4494030D01*
X9918321Y-4444500D02*
X10017381Y-4444500D01*
X9918321Y-6776220D02*
X10017381Y-6875280D01*
X10017381Y-6776220D02*
X9918321Y-6875280D01*
X9967851Y-6776220D02*
X9967851Y-6875280D01*
X9918321Y-6825750D02*
X10017381Y-6825750D01*
X10394571Y-10586220D02*
X10493631Y-10685280D01*
X10493631Y-10586220D02*
X10394571Y-10685280D01*
X10444101Y-10586220D02*
X10444101Y-10685280D01*
X10394571Y-10635750D02*
X10493631Y-10635750D01*
X10870821Y-8681220D02*
X10969881Y-8780280D01*
X10969881Y-8681220D02*
X10870821Y-8780280D01*
X10920351Y-8681220D02*
X10920351Y-8780280D01*
X10870821Y-8730750D02*
X10969881Y-8730750D01*
X11347071Y-12491220D02*
X11446131Y-12590280D01*
X11446131Y-12491220D02*
X11347071Y-12590280D01*
X11396601Y-12491220D02*
X11396601Y-12590280D01*
X11347071Y-12540750D02*
X11446131Y-12540750D01*
X11585196Y-14396220D02*
X11684256Y-14495280D01*
X11684256Y-14396220D02*
X11585196Y-14495280D01*
X11634726Y-14396220D02*
X11634726Y-14495280D01*
X11585196Y-14445750D02*
X11684256Y-14445750D01*
X11823321Y-6776220D02*
X11922381Y-6875280D01*
X11922381Y-6776220D02*
X11823321Y-6875280D01*
X11872851Y-6776220D02*
X11872851Y-6875280D01*
X11823321Y-6825750D02*
X11922381Y-6825750D01*
X12299571Y-10586220D02*
X12398631Y-10685280D01*
X12398631Y-10586220D02*
X12299571Y-10685280D01*
X12349101Y-10586220D02*
X12349101Y-10685280D01*
X12299571Y-10635750D02*
X12398631Y-10635750D01*
X12775821Y-4394970D02*
X12874881Y-4494030D01*
X12874881Y-4394970D02*
X12775821Y-4494030D01*
X12825351Y-4394970D02*
X12825351Y-4494030D01*
X12775821Y-4444500D02*
X12874881Y-4444500D01*
X12775821Y-8681220D02*
X12874881Y-8780280D01*
X12874881Y-8681220D02*
X12775821Y-8780280D01*
X12825351Y-8681220D02*
X12825351Y-8780280D01*
X12775821Y-8730750D02*
X12874881Y-8730750D01*
X13252071Y-12491220D02*
X13351131Y-12590280D01*
X13351131Y-12491220D02*
X13252071Y-12590280D01*
X13301601Y-12491220D02*
X13301601Y-12590280D01*
X13252071Y-12540750D02*
X13351131Y-12540750D01*
X13728321Y-6776220D02*
X13827381Y-6875280D01*
X13827381Y-6776220D02*
X13728321Y-6875280D01*
X13777851Y-6776220D02*
X13777851Y-6875280D01*
X13728321Y-6825750D02*
X13827381Y-6825750D01*
X14204571Y-10586220D02*
X14303631Y-10685280D01*
X14303631Y-10586220D02*
X14204571Y-10685280D01*
X14254101Y-10586220D02*
X14254101Y-10685280D01*
X14204571Y-10635750D02*
X14303631Y-10635750D01*
X14680821Y-4394970D02*
X14779881Y-4494030D01*
X14779881Y-4394970D02*
X14680821Y-4494030D01*
X14730351Y-4394970D02*
X14730351Y-4494030D01*
X14680821Y-4444500D02*
X14779881Y-4444500D01*
X14680821Y-8681220D02*
X14779881Y-8780280D01*
X14779881Y-8681220D02*
X14680821Y-8780280D01*
X14730351Y-8681220D02*
X14730351Y-8780280D01*
X14680821Y-8730750D02*
X14779881Y-8730750D01*
X15157071Y-12491220D02*
X15256131Y-12590280D01*
X15256131Y-12491220D02*
X15157071Y-12590280D01*
X15206601Y-12491220D02*
X15206601Y-12590280D01*
X15157071Y-12540750D02*
X15256131Y-12540750D01*
X15633321Y-6776220D02*
X15732381Y-6875280D01*
X15732381Y-6776220D02*
X15633321Y-6875280D01*
X15682851Y-6776220D02*
X15682851Y-6875280D01*
X15633321Y-6825750D02*
X15732381Y-6825750D01*
X16109571Y-10586220D02*
X16208631Y-10685280D01*
X16208631Y-10586220D02*
X16109571Y-10685280D01*
X16159101Y-10586220D02*
X16159101Y-10685280D01*
X16109571Y-10635750D02*
X16208631Y-10635750D01*
X16585821Y-4394970D02*
X16684881Y-4494030D01*
X16684881Y-4394970D02*
X16585821Y-4494030D01*
X16635351Y-4394970D02*
X16635351Y-4494030D01*
X16585821Y-4444500D02*
X16684881Y-4444500D01*
X16585821Y-8681220D02*
X16684881Y-8780280D01*
X16684881Y-8681220D02*
X16585821Y-8780280D01*
X16635351Y-8681220D02*
X16635351Y-8780280D01*
X16585821Y-8730750D02*
X16684881Y-8730750D01*
X17062071Y-12491220D02*
X17161131Y-12590280D01*
X17161131Y-12491220D02*
X17062071Y-12590280D01*
X17111601Y-12491220D02*
X17111601Y-12590280D01*
X17062071Y-12540750D02*
X17161131Y-12540750D01*
X17538321Y-6776220D02*
X17637381Y-6875280D01*
X17637381Y-6776220D02*
X17538321Y-6875280D01*
X17587851Y-6776220D02*
X17587851Y-6875280D01*
X17538321Y-6825750D02*
X17637381Y-6825750D01*
X18014571Y-10586220D02*
X18113631Y-10685280D01*
X18113631Y-10586220D02*
X18014571Y-10685280D01*
X18064101Y-10586220D02*
X18064101Y-10685280D01*
X18014571Y-10635750D02*
X18113631Y-10635750D01*
X18490821Y-4394970D02*
X18589881Y-4494030D01*
X18589881Y-4394970D02*
X18490821Y-4494030D01*
X18540351Y-4394970D02*
X18540351Y-4494030D01*
X18490821Y-4444500D02*
X18589881Y-4444500D01*
X18490821Y-8681220D02*
X18589881Y-8780280D01*
X18589881Y-8681220D02*
X18490821Y-8780280D01*
X18540351Y-8681220D02*
X18540351Y-8780280D01*
X18490821Y-8730750D02*
X18589881Y-8730750D01*
X18728946Y-14396220D02*
X18828006Y-14495280D01*
X18828006Y-14396220D02*
X18728946Y-14495280D01*
X18778476Y-14396220D02*
X18778476Y-14495280D01*
X18728946Y-14445750D02*
X18828006Y-14445750D01*
X18967071Y-12491220D02*
X19066131Y-12590280D01*
X19066131Y-12491220D02*
X18967071Y-12590280D01*
X19016601Y-12491220D02*
X19016601Y-12590280D01*
X18967071Y-12540750D02*
X19066131Y-12540750D01*
X19443321Y-6776220D02*
X19542381Y-6875280D01*
X19542381Y-6776220D02*
X19443321Y-6875280D01*
X19492851Y-6776220D02*
X19492851Y-6875280D01*
X19443321Y-6825750D02*
X19542381Y-6825750D01*
X19919571Y-4902970D02*
X20018631Y-5002030D01*
X20018631Y-4902970D02*
X19919571Y-5002030D01*
X19969101Y-4902970D02*
X19969101Y-5002030D01*
X19919571Y-4952500D02*
X20018631Y-4952500D01*
X19919571Y-10586220D02*
X20018631Y-10685280D01*
X20018631Y-10586220D02*
X19919571Y-10685280D01*
X19969101Y-10586220D02*
X19969101Y-10685280D01*
X19919571Y-10635750D02*
X20018631Y-10635750D01*
X20395821Y-8681220D02*
X20494881Y-8780280D01*
X20494881Y-8681220D02*
X20395821Y-8780280D01*
X20445351Y-8681220D02*
X20445351Y-8780280D01*
X20395821Y-8730750D02*
X20494881Y-8730750D01*
X20872071Y-12491220D02*
X20971131Y-12590280D01*
X20971131Y-12491220D02*
X20872071Y-12590280D01*
X20921601Y-12491220D02*
X20921601Y-12590280D01*
X20872071Y-12540750D02*
X20971131Y-12540750D01*
X21348321Y-4394970D02*
X21447381Y-4494030D01*
X21447381Y-4394970D02*
X21348321Y-4494030D01*
X21397851Y-4394970D02*
X21397851Y-4494030D01*
X21348321Y-4444500D02*
X21447381Y-4444500D01*
X21348321Y-6776220D02*
X21447381Y-6875280D01*
X21447381Y-6776220D02*
X21348321Y-6875280D01*
X21397851Y-6776220D02*
X21397851Y-6875280D01*
X21348321Y-6825750D02*
X21447381Y-6825750D01*
X21824571Y-10586220D02*
X21923631Y-10685280D01*
X21923631Y-10586220D02*
X21824571Y-10685280D01*
X21874101Y-10586220D02*
X21874101Y-10685280D01*
X21824571Y-10635750D02*
X21923631Y-10635750D01*
X22300821Y-8681220D02*
X22399881Y-8780280D01*
X22399881Y-8681220D02*
X22300821Y-8780280D01*
X22350351Y-8681220D02*
X22350351Y-8780280D01*
X22300821Y-8730750D02*
X22399881Y-8730750D01*
X22777071Y-12491220D02*
X22876131Y-12590280D01*
X22876131Y-12491220D02*
X22777071Y-12590280D01*
X22826601Y-12491220D02*
X22826601Y-12590280D01*
X22777071Y-12540750D02*
X22876131Y-12540750D01*
X23253321Y-4394970D02*
X23352381Y-4494030D01*
X23352381Y-4394970D02*
X23253321Y-4494030D01*
X23302851Y-4394970D02*
X23302851Y-4494030D01*
X23253321Y-4444500D02*
X23352381Y-4444500D01*
X23253321Y-6776220D02*
X23352381Y-6875280D01*
X23352381Y-6776220D02*
X23253321Y-6875280D01*
X23302851Y-6776220D02*
X23302851Y-6875280D01*
X23253321Y-6825750D02*
X23352381Y-6825750D01*
X23729571Y-10586220D02*
X23828631Y-10685280D01*
X23828631Y-10586220D02*
X23729571Y-10685280D01*
X23779101Y-10586220D02*
X23779101Y-10685280D01*
X23729571Y-10635750D02*
X23828631Y-10635750D01*
X24205821Y-8681220D02*
X24304881Y-8780280D01*
X24304881Y-8681220D02*
X24205821Y-8780280D01*
X24255351Y-8681220D02*
X24255351Y-8780280D01*
X24205821Y-8730750D02*
X24304881Y-8730750D01*
X24682071Y-12491220D02*
X24781131Y-12590280D01*
X24781131Y-12491220D02*
X24682071Y-12590280D01*
X24731601Y-12491220D02*
X24731601Y-12590280D01*
X24682071Y-12540750D02*
X24781131Y-12540750D01*
X25158321Y-6776220D02*
X25257381Y-6875280D01*
X25257381Y-6776220D02*
X25158321Y-6875280D01*
X25207851Y-6776220D02*
X25207851Y-6875280D01*
X25158321Y-6825750D02*
X25257381Y-6825750D01*
X25158821Y-4394970D02*
X25257881Y-4494030D01*
X25257881Y-4394970D02*
X25158821Y-4494030D01*
X25208351Y-4394970D02*
X25208351Y-4494030D01*
X25158821Y-4444500D02*
X25257881Y-4444500D01*
X25634571Y-10586220D02*
X25733631Y-10685280D01*
X25733631Y-10586220D02*
X25634571Y-10685280D01*
X25684101Y-10586220D02*
X25684101Y-10685280D01*
X25634571Y-10635750D02*
X25733631Y-10635750D01*
X25872696Y-14396220D02*
X25971756Y-14495280D01*
X25971756Y-14396220D02*
X25872696Y-14495280D01*
X25922226Y-14396220D02*
X25922226Y-14495280D01*
X25872696Y-14445750D02*
X25971756Y-14445750D01*
X26110821Y-8681220D02*
X26209881Y-8780280D01*
X26209881Y-8681220D02*
X26110821Y-8780280D01*
X26160351Y-8681220D02*
X26160351Y-8780280D01*
X26110821Y-8730750D02*
X26209881Y-8730750D01*
X26587071Y-12491220D02*
X26686131Y-12590280D01*
X26686131Y-12491220D02*
X26587071Y-12590280D01*
X26636601Y-12491220D02*
X26636601Y-12590280D01*
X26587071Y-12540750D02*
X26686131Y-12540750D01*
X27063321Y-4394970D02*
X27162381Y-4494030D01*
X27162381Y-4394970D02*
X27063321Y-4494030D01*
X27112851Y-4394970D02*
X27112851Y-4494030D01*
X27063321Y-4444500D02*
X27162381Y-4444500D01*
X27063321Y-6776220D02*
X27162381Y-6875280D01*
X27162381Y-6776220D02*
X27063321Y-6875280D01*
X27112851Y-6776220D02*
X27112851Y-6875280D01*
X27063321Y-6825750D02*
X27162381Y-6825750D01*
X27539571Y-10586220D02*
X27638631Y-10685280D01*
X27638631Y-10586220D02*
X27539571Y-10685280D01*
X27589101Y-10586220D02*
X27589101Y-10685280D01*
X27539571Y-10635750D02*
X27638631Y-10635750D01*
X28015821Y-8681220D02*
X28114881Y-8780280D01*
X28114881Y-8681220D02*
X28015821Y-8780280D01*
X28065351Y-8681220D02*
X28065351Y-8780280D01*
X28015821Y-8730750D02*
X28114881Y-8730750D01*
X28253946Y-14396220D02*
X28353006Y-14495280D01*
X28353006Y-14396220D02*
X28253946Y-14495280D01*
X28303476Y-14396220D02*
X28303476Y-14495280D01*
X28253946Y-14445750D02*
X28353006Y-14445750D01*
X28492071Y-12491220D02*
X28591131Y-12590280D01*
X28591131Y-12491220D02*
X28492071Y-12590280D01*
X28541601Y-12491220D02*
X28541601Y-12590280D01*
X28492071Y-12540750D02*
X28591131Y-12540750D01*
X28968321Y-6776220D02*
X29067381Y-6875280D01*
X29067381Y-6776220D02*
X28968321Y-6875280D01*
X29017851Y-6776220D02*
X29017851Y-6875280D01*
X28968321Y-6825750D02*
X29067381Y-6825750D01*
X30158946Y-10586220D02*
X30258006Y-10685280D01*
X30258006Y-10586220D02*
X30158946Y-10685280D01*
X30208476Y-10586220D02*
X30208476Y-10685280D01*
X30158946Y-10635750D02*
X30258006Y-10635750D01*
X30397071Y-8681220D02*
X30496131Y-8780280D01*
X30496131Y-8681220D02*
X30397071Y-8780280D01*
X30446601Y-8681220D02*
X30446601Y-8780280D01*
X30397071Y-8730750D02*
X30496131Y-8730750D01*
X30635196Y-12491220D02*
X30734256Y-12590280D01*
X30734256Y-12491220D02*
X30635196Y-12590280D01*
X30684726Y-12491220D02*
X30684726Y-12590280D01*
X30635196Y-12540750D02*
X30734256Y-12540750D01*
X30635196Y-14396220D02*
X30734256Y-14495280D01*
X30734256Y-14396220D02*
X30635196Y-14495280D01*
X30684726Y-14396220D02*
X30684726Y-14495280D01*
X30635196Y-14445750D02*
X30734256Y-14445750D01*
X30873303Y-4395014D02*
X30972363Y-4494074D01*
X30972363Y-4395014D02*
X30873303Y-4494074D01*
X30922833Y-4395014D02*
X30922833Y-4494074D01*
X30873303Y-4444544D02*
X30972363Y-4444544D01*
X30873321Y-6776220D02*
X30972381Y-6875280D01*
X30972381Y-6776220D02*
X30873321Y-6875280D01*
X30922851Y-6776220D02*
X30922851Y-6875280D01*
X30873321Y-6825750D02*
X30972381Y-6825750D01*
D18*
X3979801Y-14394950D02*
X4081401Y-14496550D01*
X4081401Y-14394950D02*
X3979801Y-14496550D01*
X4066523Y-14481671D02*
X4066523Y-14409829D01*
X3994680Y-14409829D01*
X3994680Y-14481671D01*
X4066523Y-14481671D01*
X4456051Y-4393700D02*
X4557651Y-4495300D01*
X4557651Y-4393700D02*
X4456051Y-4495300D01*
X4542773Y-4480421D02*
X4542773Y-4408579D01*
X4470930Y-4408579D01*
X4470930Y-4480421D01*
X4542773Y-4480421D01*
X4694176Y-9632450D02*
X4795776Y-9734050D01*
X4795776Y-9632450D02*
X4694176Y-9734050D01*
X4780898Y-9719171D02*
X4780898Y-9647329D01*
X4709055Y-9647329D01*
X4709055Y-9719171D01*
X4780898Y-9719171D01*
X5408551Y-6774950D02*
X5510151Y-6876550D01*
X5510151Y-6774950D02*
X5408551Y-6876550D01*
X5495273Y-6861671D02*
X5495273Y-6789829D01*
X5423430Y-6789829D01*
X5423430Y-6861671D01*
X5495273Y-6861671D01*
X5884801Y-12489950D02*
X5986401Y-12591550D01*
X5986401Y-12489950D02*
X5884801Y-12591550D01*
X5971523Y-12576671D02*
X5971523Y-12504829D01*
X5899680Y-12504829D01*
X5899680Y-12576671D01*
X5971523Y-12576671D01*
X5884801Y-14394950D02*
X5986401Y-14496550D01*
X5986401Y-14394950D02*
X5884801Y-14496550D01*
X5971523Y-14481671D02*
X5971523Y-14409829D01*
X5899680Y-14409829D01*
X5899680Y-14481671D01*
X5971523Y-14481671D01*
X6361051Y-4393700D02*
X6462651Y-4495300D01*
X6462651Y-4393700D02*
X6361051Y-4495300D01*
X6447773Y-4480421D02*
X6447773Y-4408579D01*
X6375930Y-4408579D01*
X6375930Y-4480421D01*
X6447773Y-4480421D01*
X6837301Y-10584950D02*
X6938901Y-10686550D01*
X6938901Y-10584950D02*
X6837301Y-10686550D01*
X6924023Y-10671671D02*
X6924023Y-10599829D01*
X6852180Y-10599829D01*
X6852180Y-10671671D01*
X6924023Y-10671671D01*
X7313551Y-8679950D02*
X7415151Y-8781550D01*
X7415151Y-8679950D02*
X7313551Y-8781550D01*
X7400273Y-8766671D02*
X7400273Y-8694829D01*
X7328430Y-8694829D01*
X7328430Y-8766671D01*
X7400273Y-8766671D01*
X7789801Y-12489950D02*
X7891401Y-12591550D01*
X7891401Y-12489950D02*
X7789801Y-12591550D01*
X7876523Y-12576671D02*
X7876523Y-12504829D01*
X7804680Y-12504829D01*
X7804680Y-12576671D01*
X7876523Y-12576671D01*
X7789801Y-14394950D02*
X7891401Y-14496550D01*
X7891401Y-14394950D02*
X7789801Y-14496550D01*
X7876523Y-14481671D02*
X7876523Y-14409829D01*
X7804680Y-14409829D01*
X7804680Y-14481671D01*
X7876523Y-14481671D01*
X8266051Y-4393700D02*
X8367651Y-4495300D01*
X8367651Y-4393700D02*
X8266051Y-4495300D01*
X8352773Y-4480421D02*
X8352773Y-4408579D01*
X8280930Y-4408579D01*
X8280930Y-4480421D01*
X8352773Y-4480421D01*
X8266051Y-6774950D02*
X8367651Y-6876550D01*
X8367651Y-6774950D02*
X8266051Y-6876550D01*
X8352773Y-6861671D02*
X8352773Y-6789829D01*
X8280930Y-6789829D01*
X8280930Y-6861671D01*
X8352773Y-6861671D01*
X8742301Y-10584950D02*
X8843901Y-10686550D01*
X8843901Y-10584950D02*
X8742301Y-10686550D01*
X8829023Y-10671671D02*
X8829023Y-10599829D01*
X8757180Y-10599829D01*
X8757180Y-10671671D01*
X8829023Y-10671671D01*
X9218551Y-8679950D02*
X9320151Y-8781550D01*
X9320151Y-8679950D02*
X9218551Y-8781550D01*
X9305273Y-8766671D02*
X9305273Y-8694829D01*
X9233430Y-8694829D01*
X9233430Y-8766671D01*
X9305273Y-8766671D01*
X9694801Y-12489950D02*
X9796401Y-12591550D01*
X9796401Y-12489950D02*
X9694801Y-12591550D01*
X9781523Y-12576671D02*
X9781523Y-12504829D01*
X9709680Y-12504829D01*
X9709680Y-12576671D01*
X9781523Y-12576671D01*
X9694801Y-14394950D02*
X9796401Y-14496550D01*
X9796401Y-14394950D02*
X9694801Y-14496550D01*
X9781523Y-14481671D02*
X9781523Y-14409829D01*
X9709680Y-14409829D01*
X9709680Y-14481671D01*
X9781523Y-14481671D01*
X10171051Y-4393700D02*
X10272651Y-4495300D01*
X10272651Y-4393700D02*
X10171051Y-4495300D01*
X10257773Y-4480421D02*
X10257773Y-4408579D01*
X10185930Y-4408579D01*
X10185930Y-4480421D01*
X10257773Y-4480421D01*
X10171051Y-6774950D02*
X10272651Y-6876550D01*
X10272651Y-6774950D02*
X10171051Y-6876550D01*
X10257773Y-6861671D02*
X10257773Y-6789829D01*
X10185930Y-6789829D01*
X10185930Y-6861671D01*
X10257773Y-6861671D01*
X10647301Y-10584950D02*
X10748901Y-10686550D01*
X10748901Y-10584950D02*
X10647301Y-10686550D01*
X10734023Y-10671671D02*
X10734023Y-10599829D01*
X10662180Y-10599829D01*
X10662180Y-10671671D01*
X10734023Y-10671671D01*
X11123551Y-8679950D02*
X11225151Y-8781550D01*
X11225151Y-8679950D02*
X11123551Y-8781550D01*
X11210273Y-8766671D02*
X11210273Y-8694829D01*
X11138430Y-8694829D01*
X11138430Y-8766671D01*
X11210273Y-8766671D01*
X11599801Y-12489950D02*
X11701401Y-12591550D01*
X11701401Y-12489950D02*
X11599801Y-12591550D01*
X11686523Y-12576671D02*
X11686523Y-12504829D01*
X11614680Y-12504829D01*
X11614680Y-12576671D01*
X11686523Y-12576671D01*
X11837926Y-14394950D02*
X11939526Y-14496550D01*
X11939526Y-14394950D02*
X11837926Y-14496550D01*
X11924648Y-14481671D02*
X11924648Y-14409829D01*
X11852805Y-14409829D01*
X11852805Y-14481671D01*
X11924648Y-14481671D01*
X12076051Y-6774950D02*
X12177651Y-6876550D01*
X12177651Y-6774950D02*
X12076051Y-6876550D01*
X12162773Y-6861671D02*
X12162773Y-6789829D01*
X12090930Y-6789829D01*
X12090930Y-6861671D01*
X12162773Y-6861671D01*
X12552301Y-10584950D02*
X12653901Y-10686550D01*
X12653901Y-10584950D02*
X12552301Y-10686550D01*
X12639023Y-10671671D02*
X12639023Y-10599829D01*
X12567180Y-10599829D01*
X12567180Y-10671671D01*
X12639023Y-10671671D01*
X13028551Y-4393700D02*
X13130151Y-4495300D01*
X13130151Y-4393700D02*
X13028551Y-4495300D01*
X13115273Y-4480421D02*
X13115273Y-4408579D01*
X13043430Y-4408579D01*
X13043430Y-4480421D01*
X13115273Y-4480421D01*
X13028551Y-8679950D02*
X13130151Y-8781550D01*
X13130151Y-8679950D02*
X13028551Y-8781550D01*
X13115273Y-8766671D02*
X13115273Y-8694829D01*
X13043430Y-8694829D01*
X13043430Y-8766671D01*
X13115273Y-8766671D01*
X13504801Y-12489950D02*
X13606401Y-12591550D01*
X13606401Y-12489950D02*
X13504801Y-12591550D01*
X13591523Y-12576671D02*
X13591523Y-12504829D01*
X13519680Y-12504829D01*
X13519680Y-12576671D01*
X13591523Y-12576671D01*
X13981051Y-6774950D02*
X14082651Y-6876550D01*
X14082651Y-6774950D02*
X13981051Y-6876550D01*
X14067773Y-6861671D02*
X14067773Y-6789829D01*
X13995930Y-6789829D01*
X13995930Y-6861671D01*
X14067773Y-6861671D01*
X14457301Y-10584950D02*
X14558901Y-10686550D01*
X14558901Y-10584950D02*
X14457301Y-10686550D01*
X14544023Y-10671671D02*
X14544023Y-10599829D01*
X14472180Y-10599829D01*
X14472180Y-10671671D01*
X14544023Y-10671671D01*
X14933551Y-4393700D02*
X15035151Y-4495300D01*
X15035151Y-4393700D02*
X14933551Y-4495300D01*
X15020273Y-4480421D02*
X15020273Y-4408579D01*
X14948430Y-4408579D01*
X14948430Y-4480421D01*
X15020273Y-4480421D01*
X14933551Y-8679950D02*
X15035151Y-8781550D01*
X15035151Y-8679950D02*
X14933551Y-8781550D01*
X15020273Y-8766671D02*
X15020273Y-8694829D01*
X14948430Y-8694829D01*
X14948430Y-8766671D01*
X15020273Y-8766671D01*
X15409801Y-12489950D02*
X15511401Y-12591550D01*
X15511401Y-12489950D02*
X15409801Y-12591550D01*
X15496523Y-12576671D02*
X15496523Y-12504829D01*
X15424680Y-12504829D01*
X15424680Y-12576671D01*
X15496523Y-12576671D01*
X15886051Y-6774950D02*
X15987651Y-6876550D01*
X15987651Y-6774950D02*
X15886051Y-6876550D01*
X15972773Y-6861671D02*
X15972773Y-6789829D01*
X15900930Y-6789829D01*
X15900930Y-6861671D01*
X15972773Y-6861671D01*
X16362301Y-10584950D02*
X16463901Y-10686550D01*
X16463901Y-10584950D02*
X16362301Y-10686550D01*
X16449023Y-10671671D02*
X16449023Y-10599829D01*
X16377180Y-10599829D01*
X16377180Y-10671671D01*
X16449023Y-10671671D01*
X16838551Y-4393700D02*
X16940151Y-4495300D01*
X16940151Y-4393700D02*
X16838551Y-4495300D01*
X16925273Y-4480421D02*
X16925273Y-4408579D01*
X16853430Y-4408579D01*
X16853430Y-4480421D01*
X16925273Y-4480421D01*
X16838551Y-8679950D02*
X16940151Y-8781550D01*
X16940151Y-8679950D02*
X16838551Y-8781550D01*
X16925273Y-8766671D02*
X16925273Y-8694829D01*
X16853430Y-8694829D01*
X16853430Y-8766671D01*
X16925273Y-8766671D01*
X17314801Y-12489950D02*
X17416401Y-12591550D01*
X17416401Y-12489950D02*
X17314801Y-12591550D01*
X17401523Y-12576671D02*
X17401523Y-12504829D01*
X17329680Y-12504829D01*
X17329680Y-12576671D01*
X17401523Y-12576671D01*
X17791051Y-6774950D02*
X17892651Y-6876550D01*
X17892651Y-6774950D02*
X17791051Y-6876550D01*
X17877773Y-6861671D02*
X17877773Y-6789829D01*
X17805930Y-6789829D01*
X17805930Y-6861671D01*
X17877773Y-6861671D01*
X18267301Y-10584950D02*
X18368901Y-10686550D01*
X18368901Y-10584950D02*
X18267301Y-10686550D01*
X18354023Y-10671671D02*
X18354023Y-10599829D01*
X18282180Y-10599829D01*
X18282180Y-10671671D01*
X18354023Y-10671671D01*
X18743551Y-4393700D02*
X18845151Y-4495300D01*
X18845151Y-4393700D02*
X18743551Y-4495300D01*
X18830273Y-4480421D02*
X18830273Y-4408579D01*
X18758430Y-4408579D01*
X18758430Y-4480421D01*
X18830273Y-4480421D01*
X18743551Y-8679950D02*
X18845151Y-8781550D01*
X18845151Y-8679950D02*
X18743551Y-8781550D01*
X18830273Y-8766671D02*
X18830273Y-8694829D01*
X18758430Y-8694829D01*
X18758430Y-8766671D01*
X18830273Y-8766671D01*
X18981676Y-14394950D02*
X19083276Y-14496550D01*
X19083276Y-14394950D02*
X18981676Y-14496550D01*
X19068398Y-14481671D02*
X19068398Y-14409829D01*
X18996555Y-14409829D01*
X18996555Y-14481671D01*
X19068398Y-14481671D01*
X19219801Y-12489950D02*
X19321401Y-12591550D01*
X19321401Y-12489950D02*
X19219801Y-12591550D01*
X19306523Y-12576671D02*
X19306523Y-12504829D01*
X19234680Y-12504829D01*
X19234680Y-12576671D01*
X19306523Y-12576671D01*
X19696051Y-6774950D02*
X19797651Y-6876550D01*
X19797651Y-6774950D02*
X19696051Y-6876550D01*
X19782773Y-6861671D02*
X19782773Y-6789829D01*
X19710930Y-6789829D01*
X19710930Y-6861671D01*
X19782773Y-6861671D01*
X20172301Y-4901700D02*
X20273901Y-5003300D01*
X20273901Y-4901700D02*
X20172301Y-5003300D01*
X20259023Y-4988421D02*
X20259023Y-4916579D01*
X20187180Y-4916579D01*
X20187180Y-4988421D01*
X20259023Y-4988421D01*
X20172301Y-10584950D02*
X20273901Y-10686550D01*
X20273901Y-10584950D02*
X20172301Y-10686550D01*
X20259023Y-10671671D02*
X20259023Y-10599829D01*
X20187180Y-10599829D01*
X20187180Y-10671671D01*
X20259023Y-10671671D01*
X20648551Y-8679950D02*
X20750151Y-8781550D01*
X20750151Y-8679950D02*
X20648551Y-8781550D01*
X20735273Y-8766671D02*
X20735273Y-8694829D01*
X20663430Y-8694829D01*
X20663430Y-8766671D01*
X20735273Y-8766671D01*
X21124801Y-12489950D02*
X21226401Y-12591550D01*
X21226401Y-12489950D02*
X21124801Y-12591550D01*
X21211523Y-12576671D02*
X21211523Y-12504829D01*
X21139680Y-12504829D01*
X21139680Y-12576671D01*
X21211523Y-12576671D01*
X21601051Y-4393700D02*
X21702651Y-4495300D01*
X21702651Y-4393700D02*
X21601051Y-4495300D01*
X21687773Y-4480421D02*
X21687773Y-4408579D01*
X21615930Y-4408579D01*
X21615930Y-4480421D01*
X21687773Y-4480421D01*
X21601051Y-6774950D02*
X21702651Y-6876550D01*
X21702651Y-6774950D02*
X21601051Y-6876550D01*
X21687773Y-6861671D02*
X21687773Y-6789829D01*
X21615930Y-6789829D01*
X21615930Y-6861671D01*
X21687773Y-6861671D01*
X22077301Y-10584950D02*
X22178901Y-10686550D01*
X22178901Y-10584950D02*
X22077301Y-10686550D01*
X22164023Y-10671671D02*
X22164023Y-10599829D01*
X22092180Y-10599829D01*
X22092180Y-10671671D01*
X22164023Y-10671671D01*
X22553551Y-8679950D02*
X22655151Y-8781550D01*
X22655151Y-8679950D02*
X22553551Y-8781550D01*
X22640273Y-8766671D02*
X22640273Y-8694829D01*
X22568430Y-8694829D01*
X22568430Y-8766671D01*
X22640273Y-8766671D01*
X23029801Y-12489950D02*
X23131401Y-12591550D01*
X23131401Y-12489950D02*
X23029801Y-12591550D01*
X23116523Y-12576671D02*
X23116523Y-12504829D01*
X23044680Y-12504829D01*
X23044680Y-12576671D01*
X23116523Y-12576671D01*
X23506051Y-4393700D02*
X23607651Y-4495300D01*
X23607651Y-4393700D02*
X23506051Y-4495300D01*
X23592773Y-4480421D02*
X23592773Y-4408579D01*
X23520930Y-4408579D01*
X23520930Y-4480421D01*
X23592773Y-4480421D01*
X23506051Y-6774950D02*
X23607651Y-6876550D01*
X23607651Y-6774950D02*
X23506051Y-6876550D01*
X23592773Y-6861671D02*
X23592773Y-6789829D01*
X23520930Y-6789829D01*
X23520930Y-6861671D01*
X23592773Y-6861671D01*
X23982301Y-10584950D02*
X24083901Y-10686550D01*
X24083901Y-10584950D02*
X23982301Y-10686550D01*
X24069023Y-10671671D02*
X24069023Y-10599829D01*
X23997180Y-10599829D01*
X23997180Y-10671671D01*
X24069023Y-10671671D01*
X24458551Y-8679950D02*
X24560151Y-8781550D01*
X24560151Y-8679950D02*
X24458551Y-8781550D01*
X24545273Y-8766671D02*
X24545273Y-8694829D01*
X24473430Y-8694829D01*
X24473430Y-8766671D01*
X24545273Y-8766671D01*
X24934801Y-12489950D02*
X25036401Y-12591550D01*
X25036401Y-12489950D02*
X24934801Y-12591550D01*
X25021523Y-12576671D02*
X25021523Y-12504829D01*
X24949680Y-12504829D01*
X24949680Y-12576671D01*
X25021523Y-12576671D01*
X25411051Y-6774950D02*
X25512651Y-6876550D01*
X25512651Y-6774950D02*
X25411051Y-6876550D01*
X25497773Y-6861671D02*
X25497773Y-6789829D01*
X25425930Y-6789829D01*
X25425930Y-6861671D01*
X25497773Y-6861671D01*
X25411551Y-4393700D02*
X25513151Y-4495300D01*
X25513151Y-4393700D02*
X25411551Y-4495300D01*
X25498273Y-4480421D02*
X25498273Y-4408579D01*
X25426430Y-4408579D01*
X25426430Y-4480421D01*
X25498273Y-4480421D01*
X25887301Y-10584950D02*
X25988901Y-10686550D01*
X25988901Y-10584950D02*
X25887301Y-10686550D01*
X25974023Y-10671671D02*
X25974023Y-10599829D01*
X25902180Y-10599829D01*
X25902180Y-10671671D01*
X25974023Y-10671671D01*
X26125426Y-14394950D02*
X26227026Y-14496550D01*
X26227026Y-14394950D02*
X26125426Y-14496550D01*
X26212148Y-14481671D02*
X26212148Y-14409829D01*
X26140305Y-14409829D01*
X26140305Y-14481671D01*
X26212148Y-14481671D01*
X26363551Y-8679950D02*
X26465151Y-8781550D01*
X26465151Y-8679950D02*
X26363551Y-8781550D01*
X26450273Y-8766671D02*
X26450273Y-8694829D01*
X26378430Y-8694829D01*
X26378430Y-8766671D01*
X26450273Y-8766671D01*
X26839801Y-12489950D02*
X26941401Y-12591550D01*
X26941401Y-12489950D02*
X26839801Y-12591550D01*
X26926523Y-12576671D02*
X26926523Y-12504829D01*
X26854680Y-12504829D01*
X26854680Y-12576671D01*
X26926523Y-12576671D01*
X27316051Y-4393700D02*
X27417651Y-4495300D01*
X27417651Y-4393700D02*
X27316051Y-4495300D01*
X27402773Y-4480421D02*
X27402773Y-4408579D01*
X27330930Y-4408579D01*
X27330930Y-4480421D01*
X27402773Y-4480421D01*
X27316051Y-6774950D02*
X27417651Y-6876550D01*
X27417651Y-6774950D02*
X27316051Y-6876550D01*
X27402773Y-6861671D02*
X27402773Y-6789829D01*
X27330930Y-6789829D01*
X27330930Y-6861671D01*
X27402773Y-6861671D01*
X27792301Y-10584950D02*
X27893901Y-10686550D01*
X27893901Y-10584950D02*
X27792301Y-10686550D01*
X27879023Y-10671671D02*
X27879023Y-10599829D01*
X27807180Y-10599829D01*
X27807180Y-10671671D01*
X27879023Y-10671671D01*
X28268551Y-8679950D02*
X28370151Y-8781550D01*
X28370151Y-8679950D02*
X28268551Y-8781550D01*
X28355273Y-8766671D02*
X28355273Y-8694829D01*
X28283430Y-8694829D01*
X28283430Y-8766671D01*
X28355273Y-8766671D01*
X28506676Y-14394950D02*
X28608276Y-14496550D01*
X28608276Y-14394950D02*
X28506676Y-14496550D01*
X28593398Y-14481671D02*
X28593398Y-14409829D01*
X28521555Y-14409829D01*
X28521555Y-14481671D01*
X28593398Y-14481671D01*
X28744801Y-12489950D02*
X28846401Y-12591550D01*
X28846401Y-12489950D02*
X28744801Y-12591550D01*
X28831523Y-12576671D02*
X28831523Y-12504829D01*
X28759680Y-12504829D01*
X28759680Y-12576671D01*
X28831523Y-12576671D01*
X29221051Y-6774950D02*
X29322651Y-6876550D01*
X29322651Y-6774950D02*
X29221051Y-6876550D01*
X29307773Y-6861671D02*
X29307773Y-6789829D01*
X29235930Y-6789829D01*
X29235930Y-6861671D01*
X29307773Y-6861671D01*
X30411676Y-10584950D02*
X30513276Y-10686550D01*
X30513276Y-10584950D02*
X30411676Y-10686550D01*
X30498398Y-10671671D02*
X30498398Y-10599829D01*
X30426555Y-10599829D01*
X30426555Y-10671671D01*
X30498398Y-10671671D01*
X30649801Y-8679950D02*
X30751401Y-8781550D01*
X30751401Y-8679950D02*
X30649801Y-8781550D01*
X30736523Y-8766671D02*
X30736523Y-8694829D01*
X30664680Y-8694829D01*
X30664680Y-8766671D01*
X30736523Y-8766671D01*
X30887926Y-12489950D02*
X30989526Y-12591550D01*
X30989526Y-12489950D02*
X30887926Y-12591550D01*
X30974648Y-12576671D02*
X30974648Y-12504829D01*
X30902805Y-12504829D01*
X30902805Y-12576671D01*
X30974648Y-12576671D01*
X30887926Y-14394950D02*
X30989526Y-14496550D01*
X30989526Y-14394950D02*
X30887926Y-14496550D01*
X30974648Y-14481671D02*
X30974648Y-14409829D01*
X30902805Y-14409829D01*
X30902805Y-14481671D01*
X30974648Y-14481671D01*
X31126033Y-4393744D02*
X31227633Y-4495344D01*
X31227633Y-4393744D02*
X31126033Y-4495344D01*
X31212754Y-4480465D02*
X31212754Y-4408623D01*
X31140912Y-4408623D01*
X31140912Y-4480465D01*
X31212754Y-4480465D01*
X31126051Y-6774950D02*
X31227651Y-6876550D01*
X31227651Y-6774950D02*
X31126051Y-6876550D01*
X31212773Y-6861671D02*
X31212773Y-6789829D01*
X31140930Y-6789829D01*
X31140930Y-6861671D01*
X31212773Y-6861671D01*
D19*
X3446401Y-15131550D02*
X3598801Y-15283950D01*
X3598801Y-15131550D02*
X3446401Y-15283950D01*
X3522601Y-15283950D02*
X3598801Y-15207750D01*
X3522601Y-15131550D01*
X3446401Y-15207750D01*
X3522601Y-15283950D01*
X3922651Y-5130300D02*
X4075051Y-5282700D01*
X4075051Y-5130300D02*
X3922651Y-5282700D01*
X3998851Y-5282700D02*
X4075051Y-5206500D01*
X3998851Y-5130300D01*
X3922651Y-5206500D01*
X3998851Y-5282700D01*
X4081401Y-15385550D02*
X4233801Y-15537950D01*
X4233801Y-15385550D02*
X4081401Y-15537950D01*
X4157601Y-15537950D02*
X4233801Y-15461750D01*
X4157601Y-15385550D01*
X4081401Y-15461750D01*
X4157601Y-15537950D01*
X4160776Y-10369050D02*
X4313176Y-10521450D01*
X4313176Y-10369050D02*
X4160776Y-10521450D01*
X4236976Y-10521450D02*
X4313176Y-10445250D01*
X4236976Y-10369050D01*
X4160776Y-10445250D01*
X4236976Y-10521450D01*
X4557651Y-5384300D02*
X4710051Y-5536700D01*
X4710051Y-5384300D02*
X4557651Y-5536700D01*
X4633851Y-5536700D02*
X4710051Y-5460500D01*
X4633851Y-5384300D01*
X4557651Y-5460500D01*
X4633851Y-5536700D01*
X4795776Y-10623050D02*
X4948176Y-10775450D01*
X4948176Y-10623050D02*
X4795776Y-10775450D01*
X4871976Y-10775450D02*
X4948176Y-10699250D01*
X4871976Y-10623050D01*
X4795776Y-10699250D01*
X4871976Y-10775450D01*
X4875151Y-7511550D02*
X5027551Y-7663950D01*
X5027551Y-7511550D02*
X4875151Y-7663950D01*
X4951351Y-7663950D02*
X5027551Y-7587750D01*
X4951351Y-7511550D01*
X4875151Y-7587750D01*
X4951351Y-7663950D01*
X5351401Y-13226550D02*
X5503801Y-13378950D01*
X5503801Y-13226550D02*
X5351401Y-13378950D01*
X5427601Y-13378950D02*
X5503801Y-13302750D01*
X5427601Y-13226550D01*
X5351401Y-13302750D01*
X5427601Y-13378950D01*
X5351401Y-15131550D02*
X5503801Y-15283950D01*
X5503801Y-15131550D02*
X5351401Y-15283950D01*
X5427601Y-15283950D02*
X5503801Y-15207750D01*
X5427601Y-15131550D01*
X5351401Y-15207750D01*
X5427601Y-15283950D01*
X5510151Y-7765550D02*
X5662551Y-7917950D01*
X5662551Y-7765550D02*
X5510151Y-7917950D01*
X5586351Y-7917950D02*
X5662551Y-7841750D01*
X5586351Y-7765550D01*
X5510151Y-7841750D01*
X5586351Y-7917950D01*
X5827651Y-5130300D02*
X5980051Y-5282700D01*
X5980051Y-5130300D02*
X5827651Y-5282700D01*
X5903851Y-5282700D02*
X5980051Y-5206500D01*
X5903851Y-5130300D01*
X5827651Y-5206500D01*
X5903851Y-5282700D01*
X5986401Y-13480550D02*
X6138801Y-13632950D01*
X6138801Y-13480550D02*
X5986401Y-13632950D01*
X6062601Y-13632950D02*
X6138801Y-13556750D01*
X6062601Y-13480550D01*
X5986401Y-13556750D01*
X6062601Y-13632950D01*
X5986401Y-15385550D02*
X6138801Y-15537950D01*
X6138801Y-15385550D02*
X5986401Y-15537950D01*
X6062601Y-15537950D02*
X6138801Y-15461750D01*
X6062601Y-15385550D01*
X5986401Y-15461750D01*
X6062601Y-15537950D01*
X6303901Y-11321550D02*
X6456301Y-11473950D01*
X6456301Y-11321550D02*
X6303901Y-11473950D01*
X6380101Y-11473950D02*
X6456301Y-11397750D01*
X6380101Y-11321550D01*
X6303901Y-11397750D01*
X6380101Y-11473950D01*
X6462651Y-5384300D02*
X6615051Y-5536700D01*
X6615051Y-5384300D02*
X6462651Y-5536700D01*
X6538851Y-5536700D02*
X6615051Y-5460500D01*
X6538851Y-5384300D01*
X6462651Y-5460500D01*
X6538851Y-5536700D01*
X6780151Y-9416550D02*
X6932551Y-9568950D01*
X6932551Y-9416550D02*
X6780151Y-9568950D01*
X6856351Y-9568950D02*
X6932551Y-9492750D01*
X6856351Y-9416550D01*
X6780151Y-9492750D01*
X6856351Y-9568950D01*
X6938901Y-11575550D02*
X7091301Y-11727950D01*
X7091301Y-11575550D02*
X6938901Y-11727950D01*
X7015101Y-11727950D02*
X7091301Y-11651750D01*
X7015101Y-11575550D01*
X6938901Y-11651750D01*
X7015101Y-11727950D01*
X7256401Y-13226550D02*
X7408801Y-13378950D01*
X7408801Y-13226550D02*
X7256401Y-13378950D01*
X7332601Y-13378950D02*
X7408801Y-13302750D01*
X7332601Y-13226550D01*
X7256401Y-13302750D01*
X7332601Y-13378950D01*
X7256401Y-15131550D02*
X7408801Y-15283950D01*
X7408801Y-15131550D02*
X7256401Y-15283950D01*
X7332601Y-15283950D02*
X7408801Y-15207750D01*
X7332601Y-15131550D01*
X7256401Y-15207750D01*
X7332601Y-15283950D01*
X7415151Y-9670550D02*
X7567551Y-9822950D01*
X7567551Y-9670550D02*
X7415151Y-9822950D01*
X7491351Y-9822950D02*
X7567551Y-9746750D01*
X7491351Y-9670550D01*
X7415151Y-9746750D01*
X7491351Y-9822950D01*
X7732651Y-5130300D02*
X7885051Y-5282700D01*
X7885051Y-5130300D02*
X7732651Y-5282700D01*
X7808851Y-5282700D02*
X7885051Y-5206500D01*
X7808851Y-5130300D01*
X7732651Y-5206500D01*
X7808851Y-5282700D01*
X7732651Y-7511550D02*
X7885051Y-7663950D01*
X7885051Y-7511550D02*
X7732651Y-7663950D01*
X7808851Y-7663950D02*
X7885051Y-7587750D01*
X7808851Y-7511550D01*
X7732651Y-7587750D01*
X7808851Y-7663950D01*
X7891401Y-13480550D02*
X8043801Y-13632950D01*
X8043801Y-13480550D02*
X7891401Y-13632950D01*
X7967601Y-13632950D02*
X8043801Y-13556750D01*
X7967601Y-13480550D01*
X7891401Y-13556750D01*
X7967601Y-13632950D01*
X7891401Y-15385550D02*
X8043801Y-15537950D01*
X8043801Y-15385550D02*
X7891401Y-15537950D01*
X7967601Y-15537950D02*
X8043801Y-15461750D01*
X7967601Y-15385550D01*
X7891401Y-15461750D01*
X7967601Y-15537950D01*
X8208901Y-11321550D02*
X8361301Y-11473950D01*
X8361301Y-11321550D02*
X8208901Y-11473950D01*
X8285101Y-11473950D02*
X8361301Y-11397750D01*
X8285101Y-11321550D01*
X8208901Y-11397750D01*
X8285101Y-11473950D01*
X8367651Y-5384300D02*
X8520051Y-5536700D01*
X8520051Y-5384300D02*
X8367651Y-5536700D01*
X8443851Y-5536700D02*
X8520051Y-5460500D01*
X8443851Y-5384300D01*
X8367651Y-5460500D01*
X8443851Y-5536700D01*
X8367651Y-7765550D02*
X8520051Y-7917950D01*
X8520051Y-7765550D02*
X8367651Y-7917950D01*
X8443851Y-7917950D02*
X8520051Y-7841750D01*
X8443851Y-7765550D01*
X8367651Y-7841750D01*
X8443851Y-7917950D01*
X8685151Y-9416550D02*
X8837551Y-9568950D01*
X8837551Y-9416550D02*
X8685151Y-9568950D01*
X8761351Y-9568950D02*
X8837551Y-9492750D01*
X8761351Y-9416550D01*
X8685151Y-9492750D01*
X8761351Y-9568950D01*
X8843901Y-11575550D02*
X8996301Y-11727950D01*
X8996301Y-11575550D02*
X8843901Y-11727950D01*
X8920101Y-11727950D02*
X8996301Y-11651750D01*
X8920101Y-11575550D01*
X8843901Y-11651750D01*
X8920101Y-11727950D01*
X9161401Y-13226550D02*
X9313801Y-13378950D01*
X9313801Y-13226550D02*
X9161401Y-13378950D01*
X9237601Y-13378950D02*
X9313801Y-13302750D01*
X9237601Y-13226550D01*
X9161401Y-13302750D01*
X9237601Y-13378950D01*
X9161401Y-15131550D02*
X9313801Y-15283950D01*
X9313801Y-15131550D02*
X9161401Y-15283950D01*
X9237601Y-15283950D02*
X9313801Y-15207750D01*
X9237601Y-15131550D01*
X9161401Y-15207750D01*
X9237601Y-15283950D01*
X9320151Y-9670550D02*
X9472551Y-9822950D01*
X9472551Y-9670550D02*
X9320151Y-9822950D01*
X9396351Y-9822950D02*
X9472551Y-9746750D01*
X9396351Y-9670550D01*
X9320151Y-9746750D01*
X9396351Y-9822950D01*
X9637651Y-5130300D02*
X9790051Y-5282700D01*
X9790051Y-5130300D02*
X9637651Y-5282700D01*
X9713851Y-5282700D02*
X9790051Y-5206500D01*
X9713851Y-5130300D01*
X9637651Y-5206500D01*
X9713851Y-5282700D01*
X9637651Y-7511550D02*
X9790051Y-7663950D01*
X9790051Y-7511550D02*
X9637651Y-7663950D01*
X9713851Y-7663950D02*
X9790051Y-7587750D01*
X9713851Y-7511550D01*
X9637651Y-7587750D01*
X9713851Y-7663950D01*
X9796401Y-13480550D02*
X9948801Y-13632950D01*
X9948801Y-13480550D02*
X9796401Y-13632950D01*
X9872601Y-13632950D02*
X9948801Y-13556750D01*
X9872601Y-13480550D01*
X9796401Y-13556750D01*
X9872601Y-13632950D01*
X9796401Y-15385550D02*
X9948801Y-15537950D01*
X9948801Y-15385550D02*
X9796401Y-15537950D01*
X9872601Y-15537950D02*
X9948801Y-15461750D01*
X9872601Y-15385550D01*
X9796401Y-15461750D01*
X9872601Y-15537950D01*
X10113901Y-11321550D02*
X10266301Y-11473950D01*
X10266301Y-11321550D02*
X10113901Y-11473950D01*
X10190101Y-11473950D02*
X10266301Y-11397750D01*
X10190101Y-11321550D01*
X10113901Y-11397750D01*
X10190101Y-11473950D01*
X10272651Y-5384300D02*
X10425051Y-5536700D01*
X10425051Y-5384300D02*
X10272651Y-5536700D01*
X10348851Y-5536700D02*
X10425051Y-5460500D01*
X10348851Y-5384300D01*
X10272651Y-5460500D01*
X10348851Y-5536700D01*
X10272651Y-7765550D02*
X10425051Y-7917950D01*
X10425051Y-7765550D02*
X10272651Y-7917950D01*
X10348851Y-7917950D02*
X10425051Y-7841750D01*
X10348851Y-7765550D01*
X10272651Y-7841750D01*
X10348851Y-7917950D01*
X10590151Y-9416550D02*
X10742551Y-9568950D01*
X10742551Y-9416550D02*
X10590151Y-9568950D01*
X10666351Y-9568950D02*
X10742551Y-9492750D01*
X10666351Y-9416550D01*
X10590151Y-9492750D01*
X10666351Y-9568950D01*
X10748901Y-11575550D02*
X10901301Y-11727950D01*
X10901301Y-11575550D02*
X10748901Y-11727950D01*
X10825101Y-11727950D02*
X10901301Y-11651750D01*
X10825101Y-11575550D01*
X10748901Y-11651750D01*
X10825101Y-11727950D01*
X11066401Y-13226550D02*
X11218801Y-13378950D01*
X11218801Y-13226550D02*
X11066401Y-13378950D01*
X11142601Y-13378950D02*
X11218801Y-13302750D01*
X11142601Y-13226550D01*
X11066401Y-13302750D01*
X11142601Y-13378950D01*
X11225151Y-9670550D02*
X11377551Y-9822950D01*
X11377551Y-9670550D02*
X11225151Y-9822950D01*
X11301351Y-9822950D02*
X11377551Y-9746750D01*
X11301351Y-9670550D01*
X11225151Y-9746750D01*
X11301351Y-9822950D01*
X11304526Y-15131550D02*
X11456926Y-15283950D01*
X11456926Y-15131550D02*
X11304526Y-15283950D01*
X11380726Y-15283950D02*
X11456926Y-15207750D01*
X11380726Y-15131550D01*
X11304526Y-15207750D01*
X11380726Y-15283950D01*
X11542651Y-7511550D02*
X11695051Y-7663950D01*
X11695051Y-7511550D02*
X11542651Y-7663950D01*
X11618851Y-7663950D02*
X11695051Y-7587750D01*
X11618851Y-7511550D01*
X11542651Y-7587750D01*
X11618851Y-7663950D01*
X11701401Y-13480550D02*
X11853801Y-13632950D01*
X11853801Y-13480550D02*
X11701401Y-13632950D01*
X11777601Y-13632950D02*
X11853801Y-13556750D01*
X11777601Y-13480550D01*
X11701401Y-13556750D01*
X11777601Y-13632950D01*
X11939526Y-15385550D02*
X12091926Y-15537950D01*
X12091926Y-15385550D02*
X11939526Y-15537950D01*
X12015726Y-15537950D02*
X12091926Y-15461750D01*
X12015726Y-15385550D01*
X11939526Y-15461750D01*
X12015726Y-15537950D01*
X12018901Y-11321550D02*
X12171301Y-11473950D01*
X12171301Y-11321550D02*
X12018901Y-11473950D01*
X12095101Y-11473950D02*
X12171301Y-11397750D01*
X12095101Y-11321550D01*
X12018901Y-11397750D01*
X12095101Y-11473950D01*
X12177651Y-7765550D02*
X12330051Y-7917950D01*
X12330051Y-7765550D02*
X12177651Y-7917950D01*
X12253851Y-7917950D02*
X12330051Y-7841750D01*
X12253851Y-7765550D01*
X12177651Y-7841750D01*
X12253851Y-7917950D01*
X12495151Y-5130300D02*
X12647551Y-5282700D01*
X12647551Y-5130300D02*
X12495151Y-5282700D01*
X12571351Y-5282700D02*
X12647551Y-5206500D01*
X12571351Y-5130300D01*
X12495151Y-5206500D01*
X12571351Y-5282700D01*
X12495151Y-9416550D02*
X12647551Y-9568950D01*
X12647551Y-9416550D02*
X12495151Y-9568950D01*
X12571351Y-9568950D02*
X12647551Y-9492750D01*
X12571351Y-9416550D01*
X12495151Y-9492750D01*
X12571351Y-9568950D01*
X12653901Y-11575550D02*
X12806301Y-11727950D01*
X12806301Y-11575550D02*
X12653901Y-11727950D01*
X12730101Y-11727950D02*
X12806301Y-11651750D01*
X12730101Y-11575550D01*
X12653901Y-11651750D01*
X12730101Y-11727950D01*
X12971401Y-13226550D02*
X13123801Y-13378950D01*
X13123801Y-13226550D02*
X12971401Y-13378950D01*
X13047601Y-13378950D02*
X13123801Y-13302750D01*
X13047601Y-13226550D01*
X12971401Y-13302750D01*
X13047601Y-13378950D01*
X13130151Y-5384300D02*
X13282551Y-5536700D01*
X13282551Y-5384300D02*
X13130151Y-5536700D01*
X13206351Y-5536700D02*
X13282551Y-5460500D01*
X13206351Y-5384300D01*
X13130151Y-5460500D01*
X13206351Y-5536700D01*
X13130151Y-9670550D02*
X13282551Y-9822950D01*
X13282551Y-9670550D02*
X13130151Y-9822950D01*
X13206351Y-9822950D02*
X13282551Y-9746750D01*
X13206351Y-9670550D01*
X13130151Y-9746750D01*
X13206351Y-9822950D01*
X13447651Y-7511550D02*
X13600051Y-7663950D01*
X13600051Y-7511550D02*
X13447651Y-7663950D01*
X13523851Y-7663950D02*
X13600051Y-7587750D01*
X13523851Y-7511550D01*
X13447651Y-7587750D01*
X13523851Y-7663950D01*
X13606401Y-13480550D02*
X13758801Y-13632950D01*
X13758801Y-13480550D02*
X13606401Y-13632950D01*
X13682601Y-13632950D02*
X13758801Y-13556750D01*
X13682601Y-13480550D01*
X13606401Y-13556750D01*
X13682601Y-13632950D01*
X13923901Y-11321550D02*
X14076301Y-11473950D01*
X14076301Y-11321550D02*
X13923901Y-11473950D01*
X14000101Y-11473950D02*
X14076301Y-11397750D01*
X14000101Y-11321550D01*
X13923901Y-11397750D01*
X14000101Y-11473950D01*
X14082651Y-7765550D02*
X14235051Y-7917950D01*
X14235051Y-7765550D02*
X14082651Y-7917950D01*
X14158851Y-7917950D02*
X14235051Y-7841750D01*
X14158851Y-7765550D01*
X14082651Y-7841750D01*
X14158851Y-7917950D01*
X14400151Y-5130300D02*
X14552551Y-5282700D01*
X14552551Y-5130300D02*
X14400151Y-5282700D01*
X14476351Y-5282700D02*
X14552551Y-5206500D01*
X14476351Y-5130300D01*
X14400151Y-5206500D01*
X14476351Y-5282700D01*
X14400151Y-9416550D02*
X14552551Y-9568950D01*
X14552551Y-9416550D02*
X14400151Y-9568950D01*
X14476351Y-9568950D02*
X14552551Y-9492750D01*
X14476351Y-9416550D01*
X14400151Y-9492750D01*
X14476351Y-9568950D01*
X14558901Y-11575550D02*
X14711301Y-11727950D01*
X14711301Y-11575550D02*
X14558901Y-11727950D01*
X14635101Y-11727950D02*
X14711301Y-11651750D01*
X14635101Y-11575550D01*
X14558901Y-11651750D01*
X14635101Y-11727950D01*
X14876401Y-13226550D02*
X15028801Y-13378950D01*
X15028801Y-13226550D02*
X14876401Y-13378950D01*
X14952601Y-13378950D02*
X15028801Y-13302750D01*
X14952601Y-13226550D01*
X14876401Y-13302750D01*
X14952601Y-13378950D01*
X15035151Y-5384300D02*
X15187551Y-5536700D01*
X15187551Y-5384300D02*
X15035151Y-5536700D01*
X15111351Y-5536700D02*
X15187551Y-5460500D01*
X15111351Y-5384300D01*
X15035151Y-5460500D01*
X15111351Y-5536700D01*
X15035151Y-9670550D02*
X15187551Y-9822950D01*
X15187551Y-9670550D02*
X15035151Y-9822950D01*
X15111351Y-9822950D02*
X15187551Y-9746750D01*
X15111351Y-9670550D01*
X15035151Y-9746750D01*
X15111351Y-9822950D01*
X15352651Y-7511550D02*
X15505051Y-7663950D01*
X15505051Y-7511550D02*
X15352651Y-7663950D01*
X15428851Y-7663950D02*
X15505051Y-7587750D01*
X15428851Y-7511550D01*
X15352651Y-7587750D01*
X15428851Y-7663950D01*
X15511401Y-13480550D02*
X15663801Y-13632950D01*
X15663801Y-13480550D02*
X15511401Y-13632950D01*
X15587601Y-13632950D02*
X15663801Y-13556750D01*
X15587601Y-13480550D01*
X15511401Y-13556750D01*
X15587601Y-13632950D01*
X15828901Y-11321550D02*
X15981301Y-11473950D01*
X15981301Y-11321550D02*
X15828901Y-11473950D01*
X15905101Y-11473950D02*
X15981301Y-11397750D01*
X15905101Y-11321550D01*
X15828901Y-11397750D01*
X15905101Y-11473950D01*
X15987651Y-7765550D02*
X16140051Y-7917950D01*
X16140051Y-7765550D02*
X15987651Y-7917950D01*
X16063851Y-7917950D02*
X16140051Y-7841750D01*
X16063851Y-7765550D01*
X15987651Y-7841750D01*
X16063851Y-7917950D01*
X16305151Y-5130300D02*
X16457551Y-5282700D01*
X16457551Y-5130300D02*
X16305151Y-5282700D01*
X16381351Y-5282700D02*
X16457551Y-5206500D01*
X16381351Y-5130300D01*
X16305151Y-5206500D01*
X16381351Y-5282700D01*
X16305151Y-9416550D02*
X16457551Y-9568950D01*
X16457551Y-9416550D02*
X16305151Y-9568950D01*
X16381351Y-9568950D02*
X16457551Y-9492750D01*
X16381351Y-9416550D01*
X16305151Y-9492750D01*
X16381351Y-9568950D01*
X16463901Y-11575550D02*
X16616301Y-11727950D01*
X16616301Y-11575550D02*
X16463901Y-11727950D01*
X16540101Y-11727950D02*
X16616301Y-11651750D01*
X16540101Y-11575550D01*
X16463901Y-11651750D01*
X16540101Y-11727950D01*
X16781401Y-13226550D02*
X16933801Y-13378950D01*
X16933801Y-13226550D02*
X16781401Y-13378950D01*
X16857601Y-13378950D02*
X16933801Y-13302750D01*
X16857601Y-13226550D01*
X16781401Y-13302750D01*
X16857601Y-13378950D01*
X16940151Y-5384300D02*
X17092551Y-5536700D01*
X17092551Y-5384300D02*
X16940151Y-5536700D01*
X17016351Y-5536700D02*
X17092551Y-5460500D01*
X17016351Y-5384300D01*
X16940151Y-5460500D01*
X17016351Y-5536700D01*
X16940151Y-9670550D02*
X17092551Y-9822950D01*
X17092551Y-9670550D02*
X16940151Y-9822950D01*
X17016351Y-9822950D02*
X17092551Y-9746750D01*
X17016351Y-9670550D01*
X16940151Y-9746750D01*
X17016351Y-9822950D01*
X17257651Y-7511550D02*
X17410051Y-7663950D01*
X17410051Y-7511550D02*
X17257651Y-7663950D01*
X17333851Y-7663950D02*
X17410051Y-7587750D01*
X17333851Y-7511550D01*
X17257651Y-7587750D01*
X17333851Y-7663950D01*
X17416401Y-13480550D02*
X17568801Y-13632950D01*
X17568801Y-13480550D02*
X17416401Y-13632950D01*
X17492601Y-13632950D02*
X17568801Y-13556750D01*
X17492601Y-13480550D01*
X17416401Y-13556750D01*
X17492601Y-13632950D01*
X17733901Y-11321550D02*
X17886301Y-11473950D01*
X17886301Y-11321550D02*
X17733901Y-11473950D01*
X17810101Y-11473950D02*
X17886301Y-11397750D01*
X17810101Y-11321550D01*
X17733901Y-11397750D01*
X17810101Y-11473950D01*
X17892651Y-7765550D02*
X18045051Y-7917950D01*
X18045051Y-7765550D02*
X17892651Y-7917950D01*
X17968851Y-7917950D02*
X18045051Y-7841750D01*
X17968851Y-7765550D01*
X17892651Y-7841750D01*
X17968851Y-7917950D01*
X18210151Y-5130300D02*
X18362551Y-5282700D01*
X18362551Y-5130300D02*
X18210151Y-5282700D01*
X18286351Y-5282700D02*
X18362551Y-5206500D01*
X18286351Y-5130300D01*
X18210151Y-5206500D01*
X18286351Y-5282700D01*
X18210151Y-9416550D02*
X18362551Y-9568950D01*
X18362551Y-9416550D02*
X18210151Y-9568950D01*
X18286351Y-9568950D02*
X18362551Y-9492750D01*
X18286351Y-9416550D01*
X18210151Y-9492750D01*
X18286351Y-9568950D01*
X18368901Y-11575550D02*
X18521301Y-11727950D01*
X18521301Y-11575550D02*
X18368901Y-11727950D01*
X18445101Y-11727950D02*
X18521301Y-11651750D01*
X18445101Y-11575550D01*
X18368901Y-11651750D01*
X18445101Y-11727950D01*
X18448276Y-15131550D02*
X18600676Y-15283950D01*
X18600676Y-15131550D02*
X18448276Y-15283950D01*
X18524476Y-15283950D02*
X18600676Y-15207750D01*
X18524476Y-15131550D01*
X18448276Y-15207750D01*
X18524476Y-15283950D01*
X18686401Y-13226550D02*
X18838801Y-13378950D01*
X18838801Y-13226550D02*
X18686401Y-13378950D01*
X18762601Y-13378950D02*
X18838801Y-13302750D01*
X18762601Y-13226550D01*
X18686401Y-13302750D01*
X18762601Y-13378950D01*
X18845151Y-5384300D02*
X18997551Y-5536700D01*
X18997551Y-5384300D02*
X18845151Y-5536700D01*
X18921351Y-5536700D02*
X18997551Y-5460500D01*
X18921351Y-5384300D01*
X18845151Y-5460500D01*
X18921351Y-5536700D01*
X18845151Y-9670550D02*
X18997551Y-9822950D01*
X18997551Y-9670550D02*
X18845151Y-9822950D01*
X18921351Y-9822950D02*
X18997551Y-9746750D01*
X18921351Y-9670550D01*
X18845151Y-9746750D01*
X18921351Y-9822950D01*
X19083276Y-15385550D02*
X19235676Y-15537950D01*
X19235676Y-15385550D02*
X19083276Y-15537950D01*
X19159476Y-15537950D02*
X19235676Y-15461750D01*
X19159476Y-15385550D01*
X19083276Y-15461750D01*
X19159476Y-15537950D01*
X19162651Y-7511550D02*
X19315051Y-7663950D01*
X19315051Y-7511550D02*
X19162651Y-7663950D01*
X19238851Y-7663950D02*
X19315051Y-7587750D01*
X19238851Y-7511550D01*
X19162651Y-7587750D01*
X19238851Y-7663950D01*
X19321401Y-13480550D02*
X19473801Y-13632950D01*
X19473801Y-13480550D02*
X19321401Y-13632950D01*
X19397601Y-13632950D02*
X19473801Y-13556750D01*
X19397601Y-13480550D01*
X19321401Y-13556750D01*
X19397601Y-13632950D01*
X19638901Y-11321550D02*
X19791301Y-11473950D01*
X19791301Y-11321550D02*
X19638901Y-11473950D01*
X19715101Y-11473950D02*
X19791301Y-11397750D01*
X19715101Y-11321550D01*
X19638901Y-11397750D01*
X19715101Y-11473950D01*
X19797651Y-7765550D02*
X19950051Y-7917950D01*
X19950051Y-7765550D02*
X19797651Y-7917950D01*
X19873851Y-7917950D02*
X19950051Y-7841750D01*
X19873851Y-7765550D01*
X19797651Y-7841750D01*
X19873851Y-7917950D01*
X20115151Y-9416550D02*
X20267551Y-9568950D01*
X20267551Y-9416550D02*
X20115151Y-9568950D01*
X20191351Y-9568950D02*
X20267551Y-9492750D01*
X20191351Y-9416550D01*
X20115151Y-9492750D01*
X20191351Y-9568950D01*
X20273901Y-11575550D02*
X20426301Y-11727950D01*
X20426301Y-11575550D02*
X20273901Y-11727950D01*
X20350101Y-11727950D02*
X20426301Y-11651750D01*
X20350101Y-11575550D01*
X20273901Y-11651750D01*
X20350101Y-11727950D01*
X20591401Y-13226550D02*
X20743801Y-13378950D01*
X20743801Y-13226550D02*
X20591401Y-13378950D01*
X20667601Y-13378950D02*
X20743801Y-13302750D01*
X20667601Y-13226550D01*
X20591401Y-13302750D01*
X20667601Y-13378950D01*
X20750151Y-9670550D02*
X20902551Y-9822950D01*
X20902551Y-9670550D02*
X20750151Y-9822950D01*
X20826351Y-9822950D02*
X20902551Y-9746750D01*
X20826351Y-9670550D01*
X20750151Y-9746750D01*
X20826351Y-9822950D01*
X21067651Y-5130300D02*
X21220051Y-5282700D01*
X21220051Y-5130300D02*
X21067651Y-5282700D01*
X21143851Y-5282700D02*
X21220051Y-5206500D01*
X21143851Y-5130300D01*
X21067651Y-5206500D01*
X21143851Y-5282700D01*
X21067651Y-7511550D02*
X21220051Y-7663950D01*
X21220051Y-7511550D02*
X21067651Y-7663950D01*
X21143851Y-7663950D02*
X21220051Y-7587750D01*
X21143851Y-7511550D01*
X21067651Y-7587750D01*
X21143851Y-7663950D01*
X21226401Y-13480550D02*
X21378801Y-13632950D01*
X21378801Y-13480550D02*
X21226401Y-13632950D01*
X21302601Y-13632950D02*
X21378801Y-13556750D01*
X21302601Y-13480550D01*
X21226401Y-13556750D01*
X21302601Y-13632950D01*
X21543901Y-11321550D02*
X21696301Y-11473950D01*
X21696301Y-11321550D02*
X21543901Y-11473950D01*
X21620101Y-11473950D02*
X21696301Y-11397750D01*
X21620101Y-11321550D01*
X21543901Y-11397750D01*
X21620101Y-11473950D01*
X21702651Y-5384300D02*
X21855051Y-5536700D01*
X21855051Y-5384300D02*
X21702651Y-5536700D01*
X21778851Y-5536700D02*
X21855051Y-5460500D01*
X21778851Y-5384300D01*
X21702651Y-5460500D01*
X21778851Y-5536700D01*
X21702651Y-7765550D02*
X21855051Y-7917950D01*
X21855051Y-7765550D02*
X21702651Y-7917950D01*
X21778851Y-7917950D02*
X21855051Y-7841750D01*
X21778851Y-7765550D01*
X21702651Y-7841750D01*
X21778851Y-7917950D01*
X22020151Y-9416550D02*
X22172551Y-9568950D01*
X22172551Y-9416550D02*
X22020151Y-9568950D01*
X22096351Y-9568950D02*
X22172551Y-9492750D01*
X22096351Y-9416550D01*
X22020151Y-9492750D01*
X22096351Y-9568950D01*
X22178901Y-11575550D02*
X22331301Y-11727950D01*
X22331301Y-11575550D02*
X22178901Y-11727950D01*
X22255101Y-11727950D02*
X22331301Y-11651750D01*
X22255101Y-11575550D01*
X22178901Y-11651750D01*
X22255101Y-11727950D01*
X22496401Y-13226550D02*
X22648801Y-13378950D01*
X22648801Y-13226550D02*
X22496401Y-13378950D01*
X22572601Y-13378950D02*
X22648801Y-13302750D01*
X22572601Y-13226550D01*
X22496401Y-13302750D01*
X22572601Y-13378950D01*
X22655151Y-9670550D02*
X22807551Y-9822950D01*
X22807551Y-9670550D02*
X22655151Y-9822950D01*
X22731351Y-9822950D02*
X22807551Y-9746750D01*
X22731351Y-9670550D01*
X22655151Y-9746750D01*
X22731351Y-9822950D01*
X22972651Y-5130300D02*
X23125051Y-5282700D01*
X23125051Y-5130300D02*
X22972651Y-5282700D01*
X23048851Y-5282700D02*
X23125051Y-5206500D01*
X23048851Y-5130300D01*
X22972651Y-5206500D01*
X23048851Y-5282700D01*
X22972651Y-7511550D02*
X23125051Y-7663950D01*
X23125051Y-7511550D02*
X22972651Y-7663950D01*
X23048851Y-7663950D02*
X23125051Y-7587750D01*
X23048851Y-7511550D01*
X22972651Y-7587750D01*
X23048851Y-7663950D01*
X23131401Y-13480550D02*
X23283801Y-13632950D01*
X23283801Y-13480550D02*
X23131401Y-13632950D01*
X23207601Y-13632950D02*
X23283801Y-13556750D01*
X23207601Y-13480550D01*
X23131401Y-13556750D01*
X23207601Y-13632950D01*
X23448901Y-11321550D02*
X23601301Y-11473950D01*
X23601301Y-11321550D02*
X23448901Y-11473950D01*
X23525101Y-11473950D02*
X23601301Y-11397750D01*
X23525101Y-11321550D01*
X23448901Y-11397750D01*
X23525101Y-11473950D01*
X23607651Y-5384300D02*
X23760051Y-5536700D01*
X23760051Y-5384300D02*
X23607651Y-5536700D01*
X23683851Y-5536700D02*
X23760051Y-5460500D01*
X23683851Y-5384300D01*
X23607651Y-5460500D01*
X23683851Y-5536700D01*
X23607651Y-7765550D02*
X23760051Y-7917950D01*
X23760051Y-7765550D02*
X23607651Y-7917950D01*
X23683851Y-7917950D02*
X23760051Y-7841750D01*
X23683851Y-7765550D01*
X23607651Y-7841750D01*
X23683851Y-7917950D01*
X23925151Y-9416550D02*
X24077551Y-9568950D01*
X24077551Y-9416550D02*
X23925151Y-9568950D01*
X24001351Y-9568950D02*
X24077551Y-9492750D01*
X24001351Y-9416550D01*
X23925151Y-9492750D01*
X24001351Y-9568950D01*
X24083901Y-11575550D02*
X24236301Y-11727950D01*
X24236301Y-11575550D02*
X24083901Y-11727950D01*
X24160101Y-11727950D02*
X24236301Y-11651750D01*
X24160101Y-11575550D01*
X24083901Y-11651750D01*
X24160101Y-11727950D01*
X24401401Y-13226550D02*
X24553801Y-13378950D01*
X24553801Y-13226550D02*
X24401401Y-13378950D01*
X24477601Y-13378950D02*
X24553801Y-13302750D01*
X24477601Y-13226550D01*
X24401401Y-13302750D01*
X24477601Y-13378950D01*
X24560151Y-9670550D02*
X24712551Y-9822950D01*
X24712551Y-9670550D02*
X24560151Y-9822950D01*
X24636351Y-9822950D02*
X24712551Y-9746750D01*
X24636351Y-9670550D01*
X24560151Y-9746750D01*
X24636351Y-9822950D01*
X24877651Y-7511550D02*
X25030051Y-7663950D01*
X25030051Y-7511550D02*
X24877651Y-7663950D01*
X24953851Y-7663950D02*
X25030051Y-7587750D01*
X24953851Y-7511550D01*
X24877651Y-7587750D01*
X24953851Y-7663950D01*
X24878151Y-5130300D02*
X25030551Y-5282700D01*
X25030551Y-5130300D02*
X24878151Y-5282700D01*
X24954351Y-5282700D02*
X25030551Y-5206500D01*
X24954351Y-5130300D01*
X24878151Y-5206500D01*
X24954351Y-5282700D01*
X25036401Y-13480550D02*
X25188801Y-13632950D01*
X25188801Y-13480550D02*
X25036401Y-13632950D01*
X25112601Y-13632950D02*
X25188801Y-13556750D01*
X25112601Y-13480550D01*
X25036401Y-13556750D01*
X25112601Y-13632950D01*
X25353901Y-11321550D02*
X25506301Y-11473950D01*
X25506301Y-11321550D02*
X25353901Y-11473950D01*
X25430101Y-11473950D02*
X25506301Y-11397750D01*
X25430101Y-11321550D01*
X25353901Y-11397750D01*
X25430101Y-11473950D01*
X25512651Y-7765550D02*
X25665051Y-7917950D01*
X25665051Y-7765550D02*
X25512651Y-7917950D01*
X25588851Y-7917950D02*
X25665051Y-7841750D01*
X25588851Y-7765550D01*
X25512651Y-7841750D01*
X25588851Y-7917950D01*
X25513151Y-5384300D02*
X25665551Y-5536700D01*
X25665551Y-5384300D02*
X25513151Y-5536700D01*
X25589351Y-5536700D02*
X25665551Y-5460500D01*
X25589351Y-5384300D01*
X25513151Y-5460500D01*
X25589351Y-5536700D01*
X25592026Y-15131550D02*
X25744426Y-15283950D01*
X25744426Y-15131550D02*
X25592026Y-15283950D01*
X25668226Y-15283950D02*
X25744426Y-15207750D01*
X25668226Y-15131550D01*
X25592026Y-15207750D01*
X25668226Y-15283950D01*
X25830151Y-9416550D02*
X25982551Y-9568950D01*
X25982551Y-9416550D02*
X25830151Y-9568950D01*
X25906351Y-9568950D02*
X25982551Y-9492750D01*
X25906351Y-9416550D01*
X25830151Y-9492750D01*
X25906351Y-9568950D01*
X25988901Y-11575550D02*
X26141301Y-11727950D01*
X26141301Y-11575550D02*
X25988901Y-11727950D01*
X26065101Y-11727950D02*
X26141301Y-11651750D01*
X26065101Y-11575550D01*
X25988901Y-11651750D01*
X26065101Y-11727950D01*
X26227026Y-15385550D02*
X26379426Y-15537950D01*
X26379426Y-15385550D02*
X26227026Y-15537950D01*
X26303226Y-15537950D02*
X26379426Y-15461750D01*
X26303226Y-15385550D01*
X26227026Y-15461750D01*
X26303226Y-15537950D01*
X26306401Y-13226550D02*
X26458801Y-13378950D01*
X26458801Y-13226550D02*
X26306401Y-13378950D01*
X26382601Y-13378950D02*
X26458801Y-13302750D01*
X26382601Y-13226550D01*
X26306401Y-13302750D01*
X26382601Y-13378950D01*
X26465151Y-9670550D02*
X26617551Y-9822950D01*
X26617551Y-9670550D02*
X26465151Y-9822950D01*
X26541351Y-9822950D02*
X26617551Y-9746750D01*
X26541351Y-9670550D01*
X26465151Y-9746750D01*
X26541351Y-9822950D01*
X26782651Y-5130300D02*
X26935051Y-5282700D01*
X26935051Y-5130300D02*
X26782651Y-5282700D01*
X26858851Y-5282700D02*
X26935051Y-5206500D01*
X26858851Y-5130300D01*
X26782651Y-5206500D01*
X26858851Y-5282700D01*
X26782651Y-7511550D02*
X26935051Y-7663950D01*
X26935051Y-7511550D02*
X26782651Y-7663950D01*
X26858851Y-7663950D02*
X26935051Y-7587750D01*
X26858851Y-7511550D01*
X26782651Y-7587750D01*
X26858851Y-7663950D01*
X26941401Y-13480550D02*
X27093801Y-13632950D01*
X27093801Y-13480550D02*
X26941401Y-13632950D01*
X27017601Y-13632950D02*
X27093801Y-13556750D01*
X27017601Y-13480550D01*
X26941401Y-13556750D01*
X27017601Y-13632950D01*
X27258901Y-11321550D02*
X27411301Y-11473950D01*
X27411301Y-11321550D02*
X27258901Y-11473950D01*
X27335101Y-11473950D02*
X27411301Y-11397750D01*
X27335101Y-11321550D01*
X27258901Y-11397750D01*
X27335101Y-11473950D01*
X27417651Y-5384300D02*
X27570051Y-5536700D01*
X27570051Y-5384300D02*
X27417651Y-5536700D01*
X27493851Y-5536700D02*
X27570051Y-5460500D01*
X27493851Y-5384300D01*
X27417651Y-5460500D01*
X27493851Y-5536700D01*
X27417651Y-7765550D02*
X27570051Y-7917950D01*
X27570051Y-7765550D02*
X27417651Y-7917950D01*
X27493851Y-7917950D02*
X27570051Y-7841750D01*
X27493851Y-7765550D01*
X27417651Y-7841750D01*
X27493851Y-7917950D01*
X27735151Y-9416550D02*
X27887551Y-9568950D01*
X27887551Y-9416550D02*
X27735151Y-9568950D01*
X27811351Y-9568950D02*
X27887551Y-9492750D01*
X27811351Y-9416550D01*
X27735151Y-9492750D01*
X27811351Y-9568950D01*
X27893901Y-11575550D02*
X28046301Y-11727950D01*
X28046301Y-11575550D02*
X27893901Y-11727950D01*
X27970101Y-11727950D02*
X28046301Y-11651750D01*
X27970101Y-11575550D01*
X27893901Y-11651750D01*
X27970101Y-11727950D01*
X27973276Y-15131550D02*
X28125676Y-15283950D01*
X28125676Y-15131550D02*
X27973276Y-15283950D01*
X28049476Y-15283950D02*
X28125676Y-15207750D01*
X28049476Y-15131550D01*
X27973276Y-15207750D01*
X28049476Y-15283950D01*
X28211401Y-13226550D02*
X28363801Y-13378950D01*
X28363801Y-13226550D02*
X28211401Y-13378950D01*
X28287601Y-13378950D02*
X28363801Y-13302750D01*
X28287601Y-13226550D01*
X28211401Y-13302750D01*
X28287601Y-13378950D01*
X28370151Y-9670550D02*
X28522551Y-9822950D01*
X28522551Y-9670550D02*
X28370151Y-9822950D01*
X28446351Y-9822950D02*
X28522551Y-9746750D01*
X28446351Y-9670550D01*
X28370151Y-9746750D01*
X28446351Y-9822950D01*
X28608276Y-15385550D02*
X28760676Y-15537950D01*
X28760676Y-15385550D02*
X28608276Y-15537950D01*
X28684476Y-15537950D02*
X28760676Y-15461750D01*
X28684476Y-15385550D01*
X28608276Y-15461750D01*
X28684476Y-15537950D01*
X28687651Y-7511550D02*
X28840051Y-7663950D01*
X28840051Y-7511550D02*
X28687651Y-7663950D01*
X28763851Y-7663950D02*
X28840051Y-7587750D01*
X28763851Y-7511550D01*
X28687651Y-7587750D01*
X28763851Y-7663950D01*
X28846401Y-13480550D02*
X28998801Y-13632950D01*
X28998801Y-13480550D02*
X28846401Y-13632950D01*
X28922601Y-13632950D02*
X28998801Y-13556750D01*
X28922601Y-13480550D01*
X28846401Y-13556750D01*
X28922601Y-13632950D01*
X29322651Y-7765550D02*
X29475051Y-7917950D01*
X29475051Y-7765550D02*
X29322651Y-7917950D01*
X29398851Y-7917950D02*
X29475051Y-7841750D01*
X29398851Y-7765550D01*
X29322651Y-7841750D01*
X29398851Y-7917950D01*
X29878276Y-11321550D02*
X30030676Y-11473950D01*
X30030676Y-11321550D02*
X29878276Y-11473950D01*
X29954476Y-11473950D02*
X30030676Y-11397750D01*
X29954476Y-11321550D01*
X29878276Y-11397750D01*
X29954476Y-11473950D01*
X30116401Y-9416550D02*
X30268801Y-9568950D01*
X30268801Y-9416550D02*
X30116401Y-9568950D01*
X30192601Y-9568950D02*
X30268801Y-9492750D01*
X30192601Y-9416550D01*
X30116401Y-9492750D01*
X30192601Y-9568950D01*
X30354526Y-13226550D02*
X30506926Y-13378950D01*
X30506926Y-13226550D02*
X30354526Y-13378950D01*
X30430726Y-13378950D02*
X30506926Y-13302750D01*
X30430726Y-13226550D01*
X30354526Y-13302750D01*
X30430726Y-13378950D01*
X30354526Y-15131550D02*
X30506926Y-15283950D01*
X30506926Y-15131550D02*
X30354526Y-15283950D01*
X30430726Y-15283950D02*
X30506926Y-15207750D01*
X30430726Y-15131550D01*
X30354526Y-15207750D01*
X30430726Y-15283950D01*
X30513276Y-11575550D02*
X30665676Y-11727950D01*
X30665676Y-11575550D02*
X30513276Y-11727950D01*
X30589476Y-11727950D02*
X30665676Y-11651750D01*
X30589476Y-11575550D01*
X30513276Y-11651750D01*
X30589476Y-11727950D01*
X30592651Y-5130300D02*
X30745051Y-5282700D01*
X30745051Y-5130300D02*
X30592651Y-5282700D01*
X30668851Y-5282700D02*
X30745051Y-5206500D01*
X30668851Y-5130300D01*
X30592651Y-5206500D01*
X30668851Y-5282700D01*
X30592651Y-7511550D02*
X30745051Y-7663950D01*
X30745051Y-7511550D02*
X30592651Y-7663950D01*
X30668851Y-7663950D02*
X30745051Y-7587750D01*
X30668851Y-7511550D01*
X30592651Y-7587750D01*
X30668851Y-7663950D01*
X30751401Y-9670550D02*
X30903801Y-9822950D01*
X30903801Y-9670550D02*
X30751401Y-9822950D01*
X30827601Y-9822950D02*
X30903801Y-9746750D01*
X30827601Y-9670550D01*
X30751401Y-9746750D01*
X30827601Y-9822950D01*
X30989526Y-13480550D02*
X31141926Y-13632950D01*
X31141926Y-13480550D02*
X30989526Y-13632950D01*
X31065726Y-13632950D02*
X31141926Y-13556750D01*
X31065726Y-13480550D01*
X30989526Y-13556750D01*
X31065726Y-13632950D01*
X30989526Y-15385550D02*
X31141926Y-15537950D01*
X31141926Y-15385550D02*
X30989526Y-15537950D01*
X31065726Y-15537950D02*
X31141926Y-15461750D01*
X31065726Y-15385550D01*
X30989526Y-15461750D01*
X31065726Y-15537950D01*
X31227651Y-5384300D02*
X31380051Y-5536700D01*
X31380051Y-5384300D02*
X31227651Y-5536700D01*
X31303851Y-5536700D02*
X31380051Y-5460500D01*
X31303851Y-5384300D01*
X31227651Y-5460500D01*
X31303851Y-5536700D01*
X31227651Y-7765550D02*
X31380051Y-7917950D01*
X31380051Y-7765550D02*
X31227651Y-7917950D01*
X31303851Y-7917950D02*
X31380051Y-7841750D01*
X31303851Y-7765550D01*
X31227651Y-7841750D01*
X31303851Y-7917950D01*
D11*
X2801845Y-16623601D02*
X2801845Y-16423601D01*
X2849464Y-16423601D01*
X2878036Y-16433125D01*
X2897083Y-16452173D01*
X2906607Y-16471220D01*
X2916131Y-16509315D01*
X2916131Y-16537887D01*
X2906607Y-16575982D01*
X2897083Y-16595030D01*
X2878036Y-16614077D01*
X2849464Y-16623601D01*
X2801845Y-16623601D01*
X3001845Y-16623601D02*
X3001845Y-16490268D01*
X3001845Y-16528363D02*
X3011369Y-16509315D01*
X3020893Y-16499792D01*
X3039940Y-16490268D01*
X3058988Y-16490268D01*
X3125655Y-16623601D02*
X3125655Y-16490268D01*
X3125655Y-16423601D02*
X3116131Y-16433125D01*
X3125655Y-16442649D01*
X3135178Y-16433125D01*
X3125655Y-16423601D01*
X3125655Y-16442649D01*
X3249464Y-16623601D02*
X3230417Y-16614077D01*
X3220893Y-16595030D01*
X3220893Y-16423601D01*
X3354226Y-16623601D02*
X3335178Y-16614077D01*
X3325655Y-16595030D01*
X3325655Y-16423601D01*
X3582798Y-16623601D02*
X3582798Y-16423601D01*
X3649464Y-16566458D01*
X3716131Y-16423601D01*
X3716131Y-16623601D01*
X3897083Y-16623601D02*
X3897083Y-16518839D01*
X3887559Y-16499792D01*
X3868512Y-16490268D01*
X3830417Y-16490268D01*
X3811369Y-16499792D01*
X3897083Y-16614077D02*
X3878036Y-16623601D01*
X3830417Y-16623601D01*
X3811369Y-16614077D01*
X3801845Y-16595030D01*
X3801845Y-16575982D01*
X3811369Y-16556934D01*
X3830417Y-16547411D01*
X3878036Y-16547411D01*
X3897083Y-16537887D01*
X3992321Y-16490268D02*
X3992321Y-16690268D01*
X3992321Y-16499792D02*
X4011369Y-16490268D01*
X4049464Y-16490268D01*
X4068512Y-16499792D01*
X4078036Y-16509315D01*
X4087559Y-16528363D01*
X4087559Y-16585506D01*
X4078036Y-16604553D01*
X4068512Y-16614077D01*
X4049464Y-16623601D01*
X4011369Y-16623601D01*
X3992321Y-16614077D01*
X4173274Y-16604553D02*
X4182798Y-16614077D01*
X4173274Y-16623601D01*
X4163750Y-16614077D01*
X4173274Y-16604553D01*
X4173274Y-16623601D01*
X4173274Y-16499792D02*
X4182798Y-16509315D01*
X4173274Y-16518839D01*
X4163750Y-16509315D01*
X4173274Y-16499792D01*
X4173274Y-16518839D01*
D12*
X2514226Y-16938125D02*
X2544226Y-16968125D01*
X2544226Y-16938125D02*
X2514226Y-16968125D01*
D11*
X2839940Y-16843601D02*
X2858988Y-16843601D01*
X2878036Y-16853125D01*
X2887559Y-16862649D01*
X2897083Y-16881696D01*
X2906607Y-16919792D01*
X2906607Y-16967411D01*
X2897083Y-17005506D01*
X2887559Y-17024554D01*
X2878036Y-17034077D01*
X2858988Y-17043601D01*
X2839940Y-17043601D01*
X2820893Y-17034077D01*
X2811369Y-17024554D01*
X2801845Y-17005506D01*
X2792321Y-16967411D01*
X2792321Y-16919792D01*
X2801845Y-16881696D01*
X2811369Y-16862649D01*
X2820893Y-16853125D01*
X2839940Y-16843601D01*
X2992321Y-17024554D02*
X3001845Y-17034077D01*
X2992321Y-17043601D01*
X2982798Y-17034077D01*
X2992321Y-17024554D01*
X2992321Y-17043601D01*
X3068512Y-16843601D02*
X3192321Y-16843601D01*
X3125655Y-16919792D01*
X3154226Y-16919792D01*
X3173274Y-16929315D01*
X3182798Y-16938839D01*
X3192321Y-16957887D01*
X3192321Y-17005506D01*
X3182798Y-17024554D01*
X3173274Y-17034077D01*
X3154226Y-17043601D01*
X3097083Y-17043601D01*
X3078036Y-17034077D01*
X3068512Y-17024554D01*
X3316131Y-16843601D02*
X3335178Y-16843601D01*
X3354226Y-16853125D01*
X3363750Y-16862649D01*
X3373274Y-16881696D01*
X3382798Y-16919792D01*
X3382798Y-16967411D01*
X3373274Y-17005506D01*
X3363750Y-17024554D01*
X3354226Y-17034077D01*
X3335178Y-17043601D01*
X3316131Y-17043601D01*
X3297083Y-17034077D01*
X3287559Y-17024554D01*
X3278036Y-17005506D01*
X3268512Y-16967411D01*
X3268512Y-16919792D01*
X3278036Y-16881696D01*
X3287559Y-16862649D01*
X3297083Y-16853125D01*
X3316131Y-16843601D01*
X3506607Y-16843601D02*
X3525655Y-16843601D01*
X3544702Y-16853125D01*
X3554226Y-16862649D01*
X3563750Y-16881696D01*
X3573274Y-16919792D01*
X3573274Y-16967411D01*
X3563750Y-17005506D01*
X3554226Y-17024554D01*
X3544702Y-17034077D01*
X3525655Y-17043601D01*
X3506607Y-17043601D01*
X3487559Y-17034077D01*
X3478036Y-17024554D01*
X3468512Y-17005506D01*
X3458988Y-16967411D01*
X3458988Y-16919792D01*
X3468512Y-16881696D01*
X3478036Y-16862649D01*
X3487559Y-16853125D01*
X3506607Y-16843601D01*
X3658988Y-17043601D02*
X3658988Y-16910268D01*
X3658988Y-16929315D02*
X3668512Y-16919792D01*
X3687559Y-16910268D01*
X3716131Y-16910268D01*
X3735178Y-16919792D01*
X3744702Y-16938839D01*
X3744702Y-17043601D01*
X3744702Y-16938839D02*
X3754226Y-16919792D01*
X3773274Y-16910268D01*
X3801845Y-16910268D01*
X3820893Y-16919792D01*
X3830417Y-16938839D01*
X3830417Y-17043601D01*
X3925655Y-17043601D02*
X3925655Y-16910268D01*
X3925655Y-16929315D02*
X3935178Y-16919792D01*
X3954226Y-16910268D01*
X3982798Y-16910268D01*
X4001845Y-16919792D01*
X4011369Y-16938839D01*
X4011369Y-17043601D01*
X4011369Y-16938839D02*
X4020893Y-16919792D01*
X4039940Y-16910268D01*
X4068512Y-16910268D01*
X4087559Y-16919792D01*
X4097083Y-16938839D01*
X4097083Y-17043601D01*
X4487560Y-16834077D02*
X4316131Y-17091220D01*
X4744702Y-16843601D02*
X4763750Y-16843601D01*
X4782798Y-16853125D01*
X4792321Y-16862649D01*
X4801845Y-16881696D01*
X4811369Y-16919792D01*
X4811369Y-16967411D01*
X4801845Y-17005506D01*
X4792321Y-17024554D01*
X4782798Y-17034077D01*
X4763750Y-17043601D01*
X4744702Y-17043601D01*
X4725655Y-17034077D01*
X4716131Y-17024554D01*
X4706607Y-17005506D01*
X4697083Y-16967411D01*
X4697083Y-16919792D01*
X4706607Y-16881696D01*
X4716131Y-16862649D01*
X4725655Y-16853125D01*
X4744702Y-16843601D01*
X4897083Y-17024554D02*
X4906607Y-17034077D01*
X4897083Y-17043601D01*
X4887560Y-17034077D01*
X4897083Y-17024554D01*
X4897083Y-17043601D01*
X5030417Y-16843601D02*
X5049464Y-16843601D01*
X5068512Y-16853125D01*
X5078036Y-16862649D01*
X5087560Y-16881696D01*
X5097083Y-16919792D01*
X5097083Y-16967411D01*
X5087560Y-17005506D01*
X5078036Y-17024554D01*
X5068512Y-17034077D01*
X5049464Y-17043601D01*
X5030417Y-17043601D01*
X5011369Y-17034077D01*
X5001845Y-17024554D01*
X4992321Y-17005506D01*
X4982798Y-16967411D01*
X4982798Y-16919792D01*
X4992321Y-16881696D01*
X5001845Y-16862649D01*
X5011369Y-16853125D01*
X5030417Y-16843601D01*
X5287560Y-17043601D02*
X5173274Y-17043601D01*
X5230417Y-17043601D02*
X5230417Y-16843601D01*
X5211369Y-16872173D01*
X5192321Y-16891220D01*
X5173274Y-16900744D01*
X5478036Y-17043601D02*
X5363750Y-17043601D01*
X5420893Y-17043601D02*
X5420893Y-16843601D01*
X5401845Y-16872173D01*
X5382798Y-16891220D01*
X5363750Y-16900744D01*
X5592321Y-16929315D02*
X5573274Y-16919792D01*
X5563750Y-16910268D01*
X5554226Y-16891220D01*
X5554226Y-16881696D01*
X5563750Y-16862649D01*
X5573274Y-16853125D01*
X5592321Y-16843601D01*
X5630417Y-16843601D01*
X5649464Y-16853125D01*
X5658988Y-16862649D01*
X5668512Y-16881696D01*
X5668512Y-16891220D01*
X5658988Y-16910268D01*
X5649464Y-16919792D01*
X5630417Y-16929315D01*
X5592321Y-16929315D01*
X5573274Y-16938839D01*
X5563750Y-16948363D01*
X5554226Y-16967411D01*
X5554226Y-17005506D01*
X5563750Y-17024554D01*
X5573274Y-17034077D01*
X5592321Y-17043601D01*
X5630417Y-17043601D01*
X5649464Y-17034077D01*
X5658988Y-17024554D01*
X5668512Y-17005506D01*
X5668512Y-16967411D01*
X5658988Y-16948363D01*
X5649464Y-16938839D01*
X5630417Y-16929315D01*
X5744702Y-16843601D02*
X5744702Y-16881696D01*
X5820893Y-16843601D02*
X5820893Y-16881696D01*
X6116131Y-17119792D02*
X6106607Y-17110268D01*
X6087559Y-17081696D01*
X6078036Y-17062649D01*
X6068512Y-17034077D01*
X6058988Y-16986458D01*
X6058988Y-16948363D01*
X6068512Y-16900744D01*
X6078036Y-16872173D01*
X6087559Y-16853125D01*
X6106607Y-16824554D01*
X6116131Y-16815030D01*
X6173274Y-16843601D02*
X6306607Y-16843601D01*
X6220893Y-17043601D01*
X6363750Y-16843601D02*
X6487559Y-16843601D01*
X6420893Y-16919792D01*
X6449464Y-16919792D01*
X6468512Y-16929315D01*
X6478036Y-16938839D01*
X6487559Y-16957887D01*
X6487559Y-17005506D01*
X6478036Y-17024554D01*
X6468512Y-17034077D01*
X6449464Y-17043601D01*
X6392321Y-17043601D01*
X6373274Y-17034077D01*
X6363750Y-17024554D01*
X6725655Y-17043601D02*
X6725655Y-16843601D01*
X6811369Y-17043601D02*
X6811369Y-16938839D01*
X6801845Y-16919792D01*
X6782798Y-16910268D01*
X6754226Y-16910268D01*
X6735178Y-16919792D01*
X6725655Y-16929315D01*
X6935178Y-17043601D02*
X6916131Y-17034077D01*
X6906607Y-17024554D01*
X6897083Y-17005506D01*
X6897083Y-16948363D01*
X6906607Y-16929315D01*
X6916131Y-16919792D01*
X6935178Y-16910268D01*
X6963750Y-16910268D01*
X6982798Y-16919792D01*
X6992321Y-16929315D01*
X7001845Y-16948363D01*
X7001845Y-17005506D01*
X6992321Y-17024554D01*
X6982798Y-17034077D01*
X6963750Y-17043601D01*
X6935178Y-17043601D01*
X7116131Y-17043601D02*
X7097083Y-17034077D01*
X7087559Y-17015030D01*
X7087559Y-16843601D01*
X7268512Y-17034077D02*
X7249464Y-17043601D01*
X7211369Y-17043601D01*
X7192321Y-17034077D01*
X7182798Y-17015030D01*
X7182798Y-16938839D01*
X7192321Y-16919792D01*
X7211369Y-16910268D01*
X7249464Y-16910268D01*
X7268512Y-16919792D01*
X7278036Y-16938839D01*
X7278036Y-16957887D01*
X7182798Y-16976935D01*
X7354226Y-17034077D02*
X7373274Y-17043601D01*
X7411369Y-17043601D01*
X7430417Y-17034077D01*
X7439940Y-17015030D01*
X7439940Y-17005506D01*
X7430417Y-16986458D01*
X7411369Y-16976935D01*
X7382798Y-16976935D01*
X7363750Y-16967411D01*
X7354226Y-16948363D01*
X7354226Y-16938839D01*
X7363750Y-16919792D01*
X7382798Y-16910268D01*
X7411369Y-16910268D01*
X7430417Y-16919792D01*
X7506607Y-17119792D02*
X7516131Y-17110268D01*
X7535178Y-17081696D01*
X7544702Y-17062649D01*
X7554226Y-17034077D01*
X7563750Y-16986458D01*
X7563750Y-16948363D01*
X7554226Y-16900744D01*
X7544702Y-16872173D01*
X7535178Y-16853125D01*
X7516131Y-16824554D01*
X7506607Y-16815030D01*
D12*
X2544226Y-17217125D02*
G75*
G03*
X2544226Y-17217125I-15000J0D01*
G01*
D11*
X2839940Y-17107601D02*
X2858988Y-17107601D01*
X2878036Y-17117125D01*
X2887559Y-17126649D01*
X2897083Y-17145696D01*
X2906607Y-17183792D01*
X2906607Y-17231411D01*
X2897083Y-17269506D01*
X2887559Y-17288554D01*
X2878036Y-17298077D01*
X2858988Y-17307601D01*
X2839940Y-17307601D01*
X2820893Y-17298077D01*
X2811369Y-17288554D01*
X2801845Y-17269506D01*
X2792321Y-17231411D01*
X2792321Y-17183792D01*
X2801845Y-17145696D01*
X2811369Y-17126649D01*
X2820893Y-17117125D01*
X2839940Y-17107601D01*
X2992321Y-17288554D02*
X3001845Y-17298077D01*
X2992321Y-17307601D01*
X2982798Y-17298077D01*
X2992321Y-17288554D01*
X2992321Y-17307601D01*
X3068512Y-17107601D02*
X3192321Y-17107601D01*
X3125655Y-17183792D01*
X3154226Y-17183792D01*
X3173274Y-17193315D01*
X3182798Y-17202839D01*
X3192321Y-17221887D01*
X3192321Y-17269506D01*
X3182798Y-17288554D01*
X3173274Y-17298077D01*
X3154226Y-17307601D01*
X3097083Y-17307601D01*
X3078036Y-17298077D01*
X3068512Y-17288554D01*
X3316131Y-17107601D02*
X3335178Y-17107601D01*
X3354226Y-17117125D01*
X3363750Y-17126649D01*
X3373274Y-17145696D01*
X3382798Y-17183792D01*
X3382798Y-17231411D01*
X3373274Y-17269506D01*
X3363750Y-17288554D01*
X3354226Y-17298077D01*
X3335178Y-17307601D01*
X3316131Y-17307601D01*
X3297083Y-17298077D01*
X3287559Y-17288554D01*
X3278036Y-17269506D01*
X3268512Y-17231411D01*
X3268512Y-17183792D01*
X3278036Y-17145696D01*
X3287559Y-17126649D01*
X3297083Y-17117125D01*
X3316131Y-17107601D01*
X3506607Y-17107601D02*
X3525655Y-17107601D01*
X3544702Y-17117125D01*
X3554226Y-17126649D01*
X3563750Y-17145696D01*
X3573274Y-17183792D01*
X3573274Y-17231411D01*
X3563750Y-17269506D01*
X3554226Y-17288554D01*
X3544702Y-17298077D01*
X3525655Y-17307601D01*
X3506607Y-17307601D01*
X3487559Y-17298077D01*
X3478036Y-17288554D01*
X3468512Y-17269506D01*
X3458988Y-17231411D01*
X3458988Y-17183792D01*
X3468512Y-17145696D01*
X3478036Y-17126649D01*
X3487559Y-17117125D01*
X3506607Y-17107601D01*
X3658988Y-17307601D02*
X3658988Y-17174268D01*
X3658988Y-17193315D02*
X3668512Y-17183792D01*
X3687559Y-17174268D01*
X3716131Y-17174268D01*
X3735178Y-17183792D01*
X3744702Y-17202839D01*
X3744702Y-17307601D01*
X3744702Y-17202839D02*
X3754226Y-17183792D01*
X3773274Y-17174268D01*
X3801845Y-17174268D01*
X3820893Y-17183792D01*
X3830417Y-17202839D01*
X3830417Y-17307601D01*
X3925655Y-17307601D02*
X3925655Y-17174268D01*
X3925655Y-17193315D02*
X3935178Y-17183792D01*
X3954226Y-17174268D01*
X3982798Y-17174268D01*
X4001845Y-17183792D01*
X4011369Y-17202839D01*
X4011369Y-17307601D01*
X4011369Y-17202839D02*
X4020893Y-17183792D01*
X4039940Y-17174268D01*
X4068512Y-17174268D01*
X4087559Y-17183792D01*
X4097083Y-17202839D01*
X4097083Y-17307601D01*
X4487560Y-17098077D02*
X4316131Y-17355220D01*
X4744702Y-17107601D02*
X4763750Y-17107601D01*
X4782798Y-17117125D01*
X4792321Y-17126649D01*
X4801845Y-17145696D01*
X4811369Y-17183792D01*
X4811369Y-17231411D01*
X4801845Y-17269506D01*
X4792321Y-17288554D01*
X4782798Y-17298077D01*
X4763750Y-17307601D01*
X4744702Y-17307601D01*
X4725655Y-17298077D01*
X4716131Y-17288554D01*
X4706607Y-17269506D01*
X4697083Y-17231411D01*
X4697083Y-17183792D01*
X4706607Y-17145696D01*
X4716131Y-17126649D01*
X4725655Y-17117125D01*
X4744702Y-17107601D01*
X4897083Y-17288554D02*
X4906607Y-17298077D01*
X4897083Y-17307601D01*
X4887560Y-17298077D01*
X4897083Y-17288554D01*
X4897083Y-17307601D01*
X5030417Y-17107601D02*
X5049464Y-17107601D01*
X5068512Y-17117125D01*
X5078036Y-17126649D01*
X5087560Y-17145696D01*
X5097083Y-17183792D01*
X5097083Y-17231411D01*
X5087560Y-17269506D01*
X5078036Y-17288554D01*
X5068512Y-17298077D01*
X5049464Y-17307601D01*
X5030417Y-17307601D01*
X5011369Y-17298077D01*
X5001845Y-17288554D01*
X4992321Y-17269506D01*
X4982798Y-17231411D01*
X4982798Y-17183792D01*
X4992321Y-17145696D01*
X5001845Y-17126649D01*
X5011369Y-17117125D01*
X5030417Y-17107601D01*
X5287560Y-17307601D02*
X5173274Y-17307601D01*
X5230417Y-17307601D02*
X5230417Y-17107601D01*
X5211369Y-17136173D01*
X5192321Y-17155220D01*
X5173274Y-17164744D01*
X5478036Y-17307601D02*
X5363750Y-17307601D01*
X5420893Y-17307601D02*
X5420893Y-17107601D01*
X5401845Y-17136173D01*
X5382798Y-17155220D01*
X5363750Y-17164744D01*
X5592321Y-17193315D02*
X5573274Y-17183792D01*
X5563750Y-17174268D01*
X5554226Y-17155220D01*
X5554226Y-17145696D01*
X5563750Y-17126649D01*
X5573274Y-17117125D01*
X5592321Y-17107601D01*
X5630417Y-17107601D01*
X5649464Y-17117125D01*
X5658988Y-17126649D01*
X5668512Y-17145696D01*
X5668512Y-17155220D01*
X5658988Y-17174268D01*
X5649464Y-17183792D01*
X5630417Y-17193315D01*
X5592321Y-17193315D01*
X5573274Y-17202839D01*
X5563750Y-17212363D01*
X5554226Y-17231411D01*
X5554226Y-17269506D01*
X5563750Y-17288554D01*
X5573274Y-17298077D01*
X5592321Y-17307601D01*
X5630417Y-17307601D01*
X5649464Y-17298077D01*
X5658988Y-17288554D01*
X5668512Y-17269506D01*
X5668512Y-17231411D01*
X5658988Y-17212363D01*
X5649464Y-17202839D01*
X5630417Y-17193315D01*
X5744702Y-17107601D02*
X5744702Y-17145696D01*
X5820893Y-17107601D02*
X5820893Y-17145696D01*
X6116131Y-17383792D02*
X6106607Y-17374268D01*
X6087559Y-17345696D01*
X6078036Y-17326649D01*
X6068512Y-17298077D01*
X6058988Y-17250458D01*
X6058988Y-17212363D01*
X6068512Y-17164744D01*
X6078036Y-17136173D01*
X6087559Y-17117125D01*
X6106607Y-17088554D01*
X6116131Y-17079030D01*
X6182798Y-17126649D02*
X6192321Y-17117125D01*
X6211369Y-17107601D01*
X6258988Y-17107601D01*
X6278036Y-17117125D01*
X6287559Y-17126649D01*
X6297083Y-17145696D01*
X6297083Y-17164744D01*
X6287559Y-17193315D01*
X6173274Y-17307601D01*
X6297083Y-17307601D01*
X6478036Y-17107601D02*
X6382798Y-17107601D01*
X6373274Y-17202839D01*
X6382798Y-17193315D01*
X6401845Y-17183792D01*
X6449464Y-17183792D01*
X6468512Y-17193315D01*
X6478036Y-17202839D01*
X6487559Y-17221887D01*
X6487559Y-17269506D01*
X6478036Y-17288554D01*
X6468512Y-17298077D01*
X6449464Y-17307601D01*
X6401845Y-17307601D01*
X6382798Y-17298077D01*
X6373274Y-17288554D01*
X6725655Y-17307601D02*
X6725655Y-17107601D01*
X6811369Y-17307601D02*
X6811369Y-17202839D01*
X6801845Y-17183792D01*
X6782798Y-17174268D01*
X6754226Y-17174268D01*
X6735178Y-17183792D01*
X6725655Y-17193315D01*
X6935178Y-17307601D02*
X6916131Y-17298077D01*
X6906607Y-17288554D01*
X6897083Y-17269506D01*
X6897083Y-17212363D01*
X6906607Y-17193315D01*
X6916131Y-17183792D01*
X6935178Y-17174268D01*
X6963750Y-17174268D01*
X6982798Y-17183792D01*
X6992321Y-17193315D01*
X7001845Y-17212363D01*
X7001845Y-17269506D01*
X6992321Y-17288554D01*
X6982798Y-17298077D01*
X6963750Y-17307601D01*
X6935178Y-17307601D01*
X7116131Y-17307601D02*
X7097083Y-17298077D01*
X7087559Y-17279030D01*
X7087559Y-17107601D01*
X7268512Y-17298077D02*
X7249464Y-17307601D01*
X7211369Y-17307601D01*
X7192321Y-17298077D01*
X7182798Y-17279030D01*
X7182798Y-17202839D01*
X7192321Y-17183792D01*
X7211369Y-17174268D01*
X7249464Y-17174268D01*
X7268512Y-17183792D01*
X7278036Y-17202839D01*
X7278036Y-17221887D01*
X7182798Y-17240935D01*
X7354226Y-17298077D02*
X7373274Y-17307601D01*
X7411369Y-17307601D01*
X7430417Y-17298077D01*
X7439940Y-17279030D01*
X7439940Y-17269506D01*
X7430417Y-17250458D01*
X7411369Y-17240935D01*
X7382798Y-17240935D01*
X7363750Y-17231411D01*
X7354226Y-17212363D01*
X7354226Y-17202839D01*
X7363750Y-17183792D01*
X7382798Y-17174268D01*
X7411369Y-17174268D01*
X7430417Y-17183792D01*
X7506607Y-17383792D02*
X7516131Y-17374268D01*
X7535178Y-17345696D01*
X7544702Y-17326649D01*
X7554226Y-17298077D01*
X7563750Y-17250458D01*
X7563750Y-17212363D01*
X7554226Y-17164744D01*
X7544702Y-17136173D01*
X7535178Y-17117125D01*
X7516131Y-17088554D01*
X7506607Y-17079030D01*
D13*
X2524226Y-17461125D02*
X2524226Y-17501125D01*
X2504226Y-17481125D02*
X2544226Y-17481125D01*
D11*
X2839940Y-17371601D02*
X2858988Y-17371601D01*
X2878036Y-17381125D01*
X2887559Y-17390649D01*
X2897083Y-17409696D01*
X2906607Y-17447792D01*
X2906607Y-17495411D01*
X2897083Y-17533506D01*
X2887559Y-17552554D01*
X2878036Y-17562077D01*
X2858988Y-17571601D01*
X2839940Y-17571601D01*
X2820893Y-17562077D01*
X2811369Y-17552554D01*
X2801845Y-17533506D01*
X2792321Y-17495411D01*
X2792321Y-17447792D01*
X2801845Y-17409696D01*
X2811369Y-17390649D01*
X2820893Y-17381125D01*
X2839940Y-17371601D01*
X2992321Y-17552554D02*
X3001845Y-17562077D01*
X2992321Y-17571601D01*
X2982798Y-17562077D01*
X2992321Y-17552554D01*
X2992321Y-17571601D01*
X3173274Y-17438268D02*
X3173274Y-17571601D01*
X3125655Y-17362077D02*
X3078036Y-17504935D01*
X3201845Y-17504935D01*
X3316131Y-17371601D02*
X3335178Y-17371601D01*
X3354226Y-17381125D01*
X3363750Y-17390649D01*
X3373274Y-17409696D01*
X3382798Y-17447792D01*
X3382798Y-17495411D01*
X3373274Y-17533506D01*
X3363750Y-17552554D01*
X3354226Y-17562077D01*
X3335178Y-17571601D01*
X3316131Y-17571601D01*
X3297083Y-17562077D01*
X3287559Y-17552554D01*
X3278036Y-17533506D01*
X3268512Y-17495411D01*
X3268512Y-17447792D01*
X3278036Y-17409696D01*
X3287559Y-17390649D01*
X3297083Y-17381125D01*
X3316131Y-17371601D01*
X3506607Y-17371601D02*
X3525655Y-17371601D01*
X3544702Y-17381125D01*
X3554226Y-17390649D01*
X3563750Y-17409696D01*
X3573274Y-17447792D01*
X3573274Y-17495411D01*
X3563750Y-17533506D01*
X3554226Y-17552554D01*
X3544702Y-17562077D01*
X3525655Y-17571601D01*
X3506607Y-17571601D01*
X3487559Y-17562077D01*
X3478036Y-17552554D01*
X3468512Y-17533506D01*
X3458988Y-17495411D01*
X3458988Y-17447792D01*
X3468512Y-17409696D01*
X3478036Y-17390649D01*
X3487559Y-17381125D01*
X3506607Y-17371601D01*
X3658988Y-17571601D02*
X3658988Y-17438268D01*
X3658988Y-17457315D02*
X3668512Y-17447792D01*
X3687559Y-17438268D01*
X3716131Y-17438268D01*
X3735178Y-17447792D01*
X3744702Y-17466839D01*
X3744702Y-17571601D01*
X3744702Y-17466839D02*
X3754226Y-17447792D01*
X3773274Y-17438268D01*
X3801845Y-17438268D01*
X3820893Y-17447792D01*
X3830417Y-17466839D01*
X3830417Y-17571601D01*
X3925655Y-17571601D02*
X3925655Y-17438268D01*
X3925655Y-17457315D02*
X3935178Y-17447792D01*
X3954226Y-17438268D01*
X3982798Y-17438268D01*
X4001845Y-17447792D01*
X4011369Y-17466839D01*
X4011369Y-17571601D01*
X4011369Y-17466839D02*
X4020893Y-17447792D01*
X4039940Y-17438268D01*
X4068512Y-17438268D01*
X4087559Y-17447792D01*
X4097083Y-17466839D01*
X4097083Y-17571601D01*
X4487560Y-17362077D02*
X4316131Y-17619220D01*
X4744702Y-17371601D02*
X4763750Y-17371601D01*
X4782798Y-17381125D01*
X4792321Y-17390649D01*
X4801845Y-17409696D01*
X4811369Y-17447792D01*
X4811369Y-17495411D01*
X4801845Y-17533506D01*
X4792321Y-17552554D01*
X4782798Y-17562077D01*
X4763750Y-17571601D01*
X4744702Y-17571601D01*
X4725655Y-17562077D01*
X4716131Y-17552554D01*
X4706607Y-17533506D01*
X4697083Y-17495411D01*
X4697083Y-17447792D01*
X4706607Y-17409696D01*
X4716131Y-17390649D01*
X4725655Y-17381125D01*
X4744702Y-17371601D01*
X4897083Y-17552554D02*
X4906607Y-17562077D01*
X4897083Y-17571601D01*
X4887560Y-17562077D01*
X4897083Y-17552554D01*
X4897083Y-17571601D01*
X5030417Y-17371601D02*
X5049464Y-17371601D01*
X5068512Y-17381125D01*
X5078036Y-17390649D01*
X5087560Y-17409696D01*
X5097083Y-17447792D01*
X5097083Y-17495411D01*
X5087560Y-17533506D01*
X5078036Y-17552554D01*
X5068512Y-17562077D01*
X5049464Y-17571601D01*
X5030417Y-17571601D01*
X5011369Y-17562077D01*
X5001845Y-17552554D01*
X4992321Y-17533506D01*
X4982798Y-17495411D01*
X4982798Y-17447792D01*
X4992321Y-17409696D01*
X5001845Y-17390649D01*
X5011369Y-17381125D01*
X5030417Y-17371601D01*
X5287560Y-17571601D02*
X5173274Y-17571601D01*
X5230417Y-17571601D02*
X5230417Y-17371601D01*
X5211369Y-17400173D01*
X5192321Y-17419220D01*
X5173274Y-17428744D01*
X5468512Y-17371601D02*
X5373274Y-17371601D01*
X5363750Y-17466839D01*
X5373274Y-17457315D01*
X5392321Y-17447792D01*
X5439940Y-17447792D01*
X5458988Y-17457315D01*
X5468512Y-17466839D01*
X5478036Y-17485887D01*
X5478036Y-17533506D01*
X5468512Y-17552554D01*
X5458988Y-17562077D01*
X5439940Y-17571601D01*
X5392321Y-17571601D01*
X5373274Y-17562077D01*
X5363750Y-17552554D01*
X5544702Y-17371601D02*
X5678036Y-17371601D01*
X5592321Y-17571601D01*
X5744702Y-17371601D02*
X5744702Y-17409696D01*
X5820893Y-17371601D02*
X5820893Y-17409696D01*
X6116131Y-17647792D02*
X6106607Y-17638268D01*
X6087559Y-17609696D01*
X6078036Y-17590649D01*
X6068512Y-17562077D01*
X6058988Y-17514458D01*
X6058988Y-17476363D01*
X6068512Y-17428744D01*
X6078036Y-17400173D01*
X6087559Y-17381125D01*
X6106607Y-17352554D01*
X6116131Y-17343030D01*
X6297083Y-17571601D02*
X6182798Y-17571601D01*
X6239940Y-17571601D02*
X6239940Y-17371601D01*
X6220893Y-17400173D01*
X6201845Y-17419220D01*
X6182798Y-17428744D01*
X6363750Y-17371601D02*
X6497083Y-17371601D01*
X6411369Y-17571601D01*
X6725655Y-17571601D02*
X6725655Y-17371601D01*
X6811369Y-17571601D02*
X6811369Y-17466839D01*
X6801845Y-17447792D01*
X6782798Y-17438268D01*
X6754226Y-17438268D01*
X6735178Y-17447792D01*
X6725655Y-17457315D01*
X6935178Y-17571601D02*
X6916131Y-17562077D01*
X6906607Y-17552554D01*
X6897083Y-17533506D01*
X6897083Y-17476363D01*
X6906607Y-17457315D01*
X6916131Y-17447792D01*
X6935178Y-17438268D01*
X6963750Y-17438268D01*
X6982798Y-17447792D01*
X6992321Y-17457315D01*
X7001845Y-17476363D01*
X7001845Y-17533506D01*
X6992321Y-17552554D01*
X6982798Y-17562077D01*
X6963750Y-17571601D01*
X6935178Y-17571601D01*
X7116131Y-17571601D02*
X7097083Y-17562077D01*
X7087559Y-17543030D01*
X7087559Y-17371601D01*
X7268512Y-17562077D02*
X7249464Y-17571601D01*
X7211369Y-17571601D01*
X7192321Y-17562077D01*
X7182798Y-17543030D01*
X7182798Y-17466839D01*
X7192321Y-17447792D01*
X7211369Y-17438268D01*
X7249464Y-17438268D01*
X7268512Y-17447792D01*
X7278036Y-17466839D01*
X7278036Y-17485887D01*
X7182798Y-17504935D01*
X7354226Y-17562077D02*
X7373274Y-17571601D01*
X7411369Y-17571601D01*
X7430417Y-17562077D01*
X7439940Y-17543030D01*
X7439940Y-17533506D01*
X7430417Y-17514458D01*
X7411369Y-17504935D01*
X7382798Y-17504935D01*
X7363750Y-17495411D01*
X7354226Y-17476363D01*
X7354226Y-17466839D01*
X7363750Y-17447792D01*
X7382798Y-17438268D01*
X7411369Y-17438268D01*
X7430417Y-17447792D01*
X7506607Y-17647792D02*
X7516131Y-17638268D01*
X7535178Y-17609696D01*
X7544702Y-17590649D01*
X7554226Y-17562077D01*
X7563750Y-17514458D01*
X7563750Y-17476363D01*
X7554226Y-17428744D01*
X7544702Y-17400173D01*
X7535178Y-17381125D01*
X7516131Y-17352554D01*
X7506607Y-17343030D01*
D14*
X2536904Y-17762803D02*
X2536904Y-17727447D01*
X2501548Y-17727447D01*
X2501548Y-17762803D01*
X2536904Y-17762803D01*
D11*
X2839940Y-17635601D02*
X2858988Y-17635601D01*
X2878036Y-17645125D01*
X2887559Y-17654649D01*
X2897083Y-17673696D01*
X2906607Y-17711792D01*
X2906607Y-17759411D01*
X2897083Y-17797506D01*
X2887559Y-17816554D01*
X2878036Y-17826077D01*
X2858988Y-17835601D01*
X2839940Y-17835601D01*
X2820893Y-17826077D01*
X2811369Y-17816554D01*
X2801845Y-17797506D01*
X2792321Y-17759411D01*
X2792321Y-17711792D01*
X2801845Y-17673696D01*
X2811369Y-17654649D01*
X2820893Y-17645125D01*
X2839940Y-17635601D01*
X2992321Y-17816554D02*
X3001845Y-17826077D01*
X2992321Y-17835601D01*
X2982798Y-17826077D01*
X2992321Y-17816554D01*
X2992321Y-17835601D01*
X3182798Y-17635601D02*
X3087559Y-17635601D01*
X3078036Y-17730839D01*
X3087559Y-17721315D01*
X3106607Y-17711792D01*
X3154226Y-17711792D01*
X3173274Y-17721315D01*
X3182798Y-17730839D01*
X3192321Y-17749887D01*
X3192321Y-17797506D01*
X3182798Y-17816554D01*
X3173274Y-17826077D01*
X3154226Y-17835601D01*
X3106607Y-17835601D01*
X3087559Y-17826077D01*
X3078036Y-17816554D01*
X3316131Y-17635601D02*
X3335178Y-17635601D01*
X3354226Y-17645125D01*
X3363750Y-17654649D01*
X3373274Y-17673696D01*
X3382798Y-17711792D01*
X3382798Y-17759411D01*
X3373274Y-17797506D01*
X3363750Y-17816554D01*
X3354226Y-17826077D01*
X3335178Y-17835601D01*
X3316131Y-17835601D01*
X3297083Y-17826077D01*
X3287559Y-17816554D01*
X3278036Y-17797506D01*
X3268512Y-17759411D01*
X3268512Y-17711792D01*
X3278036Y-17673696D01*
X3287559Y-17654649D01*
X3297083Y-17645125D01*
X3316131Y-17635601D01*
X3506607Y-17635601D02*
X3525655Y-17635601D01*
X3544702Y-17645125D01*
X3554226Y-17654649D01*
X3563750Y-17673696D01*
X3573274Y-17711792D01*
X3573274Y-17759411D01*
X3563750Y-17797506D01*
X3554226Y-17816554D01*
X3544702Y-17826077D01*
X3525655Y-17835601D01*
X3506607Y-17835601D01*
X3487559Y-17826077D01*
X3478036Y-17816554D01*
X3468512Y-17797506D01*
X3458988Y-17759411D01*
X3458988Y-17711792D01*
X3468512Y-17673696D01*
X3478036Y-17654649D01*
X3487559Y-17645125D01*
X3506607Y-17635601D01*
X3658988Y-17835601D02*
X3658988Y-17702268D01*
X3658988Y-17721315D02*
X3668512Y-17711792D01*
X3687559Y-17702268D01*
X3716131Y-17702268D01*
X3735178Y-17711792D01*
X3744702Y-17730839D01*
X3744702Y-17835601D01*
X3744702Y-17730839D02*
X3754226Y-17711792D01*
X3773274Y-17702268D01*
X3801845Y-17702268D01*
X3820893Y-17711792D01*
X3830417Y-17730839D01*
X3830417Y-17835601D01*
X3925655Y-17835601D02*
X3925655Y-17702268D01*
X3925655Y-17721315D02*
X3935178Y-17711792D01*
X3954226Y-17702268D01*
X3982798Y-17702268D01*
X4001845Y-17711792D01*
X4011369Y-17730839D01*
X4011369Y-17835601D01*
X4011369Y-17730839D02*
X4020893Y-17711792D01*
X4039940Y-17702268D01*
X4068512Y-17702268D01*
X4087559Y-17711792D01*
X4097083Y-17730839D01*
X4097083Y-17835601D01*
X4487560Y-17626077D02*
X4316131Y-17883220D01*
X4744702Y-17635601D02*
X4763750Y-17635601D01*
X4782798Y-17645125D01*
X4792321Y-17654649D01*
X4801845Y-17673696D01*
X4811369Y-17711792D01*
X4811369Y-17759411D01*
X4801845Y-17797506D01*
X4792321Y-17816554D01*
X4782798Y-17826077D01*
X4763750Y-17835601D01*
X4744702Y-17835601D01*
X4725655Y-17826077D01*
X4716131Y-17816554D01*
X4706607Y-17797506D01*
X4697083Y-17759411D01*
X4697083Y-17711792D01*
X4706607Y-17673696D01*
X4716131Y-17654649D01*
X4725655Y-17645125D01*
X4744702Y-17635601D01*
X4897083Y-17816554D02*
X4906607Y-17826077D01*
X4897083Y-17835601D01*
X4887560Y-17826077D01*
X4897083Y-17816554D01*
X4897083Y-17835601D01*
X5030417Y-17635601D02*
X5049464Y-17635601D01*
X5068512Y-17645125D01*
X5078036Y-17654649D01*
X5087560Y-17673696D01*
X5097083Y-17711792D01*
X5097083Y-17759411D01*
X5087560Y-17797506D01*
X5078036Y-17816554D01*
X5068512Y-17826077D01*
X5049464Y-17835601D01*
X5030417Y-17835601D01*
X5011369Y-17826077D01*
X5001845Y-17816554D01*
X4992321Y-17797506D01*
X4982798Y-17759411D01*
X4982798Y-17711792D01*
X4992321Y-17673696D01*
X5001845Y-17654649D01*
X5011369Y-17645125D01*
X5030417Y-17635601D01*
X5287560Y-17835601D02*
X5173274Y-17835601D01*
X5230417Y-17835601D02*
X5230417Y-17635601D01*
X5211369Y-17664173D01*
X5192321Y-17683220D01*
X5173274Y-17692744D01*
X5382798Y-17835601D02*
X5420893Y-17835601D01*
X5439940Y-17826077D01*
X5449464Y-17816554D01*
X5468512Y-17787982D01*
X5478036Y-17749887D01*
X5478036Y-17673696D01*
X5468512Y-17654649D01*
X5458988Y-17645125D01*
X5439940Y-17635601D01*
X5401845Y-17635601D01*
X5382798Y-17645125D01*
X5373274Y-17654649D01*
X5363750Y-17673696D01*
X5363750Y-17721315D01*
X5373274Y-17740363D01*
X5382798Y-17749887D01*
X5401845Y-17759411D01*
X5439940Y-17759411D01*
X5458988Y-17749887D01*
X5468512Y-17740363D01*
X5478036Y-17721315D01*
X5544702Y-17635601D02*
X5678036Y-17635601D01*
X5592321Y-17835601D01*
X5744702Y-17635601D02*
X5744702Y-17673696D01*
X5820893Y-17635601D02*
X5820893Y-17673696D01*
X6116131Y-17911792D02*
X6106607Y-17902268D01*
X6087559Y-17873696D01*
X6078036Y-17854649D01*
X6068512Y-17826077D01*
X6058988Y-17778458D01*
X6058988Y-17740363D01*
X6068512Y-17692744D01*
X6078036Y-17664173D01*
X6087559Y-17645125D01*
X6106607Y-17616554D01*
X6116131Y-17607030D01*
X6173274Y-17635601D02*
X6306607Y-17635601D01*
X6220893Y-17835601D01*
X6535178Y-17835601D02*
X6535178Y-17635601D01*
X6620893Y-17835601D02*
X6620893Y-17730839D01*
X6611369Y-17711792D01*
X6592321Y-17702268D01*
X6563750Y-17702268D01*
X6544702Y-17711792D01*
X6535178Y-17721315D01*
X6744702Y-17835601D02*
X6725655Y-17826077D01*
X6716131Y-17816554D01*
X6706607Y-17797506D01*
X6706607Y-17740363D01*
X6716131Y-17721315D01*
X6725655Y-17711792D01*
X6744702Y-17702268D01*
X6773274Y-17702268D01*
X6792321Y-17711792D01*
X6801845Y-17721315D01*
X6811369Y-17740363D01*
X6811369Y-17797506D01*
X6801845Y-17816554D01*
X6792321Y-17826077D01*
X6773274Y-17835601D01*
X6744702Y-17835601D01*
X6925655Y-17835601D02*
X6906607Y-17826077D01*
X6897083Y-17807030D01*
X6897083Y-17635601D01*
X7078036Y-17826077D02*
X7058988Y-17835601D01*
X7020893Y-17835601D01*
X7001845Y-17826077D01*
X6992321Y-17807030D01*
X6992321Y-17730839D01*
X7001845Y-17711792D01*
X7020893Y-17702268D01*
X7058988Y-17702268D01*
X7078036Y-17711792D01*
X7087559Y-17730839D01*
X7087559Y-17749887D01*
X6992321Y-17768935D01*
X7163750Y-17826077D02*
X7182798Y-17835601D01*
X7220893Y-17835601D01*
X7239940Y-17826077D01*
X7249464Y-17807030D01*
X7249464Y-17797506D01*
X7239940Y-17778458D01*
X7220893Y-17768935D01*
X7192321Y-17768935D01*
X7173274Y-17759411D01*
X7163750Y-17740363D01*
X7163750Y-17730839D01*
X7173274Y-17711792D01*
X7192321Y-17702268D01*
X7220893Y-17702268D01*
X7239940Y-17711792D01*
X7316131Y-17911792D02*
X7325655Y-17902268D01*
X7344702Y-17873696D01*
X7354226Y-17854649D01*
X7363750Y-17826077D01*
X7373274Y-17778458D01*
X7373274Y-17740363D01*
X7363750Y-17692744D01*
X7354226Y-17664173D01*
X7344702Y-17645125D01*
X7325655Y-17616554D01*
X7316131Y-17607030D01*
D15*
X2514226Y-18039125D02*
X2544226Y-18009125D01*
X2514226Y-17979125D01*
X2484226Y-18009125D01*
X2514226Y-18039125D01*
D11*
X2839940Y-17899601D02*
X2858988Y-17899601D01*
X2878036Y-17909125D01*
X2887559Y-17918649D01*
X2897083Y-17937696D01*
X2906607Y-17975792D01*
X2906607Y-18023411D01*
X2897083Y-18061506D01*
X2887559Y-18080554D01*
X2878036Y-18090077D01*
X2858988Y-18099601D01*
X2839940Y-18099601D01*
X2820893Y-18090077D01*
X2811369Y-18080554D01*
X2801845Y-18061506D01*
X2792321Y-18023411D01*
X2792321Y-17975792D01*
X2801845Y-17937696D01*
X2811369Y-17918649D01*
X2820893Y-17909125D01*
X2839940Y-17899601D01*
X2992321Y-18080554D02*
X3001845Y-18090077D01*
X2992321Y-18099601D01*
X2982798Y-18090077D01*
X2992321Y-18080554D01*
X2992321Y-18099601D01*
X3173274Y-17899601D02*
X3135178Y-17899601D01*
X3116131Y-17909125D01*
X3106607Y-17918649D01*
X3087559Y-17947220D01*
X3078036Y-17985315D01*
X3078036Y-18061506D01*
X3087559Y-18080554D01*
X3097083Y-18090077D01*
X3116131Y-18099601D01*
X3154226Y-18099601D01*
X3173274Y-18090077D01*
X3182798Y-18080554D01*
X3192321Y-18061506D01*
X3192321Y-18013887D01*
X3182798Y-17994839D01*
X3173274Y-17985315D01*
X3154226Y-17975792D01*
X3116131Y-17975792D01*
X3097083Y-17985315D01*
X3087559Y-17994839D01*
X3078036Y-18013887D01*
X3316131Y-17899601D02*
X3335178Y-17899601D01*
X3354226Y-17909125D01*
X3363750Y-17918649D01*
X3373274Y-17937696D01*
X3382798Y-17975792D01*
X3382798Y-18023411D01*
X3373274Y-18061506D01*
X3363750Y-18080554D01*
X3354226Y-18090077D01*
X3335178Y-18099601D01*
X3316131Y-18099601D01*
X3297083Y-18090077D01*
X3287559Y-18080554D01*
X3278036Y-18061506D01*
X3268512Y-18023411D01*
X3268512Y-17975792D01*
X3278036Y-17937696D01*
X3287559Y-17918649D01*
X3297083Y-17909125D01*
X3316131Y-17899601D01*
X3506607Y-17899601D02*
X3525655Y-17899601D01*
X3544702Y-17909125D01*
X3554226Y-17918649D01*
X3563750Y-17937696D01*
X3573274Y-17975792D01*
X3573274Y-18023411D01*
X3563750Y-18061506D01*
X3554226Y-18080554D01*
X3544702Y-18090077D01*
X3525655Y-18099601D01*
X3506607Y-18099601D01*
X3487559Y-18090077D01*
X3478036Y-18080554D01*
X3468512Y-18061506D01*
X3458988Y-18023411D01*
X3458988Y-17975792D01*
X3468512Y-17937696D01*
X3478036Y-17918649D01*
X3487559Y-17909125D01*
X3506607Y-17899601D01*
X3658988Y-18099601D02*
X3658988Y-17966268D01*
X3658988Y-17985315D02*
X3668512Y-17975792D01*
X3687559Y-17966268D01*
X3716131Y-17966268D01*
X3735178Y-17975792D01*
X3744702Y-17994839D01*
X3744702Y-18099601D01*
X3744702Y-17994839D02*
X3754226Y-17975792D01*
X3773274Y-17966268D01*
X3801845Y-17966268D01*
X3820893Y-17975792D01*
X3830417Y-17994839D01*
X3830417Y-18099601D01*
X3925655Y-18099601D02*
X3925655Y-17966268D01*
X3925655Y-17985315D02*
X3935178Y-17975792D01*
X3954226Y-17966268D01*
X3982798Y-17966268D01*
X4001845Y-17975792D01*
X4011369Y-17994839D01*
X4011369Y-18099601D01*
X4011369Y-17994839D02*
X4020893Y-17975792D01*
X4039940Y-17966268D01*
X4068512Y-17966268D01*
X4087559Y-17975792D01*
X4097083Y-17994839D01*
X4097083Y-18099601D01*
X4487560Y-17890077D02*
X4316131Y-18147220D01*
X4744702Y-17899601D02*
X4763750Y-17899601D01*
X4782798Y-17909125D01*
X4792321Y-17918649D01*
X4801845Y-17937696D01*
X4811369Y-17975792D01*
X4811369Y-18023411D01*
X4801845Y-18061506D01*
X4792321Y-18080554D01*
X4782798Y-18090077D01*
X4763750Y-18099601D01*
X4744702Y-18099601D01*
X4725655Y-18090077D01*
X4716131Y-18080554D01*
X4706607Y-18061506D01*
X4697083Y-18023411D01*
X4697083Y-17975792D01*
X4706607Y-17937696D01*
X4716131Y-17918649D01*
X4725655Y-17909125D01*
X4744702Y-17899601D01*
X4897083Y-18080554D02*
X4906607Y-18090077D01*
X4897083Y-18099601D01*
X4887560Y-18090077D01*
X4897083Y-18080554D01*
X4897083Y-18099601D01*
X5030417Y-17899601D02*
X5049464Y-17899601D01*
X5068512Y-17909125D01*
X5078036Y-17918649D01*
X5087560Y-17937696D01*
X5097083Y-17975792D01*
X5097083Y-18023411D01*
X5087560Y-18061506D01*
X5078036Y-18080554D01*
X5068512Y-18090077D01*
X5049464Y-18099601D01*
X5030417Y-18099601D01*
X5011369Y-18090077D01*
X5001845Y-18080554D01*
X4992321Y-18061506D01*
X4982798Y-18023411D01*
X4982798Y-17975792D01*
X4992321Y-17937696D01*
X5001845Y-17918649D01*
X5011369Y-17909125D01*
X5030417Y-17899601D01*
X5173274Y-17918649D02*
X5182798Y-17909125D01*
X5201845Y-17899601D01*
X5249464Y-17899601D01*
X5268512Y-17909125D01*
X5278036Y-17918649D01*
X5287560Y-17937696D01*
X5287560Y-17956744D01*
X5278036Y-17985315D01*
X5163750Y-18099601D01*
X5287560Y-18099601D01*
X5354226Y-17899601D02*
X5478036Y-17899601D01*
X5411369Y-17975792D01*
X5439940Y-17975792D01*
X5458988Y-17985315D01*
X5468512Y-17994839D01*
X5478036Y-18013887D01*
X5478036Y-18061506D01*
X5468512Y-18080554D01*
X5458988Y-18090077D01*
X5439940Y-18099601D01*
X5382798Y-18099601D01*
X5363750Y-18090077D01*
X5354226Y-18080554D01*
X5649464Y-17899601D02*
X5611369Y-17899601D01*
X5592321Y-17909125D01*
X5582798Y-17918649D01*
X5563750Y-17947220D01*
X5554226Y-17985315D01*
X5554226Y-18061506D01*
X5563750Y-18080554D01*
X5573274Y-18090077D01*
X5592321Y-18099601D01*
X5630417Y-18099601D01*
X5649464Y-18090077D01*
X5658988Y-18080554D01*
X5668512Y-18061506D01*
X5668512Y-18013887D01*
X5658988Y-17994839D01*
X5649464Y-17985315D01*
X5630417Y-17975792D01*
X5592321Y-17975792D01*
X5573274Y-17985315D01*
X5563750Y-17994839D01*
X5554226Y-18013887D01*
X5744702Y-17899601D02*
X5744702Y-17937696D01*
X5820893Y-17899601D02*
X5820893Y-17937696D01*
X6116131Y-18175792D02*
X6106607Y-18166268D01*
X6087559Y-18137696D01*
X6078036Y-18118649D01*
X6068512Y-18090077D01*
X6058988Y-18042458D01*
X6058988Y-18004363D01*
X6068512Y-17956744D01*
X6078036Y-17928173D01*
X6087559Y-17909125D01*
X6106607Y-17880554D01*
X6116131Y-17871030D01*
X6230417Y-17899601D02*
X6249464Y-17899601D01*
X6268512Y-17909125D01*
X6278036Y-17918649D01*
X6287559Y-17937696D01*
X6297083Y-17975792D01*
X6297083Y-18023411D01*
X6287559Y-18061506D01*
X6278036Y-18080554D01*
X6268512Y-18090077D01*
X6249464Y-18099601D01*
X6230417Y-18099601D01*
X6211369Y-18090077D01*
X6201845Y-18080554D01*
X6192321Y-18061506D01*
X6182798Y-18023411D01*
X6182798Y-17975792D01*
X6192321Y-17937696D01*
X6201845Y-17918649D01*
X6211369Y-17909125D01*
X6230417Y-17899601D01*
X6535178Y-18099601D02*
X6535178Y-17899601D01*
X6620893Y-18099601D02*
X6620893Y-17994839D01*
X6611369Y-17975792D01*
X6592321Y-17966268D01*
X6563750Y-17966268D01*
X6544702Y-17975792D01*
X6535178Y-17985315D01*
X6744702Y-18099601D02*
X6725655Y-18090077D01*
X6716131Y-18080554D01*
X6706607Y-18061506D01*
X6706607Y-18004363D01*
X6716131Y-17985315D01*
X6725655Y-17975792D01*
X6744702Y-17966268D01*
X6773274Y-17966268D01*
X6792321Y-17975792D01*
X6801845Y-17985315D01*
X6811369Y-18004363D01*
X6811369Y-18061506D01*
X6801845Y-18080554D01*
X6792321Y-18090077D01*
X6773274Y-18099601D01*
X6744702Y-18099601D01*
X6925655Y-18099601D02*
X6906607Y-18090077D01*
X6897083Y-18071030D01*
X6897083Y-17899601D01*
X7078036Y-18090077D02*
X7058988Y-18099601D01*
X7020893Y-18099601D01*
X7001845Y-18090077D01*
X6992321Y-18071030D01*
X6992321Y-17994839D01*
X7001845Y-17975792D01*
X7020893Y-17966268D01*
X7058988Y-17966268D01*
X7078036Y-17975792D01*
X7087559Y-17994839D01*
X7087559Y-18013887D01*
X6992321Y-18032935D01*
X7163750Y-18090077D02*
X7182798Y-18099601D01*
X7220893Y-18099601D01*
X7239940Y-18090077D01*
X7249464Y-18071030D01*
X7249464Y-18061506D01*
X7239940Y-18042458D01*
X7220893Y-18032935D01*
X7192321Y-18032935D01*
X7173274Y-18023411D01*
X7163750Y-18004363D01*
X7163750Y-17994839D01*
X7173274Y-17975792D01*
X7192321Y-17966268D01*
X7220893Y-17966268D01*
X7239940Y-17975792D01*
X7487559Y-18023411D02*
X7639940Y-18023411D01*
X7563750Y-18099601D02*
X7563750Y-17947220D01*
X7973274Y-17966268D02*
X7973274Y-18099601D01*
X7925655Y-17890077D02*
X7878036Y-18032935D01*
X8001845Y-18032935D01*
X8220893Y-18090077D02*
X8239940Y-18099601D01*
X8278036Y-18099601D01*
X8297083Y-18090077D01*
X8306607Y-18071030D01*
X8306607Y-18061506D01*
X8297083Y-18042458D01*
X8278036Y-18032935D01*
X8249464Y-18032935D01*
X8230417Y-18023411D01*
X8220893Y-18004363D01*
X8220893Y-17994839D01*
X8230417Y-17975792D01*
X8249464Y-17966268D01*
X8278036Y-17966268D01*
X8297083Y-17975792D01*
X8420893Y-18099601D02*
X8401845Y-18090077D01*
X8392321Y-18071030D01*
X8392321Y-17899601D01*
X8525655Y-18099601D02*
X8506607Y-18090077D01*
X8497083Y-18080554D01*
X8487560Y-18061506D01*
X8487560Y-18004363D01*
X8497083Y-17985315D01*
X8506607Y-17975792D01*
X8525655Y-17966268D01*
X8554226Y-17966268D01*
X8573274Y-17975792D01*
X8582798Y-17985315D01*
X8592321Y-18004363D01*
X8592321Y-18061506D01*
X8582798Y-18080554D01*
X8573274Y-18090077D01*
X8554226Y-18099601D01*
X8525655Y-18099601D01*
X8649464Y-17966268D02*
X8725655Y-17966268D01*
X8678036Y-17899601D02*
X8678036Y-18071030D01*
X8687560Y-18090077D01*
X8706607Y-18099601D01*
X8725655Y-18099601D01*
X8782798Y-18090077D02*
X8801845Y-18099601D01*
X8839940Y-18099601D01*
X8858988Y-18090077D01*
X8868512Y-18071030D01*
X8868512Y-18061506D01*
X8858988Y-18042458D01*
X8839940Y-18032935D01*
X8811369Y-18032935D01*
X8792321Y-18023411D01*
X8782798Y-18004363D01*
X8782798Y-17994839D01*
X8792321Y-17975792D01*
X8811369Y-17966268D01*
X8839940Y-17966268D01*
X8858988Y-17975792D01*
X8935179Y-18175792D02*
X8944702Y-18166268D01*
X8963750Y-18137696D01*
X8973274Y-18118649D01*
X8982798Y-18090077D01*
X8992321Y-18042458D01*
X8992321Y-18004363D01*
X8982798Y-17956744D01*
X8973274Y-17928173D01*
X8963750Y-17909125D01*
X8944702Y-17880554D01*
X8935179Y-17871030D01*
D16*
X2468026Y-18235025D02*
X2544226Y-18311225D01*
X2544226Y-18235025D02*
X2468026Y-18311225D01*
X2544226Y-18273125D02*
G75*
G03*
X2544226Y-18273125I-38100J0D01*
G01*
D11*
X2839940Y-18163601D02*
X2858988Y-18163601D01*
X2878036Y-18173125D01*
X2887559Y-18182649D01*
X2897083Y-18201696D01*
X2906607Y-18239792D01*
X2906607Y-18287411D01*
X2897083Y-18325506D01*
X2887559Y-18344554D01*
X2878036Y-18354077D01*
X2858988Y-18363601D01*
X2839940Y-18363601D01*
X2820893Y-18354077D01*
X2811369Y-18344554D01*
X2801845Y-18325506D01*
X2792321Y-18287411D01*
X2792321Y-18239792D01*
X2801845Y-18201696D01*
X2811369Y-18182649D01*
X2820893Y-18173125D01*
X2839940Y-18163601D01*
X2992321Y-18344554D02*
X3001845Y-18354077D01*
X2992321Y-18363601D01*
X2982798Y-18354077D01*
X2992321Y-18344554D01*
X2992321Y-18363601D01*
X3068512Y-18163601D02*
X3201845Y-18163601D01*
X3116131Y-18363601D01*
X3363750Y-18163601D02*
X3325655Y-18163601D01*
X3306607Y-18173125D01*
X3297083Y-18182649D01*
X3278036Y-18211220D01*
X3268512Y-18249315D01*
X3268512Y-18325506D01*
X3278036Y-18344554D01*
X3287559Y-18354077D01*
X3306607Y-18363601D01*
X3344702Y-18363601D01*
X3363750Y-18354077D01*
X3373274Y-18344554D01*
X3382798Y-18325506D01*
X3382798Y-18277887D01*
X3373274Y-18258839D01*
X3363750Y-18249315D01*
X3344702Y-18239792D01*
X3306607Y-18239792D01*
X3287559Y-18249315D01*
X3278036Y-18258839D01*
X3268512Y-18277887D01*
X3458988Y-18182649D02*
X3468512Y-18173125D01*
X3487559Y-18163601D01*
X3535178Y-18163601D01*
X3554226Y-18173125D01*
X3563750Y-18182649D01*
X3573274Y-18201696D01*
X3573274Y-18220744D01*
X3563750Y-18249315D01*
X3449464Y-18363601D01*
X3573274Y-18363601D01*
X3658988Y-18363601D02*
X3658988Y-18230268D01*
X3658988Y-18249315D02*
X3668512Y-18239792D01*
X3687559Y-18230268D01*
X3716131Y-18230268D01*
X3735178Y-18239792D01*
X3744702Y-18258839D01*
X3744702Y-18363601D01*
X3744702Y-18258839D02*
X3754226Y-18239792D01*
X3773274Y-18230268D01*
X3801845Y-18230268D01*
X3820893Y-18239792D01*
X3830417Y-18258839D01*
X3830417Y-18363601D01*
X3925655Y-18363601D02*
X3925655Y-18230268D01*
X3925655Y-18249315D02*
X3935178Y-18239792D01*
X3954226Y-18230268D01*
X3982798Y-18230268D01*
X4001845Y-18239792D01*
X4011369Y-18258839D01*
X4011369Y-18363601D01*
X4011369Y-18258839D02*
X4020893Y-18239792D01*
X4039940Y-18230268D01*
X4068512Y-18230268D01*
X4087559Y-18239792D01*
X4097083Y-18258839D01*
X4097083Y-18363601D01*
X4487560Y-18154077D02*
X4316131Y-18411220D01*
X4744702Y-18163601D02*
X4763750Y-18163601D01*
X4782798Y-18173125D01*
X4792321Y-18182649D01*
X4801845Y-18201696D01*
X4811369Y-18239792D01*
X4811369Y-18287411D01*
X4801845Y-18325506D01*
X4792321Y-18344554D01*
X4782798Y-18354077D01*
X4763750Y-18363601D01*
X4744702Y-18363601D01*
X4725655Y-18354077D01*
X4716131Y-18344554D01*
X4706607Y-18325506D01*
X4697083Y-18287411D01*
X4697083Y-18239792D01*
X4706607Y-18201696D01*
X4716131Y-18182649D01*
X4725655Y-18173125D01*
X4744702Y-18163601D01*
X4897083Y-18344554D02*
X4906607Y-18354077D01*
X4897083Y-18363601D01*
X4887560Y-18354077D01*
X4897083Y-18344554D01*
X4897083Y-18363601D01*
X5030417Y-18163601D02*
X5049464Y-18163601D01*
X5068512Y-18173125D01*
X5078036Y-18182649D01*
X5087560Y-18201696D01*
X5097083Y-18239792D01*
X5097083Y-18287411D01*
X5087560Y-18325506D01*
X5078036Y-18344554D01*
X5068512Y-18354077D01*
X5049464Y-18363601D01*
X5030417Y-18363601D01*
X5011369Y-18354077D01*
X5001845Y-18344554D01*
X4992321Y-18325506D01*
X4982798Y-18287411D01*
X4982798Y-18239792D01*
X4992321Y-18201696D01*
X5001845Y-18182649D01*
X5011369Y-18173125D01*
X5030417Y-18163601D01*
X5163750Y-18163601D02*
X5287560Y-18163601D01*
X5220893Y-18239792D01*
X5249464Y-18239792D01*
X5268512Y-18249315D01*
X5278036Y-18258839D01*
X5287560Y-18277887D01*
X5287560Y-18325506D01*
X5278036Y-18344554D01*
X5268512Y-18354077D01*
X5249464Y-18363601D01*
X5192321Y-18363601D01*
X5173274Y-18354077D01*
X5163750Y-18344554D01*
X5411369Y-18163601D02*
X5430417Y-18163601D01*
X5449464Y-18173125D01*
X5458988Y-18182649D01*
X5468512Y-18201696D01*
X5478036Y-18239792D01*
X5478036Y-18287411D01*
X5468512Y-18325506D01*
X5458988Y-18344554D01*
X5449464Y-18354077D01*
X5430417Y-18363601D01*
X5411369Y-18363601D01*
X5392321Y-18354077D01*
X5382798Y-18344554D01*
X5373274Y-18325506D01*
X5363750Y-18287411D01*
X5363750Y-18239792D01*
X5373274Y-18201696D01*
X5382798Y-18182649D01*
X5392321Y-18173125D01*
X5411369Y-18163601D01*
X5601845Y-18163601D02*
X5620893Y-18163601D01*
X5639940Y-18173125D01*
X5649464Y-18182649D01*
X5658988Y-18201696D01*
X5668512Y-18239792D01*
X5668512Y-18287411D01*
X5658988Y-18325506D01*
X5649464Y-18344554D01*
X5639940Y-18354077D01*
X5620893Y-18363601D01*
X5601845Y-18363601D01*
X5582798Y-18354077D01*
X5573274Y-18344554D01*
X5563750Y-18325506D01*
X5554226Y-18287411D01*
X5554226Y-18239792D01*
X5563750Y-18201696D01*
X5573274Y-18182649D01*
X5582798Y-18173125D01*
X5601845Y-18163601D01*
X5744702Y-18163601D02*
X5744702Y-18201696D01*
X5820893Y-18163601D02*
X5820893Y-18201696D01*
X6116131Y-18439792D02*
X6106607Y-18430268D01*
X6087559Y-18401696D01*
X6078036Y-18382649D01*
X6068512Y-18354077D01*
X6058988Y-18306458D01*
X6058988Y-18268363D01*
X6068512Y-18220744D01*
X6078036Y-18192173D01*
X6087559Y-18173125D01*
X6106607Y-18144554D01*
X6116131Y-18135030D01*
X6297083Y-18363601D02*
X6182798Y-18363601D01*
X6239940Y-18363601D02*
X6239940Y-18163601D01*
X6220893Y-18192173D01*
X6201845Y-18211220D01*
X6182798Y-18220744D01*
X6420893Y-18163601D02*
X6439940Y-18163601D01*
X6458988Y-18173125D01*
X6468512Y-18182649D01*
X6478036Y-18201696D01*
X6487559Y-18239792D01*
X6487559Y-18287411D01*
X6478036Y-18325506D01*
X6468512Y-18344554D01*
X6458988Y-18354077D01*
X6439940Y-18363601D01*
X6420893Y-18363601D01*
X6401845Y-18354077D01*
X6392321Y-18344554D01*
X6382798Y-18325506D01*
X6373274Y-18287411D01*
X6373274Y-18239792D01*
X6382798Y-18201696D01*
X6392321Y-18182649D01*
X6401845Y-18173125D01*
X6420893Y-18163601D01*
X6725655Y-18363601D02*
X6725655Y-18163601D01*
X6811369Y-18363601D02*
X6811369Y-18258839D01*
X6801845Y-18239792D01*
X6782798Y-18230268D01*
X6754226Y-18230268D01*
X6735178Y-18239792D01*
X6725655Y-18249315D01*
X6935178Y-18363601D02*
X6916131Y-18354077D01*
X6906607Y-18344554D01*
X6897083Y-18325506D01*
X6897083Y-18268363D01*
X6906607Y-18249315D01*
X6916131Y-18239792D01*
X6935178Y-18230268D01*
X6963750Y-18230268D01*
X6982798Y-18239792D01*
X6992321Y-18249315D01*
X7001845Y-18268363D01*
X7001845Y-18325506D01*
X6992321Y-18344554D01*
X6982798Y-18354077D01*
X6963750Y-18363601D01*
X6935178Y-18363601D01*
X7116131Y-18363601D02*
X7097083Y-18354077D01*
X7087559Y-18335030D01*
X7087559Y-18163601D01*
X7268512Y-18354077D02*
X7249464Y-18363601D01*
X7211369Y-18363601D01*
X7192321Y-18354077D01*
X7182798Y-18335030D01*
X7182798Y-18258839D01*
X7192321Y-18239792D01*
X7211369Y-18230268D01*
X7249464Y-18230268D01*
X7268512Y-18239792D01*
X7278036Y-18258839D01*
X7278036Y-18277887D01*
X7182798Y-18296935D01*
X7354226Y-18354077D02*
X7373274Y-18363601D01*
X7411369Y-18363601D01*
X7430417Y-18354077D01*
X7439940Y-18335030D01*
X7439940Y-18325506D01*
X7430417Y-18306458D01*
X7411369Y-18296935D01*
X7382798Y-18296935D01*
X7363750Y-18287411D01*
X7354226Y-18268363D01*
X7354226Y-18258839D01*
X7363750Y-18239792D01*
X7382798Y-18230268D01*
X7411369Y-18230268D01*
X7430417Y-18239792D01*
X7506607Y-18439792D02*
X7516131Y-18430268D01*
X7535178Y-18401696D01*
X7544702Y-18382649D01*
X7554226Y-18354077D01*
X7563750Y-18306458D01*
X7563750Y-18268363D01*
X7554226Y-18220744D01*
X7544702Y-18192173D01*
X7535178Y-18173125D01*
X7516131Y-18144554D01*
X7506607Y-18135030D01*
D17*
X2445166Y-18487595D02*
X2544226Y-18586655D01*
X2544226Y-18487595D02*
X2445166Y-18586655D01*
X2494696Y-18487595D02*
X2494696Y-18586655D01*
X2445166Y-18537125D02*
X2544226Y-18537125D01*
D11*
X2839940Y-18427601D02*
X2858988Y-18427601D01*
X2878036Y-18437125D01*
X2887559Y-18446649D01*
X2897083Y-18465696D01*
X2906607Y-18503792D01*
X2906607Y-18551411D01*
X2897083Y-18589506D01*
X2887559Y-18608554D01*
X2878036Y-18618077D01*
X2858988Y-18627601D01*
X2839940Y-18627601D01*
X2820893Y-18618077D01*
X2811369Y-18608554D01*
X2801845Y-18589506D01*
X2792321Y-18551411D01*
X2792321Y-18503792D01*
X2801845Y-18465696D01*
X2811369Y-18446649D01*
X2820893Y-18437125D01*
X2839940Y-18427601D01*
X2992321Y-18608554D02*
X3001845Y-18618077D01*
X2992321Y-18627601D01*
X2982798Y-18618077D01*
X2992321Y-18608554D01*
X2992321Y-18627601D01*
X3097083Y-18627601D02*
X3135178Y-18627601D01*
X3154226Y-18618077D01*
X3163750Y-18608554D01*
X3182798Y-18579982D01*
X3192321Y-18541887D01*
X3192321Y-18465696D01*
X3182798Y-18446649D01*
X3173274Y-18437125D01*
X3154226Y-18427601D01*
X3116131Y-18427601D01*
X3097083Y-18437125D01*
X3087559Y-18446649D01*
X3078036Y-18465696D01*
X3078036Y-18513315D01*
X3087559Y-18532363D01*
X3097083Y-18541887D01*
X3116131Y-18551411D01*
X3154226Y-18551411D01*
X3173274Y-18541887D01*
X3182798Y-18532363D01*
X3192321Y-18513315D01*
X3287559Y-18627601D02*
X3325655Y-18627601D01*
X3344702Y-18618077D01*
X3354226Y-18608554D01*
X3373274Y-18579982D01*
X3382798Y-18541887D01*
X3382798Y-18465696D01*
X3373274Y-18446649D01*
X3363750Y-18437125D01*
X3344702Y-18427601D01*
X3306607Y-18427601D01*
X3287559Y-18437125D01*
X3278036Y-18446649D01*
X3268512Y-18465696D01*
X3268512Y-18513315D01*
X3278036Y-18532363D01*
X3287559Y-18541887D01*
X3306607Y-18551411D01*
X3344702Y-18551411D01*
X3363750Y-18541887D01*
X3373274Y-18532363D01*
X3382798Y-18513315D01*
X3573274Y-18627601D02*
X3458988Y-18627601D01*
X3516131Y-18627601D02*
X3516131Y-18427601D01*
X3497083Y-18456173D01*
X3478036Y-18475220D01*
X3458988Y-18484744D01*
X3658988Y-18627601D02*
X3658988Y-18494268D01*
X3658988Y-18513315D02*
X3668512Y-18503792D01*
X3687559Y-18494268D01*
X3716131Y-18494268D01*
X3735178Y-18503792D01*
X3744702Y-18522839D01*
X3744702Y-18627601D01*
X3744702Y-18522839D02*
X3754226Y-18503792D01*
X3773274Y-18494268D01*
X3801845Y-18494268D01*
X3820893Y-18503792D01*
X3830417Y-18522839D01*
X3830417Y-18627601D01*
X3925655Y-18627601D02*
X3925655Y-18494268D01*
X3925655Y-18513315D02*
X3935178Y-18503792D01*
X3954226Y-18494268D01*
X3982798Y-18494268D01*
X4001845Y-18503792D01*
X4011369Y-18522839D01*
X4011369Y-18627601D01*
X4011369Y-18522839D02*
X4020893Y-18503792D01*
X4039940Y-18494268D01*
X4068512Y-18494268D01*
X4087559Y-18503792D01*
X4097083Y-18522839D01*
X4097083Y-18627601D01*
X4487560Y-18418077D02*
X4316131Y-18675220D01*
X4744702Y-18427601D02*
X4763750Y-18427601D01*
X4782798Y-18437125D01*
X4792321Y-18446649D01*
X4801845Y-18465696D01*
X4811369Y-18503792D01*
X4811369Y-18551411D01*
X4801845Y-18589506D01*
X4792321Y-18608554D01*
X4782798Y-18618077D01*
X4763750Y-18627601D01*
X4744702Y-18627601D01*
X4725655Y-18618077D01*
X4716131Y-18608554D01*
X4706607Y-18589506D01*
X4697083Y-18551411D01*
X4697083Y-18503792D01*
X4706607Y-18465696D01*
X4716131Y-18446649D01*
X4725655Y-18437125D01*
X4744702Y-18427601D01*
X4897083Y-18608554D02*
X4906607Y-18618077D01*
X4897083Y-18627601D01*
X4887560Y-18618077D01*
X4897083Y-18608554D01*
X4897083Y-18627601D01*
X5030417Y-18427601D02*
X5049464Y-18427601D01*
X5068512Y-18437125D01*
X5078036Y-18446649D01*
X5087560Y-18465696D01*
X5097083Y-18503792D01*
X5097083Y-18551411D01*
X5087560Y-18589506D01*
X5078036Y-18608554D01*
X5068512Y-18618077D01*
X5049464Y-18627601D01*
X5030417Y-18627601D01*
X5011369Y-18618077D01*
X5001845Y-18608554D01*
X4992321Y-18589506D01*
X4982798Y-18551411D01*
X4982798Y-18503792D01*
X4992321Y-18465696D01*
X5001845Y-18446649D01*
X5011369Y-18437125D01*
X5030417Y-18427601D01*
X5163750Y-18427601D02*
X5287560Y-18427601D01*
X5220893Y-18503792D01*
X5249464Y-18503792D01*
X5268512Y-18513315D01*
X5278036Y-18522839D01*
X5287560Y-18541887D01*
X5287560Y-18589506D01*
X5278036Y-18608554D01*
X5268512Y-18618077D01*
X5249464Y-18627601D01*
X5192321Y-18627601D01*
X5173274Y-18618077D01*
X5163750Y-18608554D01*
X5382798Y-18627601D02*
X5420893Y-18627601D01*
X5439940Y-18618077D01*
X5449464Y-18608554D01*
X5468512Y-18579982D01*
X5478036Y-18541887D01*
X5478036Y-18465696D01*
X5468512Y-18446649D01*
X5458988Y-18437125D01*
X5439940Y-18427601D01*
X5401845Y-18427601D01*
X5382798Y-18437125D01*
X5373274Y-18446649D01*
X5363750Y-18465696D01*
X5363750Y-18513315D01*
X5373274Y-18532363D01*
X5382798Y-18541887D01*
X5401845Y-18551411D01*
X5439940Y-18551411D01*
X5458988Y-18541887D01*
X5468512Y-18532363D01*
X5478036Y-18513315D01*
X5601845Y-18427601D02*
X5620893Y-18427601D01*
X5639940Y-18437125D01*
X5649464Y-18446649D01*
X5658988Y-18465696D01*
X5668512Y-18503792D01*
X5668512Y-18551411D01*
X5658988Y-18589506D01*
X5649464Y-18608554D01*
X5639940Y-18618077D01*
X5620893Y-18627601D01*
X5601845Y-18627601D01*
X5582798Y-18618077D01*
X5573274Y-18608554D01*
X5563750Y-18589506D01*
X5554226Y-18551411D01*
X5554226Y-18503792D01*
X5563750Y-18465696D01*
X5573274Y-18446649D01*
X5582798Y-18437125D01*
X5601845Y-18427601D01*
X5744702Y-18427601D02*
X5744702Y-18465696D01*
X5820893Y-18427601D02*
X5820893Y-18465696D01*
X6116131Y-18703792D02*
X6106607Y-18694268D01*
X6087559Y-18665696D01*
X6078036Y-18646649D01*
X6068512Y-18618077D01*
X6058988Y-18570458D01*
X6058988Y-18532363D01*
X6068512Y-18484744D01*
X6078036Y-18456173D01*
X6087559Y-18437125D01*
X6106607Y-18408554D01*
X6116131Y-18399030D01*
X6173274Y-18427601D02*
X6306607Y-18427601D01*
X6220893Y-18627601D01*
X6411369Y-18513315D02*
X6392321Y-18503792D01*
X6382798Y-18494268D01*
X6373274Y-18475220D01*
X6373274Y-18465696D01*
X6382798Y-18446649D01*
X6392321Y-18437125D01*
X6411369Y-18427601D01*
X6449464Y-18427601D01*
X6468512Y-18437125D01*
X6478036Y-18446649D01*
X6487559Y-18465696D01*
X6487559Y-18475220D01*
X6478036Y-18494268D01*
X6468512Y-18503792D01*
X6449464Y-18513315D01*
X6411369Y-18513315D01*
X6392321Y-18522839D01*
X6382798Y-18532363D01*
X6373274Y-18551411D01*
X6373274Y-18589506D01*
X6382798Y-18608554D01*
X6392321Y-18618077D01*
X6411369Y-18627601D01*
X6449464Y-18627601D01*
X6468512Y-18618077D01*
X6478036Y-18608554D01*
X6487559Y-18589506D01*
X6487559Y-18551411D01*
X6478036Y-18532363D01*
X6468512Y-18522839D01*
X6449464Y-18513315D01*
X6725655Y-18627601D02*
X6725655Y-18427601D01*
X6811369Y-18627601D02*
X6811369Y-18522839D01*
X6801845Y-18503792D01*
X6782798Y-18494268D01*
X6754226Y-18494268D01*
X6735178Y-18503792D01*
X6725655Y-18513315D01*
X6935178Y-18627601D02*
X6916131Y-18618077D01*
X6906607Y-18608554D01*
X6897083Y-18589506D01*
X6897083Y-18532363D01*
X6906607Y-18513315D01*
X6916131Y-18503792D01*
X6935178Y-18494268D01*
X6963750Y-18494268D01*
X6982798Y-18503792D01*
X6992321Y-18513315D01*
X7001845Y-18532363D01*
X7001845Y-18589506D01*
X6992321Y-18608554D01*
X6982798Y-18618077D01*
X6963750Y-18627601D01*
X6935178Y-18627601D01*
X7116131Y-18627601D02*
X7097083Y-18618077D01*
X7087559Y-18599030D01*
X7087559Y-18427601D01*
X7268512Y-18618077D02*
X7249464Y-18627601D01*
X7211369Y-18627601D01*
X7192321Y-18618077D01*
X7182798Y-18599030D01*
X7182798Y-18522839D01*
X7192321Y-18503792D01*
X7211369Y-18494268D01*
X7249464Y-18494268D01*
X7268512Y-18503792D01*
X7278036Y-18522839D01*
X7278036Y-18541887D01*
X7182798Y-18560935D01*
X7354226Y-18618077D02*
X7373274Y-18627601D01*
X7411369Y-18627601D01*
X7430417Y-18618077D01*
X7439940Y-18599030D01*
X7439940Y-18589506D01*
X7430417Y-18570458D01*
X7411369Y-18560935D01*
X7382798Y-18560935D01*
X7363750Y-18551411D01*
X7354226Y-18532363D01*
X7354226Y-18522839D01*
X7363750Y-18503792D01*
X7382798Y-18494268D01*
X7411369Y-18494268D01*
X7430417Y-18503792D01*
X7506607Y-18703792D02*
X7516131Y-18694268D01*
X7535178Y-18665696D01*
X7544702Y-18646649D01*
X7554226Y-18618077D01*
X7563750Y-18570458D01*
X7563750Y-18532363D01*
X7554226Y-18484744D01*
X7544702Y-18456173D01*
X7535178Y-18437125D01*
X7516131Y-18408554D01*
X7506607Y-18399030D01*
D18*
X2442626Y-18750325D02*
X2544226Y-18851925D01*
X2544226Y-18750325D02*
X2442626Y-18851925D01*
X2529348Y-18837046D02*
X2529348Y-18765204D01*
X2457505Y-18765204D01*
X2457505Y-18837046D01*
X2529348Y-18837046D01*
D11*
X2906607Y-18891601D02*
X2792321Y-18891601D01*
X2849464Y-18891601D02*
X2849464Y-18691601D01*
X2830417Y-18720173D01*
X2811369Y-18739220D01*
X2792321Y-18748744D01*
X2992321Y-18872554D02*
X3001845Y-18882077D01*
X2992321Y-18891601D01*
X2982798Y-18882077D01*
X2992321Y-18872554D01*
X2992321Y-18891601D01*
X3125655Y-18691601D02*
X3144702Y-18691601D01*
X3163750Y-18701125D01*
X3173274Y-18710649D01*
X3182798Y-18729696D01*
X3192321Y-18767792D01*
X3192321Y-18815411D01*
X3182798Y-18853506D01*
X3173274Y-18872554D01*
X3163750Y-18882077D01*
X3144702Y-18891601D01*
X3125655Y-18891601D01*
X3106607Y-18882077D01*
X3097083Y-18872554D01*
X3087559Y-18853506D01*
X3078036Y-18815411D01*
X3078036Y-18767792D01*
X3087559Y-18729696D01*
X3097083Y-18710649D01*
X3106607Y-18701125D01*
X3125655Y-18691601D01*
X3382798Y-18891601D02*
X3268512Y-18891601D01*
X3325655Y-18891601D02*
X3325655Y-18691601D01*
X3306607Y-18720173D01*
X3287559Y-18739220D01*
X3268512Y-18748744D01*
X3554226Y-18691601D02*
X3516131Y-18691601D01*
X3497083Y-18701125D01*
X3487559Y-18710649D01*
X3468512Y-18739220D01*
X3458988Y-18777315D01*
X3458988Y-18853506D01*
X3468512Y-18872554D01*
X3478036Y-18882077D01*
X3497083Y-18891601D01*
X3535178Y-18891601D01*
X3554226Y-18882077D01*
X3563750Y-18872554D01*
X3573274Y-18853506D01*
X3573274Y-18805887D01*
X3563750Y-18786839D01*
X3554226Y-18777315D01*
X3535178Y-18767792D01*
X3497083Y-18767792D01*
X3478036Y-18777315D01*
X3468512Y-18786839D01*
X3458988Y-18805887D01*
X3658988Y-18891601D02*
X3658988Y-18758268D01*
X3658988Y-18777315D02*
X3668512Y-18767792D01*
X3687559Y-18758268D01*
X3716131Y-18758268D01*
X3735178Y-18767792D01*
X3744702Y-18786839D01*
X3744702Y-18891601D01*
X3744702Y-18786839D02*
X3754226Y-18767792D01*
X3773274Y-18758268D01*
X3801845Y-18758268D01*
X3820893Y-18767792D01*
X3830417Y-18786839D01*
X3830417Y-18891601D01*
X3925655Y-18891601D02*
X3925655Y-18758268D01*
X3925655Y-18777315D02*
X3935178Y-18767792D01*
X3954226Y-18758268D01*
X3982798Y-18758268D01*
X4001845Y-18767792D01*
X4011369Y-18786839D01*
X4011369Y-18891601D01*
X4011369Y-18786839D02*
X4020893Y-18767792D01*
X4039940Y-18758268D01*
X4068512Y-18758268D01*
X4087559Y-18767792D01*
X4097083Y-18786839D01*
X4097083Y-18891601D01*
X4487560Y-18682077D02*
X4316131Y-18939220D01*
X4744702Y-18691601D02*
X4763750Y-18691601D01*
X4782798Y-18701125D01*
X4792321Y-18710649D01*
X4801845Y-18729696D01*
X4811369Y-18767792D01*
X4811369Y-18815411D01*
X4801845Y-18853506D01*
X4792321Y-18872554D01*
X4782798Y-18882077D01*
X4763750Y-18891601D01*
X4744702Y-18891601D01*
X4725655Y-18882077D01*
X4716131Y-18872554D01*
X4706607Y-18853506D01*
X4697083Y-18815411D01*
X4697083Y-18767792D01*
X4706607Y-18729696D01*
X4716131Y-18710649D01*
X4725655Y-18701125D01*
X4744702Y-18691601D01*
X4897083Y-18872554D02*
X4906607Y-18882077D01*
X4897083Y-18891601D01*
X4887560Y-18882077D01*
X4897083Y-18872554D01*
X4897083Y-18891601D01*
X5030417Y-18691601D02*
X5049464Y-18691601D01*
X5068512Y-18701125D01*
X5078036Y-18710649D01*
X5087560Y-18729696D01*
X5097083Y-18767792D01*
X5097083Y-18815411D01*
X5087560Y-18853506D01*
X5078036Y-18872554D01*
X5068512Y-18882077D01*
X5049464Y-18891601D01*
X5030417Y-18891601D01*
X5011369Y-18882077D01*
X5001845Y-18872554D01*
X4992321Y-18853506D01*
X4982798Y-18815411D01*
X4982798Y-18767792D01*
X4992321Y-18729696D01*
X5001845Y-18710649D01*
X5011369Y-18701125D01*
X5030417Y-18691601D01*
X5268512Y-18758268D02*
X5268512Y-18891601D01*
X5220893Y-18682077D02*
X5173274Y-18824935D01*
X5297083Y-18824935D01*
X5411369Y-18691601D02*
X5430417Y-18691601D01*
X5449464Y-18701125D01*
X5458988Y-18710649D01*
X5468512Y-18729696D01*
X5478036Y-18767792D01*
X5478036Y-18815411D01*
X5468512Y-18853506D01*
X5458988Y-18872554D01*
X5449464Y-18882077D01*
X5430417Y-18891601D01*
X5411369Y-18891601D01*
X5392321Y-18882077D01*
X5382798Y-18872554D01*
X5373274Y-18853506D01*
X5363750Y-18815411D01*
X5363750Y-18767792D01*
X5373274Y-18729696D01*
X5382798Y-18710649D01*
X5392321Y-18701125D01*
X5411369Y-18691601D01*
X5601845Y-18691601D02*
X5620893Y-18691601D01*
X5639940Y-18701125D01*
X5649464Y-18710649D01*
X5658988Y-18729696D01*
X5668512Y-18767792D01*
X5668512Y-18815411D01*
X5658988Y-18853506D01*
X5649464Y-18872554D01*
X5639940Y-18882077D01*
X5620893Y-18891601D01*
X5601845Y-18891601D01*
X5582798Y-18882077D01*
X5573274Y-18872554D01*
X5563750Y-18853506D01*
X5554226Y-18815411D01*
X5554226Y-18767792D01*
X5563750Y-18729696D01*
X5573274Y-18710649D01*
X5582798Y-18701125D01*
X5601845Y-18691601D01*
X5744702Y-18691601D02*
X5744702Y-18729696D01*
X5820893Y-18691601D02*
X5820893Y-18729696D01*
X6116131Y-18967792D02*
X6106607Y-18958268D01*
X6087559Y-18929696D01*
X6078036Y-18910649D01*
X6068512Y-18882077D01*
X6058988Y-18834458D01*
X6058988Y-18796363D01*
X6068512Y-18748744D01*
X6078036Y-18720173D01*
X6087559Y-18701125D01*
X6106607Y-18672554D01*
X6116131Y-18663030D01*
X6173274Y-18691601D02*
X6306607Y-18691601D01*
X6220893Y-18891601D01*
X6411369Y-18777315D02*
X6392321Y-18767792D01*
X6382798Y-18758268D01*
X6373274Y-18739220D01*
X6373274Y-18729696D01*
X6382798Y-18710649D01*
X6392321Y-18701125D01*
X6411369Y-18691601D01*
X6449464Y-18691601D01*
X6468512Y-18701125D01*
X6478036Y-18710649D01*
X6487559Y-18729696D01*
X6487559Y-18739220D01*
X6478036Y-18758268D01*
X6468512Y-18767792D01*
X6449464Y-18777315D01*
X6411369Y-18777315D01*
X6392321Y-18786839D01*
X6382798Y-18796363D01*
X6373274Y-18815411D01*
X6373274Y-18853506D01*
X6382798Y-18872554D01*
X6392321Y-18882077D01*
X6411369Y-18891601D01*
X6449464Y-18891601D01*
X6468512Y-18882077D01*
X6478036Y-18872554D01*
X6487559Y-18853506D01*
X6487559Y-18815411D01*
X6478036Y-18796363D01*
X6468512Y-18786839D01*
X6449464Y-18777315D01*
X6725655Y-18891601D02*
X6725655Y-18691601D01*
X6811369Y-18891601D02*
X6811369Y-18786839D01*
X6801845Y-18767792D01*
X6782798Y-18758268D01*
X6754226Y-18758268D01*
X6735178Y-18767792D01*
X6725655Y-18777315D01*
X6935178Y-18891601D02*
X6916131Y-18882077D01*
X6906607Y-18872554D01*
X6897083Y-18853506D01*
X6897083Y-18796363D01*
X6906607Y-18777315D01*
X6916131Y-18767792D01*
X6935178Y-18758268D01*
X6963750Y-18758268D01*
X6982798Y-18767792D01*
X6992321Y-18777315D01*
X7001845Y-18796363D01*
X7001845Y-18853506D01*
X6992321Y-18872554D01*
X6982798Y-18882077D01*
X6963750Y-18891601D01*
X6935178Y-18891601D01*
X7116131Y-18891601D02*
X7097083Y-18882077D01*
X7087559Y-18863030D01*
X7087559Y-18691601D01*
X7268512Y-18882077D02*
X7249464Y-18891601D01*
X7211369Y-18891601D01*
X7192321Y-18882077D01*
X7182798Y-18863030D01*
X7182798Y-18786839D01*
X7192321Y-18767792D01*
X7211369Y-18758268D01*
X7249464Y-18758268D01*
X7268512Y-18767792D01*
X7278036Y-18786839D01*
X7278036Y-18805887D01*
X7182798Y-18824935D01*
X7354226Y-18882077D02*
X7373274Y-18891601D01*
X7411369Y-18891601D01*
X7430417Y-18882077D01*
X7439940Y-18863030D01*
X7439940Y-18853506D01*
X7430417Y-18834458D01*
X7411369Y-18824935D01*
X7382798Y-18824935D01*
X7363750Y-18815411D01*
X7354226Y-18796363D01*
X7354226Y-18786839D01*
X7363750Y-18767792D01*
X7382798Y-18758268D01*
X7411369Y-18758268D01*
X7430417Y-18767792D01*
X7506607Y-18967792D02*
X7516131Y-18958268D01*
X7535178Y-18929696D01*
X7544702Y-18910649D01*
X7554226Y-18882077D01*
X7563750Y-18834458D01*
X7563750Y-18796363D01*
X7554226Y-18748744D01*
X7544702Y-18720173D01*
X7535178Y-18701125D01*
X7516131Y-18672554D01*
X7506607Y-18663030D01*
D19*
X2391826Y-18988925D02*
X2544226Y-19141325D01*
X2544226Y-18988925D02*
X2391826Y-19141325D01*
X2468026Y-19141325D02*
X2544226Y-19065125D01*
X2468026Y-18988925D01*
X2391826Y-19065125D01*
X2468026Y-19141325D01*
D11*
X2906607Y-19155601D02*
X2792321Y-19155601D01*
X2849464Y-19155601D02*
X2849464Y-18955601D01*
X2830417Y-18984173D01*
X2811369Y-19003220D01*
X2792321Y-19012744D01*
X2992321Y-19136554D02*
X3001845Y-19146077D01*
X2992321Y-19155601D01*
X2982798Y-19146077D01*
X2992321Y-19136554D01*
X2992321Y-19155601D01*
X3182798Y-18955601D02*
X3087559Y-18955601D01*
X3078036Y-19050839D01*
X3087559Y-19041315D01*
X3106607Y-19031792D01*
X3154226Y-19031792D01*
X3173274Y-19041315D01*
X3182798Y-19050839D01*
X3192321Y-19069887D01*
X3192321Y-19117506D01*
X3182798Y-19136554D01*
X3173274Y-19146077D01*
X3154226Y-19155601D01*
X3106607Y-19155601D01*
X3087559Y-19146077D01*
X3078036Y-19136554D01*
X3268512Y-18974649D02*
X3278036Y-18965125D01*
X3297083Y-18955601D01*
X3344702Y-18955601D01*
X3363750Y-18965125D01*
X3373274Y-18974649D01*
X3382798Y-18993696D01*
X3382798Y-19012744D01*
X3373274Y-19041315D01*
X3258988Y-19155601D01*
X3382798Y-19155601D01*
X3554226Y-19022268D02*
X3554226Y-19155601D01*
X3506607Y-18946077D02*
X3458988Y-19088935D01*
X3582798Y-19088935D01*
X3658988Y-19155601D02*
X3658988Y-19022268D01*
X3658988Y-19041315D02*
X3668512Y-19031792D01*
X3687559Y-19022268D01*
X3716131Y-19022268D01*
X3735178Y-19031792D01*
X3744702Y-19050839D01*
X3744702Y-19155601D01*
X3744702Y-19050839D02*
X3754226Y-19031792D01*
X3773274Y-19022268D01*
X3801845Y-19022268D01*
X3820893Y-19031792D01*
X3830417Y-19050839D01*
X3830417Y-19155601D01*
X3925655Y-19155601D02*
X3925655Y-19022268D01*
X3925655Y-19041315D02*
X3935178Y-19031792D01*
X3954226Y-19022268D01*
X3982798Y-19022268D01*
X4001845Y-19031792D01*
X4011369Y-19050839D01*
X4011369Y-19155601D01*
X4011369Y-19050839D02*
X4020893Y-19031792D01*
X4039940Y-19022268D01*
X4068512Y-19022268D01*
X4087559Y-19031792D01*
X4097083Y-19050839D01*
X4097083Y-19155601D01*
X4487560Y-18946077D02*
X4316131Y-19203220D01*
X4744702Y-18955601D02*
X4763750Y-18955601D01*
X4782798Y-18965125D01*
X4792321Y-18974649D01*
X4801845Y-18993696D01*
X4811369Y-19031792D01*
X4811369Y-19079411D01*
X4801845Y-19117506D01*
X4792321Y-19136554D01*
X4782798Y-19146077D01*
X4763750Y-19155601D01*
X4744702Y-19155601D01*
X4725655Y-19146077D01*
X4716131Y-19136554D01*
X4706607Y-19117506D01*
X4697083Y-19079411D01*
X4697083Y-19031792D01*
X4706607Y-18993696D01*
X4716131Y-18974649D01*
X4725655Y-18965125D01*
X4744702Y-18955601D01*
X4897083Y-19136554D02*
X4906607Y-19146077D01*
X4897083Y-19155601D01*
X4887560Y-19146077D01*
X4897083Y-19136554D01*
X4897083Y-19155601D01*
X5030417Y-18955601D02*
X5049464Y-18955601D01*
X5068512Y-18965125D01*
X5078036Y-18974649D01*
X5087560Y-18993696D01*
X5097083Y-19031792D01*
X5097083Y-19079411D01*
X5087560Y-19117506D01*
X5078036Y-19136554D01*
X5068512Y-19146077D01*
X5049464Y-19155601D01*
X5030417Y-19155601D01*
X5011369Y-19146077D01*
X5001845Y-19136554D01*
X4992321Y-19117506D01*
X4982798Y-19079411D01*
X4982798Y-19031792D01*
X4992321Y-18993696D01*
X5001845Y-18974649D01*
X5011369Y-18965125D01*
X5030417Y-18955601D01*
X5268512Y-18955601D02*
X5230417Y-18955601D01*
X5211369Y-18965125D01*
X5201845Y-18974649D01*
X5182798Y-19003220D01*
X5173274Y-19041315D01*
X5173274Y-19117506D01*
X5182798Y-19136554D01*
X5192321Y-19146077D01*
X5211369Y-19155601D01*
X5249464Y-19155601D01*
X5268512Y-19146077D01*
X5278036Y-19136554D01*
X5287560Y-19117506D01*
X5287560Y-19069887D01*
X5278036Y-19050839D01*
X5268512Y-19041315D01*
X5249464Y-19031792D01*
X5211369Y-19031792D01*
X5192321Y-19041315D01*
X5182798Y-19050839D01*
X5173274Y-19069887D01*
X5411369Y-18955601D02*
X5430417Y-18955601D01*
X5449464Y-18965125D01*
X5458988Y-18974649D01*
X5468512Y-18993696D01*
X5478036Y-19031792D01*
X5478036Y-19079411D01*
X5468512Y-19117506D01*
X5458988Y-19136554D01*
X5449464Y-19146077D01*
X5430417Y-19155601D01*
X5411369Y-19155601D01*
X5392321Y-19146077D01*
X5382798Y-19136554D01*
X5373274Y-19117506D01*
X5363750Y-19079411D01*
X5363750Y-19031792D01*
X5373274Y-18993696D01*
X5382798Y-18974649D01*
X5392321Y-18965125D01*
X5411369Y-18955601D01*
X5601845Y-18955601D02*
X5620893Y-18955601D01*
X5639940Y-18965125D01*
X5649464Y-18974649D01*
X5658988Y-18993696D01*
X5668512Y-19031792D01*
X5668512Y-19079411D01*
X5658988Y-19117506D01*
X5649464Y-19136554D01*
X5639940Y-19146077D01*
X5620893Y-19155601D01*
X5601845Y-19155601D01*
X5582798Y-19146077D01*
X5573274Y-19136554D01*
X5563750Y-19117506D01*
X5554226Y-19079411D01*
X5554226Y-19031792D01*
X5563750Y-18993696D01*
X5573274Y-18974649D01*
X5582798Y-18965125D01*
X5601845Y-18955601D01*
X5744702Y-18955601D02*
X5744702Y-18993696D01*
X5820893Y-18955601D02*
X5820893Y-18993696D01*
X6116131Y-19231792D02*
X6106607Y-19222268D01*
X6087559Y-19193696D01*
X6078036Y-19174649D01*
X6068512Y-19146077D01*
X6058988Y-19098458D01*
X6058988Y-19060363D01*
X6068512Y-19012744D01*
X6078036Y-18984173D01*
X6087559Y-18965125D01*
X6106607Y-18936554D01*
X6116131Y-18927030D01*
X6297083Y-19155601D02*
X6182798Y-19155601D01*
X6239940Y-19155601D02*
X6239940Y-18955601D01*
X6220893Y-18984173D01*
X6201845Y-19003220D01*
X6182798Y-19012744D01*
X6478036Y-18955601D02*
X6382798Y-18955601D01*
X6373274Y-19050839D01*
X6382798Y-19041315D01*
X6401845Y-19031792D01*
X6449464Y-19031792D01*
X6468512Y-19041315D01*
X6478036Y-19050839D01*
X6487559Y-19069887D01*
X6487559Y-19117506D01*
X6478036Y-19136554D01*
X6468512Y-19146077D01*
X6449464Y-19155601D01*
X6401845Y-19155601D01*
X6382798Y-19146077D01*
X6373274Y-19136554D01*
X6658988Y-19022268D02*
X6658988Y-19155601D01*
X6611369Y-18946077D02*
X6563750Y-19088935D01*
X6687559Y-19088935D01*
X6916131Y-19155601D02*
X6916131Y-18955601D01*
X7001845Y-19155601D02*
X7001845Y-19050839D01*
X6992321Y-19031792D01*
X6973274Y-19022268D01*
X6944702Y-19022268D01*
X6925655Y-19031792D01*
X6916131Y-19041315D01*
X7125655Y-19155601D02*
X7106607Y-19146077D01*
X7097083Y-19136554D01*
X7087559Y-19117506D01*
X7087559Y-19060363D01*
X7097083Y-19041315D01*
X7106607Y-19031792D01*
X7125655Y-19022268D01*
X7154226Y-19022268D01*
X7173274Y-19031792D01*
X7182798Y-19041315D01*
X7192321Y-19060363D01*
X7192321Y-19117506D01*
X7182798Y-19136554D01*
X7173274Y-19146077D01*
X7154226Y-19155601D01*
X7125655Y-19155601D01*
X7306607Y-19155601D02*
X7287559Y-19146077D01*
X7278036Y-19127030D01*
X7278036Y-18955601D01*
X7458988Y-19146077D02*
X7439940Y-19155601D01*
X7401845Y-19155601D01*
X7382798Y-19146077D01*
X7373274Y-19127030D01*
X7373274Y-19050839D01*
X7382798Y-19031792D01*
X7401845Y-19022268D01*
X7439940Y-19022268D01*
X7458988Y-19031792D01*
X7468512Y-19050839D01*
X7468512Y-19069887D01*
X7373274Y-19088935D01*
X7544702Y-19146077D02*
X7563750Y-19155601D01*
X7601845Y-19155601D01*
X7620893Y-19146077D01*
X7630417Y-19127030D01*
X7630417Y-19117506D01*
X7620893Y-19098458D01*
X7601845Y-19088935D01*
X7573274Y-19088935D01*
X7554226Y-19079411D01*
X7544702Y-19060363D01*
X7544702Y-19050839D01*
X7554226Y-19031792D01*
X7573274Y-19022268D01*
X7601845Y-19022268D01*
X7620893Y-19031792D01*
X7697083Y-19231792D02*
X7706607Y-19222268D01*
X7725655Y-19193696D01*
X7735178Y-19174649D01*
X7744702Y-19146077D01*
X7754226Y-19098458D01*
X7754226Y-19060363D01*
X7744702Y-19012744D01*
X7735178Y-18984173D01*
X7725655Y-18965125D01*
X7706607Y-18936554D01*
X7697083Y-18927030D01*
M02*
