M48
; DRILL file {KiCad (6.0.2)} date Fri Mar  4 19:39:14 2022
; FORMAT={-:-/ absolute / metric / decimal}
; #@! TF.CreationDate,2022-03-04T19:39:14-03:00
; #@! TF.GenerationSoftware,Kicad,Pcbnew,(6.0.2)
; #@! TF.FileFunction,NonPlated,1,2,NPTH
FMAT,2
METRIC
; #@! TA.AperFunction,NonPlated,NPTH,ComponentDrill
T1C0.650
; #@! TA.AperFunction,NonPlated,NPTH,ComponentDrill
T2C1.702
; #@! TA.AperFunction,NonPlated,NPTH,ComponentDrill
T3C3.048
; #@! TA.AperFunction,NonPlated,NPTH,ComponentDrill
T4C3.988
%
G90
G05
T1
X288.559Y-30.316
X294.339Y-30.316
T2
X33.956Y-149.537
X38.719Y-49.525
X41.1Y-101.912
X44.116Y-149.537
X48.244Y-73.337
X48.879Y-49.525
X51.26Y-101.912
X53.006Y-130.487
X53.006Y-149.537
X57.769Y-49.525
X58.404Y-73.337
X62.531Y-111.438
X63.166Y-130.487
X63.166Y-149.537
X67.294Y-92.388
X67.929Y-49.525
X72.056Y-130.487
X72.056Y-149.537
X72.691Y-111.438
X76.819Y-49.525
X76.819Y-73.337
X77.454Y-92.388
X81.581Y-111.438
X82.216Y-130.487
X82.216Y-149.537
X86.344Y-92.388
X86.979Y-49.525
X86.979Y-73.337
X91.106Y-130.487
X91.106Y-149.537
X91.741Y-111.438
X95.869Y-49.525
X95.869Y-73.337
X96.504Y-92.388
X100.631Y-111.438
X101.266Y-130.487
X101.266Y-149.537
X105.394Y-92.388
X106.029Y-49.525
X106.029Y-73.337
X110.156Y-130.487
X110.791Y-111.438
X112.537Y-149.537
X114.919Y-73.337
X115.554Y-92.388
X119.681Y-111.438
X120.316Y-130.487
X122.697Y-149.537
X124.444Y-49.525
X124.444Y-92.388
X125.079Y-73.337
X129.206Y-130.487
X129.841Y-111.438
X133.969Y-73.337
X134.604Y-49.525
X134.604Y-92.388
X138.731Y-111.438
X139.366Y-130.487
X143.494Y-49.525
X143.494Y-92.388
X144.129Y-73.337
X148.256Y-130.487
X148.891Y-111.438
X153.019Y-73.337
X153.654Y-49.525
X153.654Y-92.388
X157.781Y-111.438
X158.416Y-130.487
X162.544Y-49.525
X162.544Y-92.388
X163.179Y-73.337
X167.306Y-130.487
X167.941Y-111.438
X172.069Y-73.337
X172.704Y-49.525
X172.704Y-92.388
X176.831Y-111.438
X177.466Y-130.487
X181.594Y-49.525
X181.594Y-92.388
X182.229Y-73.337
X183.975Y-149.537
X186.356Y-130.487
X186.991Y-111.438
X191.119Y-73.337
X191.754Y-49.525
X191.754Y-92.388
X194.135Y-149.537
X195.881Y-111.438
X196.516Y-130.487
X200.644Y-92.388
X201.279Y-73.337
X205.406Y-130.487
X206.041Y-111.438
X210.169Y-49.525
X210.169Y-73.337
X210.804Y-92.388
X214.931Y-111.438
X215.566Y-130.487
X219.694Y-92.388
X220.329Y-49.525
X220.329Y-73.337
X224.456Y-130.487
X225.091Y-111.438
X229.219Y-49.525
X229.219Y-73.337
X229.854Y-92.388
X233.981Y-111.438
X234.616Y-130.487
X238.744Y-92.388
X239.379Y-49.525
X239.379Y-73.337
X243.506Y-130.487
X244.141Y-111.438
X248.269Y-73.337
X248.274Y-49.525
X248.904Y-92.388
X253.031Y-111.438
X253.666Y-130.487
X255.412Y-149.537
X257.794Y-92.388
X258.429Y-73.337
X258.434Y-49.525
X262.556Y-130.487
X263.191Y-111.438
X265.572Y-149.537
X267.319Y-49.525
X267.319Y-73.337
X267.954Y-92.388
X272.081Y-111.438
X272.716Y-130.487
X276.844Y-92.388
X277.479Y-49.525
X277.479Y-73.337
X279.225Y-149.537
X281.606Y-130.487
X282.241Y-111.438
X286.369Y-73.337
X287.004Y-92.388
X289.385Y-149.537
X291.766Y-130.487
X296.529Y-73.337
X298.275Y-111.438
X300.656Y-92.388
X303.037Y-130.487
X303.037Y-149.537
X305.419Y-49.525
X305.419Y-73.337
X308.435Y-111.438
X310.816Y-92.388
X313.197Y-130.487
X313.197Y-149.537
X315.579Y-49.525
X315.579Y-73.337
T3
X39.195Y-89.974
X39.195Y-113.85
X41.386Y-66.352
X65.262Y-66.352
X139.017Y-156.522
X239.093Y-156.522
T4
X39.036Y-149.537
X41.386Y-81.593
X43.799Y-49.525
X46.18Y-101.912
X53.324Y-73.337
X54.435Y-89.974
X54.435Y-113.85
X58.086Y-130.487
X58.086Y-149.537
X62.849Y-49.525
X65.262Y-81.593
X67.611Y-111.438
X72.374Y-92.388
X77.136Y-130.487
X77.136Y-149.537
X81.899Y-49.525
X81.899Y-73.337
X86.661Y-111.438
X91.424Y-92.388
X96.186Y-130.487
X96.186Y-149.537
X100.949Y-49.525
X100.949Y-73.337
X105.711Y-111.438
X110.474Y-92.388
X115.236Y-130.487
X117.617Y-149.537
X119.999Y-73.337
X124.761Y-111.438
X129.524Y-49.525
X129.524Y-92.388
X134.286Y-130.487
X139.017Y-141.282
X139.049Y-73.337
X143.811Y-111.438
X148.574Y-49.525
X148.574Y-92.388
X153.336Y-130.487
X158.099Y-73.337
X162.861Y-111.438
X167.624Y-49.525
X167.624Y-92.388
X172.386Y-130.487
X177.149Y-73.337
X181.911Y-111.438
X186.674Y-49.525
X186.674Y-92.388
X189.055Y-149.537
X191.436Y-130.487
X196.199Y-73.337
X200.961Y-111.438
X205.724Y-92.388
X210.486Y-130.487
X215.249Y-49.525
X215.249Y-73.337
X220.011Y-111.438
X224.774Y-92.388
X229.536Y-130.487
X234.299Y-49.525
X234.299Y-73.337
X239.061Y-111.438
X239.093Y-141.282
X243.824Y-92.388
X248.586Y-130.487
X253.349Y-73.337
X253.354Y-49.525
X258.111Y-111.438
X260.492Y-149.537
X262.874Y-92.388
X267.636Y-130.487
X272.399Y-49.525
X272.399Y-73.337
X277.161Y-111.438
X281.924Y-92.388
X284.305Y-149.537
X286.686Y-130.487
X291.449Y-73.337
X303.355Y-111.438
X305.736Y-92.388
X308.117Y-130.487
X308.117Y-149.537
X310.499Y-49.525
X310.499Y-73.337
T0
M30
