%FSLAX45Y45*%
G04 Gerber Fmt 4.5, Leading zero omitted, Abs format (unit mm)*
G04 Created by KiCad (PCBNEW (6.0.2)) date 2022-03-04 19:39:15*
%MOMM*%
%LPD*%
G01*
G04 APERTURE LIST*
%TA.AperFunction,Profile*%
%ADD10C,0.200000*%
%TD*%
%ADD11C,0.200000*%
%ADD12C,0.065000*%
%ADD13C,0.170180*%
%ADD14C,0.304800*%
%ADD15C,0.398780*%
G04 APERTURE END LIST*
D10*
X2871726Y-3603125D02*
X28544851Y-3603125D01*
X28544851Y-2399800D02*
X28544851Y-3603125D01*
X32399226Y-15985625D02*
X32399226Y-3920625D01*
X28544851Y-2399800D02*
X29744851Y-2399800D01*
X2871726Y-3603125D02*
G75*
G03*
X2554226Y-3920625I0J-317500D01*
G01*
X32081726Y-16303125D02*
G75*
G03*
X32399226Y-15985625I0J317500D01*
G01*
X29744851Y-3603125D02*
X32081726Y-3603125D01*
X32399226Y-3920625D02*
G75*
G03*
X32081726Y-3603125I-317500J0D01*
G01*
X2871726Y-16303125D02*
X32081726Y-16303125D01*
X29744851Y-2399800D02*
X29744851Y-3603125D01*
X2554226Y-15985625D02*
G75*
G03*
X2871726Y-16303125I317500J0D01*
G01*
X2554226Y-3920625D02*
X2554226Y-15985625D01*
D11*
D12*
X28823351Y-2999135D02*
X28888351Y-3064135D01*
X28888351Y-2999135D02*
X28823351Y-3064135D01*
X29401351Y-2999135D02*
X29466351Y-3064135D01*
X29466351Y-2999135D02*
X29401351Y-3064135D01*
D13*
X3480691Y-14953750D02*
G75*
G03*
X3480691Y-14953750I-85090J0D01*
G01*
X3956941Y-4952500D02*
G75*
G03*
X3956941Y-4952500I-85090J0D01*
G01*
X4195066Y-10191250D02*
G75*
G03*
X4195066Y-10191250I-85090J0D01*
G01*
X4496691Y-14953750D02*
G75*
G03*
X4496691Y-14953750I-85090J0D01*
G01*
X4909441Y-7333750D02*
G75*
G03*
X4909441Y-7333750I-85090J0D01*
G01*
X4972941Y-4952500D02*
G75*
G03*
X4972941Y-4952500I-85090J0D01*
G01*
X5211066Y-10191250D02*
G75*
G03*
X5211066Y-10191250I-85090J0D01*
G01*
X5385691Y-13048750D02*
G75*
G03*
X5385691Y-13048750I-85090J0D01*
G01*
X5385691Y-14953750D02*
G75*
G03*
X5385691Y-14953750I-85090J0D01*
G01*
X5861941Y-4952500D02*
G75*
G03*
X5861941Y-4952500I-85090J0D01*
G01*
X5925441Y-7333750D02*
G75*
G03*
X5925441Y-7333750I-85090J0D01*
G01*
X6338191Y-11143750D02*
G75*
G03*
X6338191Y-11143750I-85090J0D01*
G01*
X6401691Y-13048750D02*
G75*
G03*
X6401691Y-13048750I-85090J0D01*
G01*
X6401691Y-14953750D02*
G75*
G03*
X6401691Y-14953750I-85090J0D01*
G01*
X6814441Y-9238750D02*
G75*
G03*
X6814441Y-9238750I-85090J0D01*
G01*
X6877941Y-4952500D02*
G75*
G03*
X6877941Y-4952500I-85090J0D01*
G01*
X7290691Y-13048750D02*
G75*
G03*
X7290691Y-13048750I-85090J0D01*
G01*
X7290691Y-14953750D02*
G75*
G03*
X7290691Y-14953750I-85090J0D01*
G01*
X7354191Y-11143750D02*
G75*
G03*
X7354191Y-11143750I-85090J0D01*
G01*
X7766941Y-4952500D02*
G75*
G03*
X7766941Y-4952500I-85090J0D01*
G01*
X7766941Y-7333750D02*
G75*
G03*
X7766941Y-7333750I-85090J0D01*
G01*
X7830441Y-9238750D02*
G75*
G03*
X7830441Y-9238750I-85090J0D01*
G01*
X8243191Y-11143750D02*
G75*
G03*
X8243191Y-11143750I-85090J0D01*
G01*
X8306691Y-13048750D02*
G75*
G03*
X8306691Y-13048750I-85090J0D01*
G01*
X8306691Y-14953750D02*
G75*
G03*
X8306691Y-14953750I-85090J0D01*
G01*
X8719441Y-9238750D02*
G75*
G03*
X8719441Y-9238750I-85090J0D01*
G01*
X8782941Y-4952500D02*
G75*
G03*
X8782941Y-4952500I-85090J0D01*
G01*
X8782941Y-7333750D02*
G75*
G03*
X8782941Y-7333750I-85090J0D01*
G01*
X9195691Y-13048750D02*
G75*
G03*
X9195691Y-13048750I-85090J0D01*
G01*
X9195691Y-14953750D02*
G75*
G03*
X9195691Y-14953750I-85090J0D01*
G01*
X9259191Y-11143750D02*
G75*
G03*
X9259191Y-11143750I-85090J0D01*
G01*
X9671941Y-4952500D02*
G75*
G03*
X9671941Y-4952500I-85090J0D01*
G01*
X9671941Y-7333750D02*
G75*
G03*
X9671941Y-7333750I-85090J0D01*
G01*
X9735441Y-9238750D02*
G75*
G03*
X9735441Y-9238750I-85090J0D01*
G01*
X10148191Y-11143750D02*
G75*
G03*
X10148191Y-11143750I-85090J0D01*
G01*
X10211691Y-13048750D02*
G75*
G03*
X10211691Y-13048750I-85090J0D01*
G01*
X10211691Y-14953750D02*
G75*
G03*
X10211691Y-14953750I-85090J0D01*
G01*
X10624441Y-9238750D02*
G75*
G03*
X10624441Y-9238750I-85090J0D01*
G01*
X10687941Y-4952500D02*
G75*
G03*
X10687941Y-4952500I-85090J0D01*
G01*
X10687941Y-7333750D02*
G75*
G03*
X10687941Y-7333750I-85090J0D01*
G01*
X11100691Y-13048750D02*
G75*
G03*
X11100691Y-13048750I-85090J0D01*
G01*
X11164191Y-11143750D02*
G75*
G03*
X11164191Y-11143750I-85090J0D01*
G01*
X11338816Y-14953750D02*
G75*
G03*
X11338816Y-14953750I-85090J0D01*
G01*
X11576941Y-7333750D02*
G75*
G03*
X11576941Y-7333750I-85090J0D01*
G01*
X11640441Y-9238750D02*
G75*
G03*
X11640441Y-9238750I-85090J0D01*
G01*
X12053191Y-11143750D02*
G75*
G03*
X12053191Y-11143750I-85090J0D01*
G01*
X12116691Y-13048750D02*
G75*
G03*
X12116691Y-13048750I-85090J0D01*
G01*
X12354816Y-14953750D02*
G75*
G03*
X12354816Y-14953750I-85090J0D01*
G01*
X12529441Y-4952500D02*
G75*
G03*
X12529441Y-4952500I-85090J0D01*
G01*
X12529441Y-9238750D02*
G75*
G03*
X12529441Y-9238750I-85090J0D01*
G01*
X12592941Y-7333750D02*
G75*
G03*
X12592941Y-7333750I-85090J0D01*
G01*
X13005691Y-13048750D02*
G75*
G03*
X13005691Y-13048750I-85090J0D01*
G01*
X13069191Y-11143750D02*
G75*
G03*
X13069191Y-11143750I-85090J0D01*
G01*
X13481941Y-7333750D02*
G75*
G03*
X13481941Y-7333750I-85090J0D01*
G01*
X13545441Y-4952500D02*
G75*
G03*
X13545441Y-4952500I-85090J0D01*
G01*
X13545441Y-9238750D02*
G75*
G03*
X13545441Y-9238750I-85090J0D01*
G01*
X13958191Y-11143750D02*
G75*
G03*
X13958191Y-11143750I-85090J0D01*
G01*
X14021691Y-13048750D02*
G75*
G03*
X14021691Y-13048750I-85090J0D01*
G01*
X14434441Y-4952500D02*
G75*
G03*
X14434441Y-4952500I-85090J0D01*
G01*
X14434441Y-9238750D02*
G75*
G03*
X14434441Y-9238750I-85090J0D01*
G01*
X14497941Y-7333750D02*
G75*
G03*
X14497941Y-7333750I-85090J0D01*
G01*
X14910691Y-13048750D02*
G75*
G03*
X14910691Y-13048750I-85090J0D01*
G01*
X14974191Y-11143750D02*
G75*
G03*
X14974191Y-11143750I-85090J0D01*
G01*
X15386941Y-7333750D02*
G75*
G03*
X15386941Y-7333750I-85090J0D01*
G01*
X15450441Y-4952500D02*
G75*
G03*
X15450441Y-4952500I-85090J0D01*
G01*
X15450441Y-9238750D02*
G75*
G03*
X15450441Y-9238750I-85090J0D01*
G01*
X15863191Y-11143750D02*
G75*
G03*
X15863191Y-11143750I-85090J0D01*
G01*
X15926691Y-13048750D02*
G75*
G03*
X15926691Y-13048750I-85090J0D01*
G01*
X16339441Y-4952500D02*
G75*
G03*
X16339441Y-4952500I-85090J0D01*
G01*
X16339441Y-9238750D02*
G75*
G03*
X16339441Y-9238750I-85090J0D01*
G01*
X16402941Y-7333750D02*
G75*
G03*
X16402941Y-7333750I-85090J0D01*
G01*
X16815691Y-13048750D02*
G75*
G03*
X16815691Y-13048750I-85090J0D01*
G01*
X16879191Y-11143750D02*
G75*
G03*
X16879191Y-11143750I-85090J0D01*
G01*
X17291941Y-7333750D02*
G75*
G03*
X17291941Y-7333750I-85090J0D01*
G01*
X17355441Y-4952500D02*
G75*
G03*
X17355441Y-4952500I-85090J0D01*
G01*
X17355441Y-9238750D02*
G75*
G03*
X17355441Y-9238750I-85090J0D01*
G01*
X17768191Y-11143750D02*
G75*
G03*
X17768191Y-11143750I-85090J0D01*
G01*
X17831691Y-13048750D02*
G75*
G03*
X17831691Y-13048750I-85090J0D01*
G01*
X18244441Y-4952500D02*
G75*
G03*
X18244441Y-4952500I-85090J0D01*
G01*
X18244441Y-9238750D02*
G75*
G03*
X18244441Y-9238750I-85090J0D01*
G01*
X18307941Y-7333750D02*
G75*
G03*
X18307941Y-7333750I-85090J0D01*
G01*
X18482566Y-14953750D02*
G75*
G03*
X18482566Y-14953750I-85090J0D01*
G01*
X18720691Y-13048750D02*
G75*
G03*
X18720691Y-13048750I-85090J0D01*
G01*
X18784191Y-11143750D02*
G75*
G03*
X18784191Y-11143750I-85090J0D01*
G01*
X19196941Y-7333750D02*
G75*
G03*
X19196941Y-7333750I-85090J0D01*
G01*
X19260441Y-4952500D02*
G75*
G03*
X19260441Y-4952500I-85090J0D01*
G01*
X19260441Y-9238750D02*
G75*
G03*
X19260441Y-9238750I-85090J0D01*
G01*
X19498566Y-14953750D02*
G75*
G03*
X19498566Y-14953750I-85090J0D01*
G01*
X19673191Y-11143750D02*
G75*
G03*
X19673191Y-11143750I-85090J0D01*
G01*
X19736691Y-13048750D02*
G75*
G03*
X19736691Y-13048750I-85090J0D01*
G01*
X20149441Y-9238750D02*
G75*
G03*
X20149441Y-9238750I-85090J0D01*
G01*
X20212941Y-7333750D02*
G75*
G03*
X20212941Y-7333750I-85090J0D01*
G01*
X20625691Y-13048750D02*
G75*
G03*
X20625691Y-13048750I-85090J0D01*
G01*
X20689191Y-11143750D02*
G75*
G03*
X20689191Y-11143750I-85090J0D01*
G01*
X21101941Y-4952500D02*
G75*
G03*
X21101941Y-4952500I-85090J0D01*
G01*
X21101941Y-7333750D02*
G75*
G03*
X21101941Y-7333750I-85090J0D01*
G01*
X21165441Y-9238750D02*
G75*
G03*
X21165441Y-9238750I-85090J0D01*
G01*
X21578191Y-11143750D02*
G75*
G03*
X21578191Y-11143750I-85090J0D01*
G01*
X21641691Y-13048750D02*
G75*
G03*
X21641691Y-13048750I-85090J0D01*
G01*
X22054441Y-9238750D02*
G75*
G03*
X22054441Y-9238750I-85090J0D01*
G01*
X22117941Y-4952500D02*
G75*
G03*
X22117941Y-4952500I-85090J0D01*
G01*
X22117941Y-7333750D02*
G75*
G03*
X22117941Y-7333750I-85090J0D01*
G01*
X22530691Y-13048750D02*
G75*
G03*
X22530691Y-13048750I-85090J0D01*
G01*
X22594191Y-11143750D02*
G75*
G03*
X22594191Y-11143750I-85090J0D01*
G01*
X23006941Y-4952500D02*
G75*
G03*
X23006941Y-4952500I-85090J0D01*
G01*
X23006941Y-7333750D02*
G75*
G03*
X23006941Y-7333750I-85090J0D01*
G01*
X23070441Y-9238750D02*
G75*
G03*
X23070441Y-9238750I-85090J0D01*
G01*
X23483191Y-11143750D02*
G75*
G03*
X23483191Y-11143750I-85090J0D01*
G01*
X23546691Y-13048750D02*
G75*
G03*
X23546691Y-13048750I-85090J0D01*
G01*
X23959441Y-9238750D02*
G75*
G03*
X23959441Y-9238750I-85090J0D01*
G01*
X24022941Y-4952500D02*
G75*
G03*
X24022941Y-4952500I-85090J0D01*
G01*
X24022941Y-7333750D02*
G75*
G03*
X24022941Y-7333750I-85090J0D01*
G01*
X24435691Y-13048750D02*
G75*
G03*
X24435691Y-13048750I-85090J0D01*
G01*
X24499191Y-11143750D02*
G75*
G03*
X24499191Y-11143750I-85090J0D01*
G01*
X24911941Y-7333750D02*
G75*
G03*
X24911941Y-7333750I-85090J0D01*
G01*
X24912441Y-4952500D02*
G75*
G03*
X24912441Y-4952500I-85090J0D01*
G01*
X24975441Y-9238750D02*
G75*
G03*
X24975441Y-9238750I-85090J0D01*
G01*
X25388191Y-11143750D02*
G75*
G03*
X25388191Y-11143750I-85090J0D01*
G01*
X25451691Y-13048750D02*
G75*
G03*
X25451691Y-13048750I-85090J0D01*
G01*
X25626316Y-14953750D02*
G75*
G03*
X25626316Y-14953750I-85090J0D01*
G01*
X25864441Y-9238750D02*
G75*
G03*
X25864441Y-9238750I-85090J0D01*
G01*
X25927941Y-7333750D02*
G75*
G03*
X25927941Y-7333750I-85090J0D01*
G01*
X25928441Y-4952500D02*
G75*
G03*
X25928441Y-4952500I-85090J0D01*
G01*
X26340691Y-13048750D02*
G75*
G03*
X26340691Y-13048750I-85090J0D01*
G01*
X26404191Y-11143750D02*
G75*
G03*
X26404191Y-11143750I-85090J0D01*
G01*
X26642316Y-14953750D02*
G75*
G03*
X26642316Y-14953750I-85090J0D01*
G01*
X26816941Y-4952500D02*
G75*
G03*
X26816941Y-4952500I-85090J0D01*
G01*
X26816941Y-7333750D02*
G75*
G03*
X26816941Y-7333750I-85090J0D01*
G01*
X26880441Y-9238750D02*
G75*
G03*
X26880441Y-9238750I-85090J0D01*
G01*
X27293191Y-11143750D02*
G75*
G03*
X27293191Y-11143750I-85090J0D01*
G01*
X27356691Y-13048750D02*
G75*
G03*
X27356691Y-13048750I-85090J0D01*
G01*
X27769441Y-9238750D02*
G75*
G03*
X27769441Y-9238750I-85090J0D01*
G01*
X27832941Y-4952500D02*
G75*
G03*
X27832941Y-4952500I-85090J0D01*
G01*
X27832941Y-7333750D02*
G75*
G03*
X27832941Y-7333750I-85090J0D01*
G01*
X28007566Y-14953750D02*
G75*
G03*
X28007566Y-14953750I-85090J0D01*
G01*
X28245691Y-13048750D02*
G75*
G03*
X28245691Y-13048750I-85090J0D01*
G01*
X28309191Y-11143750D02*
G75*
G03*
X28309191Y-11143750I-85090J0D01*
G01*
X28721941Y-7333750D02*
G75*
G03*
X28721941Y-7333750I-85090J0D01*
G01*
X28785441Y-9238750D02*
G75*
G03*
X28785441Y-9238750I-85090J0D01*
G01*
X29023566Y-14953750D02*
G75*
G03*
X29023566Y-14953750I-85090J0D01*
G01*
X29261691Y-13048750D02*
G75*
G03*
X29261691Y-13048750I-85090J0D01*
G01*
X29737941Y-7333750D02*
G75*
G03*
X29737941Y-7333750I-85090J0D01*
G01*
X29912566Y-11143750D02*
G75*
G03*
X29912566Y-11143750I-85090J0D01*
G01*
X30150691Y-9238750D02*
G75*
G03*
X30150691Y-9238750I-85090J0D01*
G01*
X30388816Y-13048750D02*
G75*
G03*
X30388816Y-13048750I-85090J0D01*
G01*
X30388816Y-14953750D02*
G75*
G03*
X30388816Y-14953750I-85090J0D01*
G01*
X30626941Y-4952500D02*
G75*
G03*
X30626941Y-4952500I-85090J0D01*
G01*
X30626941Y-7333750D02*
G75*
G03*
X30626941Y-7333750I-85090J0D01*
G01*
X30928566Y-11143750D02*
G75*
G03*
X30928566Y-11143750I-85090J0D01*
G01*
X31166691Y-9238750D02*
G75*
G03*
X31166691Y-9238750I-85090J0D01*
G01*
X31404816Y-13048750D02*
G75*
G03*
X31404816Y-13048750I-85090J0D01*
G01*
X31404816Y-14953750D02*
G75*
G03*
X31404816Y-14953750I-85090J0D01*
G01*
X31642941Y-4952500D02*
G75*
G03*
X31642941Y-4952500I-85090J0D01*
G01*
X31642941Y-7333750D02*
G75*
G03*
X31642941Y-7333750I-85090J0D01*
G01*
D14*
X3919476Y-8845050D02*
X3919476Y-9149850D01*
X3767076Y-8997450D02*
X4071876Y-8997450D01*
X3919476Y-11232650D02*
X3919476Y-11537450D01*
X3767076Y-11385050D02*
X4071876Y-11385050D01*
X4138551Y-6482850D02*
X4138551Y-6787650D01*
X3986151Y-6635250D02*
X4290951Y-6635250D01*
X6526151Y-6482850D02*
X6526151Y-6787650D01*
X6373751Y-6635250D02*
X6678551Y-6635250D01*
X13901676Y-15499850D02*
X13901676Y-15804650D01*
X13749276Y-15652250D02*
X14054076Y-15652250D01*
X23909276Y-15499850D02*
X23909276Y-15804650D01*
X23756876Y-15652250D02*
X24061676Y-15652250D01*
D15*
X4044593Y-15094741D02*
X4044593Y-14812759D01*
X3762610Y-14812759D01*
X3762610Y-15094741D01*
X4044593Y-15094741D01*
X4279543Y-8300241D02*
X4279543Y-8018259D01*
X3997560Y-8018259D01*
X3997560Y-8300241D01*
X4279543Y-8300241D01*
X4520843Y-5093491D02*
X4520843Y-4811509D01*
X4238860Y-4811509D01*
X4238860Y-5093491D01*
X4520843Y-5093491D01*
X4758968Y-10332241D02*
X4758968Y-10050259D01*
X4476985Y-10050259D01*
X4476985Y-10332241D01*
X4758968Y-10332241D01*
X5473343Y-7474741D02*
X5473343Y-7192759D01*
X5191360Y-7192759D01*
X5191360Y-7474741D01*
X5473343Y-7474741D01*
X5584468Y-9138441D02*
X5584468Y-8856459D01*
X5302485Y-8856459D01*
X5302485Y-9138441D01*
X5584468Y-9138441D01*
X5584468Y-11526041D02*
X5584468Y-11244059D01*
X5302485Y-11244059D01*
X5302485Y-11526041D01*
X5584468Y-11526041D01*
X5949593Y-13189741D02*
X5949593Y-12907759D01*
X5667610Y-12907759D01*
X5667610Y-13189741D01*
X5949593Y-13189741D01*
X5949593Y-15094741D02*
X5949593Y-14812759D01*
X5667610Y-14812759D01*
X5667610Y-15094741D01*
X5949593Y-15094741D01*
X6425843Y-5093491D02*
X6425843Y-4811509D01*
X6143860Y-4811509D01*
X6143860Y-5093491D01*
X6425843Y-5093491D01*
X6667143Y-8300241D02*
X6667143Y-8018259D01*
X6385160Y-8018259D01*
X6385160Y-8300241D01*
X6667143Y-8300241D01*
X6902093Y-11284741D02*
X6902093Y-11002759D01*
X6620110Y-11002759D01*
X6620110Y-11284741D01*
X6902093Y-11284741D01*
X7378343Y-9379741D02*
X7378343Y-9097759D01*
X7096360Y-9097759D01*
X7096360Y-9379741D01*
X7378343Y-9379741D01*
X7854593Y-13189741D02*
X7854593Y-12907759D01*
X7572610Y-12907759D01*
X7572610Y-13189741D01*
X7854593Y-13189741D01*
X7854593Y-15094741D02*
X7854593Y-14812759D01*
X7572610Y-14812759D01*
X7572610Y-15094741D01*
X7854593Y-15094741D01*
X8330843Y-5093491D02*
X8330843Y-4811509D01*
X8048860Y-4811509D01*
X8048860Y-5093491D01*
X8330843Y-5093491D01*
X8330843Y-7474741D02*
X8330843Y-7192759D01*
X8048860Y-7192759D01*
X8048860Y-7474741D01*
X8330843Y-7474741D01*
X8807093Y-11284741D02*
X8807093Y-11002759D01*
X8525110Y-11002759D01*
X8525110Y-11284741D01*
X8807093Y-11284741D01*
X9283343Y-9379741D02*
X9283343Y-9097759D01*
X9001360Y-9097759D01*
X9001360Y-9379741D01*
X9283343Y-9379741D01*
X9759593Y-13189741D02*
X9759593Y-12907759D01*
X9477610Y-12907759D01*
X9477610Y-13189741D01*
X9759593Y-13189741D01*
X9759593Y-15094741D02*
X9759593Y-14812759D01*
X9477610Y-14812759D01*
X9477610Y-15094741D01*
X9759593Y-15094741D01*
X10235843Y-5093491D02*
X10235843Y-4811509D01*
X9953860Y-4811509D01*
X9953860Y-5093491D01*
X10235843Y-5093491D01*
X10235843Y-7474741D02*
X10235843Y-7192759D01*
X9953860Y-7192759D01*
X9953860Y-7474741D01*
X10235843Y-7474741D01*
X10712093Y-11284741D02*
X10712093Y-11002759D01*
X10430110Y-11002759D01*
X10430110Y-11284741D01*
X10712093Y-11284741D01*
X11188343Y-9379741D02*
X11188343Y-9097759D01*
X10906360Y-9097759D01*
X10906360Y-9379741D01*
X11188343Y-9379741D01*
X11664593Y-13189741D02*
X11664593Y-12907759D01*
X11382610Y-12907759D01*
X11382610Y-13189741D01*
X11664593Y-13189741D01*
X11902718Y-15094741D02*
X11902718Y-14812759D01*
X11620735Y-14812759D01*
X11620735Y-15094741D01*
X11902718Y-15094741D01*
X12140843Y-7474741D02*
X12140843Y-7192759D01*
X11858860Y-7192759D01*
X11858860Y-7474741D01*
X12140843Y-7474741D01*
X12617093Y-11284741D02*
X12617093Y-11002759D01*
X12335110Y-11002759D01*
X12335110Y-11284741D01*
X12617093Y-11284741D01*
X13093343Y-5093491D02*
X13093343Y-4811509D01*
X12811360Y-4811509D01*
X12811360Y-5093491D01*
X13093343Y-5093491D01*
X13093343Y-9379741D02*
X13093343Y-9097759D01*
X12811360Y-9097759D01*
X12811360Y-9379741D01*
X13093343Y-9379741D01*
X13569593Y-13189741D02*
X13569593Y-12907759D01*
X13287610Y-12907759D01*
X13287610Y-13189741D01*
X13569593Y-13189741D01*
X14042668Y-14269241D02*
X14042668Y-13987259D01*
X13760685Y-13987259D01*
X13760685Y-14269241D01*
X14042668Y-14269241D01*
X14045843Y-7474741D02*
X14045843Y-7192759D01*
X13763860Y-7192759D01*
X13763860Y-7474741D01*
X14045843Y-7474741D01*
X14522093Y-11284741D02*
X14522093Y-11002759D01*
X14240110Y-11002759D01*
X14240110Y-11284741D01*
X14522093Y-11284741D01*
X14998343Y-5093491D02*
X14998343Y-4811509D01*
X14716360Y-4811509D01*
X14716360Y-5093491D01*
X14998343Y-5093491D01*
X14998343Y-9379741D02*
X14998343Y-9097759D01*
X14716360Y-9097759D01*
X14716360Y-9379741D01*
X14998343Y-9379741D01*
X15474593Y-13189741D02*
X15474593Y-12907759D01*
X15192610Y-12907759D01*
X15192610Y-13189741D01*
X15474593Y-13189741D01*
X15950843Y-7474741D02*
X15950843Y-7192759D01*
X15668860Y-7192759D01*
X15668860Y-7474741D01*
X15950843Y-7474741D01*
X16427093Y-11284741D02*
X16427093Y-11002759D01*
X16145110Y-11002759D01*
X16145110Y-11284741D01*
X16427093Y-11284741D01*
X16903343Y-5093491D02*
X16903343Y-4811509D01*
X16621360Y-4811509D01*
X16621360Y-5093491D01*
X16903343Y-5093491D01*
X16903343Y-9379741D02*
X16903343Y-9097759D01*
X16621360Y-9097759D01*
X16621360Y-9379741D01*
X16903343Y-9379741D01*
X17379593Y-13189741D02*
X17379593Y-12907759D01*
X17097610Y-12907759D01*
X17097610Y-13189741D01*
X17379593Y-13189741D01*
X17855843Y-7474741D02*
X17855843Y-7192759D01*
X17573860Y-7192759D01*
X17573860Y-7474741D01*
X17855843Y-7474741D01*
X18332093Y-11284741D02*
X18332093Y-11002759D01*
X18050110Y-11002759D01*
X18050110Y-11284741D01*
X18332093Y-11284741D01*
X18808343Y-5093491D02*
X18808343Y-4811509D01*
X18526360Y-4811509D01*
X18526360Y-5093491D01*
X18808343Y-5093491D01*
X18808343Y-9379741D02*
X18808343Y-9097759D01*
X18526360Y-9097759D01*
X18526360Y-9379741D01*
X18808343Y-9379741D01*
X19046468Y-15094741D02*
X19046468Y-14812759D01*
X18764485Y-14812759D01*
X18764485Y-15094741D01*
X19046468Y-15094741D01*
X19284593Y-13189741D02*
X19284593Y-12907759D01*
X19002610Y-12907759D01*
X19002610Y-13189741D01*
X19284593Y-13189741D01*
X19760843Y-7474741D02*
X19760843Y-7192759D01*
X19478860Y-7192759D01*
X19478860Y-7474741D01*
X19760843Y-7474741D01*
X20237093Y-11284741D02*
X20237093Y-11002759D01*
X19955110Y-11002759D01*
X19955110Y-11284741D01*
X20237093Y-11284741D01*
X20713343Y-9379741D02*
X20713343Y-9097759D01*
X20431360Y-9097759D01*
X20431360Y-9379741D01*
X20713343Y-9379741D01*
X21189593Y-13189741D02*
X21189593Y-12907759D01*
X20907610Y-12907759D01*
X20907610Y-13189741D01*
X21189593Y-13189741D01*
X21665843Y-5093491D02*
X21665843Y-4811509D01*
X21383860Y-4811509D01*
X21383860Y-5093491D01*
X21665843Y-5093491D01*
X21665843Y-7474741D02*
X21665843Y-7192759D01*
X21383860Y-7192759D01*
X21383860Y-7474741D01*
X21665843Y-7474741D01*
X22142093Y-11284741D02*
X22142093Y-11002759D01*
X21860110Y-11002759D01*
X21860110Y-11284741D01*
X22142093Y-11284741D01*
X22618343Y-9379741D02*
X22618343Y-9097759D01*
X22336360Y-9097759D01*
X22336360Y-9379741D01*
X22618343Y-9379741D01*
X23094593Y-13189741D02*
X23094593Y-12907759D01*
X22812610Y-12907759D01*
X22812610Y-13189741D01*
X23094593Y-13189741D01*
X23570843Y-5093491D02*
X23570843Y-4811509D01*
X23288860Y-4811509D01*
X23288860Y-5093491D01*
X23570843Y-5093491D01*
X23570843Y-7474741D02*
X23570843Y-7192759D01*
X23288860Y-7192759D01*
X23288860Y-7474741D01*
X23570843Y-7474741D01*
X24047093Y-11284741D02*
X24047093Y-11002759D01*
X23765110Y-11002759D01*
X23765110Y-11284741D01*
X24047093Y-11284741D01*
X24050268Y-14269241D02*
X24050268Y-13987259D01*
X23768285Y-13987259D01*
X23768285Y-14269241D01*
X24050268Y-14269241D01*
X24523343Y-9379741D02*
X24523343Y-9097759D01*
X24241360Y-9097759D01*
X24241360Y-9379741D01*
X24523343Y-9379741D01*
X24999593Y-13189741D02*
X24999593Y-12907759D01*
X24717610Y-12907759D01*
X24717610Y-13189741D01*
X24999593Y-13189741D01*
X25475843Y-7474741D02*
X25475843Y-7192759D01*
X25193860Y-7192759D01*
X25193860Y-7474741D01*
X25475843Y-7474741D01*
X25476343Y-5093491D02*
X25476343Y-4811509D01*
X25194360Y-4811509D01*
X25194360Y-5093491D01*
X25476343Y-5093491D01*
X25952093Y-11284741D02*
X25952093Y-11002759D01*
X25670110Y-11002759D01*
X25670110Y-11284741D01*
X25952093Y-11284741D01*
X26190218Y-15094741D02*
X26190218Y-14812759D01*
X25908235Y-14812759D01*
X25908235Y-15094741D01*
X26190218Y-15094741D01*
X26428343Y-9379741D02*
X26428343Y-9097759D01*
X26146360Y-9097759D01*
X26146360Y-9379741D01*
X26428343Y-9379741D01*
X26904593Y-13189741D02*
X26904593Y-12907759D01*
X26622610Y-12907759D01*
X26622610Y-13189741D01*
X26904593Y-13189741D01*
X27380843Y-5093491D02*
X27380843Y-4811509D01*
X27098860Y-4811509D01*
X27098860Y-5093491D01*
X27380843Y-5093491D01*
X27380843Y-7474741D02*
X27380843Y-7192759D01*
X27098860Y-7192759D01*
X27098860Y-7474741D01*
X27380843Y-7474741D01*
X27857093Y-11284741D02*
X27857093Y-11002759D01*
X27575110Y-11002759D01*
X27575110Y-11284741D01*
X27857093Y-11284741D01*
X28333343Y-9379741D02*
X28333343Y-9097759D01*
X28051360Y-9097759D01*
X28051360Y-9379741D01*
X28333343Y-9379741D01*
X28571468Y-15094741D02*
X28571468Y-14812759D01*
X28289485Y-14812759D01*
X28289485Y-15094741D01*
X28571468Y-15094741D01*
X28809593Y-13189741D02*
X28809593Y-12907759D01*
X28527610Y-12907759D01*
X28527610Y-13189741D01*
X28809593Y-13189741D01*
X29285843Y-7474741D02*
X29285843Y-7192759D01*
X29003860Y-7192759D01*
X29003860Y-7474741D01*
X29285843Y-7474741D01*
X30476468Y-11284741D02*
X30476468Y-11002759D01*
X30194485Y-11002759D01*
X30194485Y-11284741D01*
X30476468Y-11284741D01*
X30714593Y-9379741D02*
X30714593Y-9097759D01*
X30432610Y-9097759D01*
X30432610Y-9379741D01*
X30714593Y-9379741D01*
X30952718Y-13189741D02*
X30952718Y-12907759D01*
X30670735Y-12907759D01*
X30670735Y-13189741D01*
X30952718Y-13189741D01*
X30952718Y-15094741D02*
X30952718Y-14812759D01*
X30670735Y-14812759D01*
X30670735Y-15094741D01*
X30952718Y-15094741D01*
X31190843Y-5093491D02*
X31190843Y-4811509D01*
X30908860Y-4811509D01*
X30908860Y-5093491D01*
X31190843Y-5093491D01*
X31190843Y-7474741D02*
X31190843Y-7192759D01*
X30908860Y-7192759D01*
X30908860Y-7474741D01*
X31190843Y-7474741D01*
D11*
X2801845Y-16623601D02*
X2801845Y-16423601D01*
X2849464Y-16423601D01*
X2878036Y-16433125D01*
X2897083Y-16452173D01*
X2906607Y-16471220D01*
X2916131Y-16509315D01*
X2916131Y-16537887D01*
X2906607Y-16575982D01*
X2897083Y-16595030D01*
X2878036Y-16614077D01*
X2849464Y-16623601D01*
X2801845Y-16623601D01*
X3001845Y-16623601D02*
X3001845Y-16490268D01*
X3001845Y-16528363D02*
X3011369Y-16509315D01*
X3020893Y-16499792D01*
X3039940Y-16490268D01*
X3058988Y-16490268D01*
X3125655Y-16623601D02*
X3125655Y-16490268D01*
X3125655Y-16423601D02*
X3116131Y-16433125D01*
X3125655Y-16442649D01*
X3135178Y-16433125D01*
X3125655Y-16423601D01*
X3125655Y-16442649D01*
X3249464Y-16623601D02*
X3230417Y-16614077D01*
X3220893Y-16595030D01*
X3220893Y-16423601D01*
X3354226Y-16623601D02*
X3335178Y-16614077D01*
X3325655Y-16595030D01*
X3325655Y-16423601D01*
X3582798Y-16623601D02*
X3582798Y-16423601D01*
X3649464Y-16566458D01*
X3716131Y-16423601D01*
X3716131Y-16623601D01*
X3897083Y-16623601D02*
X3897083Y-16518839D01*
X3887559Y-16499792D01*
X3868512Y-16490268D01*
X3830417Y-16490268D01*
X3811369Y-16499792D01*
X3897083Y-16614077D02*
X3878036Y-16623601D01*
X3830417Y-16623601D01*
X3811369Y-16614077D01*
X3801845Y-16595030D01*
X3801845Y-16575982D01*
X3811369Y-16556934D01*
X3830417Y-16547411D01*
X3878036Y-16547411D01*
X3897083Y-16537887D01*
X3992321Y-16490268D02*
X3992321Y-16690268D01*
X3992321Y-16499792D02*
X4011369Y-16490268D01*
X4049464Y-16490268D01*
X4068512Y-16499792D01*
X4078036Y-16509315D01*
X4087559Y-16528363D01*
X4087559Y-16585506D01*
X4078036Y-16604553D01*
X4068512Y-16614077D01*
X4049464Y-16623601D01*
X4011369Y-16623601D01*
X3992321Y-16614077D01*
X4173274Y-16604553D02*
X4182798Y-16614077D01*
X4173274Y-16623601D01*
X4163750Y-16614077D01*
X4173274Y-16604553D01*
X4173274Y-16623601D01*
X4173274Y-16499792D02*
X4182798Y-16509315D01*
X4173274Y-16518839D01*
X4163750Y-16509315D01*
X4173274Y-16499792D01*
X4173274Y-16518839D01*
D12*
X2479226Y-16920625D02*
X2544226Y-16985625D01*
X2544226Y-16920625D02*
X2479226Y-16985625D01*
D11*
X2839940Y-16843601D02*
X2858988Y-16843601D01*
X2878036Y-16853125D01*
X2887559Y-16862649D01*
X2897083Y-16881696D01*
X2906607Y-16919792D01*
X2906607Y-16967411D01*
X2897083Y-17005506D01*
X2887559Y-17024554D01*
X2878036Y-17034077D01*
X2858988Y-17043601D01*
X2839940Y-17043601D01*
X2820893Y-17034077D01*
X2811369Y-17024554D01*
X2801845Y-17005506D01*
X2792321Y-16967411D01*
X2792321Y-16919792D01*
X2801845Y-16881696D01*
X2811369Y-16862649D01*
X2820893Y-16853125D01*
X2839940Y-16843601D01*
X2992321Y-17024554D02*
X3001845Y-17034077D01*
X2992321Y-17043601D01*
X2982798Y-17034077D01*
X2992321Y-17024554D01*
X2992321Y-17043601D01*
X3173274Y-16843601D02*
X3135178Y-16843601D01*
X3116131Y-16853125D01*
X3106607Y-16862649D01*
X3087559Y-16891220D01*
X3078036Y-16929315D01*
X3078036Y-17005506D01*
X3087559Y-17024554D01*
X3097083Y-17034077D01*
X3116131Y-17043601D01*
X3154226Y-17043601D01*
X3173274Y-17034077D01*
X3182798Y-17024554D01*
X3192321Y-17005506D01*
X3192321Y-16957887D01*
X3182798Y-16938839D01*
X3173274Y-16929315D01*
X3154226Y-16919792D01*
X3116131Y-16919792D01*
X3097083Y-16929315D01*
X3087559Y-16938839D01*
X3078036Y-16957887D01*
X3373274Y-16843601D02*
X3278036Y-16843601D01*
X3268512Y-16938839D01*
X3278036Y-16929315D01*
X3297083Y-16919792D01*
X3344702Y-16919792D01*
X3363750Y-16929315D01*
X3373274Y-16938839D01*
X3382798Y-16957887D01*
X3382798Y-17005506D01*
X3373274Y-17024554D01*
X3363750Y-17034077D01*
X3344702Y-17043601D01*
X3297083Y-17043601D01*
X3278036Y-17034077D01*
X3268512Y-17024554D01*
X3506607Y-16843601D02*
X3525655Y-16843601D01*
X3544702Y-16853125D01*
X3554226Y-16862649D01*
X3563750Y-16881696D01*
X3573274Y-16919792D01*
X3573274Y-16967411D01*
X3563750Y-17005506D01*
X3554226Y-17024554D01*
X3544702Y-17034077D01*
X3525655Y-17043601D01*
X3506607Y-17043601D01*
X3487559Y-17034077D01*
X3478036Y-17024554D01*
X3468512Y-17005506D01*
X3458988Y-16967411D01*
X3458988Y-16919792D01*
X3468512Y-16881696D01*
X3478036Y-16862649D01*
X3487559Y-16853125D01*
X3506607Y-16843601D01*
X3658988Y-17043601D02*
X3658988Y-16910268D01*
X3658988Y-16929315D02*
X3668512Y-16919792D01*
X3687559Y-16910268D01*
X3716131Y-16910268D01*
X3735178Y-16919792D01*
X3744702Y-16938839D01*
X3744702Y-17043601D01*
X3744702Y-16938839D02*
X3754226Y-16919792D01*
X3773274Y-16910268D01*
X3801845Y-16910268D01*
X3820893Y-16919792D01*
X3830417Y-16938839D01*
X3830417Y-17043601D01*
X3925655Y-17043601D02*
X3925655Y-16910268D01*
X3925655Y-16929315D02*
X3935178Y-16919792D01*
X3954226Y-16910268D01*
X3982798Y-16910268D01*
X4001845Y-16919792D01*
X4011369Y-16938839D01*
X4011369Y-17043601D01*
X4011369Y-16938839D02*
X4020893Y-16919792D01*
X4039940Y-16910268D01*
X4068512Y-16910268D01*
X4087559Y-16919792D01*
X4097083Y-16938839D01*
X4097083Y-17043601D01*
X4487560Y-16834077D02*
X4316131Y-17091220D01*
X4744702Y-16843601D02*
X4763750Y-16843601D01*
X4782798Y-16853125D01*
X4792321Y-16862649D01*
X4801845Y-16881696D01*
X4811369Y-16919792D01*
X4811369Y-16967411D01*
X4801845Y-17005506D01*
X4792321Y-17024554D01*
X4782798Y-17034077D01*
X4763750Y-17043601D01*
X4744702Y-17043601D01*
X4725655Y-17034077D01*
X4716131Y-17024554D01*
X4706607Y-17005506D01*
X4697083Y-16967411D01*
X4697083Y-16919792D01*
X4706607Y-16881696D01*
X4716131Y-16862649D01*
X4725655Y-16853125D01*
X4744702Y-16843601D01*
X4897083Y-17024554D02*
X4906607Y-17034077D01*
X4897083Y-17043601D01*
X4887560Y-17034077D01*
X4897083Y-17024554D01*
X4897083Y-17043601D01*
X5030417Y-16843601D02*
X5049464Y-16843601D01*
X5068512Y-16853125D01*
X5078036Y-16862649D01*
X5087560Y-16881696D01*
X5097083Y-16919792D01*
X5097083Y-16967411D01*
X5087560Y-17005506D01*
X5078036Y-17024554D01*
X5068512Y-17034077D01*
X5049464Y-17043601D01*
X5030417Y-17043601D01*
X5011369Y-17034077D01*
X5001845Y-17024554D01*
X4992321Y-17005506D01*
X4982798Y-16967411D01*
X4982798Y-16919792D01*
X4992321Y-16881696D01*
X5001845Y-16862649D01*
X5011369Y-16853125D01*
X5030417Y-16843601D01*
X5173274Y-16862649D02*
X5182798Y-16853125D01*
X5201845Y-16843601D01*
X5249464Y-16843601D01*
X5268512Y-16853125D01*
X5278036Y-16862649D01*
X5287560Y-16881696D01*
X5287560Y-16900744D01*
X5278036Y-16929315D01*
X5163750Y-17043601D01*
X5287560Y-17043601D01*
X5468512Y-16843601D02*
X5373274Y-16843601D01*
X5363750Y-16938839D01*
X5373274Y-16929315D01*
X5392321Y-16919792D01*
X5439940Y-16919792D01*
X5458988Y-16929315D01*
X5468512Y-16938839D01*
X5478036Y-16957887D01*
X5478036Y-17005506D01*
X5468512Y-17024554D01*
X5458988Y-17034077D01*
X5439940Y-17043601D01*
X5392321Y-17043601D01*
X5373274Y-17034077D01*
X5363750Y-17024554D01*
X5649464Y-16843601D02*
X5611369Y-16843601D01*
X5592321Y-16853125D01*
X5582798Y-16862649D01*
X5563750Y-16891220D01*
X5554226Y-16929315D01*
X5554226Y-17005506D01*
X5563750Y-17024554D01*
X5573274Y-17034077D01*
X5592321Y-17043601D01*
X5630417Y-17043601D01*
X5649464Y-17034077D01*
X5658988Y-17024554D01*
X5668512Y-17005506D01*
X5668512Y-16957887D01*
X5658988Y-16938839D01*
X5649464Y-16929315D01*
X5630417Y-16919792D01*
X5592321Y-16919792D01*
X5573274Y-16929315D01*
X5563750Y-16938839D01*
X5554226Y-16957887D01*
X5744702Y-16843601D02*
X5744702Y-16881696D01*
X5820893Y-16843601D02*
X5820893Y-16881696D01*
X6116131Y-17119792D02*
X6106607Y-17110268D01*
X6087559Y-17081696D01*
X6078036Y-17062649D01*
X6068512Y-17034077D01*
X6058988Y-16986458D01*
X6058988Y-16948363D01*
X6068512Y-16900744D01*
X6078036Y-16872173D01*
X6087559Y-16853125D01*
X6106607Y-16824554D01*
X6116131Y-16815030D01*
X6182798Y-16862649D02*
X6192321Y-16853125D01*
X6211369Y-16843601D01*
X6258988Y-16843601D01*
X6278036Y-16853125D01*
X6287559Y-16862649D01*
X6297083Y-16881696D01*
X6297083Y-16900744D01*
X6287559Y-16929315D01*
X6173274Y-17043601D01*
X6297083Y-17043601D01*
X6535178Y-17043601D02*
X6535178Y-16843601D01*
X6620893Y-17043601D02*
X6620893Y-16938839D01*
X6611369Y-16919792D01*
X6592321Y-16910268D01*
X6563750Y-16910268D01*
X6544702Y-16919792D01*
X6535178Y-16929315D01*
X6744702Y-17043601D02*
X6725655Y-17034077D01*
X6716131Y-17024554D01*
X6706607Y-17005506D01*
X6706607Y-16948363D01*
X6716131Y-16929315D01*
X6725655Y-16919792D01*
X6744702Y-16910268D01*
X6773274Y-16910268D01*
X6792321Y-16919792D01*
X6801845Y-16929315D01*
X6811369Y-16948363D01*
X6811369Y-17005506D01*
X6801845Y-17024554D01*
X6792321Y-17034077D01*
X6773274Y-17043601D01*
X6744702Y-17043601D01*
X6925655Y-17043601D02*
X6906607Y-17034077D01*
X6897083Y-17015030D01*
X6897083Y-16843601D01*
X7078036Y-17034077D02*
X7058988Y-17043601D01*
X7020893Y-17043601D01*
X7001845Y-17034077D01*
X6992321Y-17015030D01*
X6992321Y-16938839D01*
X7001845Y-16919792D01*
X7020893Y-16910268D01*
X7058988Y-16910268D01*
X7078036Y-16919792D01*
X7087559Y-16938839D01*
X7087559Y-16957887D01*
X6992321Y-16976935D01*
X7163750Y-17034077D02*
X7182798Y-17043601D01*
X7220893Y-17043601D01*
X7239940Y-17034077D01*
X7249464Y-17015030D01*
X7249464Y-17005506D01*
X7239940Y-16986458D01*
X7220893Y-16976935D01*
X7192321Y-16976935D01*
X7173274Y-16967411D01*
X7163750Y-16948363D01*
X7163750Y-16938839D01*
X7173274Y-16919792D01*
X7192321Y-16910268D01*
X7220893Y-16910268D01*
X7239940Y-16919792D01*
X7316131Y-17119792D02*
X7325655Y-17110268D01*
X7344702Y-17081696D01*
X7354226Y-17062649D01*
X7363750Y-17034077D01*
X7373274Y-16986458D01*
X7373274Y-16948363D01*
X7363750Y-16900744D01*
X7354226Y-16872173D01*
X7344702Y-16853125D01*
X7325655Y-16824554D01*
X7316131Y-16815030D01*
X7678036Y-17119792D02*
X7668512Y-17110268D01*
X7649464Y-17081696D01*
X7639940Y-17062649D01*
X7630417Y-17034077D01*
X7620893Y-16986458D01*
X7620893Y-16948363D01*
X7630417Y-16900744D01*
X7639940Y-16872173D01*
X7649464Y-16853125D01*
X7668512Y-16824554D01*
X7678036Y-16815030D01*
X7754226Y-16910268D02*
X7754226Y-17043601D01*
X7754226Y-16929315D02*
X7763750Y-16919792D01*
X7782798Y-16910268D01*
X7811369Y-16910268D01*
X7830417Y-16919792D01*
X7839940Y-16938839D01*
X7839940Y-17043601D01*
X7963750Y-17043601D02*
X7944702Y-17034077D01*
X7935178Y-17024554D01*
X7925655Y-17005506D01*
X7925655Y-16948363D01*
X7935178Y-16929315D01*
X7944702Y-16919792D01*
X7963750Y-16910268D01*
X7992321Y-16910268D01*
X8011369Y-16919792D01*
X8020893Y-16929315D01*
X8030417Y-16948363D01*
X8030417Y-17005506D01*
X8020893Y-17024554D01*
X8011369Y-17034077D01*
X7992321Y-17043601D01*
X7963750Y-17043601D01*
X8087559Y-16910268D02*
X8163750Y-16910268D01*
X8116131Y-16843601D02*
X8116131Y-17015030D01*
X8125655Y-17034077D01*
X8144702Y-17043601D01*
X8163750Y-17043601D01*
X8382798Y-16910268D02*
X8382798Y-17110268D01*
X8382798Y-16919792D02*
X8401845Y-16910268D01*
X8439940Y-16910268D01*
X8458988Y-16919792D01*
X8468512Y-16929315D01*
X8478036Y-16948363D01*
X8478036Y-17005506D01*
X8468512Y-17024554D01*
X8458988Y-17034077D01*
X8439940Y-17043601D01*
X8401845Y-17043601D01*
X8382798Y-17034077D01*
X8592321Y-17043601D02*
X8573274Y-17034077D01*
X8563750Y-17015030D01*
X8563750Y-16843601D01*
X8754226Y-17043601D02*
X8754226Y-16938839D01*
X8744702Y-16919792D01*
X8725655Y-16910268D01*
X8687560Y-16910268D01*
X8668512Y-16919792D01*
X8754226Y-17034077D02*
X8735179Y-17043601D01*
X8687560Y-17043601D01*
X8668512Y-17034077D01*
X8658988Y-17015030D01*
X8658988Y-16995982D01*
X8668512Y-16976935D01*
X8687560Y-16967411D01*
X8735179Y-16967411D01*
X8754226Y-16957887D01*
X8820893Y-16910268D02*
X8897083Y-16910268D01*
X8849464Y-16843601D02*
X8849464Y-17015030D01*
X8858988Y-17034077D01*
X8878036Y-17043601D01*
X8897083Y-17043601D01*
X9039940Y-17034077D02*
X9020893Y-17043601D01*
X8982798Y-17043601D01*
X8963750Y-17034077D01*
X8954226Y-17015030D01*
X8954226Y-16938839D01*
X8963750Y-16919792D01*
X8982798Y-16910268D01*
X9020893Y-16910268D01*
X9039940Y-16919792D01*
X9049464Y-16938839D01*
X9049464Y-16957887D01*
X8954226Y-16976935D01*
X9220893Y-17043601D02*
X9220893Y-16843601D01*
X9220893Y-17034077D02*
X9201845Y-17043601D01*
X9163750Y-17043601D01*
X9144702Y-17034077D01*
X9135179Y-17024554D01*
X9125655Y-17005506D01*
X9125655Y-16948363D01*
X9135179Y-16929315D01*
X9144702Y-16919792D01*
X9163750Y-16910268D01*
X9201845Y-16910268D01*
X9220893Y-16919792D01*
X9297083Y-17119792D02*
X9306607Y-17110268D01*
X9325655Y-17081696D01*
X9335179Y-17062649D01*
X9344702Y-17034077D01*
X9354226Y-16986458D01*
X9354226Y-16948363D01*
X9344702Y-16900744D01*
X9335179Y-16872173D01*
X9325655Y-16853125D01*
X9306607Y-16824554D01*
X9297083Y-16815030D01*
D13*
X2544226Y-17217125D02*
G75*
G03*
X2544226Y-17217125I-85090J0D01*
G01*
D11*
X2906607Y-17307601D02*
X2792321Y-17307601D01*
X2849464Y-17307601D02*
X2849464Y-17107601D01*
X2830417Y-17136173D01*
X2811369Y-17155220D01*
X2792321Y-17164744D01*
X2992321Y-17288554D02*
X3001845Y-17298077D01*
X2992321Y-17307601D01*
X2982798Y-17298077D01*
X2992321Y-17288554D01*
X2992321Y-17307601D01*
X3068512Y-17107601D02*
X3201845Y-17107601D01*
X3116131Y-17307601D01*
X3316131Y-17107601D02*
X3335178Y-17107601D01*
X3354226Y-17117125D01*
X3363750Y-17126649D01*
X3373274Y-17145696D01*
X3382798Y-17183792D01*
X3382798Y-17231411D01*
X3373274Y-17269506D01*
X3363750Y-17288554D01*
X3354226Y-17298077D01*
X3335178Y-17307601D01*
X3316131Y-17307601D01*
X3297083Y-17298077D01*
X3287559Y-17288554D01*
X3278036Y-17269506D01*
X3268512Y-17231411D01*
X3268512Y-17183792D01*
X3278036Y-17145696D01*
X3287559Y-17126649D01*
X3297083Y-17117125D01*
X3316131Y-17107601D01*
X3458988Y-17126649D02*
X3468512Y-17117125D01*
X3487559Y-17107601D01*
X3535178Y-17107601D01*
X3554226Y-17117125D01*
X3563750Y-17126649D01*
X3573274Y-17145696D01*
X3573274Y-17164744D01*
X3563750Y-17193315D01*
X3449464Y-17307601D01*
X3573274Y-17307601D01*
X3658988Y-17307601D02*
X3658988Y-17174268D01*
X3658988Y-17193315D02*
X3668512Y-17183792D01*
X3687559Y-17174268D01*
X3716131Y-17174268D01*
X3735178Y-17183792D01*
X3744702Y-17202839D01*
X3744702Y-17307601D01*
X3744702Y-17202839D02*
X3754226Y-17183792D01*
X3773274Y-17174268D01*
X3801845Y-17174268D01*
X3820893Y-17183792D01*
X3830417Y-17202839D01*
X3830417Y-17307601D01*
X3925655Y-17307601D02*
X3925655Y-17174268D01*
X3925655Y-17193315D02*
X3935178Y-17183792D01*
X3954226Y-17174268D01*
X3982798Y-17174268D01*
X4001845Y-17183792D01*
X4011369Y-17202839D01*
X4011369Y-17307601D01*
X4011369Y-17202839D02*
X4020893Y-17183792D01*
X4039940Y-17174268D01*
X4068512Y-17174268D01*
X4087559Y-17183792D01*
X4097083Y-17202839D01*
X4097083Y-17307601D01*
X4487560Y-17098077D02*
X4316131Y-17355220D01*
X4744702Y-17107601D02*
X4763750Y-17107601D01*
X4782798Y-17117125D01*
X4792321Y-17126649D01*
X4801845Y-17145696D01*
X4811369Y-17183792D01*
X4811369Y-17231411D01*
X4801845Y-17269506D01*
X4792321Y-17288554D01*
X4782798Y-17298077D01*
X4763750Y-17307601D01*
X4744702Y-17307601D01*
X4725655Y-17298077D01*
X4716131Y-17288554D01*
X4706607Y-17269506D01*
X4697083Y-17231411D01*
X4697083Y-17183792D01*
X4706607Y-17145696D01*
X4716131Y-17126649D01*
X4725655Y-17117125D01*
X4744702Y-17107601D01*
X4897083Y-17288554D02*
X4906607Y-17298077D01*
X4897083Y-17307601D01*
X4887560Y-17298077D01*
X4897083Y-17288554D01*
X4897083Y-17307601D01*
X5030417Y-17107601D02*
X5049464Y-17107601D01*
X5068512Y-17117125D01*
X5078036Y-17126649D01*
X5087560Y-17145696D01*
X5097083Y-17183792D01*
X5097083Y-17231411D01*
X5087560Y-17269506D01*
X5078036Y-17288554D01*
X5068512Y-17298077D01*
X5049464Y-17307601D01*
X5030417Y-17307601D01*
X5011369Y-17298077D01*
X5001845Y-17288554D01*
X4992321Y-17269506D01*
X4982798Y-17231411D01*
X4982798Y-17183792D01*
X4992321Y-17145696D01*
X5001845Y-17126649D01*
X5011369Y-17117125D01*
X5030417Y-17107601D01*
X5268512Y-17107601D02*
X5230417Y-17107601D01*
X5211369Y-17117125D01*
X5201845Y-17126649D01*
X5182798Y-17155220D01*
X5173274Y-17193315D01*
X5173274Y-17269506D01*
X5182798Y-17288554D01*
X5192321Y-17298077D01*
X5211369Y-17307601D01*
X5249464Y-17307601D01*
X5268512Y-17298077D01*
X5278036Y-17288554D01*
X5287560Y-17269506D01*
X5287560Y-17221887D01*
X5278036Y-17202839D01*
X5268512Y-17193315D01*
X5249464Y-17183792D01*
X5211369Y-17183792D01*
X5192321Y-17193315D01*
X5182798Y-17202839D01*
X5173274Y-17221887D01*
X5354226Y-17107601D02*
X5487560Y-17107601D01*
X5401845Y-17307601D01*
X5601845Y-17107601D02*
X5620893Y-17107601D01*
X5639940Y-17117125D01*
X5649464Y-17126649D01*
X5658988Y-17145696D01*
X5668512Y-17183792D01*
X5668512Y-17231411D01*
X5658988Y-17269506D01*
X5649464Y-17288554D01*
X5639940Y-17298077D01*
X5620893Y-17307601D01*
X5601845Y-17307601D01*
X5582798Y-17298077D01*
X5573274Y-17288554D01*
X5563750Y-17269506D01*
X5554226Y-17231411D01*
X5554226Y-17183792D01*
X5563750Y-17145696D01*
X5573274Y-17126649D01*
X5582798Y-17117125D01*
X5601845Y-17107601D01*
X5744702Y-17107601D02*
X5744702Y-17145696D01*
X5820893Y-17107601D02*
X5820893Y-17145696D01*
X6116131Y-17383792D02*
X6106607Y-17374268D01*
X6087559Y-17345696D01*
X6078036Y-17326649D01*
X6068512Y-17298077D01*
X6058988Y-17250458D01*
X6058988Y-17212363D01*
X6068512Y-17164744D01*
X6078036Y-17136173D01*
X6087559Y-17117125D01*
X6106607Y-17088554D01*
X6116131Y-17079030D01*
X6297083Y-17307601D02*
X6182798Y-17307601D01*
X6239940Y-17307601D02*
X6239940Y-17107601D01*
X6220893Y-17136173D01*
X6201845Y-17155220D01*
X6182798Y-17164744D01*
X6478036Y-17107601D02*
X6382798Y-17107601D01*
X6373274Y-17202839D01*
X6382798Y-17193315D01*
X6401845Y-17183792D01*
X6449464Y-17183792D01*
X6468512Y-17193315D01*
X6478036Y-17202839D01*
X6487559Y-17221887D01*
X6487559Y-17269506D01*
X6478036Y-17288554D01*
X6468512Y-17298077D01*
X6449464Y-17307601D01*
X6401845Y-17307601D01*
X6382798Y-17298077D01*
X6373274Y-17288554D01*
X6658988Y-17174268D02*
X6658988Y-17307601D01*
X6611369Y-17098077D02*
X6563750Y-17240935D01*
X6687559Y-17240935D01*
X6916131Y-17307601D02*
X6916131Y-17107601D01*
X7001845Y-17307601D02*
X7001845Y-17202839D01*
X6992321Y-17183792D01*
X6973274Y-17174268D01*
X6944702Y-17174268D01*
X6925655Y-17183792D01*
X6916131Y-17193315D01*
X7125655Y-17307601D02*
X7106607Y-17298077D01*
X7097083Y-17288554D01*
X7087559Y-17269506D01*
X7087559Y-17212363D01*
X7097083Y-17193315D01*
X7106607Y-17183792D01*
X7125655Y-17174268D01*
X7154226Y-17174268D01*
X7173274Y-17183792D01*
X7182798Y-17193315D01*
X7192321Y-17212363D01*
X7192321Y-17269506D01*
X7182798Y-17288554D01*
X7173274Y-17298077D01*
X7154226Y-17307601D01*
X7125655Y-17307601D01*
X7306607Y-17307601D02*
X7287559Y-17298077D01*
X7278036Y-17279030D01*
X7278036Y-17107601D01*
X7458988Y-17298077D02*
X7439940Y-17307601D01*
X7401845Y-17307601D01*
X7382798Y-17298077D01*
X7373274Y-17279030D01*
X7373274Y-17202839D01*
X7382798Y-17183792D01*
X7401845Y-17174268D01*
X7439940Y-17174268D01*
X7458988Y-17183792D01*
X7468512Y-17202839D01*
X7468512Y-17221887D01*
X7373274Y-17240935D01*
X7544702Y-17298077D02*
X7563750Y-17307601D01*
X7601845Y-17307601D01*
X7620893Y-17298077D01*
X7630417Y-17279030D01*
X7630417Y-17269506D01*
X7620893Y-17250458D01*
X7601845Y-17240935D01*
X7573274Y-17240935D01*
X7554226Y-17231411D01*
X7544702Y-17212363D01*
X7544702Y-17202839D01*
X7554226Y-17183792D01*
X7573274Y-17174268D01*
X7601845Y-17174268D01*
X7620893Y-17183792D01*
X7697083Y-17383792D02*
X7706607Y-17374268D01*
X7725655Y-17345696D01*
X7735178Y-17326649D01*
X7744702Y-17298077D01*
X7754226Y-17250458D01*
X7754226Y-17212363D01*
X7744702Y-17164744D01*
X7735178Y-17136173D01*
X7725655Y-17117125D01*
X7706607Y-17088554D01*
X7697083Y-17079030D01*
X8058988Y-17383792D02*
X8049464Y-17374268D01*
X8030417Y-17345696D01*
X8020893Y-17326649D01*
X8011369Y-17298077D01*
X8001845Y-17250458D01*
X8001845Y-17212363D01*
X8011369Y-17164744D01*
X8020893Y-17136173D01*
X8030417Y-17117125D01*
X8049464Y-17088554D01*
X8058988Y-17079030D01*
X8135178Y-17174268D02*
X8135178Y-17307601D01*
X8135178Y-17193315D02*
X8144702Y-17183792D01*
X8163750Y-17174268D01*
X8192321Y-17174268D01*
X8211369Y-17183792D01*
X8220893Y-17202839D01*
X8220893Y-17307601D01*
X8344702Y-17307601D02*
X8325655Y-17298077D01*
X8316131Y-17288554D01*
X8306607Y-17269506D01*
X8306607Y-17212363D01*
X8316131Y-17193315D01*
X8325655Y-17183792D01*
X8344702Y-17174268D01*
X8373274Y-17174268D01*
X8392321Y-17183792D01*
X8401845Y-17193315D01*
X8411369Y-17212363D01*
X8411369Y-17269506D01*
X8401845Y-17288554D01*
X8392321Y-17298077D01*
X8373274Y-17307601D01*
X8344702Y-17307601D01*
X8468512Y-17174268D02*
X8544702Y-17174268D01*
X8497083Y-17107601D02*
X8497083Y-17279030D01*
X8506607Y-17298077D01*
X8525655Y-17307601D01*
X8544702Y-17307601D01*
X8763750Y-17174268D02*
X8763750Y-17374268D01*
X8763750Y-17183792D02*
X8782798Y-17174268D01*
X8820893Y-17174268D01*
X8839940Y-17183792D01*
X8849464Y-17193315D01*
X8858988Y-17212363D01*
X8858988Y-17269506D01*
X8849464Y-17288554D01*
X8839940Y-17298077D01*
X8820893Y-17307601D01*
X8782798Y-17307601D01*
X8763750Y-17298077D01*
X8973274Y-17307601D02*
X8954226Y-17298077D01*
X8944702Y-17279030D01*
X8944702Y-17107601D01*
X9135179Y-17307601D02*
X9135179Y-17202839D01*
X9125655Y-17183792D01*
X9106607Y-17174268D01*
X9068512Y-17174268D01*
X9049464Y-17183792D01*
X9135179Y-17298077D02*
X9116131Y-17307601D01*
X9068512Y-17307601D01*
X9049464Y-17298077D01*
X9039940Y-17279030D01*
X9039940Y-17259982D01*
X9049464Y-17240935D01*
X9068512Y-17231411D01*
X9116131Y-17231411D01*
X9135179Y-17221887D01*
X9201845Y-17174268D02*
X9278036Y-17174268D01*
X9230417Y-17107601D02*
X9230417Y-17279030D01*
X9239940Y-17298077D01*
X9258988Y-17307601D01*
X9278036Y-17307601D01*
X9420893Y-17298077D02*
X9401845Y-17307601D01*
X9363750Y-17307601D01*
X9344702Y-17298077D01*
X9335179Y-17279030D01*
X9335179Y-17202839D01*
X9344702Y-17183792D01*
X9363750Y-17174268D01*
X9401845Y-17174268D01*
X9420893Y-17183792D01*
X9430417Y-17202839D01*
X9430417Y-17221887D01*
X9335179Y-17240935D01*
X9601845Y-17307601D02*
X9601845Y-17107601D01*
X9601845Y-17298077D02*
X9582798Y-17307601D01*
X9544702Y-17307601D01*
X9525655Y-17298077D01*
X9516131Y-17288554D01*
X9506607Y-17269506D01*
X9506607Y-17212363D01*
X9516131Y-17193315D01*
X9525655Y-17183792D01*
X9544702Y-17174268D01*
X9582798Y-17174268D01*
X9601845Y-17183792D01*
X9678036Y-17383792D02*
X9687560Y-17374268D01*
X9706607Y-17345696D01*
X9716131Y-17326649D01*
X9725655Y-17298077D01*
X9735179Y-17250458D01*
X9735179Y-17212363D01*
X9725655Y-17164744D01*
X9716131Y-17136173D01*
X9706607Y-17117125D01*
X9687560Y-17088554D01*
X9678036Y-17079030D01*
X2444226Y-17407305D02*
X2444226Y-17607305D01*
X2344226Y-17507305D02*
X2544226Y-17507305D01*
X2782798Y-17397781D02*
X2906607Y-17397781D01*
X2839940Y-17473972D01*
X2868512Y-17473972D01*
X2887559Y-17483495D01*
X2897083Y-17493019D01*
X2906607Y-17512067D01*
X2906607Y-17559686D01*
X2897083Y-17578734D01*
X2887559Y-17588257D01*
X2868512Y-17597781D01*
X2811369Y-17597781D01*
X2792321Y-17588257D01*
X2782798Y-17578734D01*
X2992321Y-17578734D02*
X3001845Y-17588257D01*
X2992321Y-17597781D01*
X2982798Y-17588257D01*
X2992321Y-17578734D01*
X2992321Y-17597781D01*
X3125655Y-17397781D02*
X3144702Y-17397781D01*
X3163750Y-17407305D01*
X3173274Y-17416829D01*
X3182798Y-17435876D01*
X3192321Y-17473972D01*
X3192321Y-17521591D01*
X3182798Y-17559686D01*
X3173274Y-17578734D01*
X3163750Y-17588257D01*
X3144702Y-17597781D01*
X3125655Y-17597781D01*
X3106607Y-17588257D01*
X3097083Y-17578734D01*
X3087559Y-17559686D01*
X3078036Y-17521591D01*
X3078036Y-17473972D01*
X3087559Y-17435876D01*
X3097083Y-17416829D01*
X3106607Y-17407305D01*
X3125655Y-17397781D01*
X3363750Y-17464448D02*
X3363750Y-17597781D01*
X3316131Y-17388257D02*
X3268512Y-17531115D01*
X3392321Y-17531115D01*
X3497083Y-17483495D02*
X3478036Y-17473972D01*
X3468512Y-17464448D01*
X3458988Y-17445400D01*
X3458988Y-17435876D01*
X3468512Y-17416829D01*
X3478036Y-17407305D01*
X3497083Y-17397781D01*
X3535178Y-17397781D01*
X3554226Y-17407305D01*
X3563750Y-17416829D01*
X3573274Y-17435876D01*
X3573274Y-17445400D01*
X3563750Y-17464448D01*
X3554226Y-17473972D01*
X3535178Y-17483495D01*
X3497083Y-17483495D01*
X3478036Y-17493019D01*
X3468512Y-17502543D01*
X3458988Y-17521591D01*
X3458988Y-17559686D01*
X3468512Y-17578734D01*
X3478036Y-17588257D01*
X3497083Y-17597781D01*
X3535178Y-17597781D01*
X3554226Y-17588257D01*
X3563750Y-17578734D01*
X3573274Y-17559686D01*
X3573274Y-17521591D01*
X3563750Y-17502543D01*
X3554226Y-17493019D01*
X3535178Y-17483495D01*
X3658988Y-17597781D02*
X3658988Y-17464448D01*
X3658988Y-17483495D02*
X3668512Y-17473972D01*
X3687559Y-17464448D01*
X3716131Y-17464448D01*
X3735178Y-17473972D01*
X3744702Y-17493019D01*
X3744702Y-17597781D01*
X3744702Y-17493019D02*
X3754226Y-17473972D01*
X3773274Y-17464448D01*
X3801845Y-17464448D01*
X3820893Y-17473972D01*
X3830417Y-17493019D01*
X3830417Y-17597781D01*
X3925655Y-17597781D02*
X3925655Y-17464448D01*
X3925655Y-17483495D02*
X3935178Y-17473972D01*
X3954226Y-17464448D01*
X3982798Y-17464448D01*
X4001845Y-17473972D01*
X4011369Y-17493019D01*
X4011369Y-17597781D01*
X4011369Y-17493019D02*
X4020893Y-17473972D01*
X4039940Y-17464448D01*
X4068512Y-17464448D01*
X4087559Y-17473972D01*
X4097083Y-17493019D01*
X4097083Y-17597781D01*
X4487560Y-17388257D02*
X4316131Y-17645400D01*
X4744702Y-17397781D02*
X4763750Y-17397781D01*
X4782798Y-17407305D01*
X4792321Y-17416829D01*
X4801845Y-17435876D01*
X4811369Y-17473972D01*
X4811369Y-17521591D01*
X4801845Y-17559686D01*
X4792321Y-17578734D01*
X4782798Y-17588257D01*
X4763750Y-17597781D01*
X4744702Y-17597781D01*
X4725655Y-17588257D01*
X4716131Y-17578734D01*
X4706607Y-17559686D01*
X4697083Y-17521591D01*
X4697083Y-17473972D01*
X4706607Y-17435876D01*
X4716131Y-17416829D01*
X4725655Y-17407305D01*
X4744702Y-17397781D01*
X4897083Y-17578734D02*
X4906607Y-17588257D01*
X4897083Y-17597781D01*
X4887560Y-17588257D01*
X4897083Y-17578734D01*
X4897083Y-17597781D01*
X5097083Y-17597781D02*
X4982798Y-17597781D01*
X5039940Y-17597781D02*
X5039940Y-17397781D01*
X5020893Y-17426353D01*
X5001845Y-17445400D01*
X4982798Y-17454924D01*
X5173274Y-17416829D02*
X5182798Y-17407305D01*
X5201845Y-17397781D01*
X5249464Y-17397781D01*
X5268512Y-17407305D01*
X5278036Y-17416829D01*
X5287560Y-17435876D01*
X5287560Y-17454924D01*
X5278036Y-17483495D01*
X5163750Y-17597781D01*
X5287560Y-17597781D01*
X5411369Y-17397781D02*
X5430417Y-17397781D01*
X5449464Y-17407305D01*
X5458988Y-17416829D01*
X5468512Y-17435876D01*
X5478036Y-17473972D01*
X5478036Y-17521591D01*
X5468512Y-17559686D01*
X5458988Y-17578734D01*
X5449464Y-17588257D01*
X5430417Y-17597781D01*
X5411369Y-17597781D01*
X5392321Y-17588257D01*
X5382798Y-17578734D01*
X5373274Y-17559686D01*
X5363750Y-17521591D01*
X5363750Y-17473972D01*
X5373274Y-17435876D01*
X5382798Y-17416829D01*
X5392321Y-17407305D01*
X5411369Y-17397781D01*
X5601845Y-17397781D02*
X5620893Y-17397781D01*
X5639940Y-17407305D01*
X5649464Y-17416829D01*
X5658988Y-17435876D01*
X5668512Y-17473972D01*
X5668512Y-17521591D01*
X5658988Y-17559686D01*
X5649464Y-17578734D01*
X5639940Y-17588257D01*
X5620893Y-17597781D01*
X5601845Y-17597781D01*
X5582798Y-17588257D01*
X5573274Y-17578734D01*
X5563750Y-17559686D01*
X5554226Y-17521591D01*
X5554226Y-17473972D01*
X5563750Y-17435876D01*
X5573274Y-17416829D01*
X5582798Y-17407305D01*
X5601845Y-17397781D01*
X5744702Y-17397781D02*
X5744702Y-17435876D01*
X5820893Y-17397781D02*
X5820893Y-17435876D01*
X6116131Y-17673972D02*
X6106607Y-17664448D01*
X6087559Y-17635876D01*
X6078036Y-17616829D01*
X6068512Y-17588257D01*
X6058988Y-17540638D01*
X6058988Y-17502543D01*
X6068512Y-17454924D01*
X6078036Y-17426353D01*
X6087559Y-17407305D01*
X6106607Y-17378734D01*
X6116131Y-17369210D01*
X6278036Y-17397781D02*
X6239940Y-17397781D01*
X6220893Y-17407305D01*
X6211369Y-17416829D01*
X6192321Y-17445400D01*
X6182798Y-17483495D01*
X6182798Y-17559686D01*
X6192321Y-17578734D01*
X6201845Y-17588257D01*
X6220893Y-17597781D01*
X6258988Y-17597781D01*
X6278036Y-17588257D01*
X6287559Y-17578734D01*
X6297083Y-17559686D01*
X6297083Y-17512067D01*
X6287559Y-17493019D01*
X6278036Y-17483495D01*
X6258988Y-17473972D01*
X6220893Y-17473972D01*
X6201845Y-17483495D01*
X6192321Y-17493019D01*
X6182798Y-17512067D01*
X6535178Y-17597781D02*
X6535178Y-17397781D01*
X6620893Y-17597781D02*
X6620893Y-17493019D01*
X6611369Y-17473972D01*
X6592321Y-17464448D01*
X6563750Y-17464448D01*
X6544702Y-17473972D01*
X6535178Y-17483495D01*
X6744702Y-17597781D02*
X6725655Y-17588257D01*
X6716131Y-17578734D01*
X6706607Y-17559686D01*
X6706607Y-17502543D01*
X6716131Y-17483495D01*
X6725655Y-17473972D01*
X6744702Y-17464448D01*
X6773274Y-17464448D01*
X6792321Y-17473972D01*
X6801845Y-17483495D01*
X6811369Y-17502543D01*
X6811369Y-17559686D01*
X6801845Y-17578734D01*
X6792321Y-17588257D01*
X6773274Y-17597781D01*
X6744702Y-17597781D01*
X6925655Y-17597781D02*
X6906607Y-17588257D01*
X6897083Y-17569210D01*
X6897083Y-17397781D01*
X7078036Y-17588257D02*
X7058988Y-17597781D01*
X7020893Y-17597781D01*
X7001845Y-17588257D01*
X6992321Y-17569210D01*
X6992321Y-17493019D01*
X7001845Y-17473972D01*
X7020893Y-17464448D01*
X7058988Y-17464448D01*
X7078036Y-17473972D01*
X7087559Y-17493019D01*
X7087559Y-17512067D01*
X6992321Y-17531115D01*
X7163750Y-17588257D02*
X7182798Y-17597781D01*
X7220893Y-17597781D01*
X7239940Y-17588257D01*
X7249464Y-17569210D01*
X7249464Y-17559686D01*
X7239940Y-17540638D01*
X7220893Y-17531115D01*
X7192321Y-17531115D01*
X7173274Y-17521591D01*
X7163750Y-17502543D01*
X7163750Y-17493019D01*
X7173274Y-17473972D01*
X7192321Y-17464448D01*
X7220893Y-17464448D01*
X7239940Y-17473972D01*
X7316131Y-17673972D02*
X7325655Y-17664448D01*
X7344702Y-17635876D01*
X7354226Y-17616829D01*
X7363750Y-17588257D01*
X7373274Y-17540638D01*
X7373274Y-17502543D01*
X7363750Y-17454924D01*
X7354226Y-17426353D01*
X7344702Y-17407305D01*
X7325655Y-17378734D01*
X7316131Y-17369210D01*
X7678036Y-17673972D02*
X7668512Y-17664448D01*
X7649464Y-17635876D01*
X7639940Y-17616829D01*
X7630417Y-17588257D01*
X7620893Y-17540638D01*
X7620893Y-17502543D01*
X7630417Y-17454924D01*
X7639940Y-17426353D01*
X7649464Y-17407305D01*
X7668512Y-17378734D01*
X7678036Y-17369210D01*
X7754226Y-17464448D02*
X7754226Y-17597781D01*
X7754226Y-17483495D02*
X7763750Y-17473972D01*
X7782798Y-17464448D01*
X7811369Y-17464448D01*
X7830417Y-17473972D01*
X7839940Y-17493019D01*
X7839940Y-17597781D01*
X7963750Y-17597781D02*
X7944702Y-17588257D01*
X7935178Y-17578734D01*
X7925655Y-17559686D01*
X7925655Y-17502543D01*
X7935178Y-17483495D01*
X7944702Y-17473972D01*
X7963750Y-17464448D01*
X7992321Y-17464448D01*
X8011369Y-17473972D01*
X8020893Y-17483495D01*
X8030417Y-17502543D01*
X8030417Y-17559686D01*
X8020893Y-17578734D01*
X8011369Y-17588257D01*
X7992321Y-17597781D01*
X7963750Y-17597781D01*
X8087559Y-17464448D02*
X8163750Y-17464448D01*
X8116131Y-17397781D02*
X8116131Y-17569210D01*
X8125655Y-17588257D01*
X8144702Y-17597781D01*
X8163750Y-17597781D01*
X8382798Y-17464448D02*
X8382798Y-17664448D01*
X8382798Y-17473972D02*
X8401845Y-17464448D01*
X8439940Y-17464448D01*
X8458988Y-17473972D01*
X8468512Y-17483495D01*
X8478036Y-17502543D01*
X8478036Y-17559686D01*
X8468512Y-17578734D01*
X8458988Y-17588257D01*
X8439940Y-17597781D01*
X8401845Y-17597781D01*
X8382798Y-17588257D01*
X8592321Y-17597781D02*
X8573274Y-17588257D01*
X8563750Y-17569210D01*
X8563750Y-17397781D01*
X8754226Y-17597781D02*
X8754226Y-17493019D01*
X8744702Y-17473972D01*
X8725655Y-17464448D01*
X8687560Y-17464448D01*
X8668512Y-17473972D01*
X8754226Y-17588257D02*
X8735179Y-17597781D01*
X8687560Y-17597781D01*
X8668512Y-17588257D01*
X8658988Y-17569210D01*
X8658988Y-17550162D01*
X8668512Y-17531115D01*
X8687560Y-17521591D01*
X8735179Y-17521591D01*
X8754226Y-17512067D01*
X8820893Y-17464448D02*
X8897083Y-17464448D01*
X8849464Y-17397781D02*
X8849464Y-17569210D01*
X8858988Y-17588257D01*
X8878036Y-17597781D01*
X8897083Y-17597781D01*
X9039940Y-17588257D02*
X9020893Y-17597781D01*
X8982798Y-17597781D01*
X8963750Y-17588257D01*
X8954226Y-17569210D01*
X8954226Y-17493019D01*
X8963750Y-17473972D01*
X8982798Y-17464448D01*
X9020893Y-17464448D01*
X9039940Y-17473972D01*
X9049464Y-17493019D01*
X9049464Y-17512067D01*
X8954226Y-17531115D01*
X9220893Y-17597781D02*
X9220893Y-17397781D01*
X9220893Y-17588257D02*
X9201845Y-17597781D01*
X9163750Y-17597781D01*
X9144702Y-17588257D01*
X9135179Y-17578734D01*
X9125655Y-17559686D01*
X9125655Y-17502543D01*
X9135179Y-17483495D01*
X9144702Y-17473972D01*
X9163750Y-17464448D01*
X9201845Y-17464448D01*
X9220893Y-17473972D01*
X9297083Y-17673972D02*
X9306607Y-17664448D01*
X9325655Y-17635876D01*
X9335179Y-17616829D01*
X9344702Y-17588257D01*
X9354226Y-17540638D01*
X9354226Y-17502543D01*
X9344702Y-17454924D01*
X9335179Y-17426353D01*
X9325655Y-17407305D01*
X9306607Y-17378734D01*
X9297083Y-17369210D01*
X2514938Y-17898016D02*
X2514938Y-17756594D01*
X2373515Y-17756594D01*
X2373515Y-17898016D01*
X2514938Y-17898016D01*
X2782798Y-17717781D02*
X2906607Y-17717781D01*
X2839940Y-17793972D01*
X2868512Y-17793972D01*
X2887559Y-17803495D01*
X2897083Y-17813019D01*
X2906607Y-17832067D01*
X2906607Y-17879686D01*
X2897083Y-17898734D01*
X2887559Y-17908257D01*
X2868512Y-17917781D01*
X2811369Y-17917781D01*
X2792321Y-17908257D01*
X2782798Y-17898734D01*
X2992321Y-17898734D02*
X3001845Y-17908257D01*
X2992321Y-17917781D01*
X2982798Y-17908257D01*
X2992321Y-17898734D01*
X2992321Y-17917781D01*
X3097083Y-17917781D02*
X3135178Y-17917781D01*
X3154226Y-17908257D01*
X3163750Y-17898734D01*
X3182798Y-17870162D01*
X3192321Y-17832067D01*
X3192321Y-17755876D01*
X3182798Y-17736829D01*
X3173274Y-17727305D01*
X3154226Y-17717781D01*
X3116131Y-17717781D01*
X3097083Y-17727305D01*
X3087559Y-17736829D01*
X3078036Y-17755876D01*
X3078036Y-17803495D01*
X3087559Y-17822543D01*
X3097083Y-17832067D01*
X3116131Y-17841591D01*
X3154226Y-17841591D01*
X3173274Y-17832067D01*
X3182798Y-17822543D01*
X3192321Y-17803495D01*
X3306607Y-17803495D02*
X3287559Y-17793972D01*
X3278036Y-17784448D01*
X3268512Y-17765400D01*
X3268512Y-17755876D01*
X3278036Y-17736829D01*
X3287559Y-17727305D01*
X3306607Y-17717781D01*
X3344702Y-17717781D01*
X3363750Y-17727305D01*
X3373274Y-17736829D01*
X3382798Y-17755876D01*
X3382798Y-17765400D01*
X3373274Y-17784448D01*
X3363750Y-17793972D01*
X3344702Y-17803495D01*
X3306607Y-17803495D01*
X3287559Y-17813019D01*
X3278036Y-17822543D01*
X3268512Y-17841591D01*
X3268512Y-17879686D01*
X3278036Y-17898734D01*
X3287559Y-17908257D01*
X3306607Y-17917781D01*
X3344702Y-17917781D01*
X3363750Y-17908257D01*
X3373274Y-17898734D01*
X3382798Y-17879686D01*
X3382798Y-17841591D01*
X3373274Y-17822543D01*
X3363750Y-17813019D01*
X3344702Y-17803495D01*
X3497083Y-17803495D02*
X3478036Y-17793972D01*
X3468512Y-17784448D01*
X3458988Y-17765400D01*
X3458988Y-17755876D01*
X3468512Y-17736829D01*
X3478036Y-17727305D01*
X3497083Y-17717781D01*
X3535178Y-17717781D01*
X3554226Y-17727305D01*
X3563750Y-17736829D01*
X3573274Y-17755876D01*
X3573274Y-17765400D01*
X3563750Y-17784448D01*
X3554226Y-17793972D01*
X3535178Y-17803495D01*
X3497083Y-17803495D01*
X3478036Y-17813019D01*
X3468512Y-17822543D01*
X3458988Y-17841591D01*
X3458988Y-17879686D01*
X3468512Y-17898734D01*
X3478036Y-17908257D01*
X3497083Y-17917781D01*
X3535178Y-17917781D01*
X3554226Y-17908257D01*
X3563750Y-17898734D01*
X3573274Y-17879686D01*
X3573274Y-17841591D01*
X3563750Y-17822543D01*
X3554226Y-17813019D01*
X3535178Y-17803495D01*
X3658988Y-17917781D02*
X3658988Y-17784448D01*
X3658988Y-17803495D02*
X3668512Y-17793972D01*
X3687559Y-17784448D01*
X3716131Y-17784448D01*
X3735178Y-17793972D01*
X3744702Y-17813019D01*
X3744702Y-17917781D01*
X3744702Y-17813019D02*
X3754226Y-17793972D01*
X3773274Y-17784448D01*
X3801845Y-17784448D01*
X3820893Y-17793972D01*
X3830417Y-17813019D01*
X3830417Y-17917781D01*
X3925655Y-17917781D02*
X3925655Y-17784448D01*
X3925655Y-17803495D02*
X3935178Y-17793972D01*
X3954226Y-17784448D01*
X3982798Y-17784448D01*
X4001845Y-17793972D01*
X4011369Y-17813019D01*
X4011369Y-17917781D01*
X4011369Y-17813019D02*
X4020893Y-17793972D01*
X4039940Y-17784448D01*
X4068512Y-17784448D01*
X4087559Y-17793972D01*
X4097083Y-17813019D01*
X4097083Y-17917781D01*
X4487560Y-17708257D02*
X4316131Y-17965400D01*
X4744702Y-17717781D02*
X4763750Y-17717781D01*
X4782798Y-17727305D01*
X4792321Y-17736829D01*
X4801845Y-17755876D01*
X4811369Y-17793972D01*
X4811369Y-17841591D01*
X4801845Y-17879686D01*
X4792321Y-17898734D01*
X4782798Y-17908257D01*
X4763750Y-17917781D01*
X4744702Y-17917781D01*
X4725655Y-17908257D01*
X4716131Y-17898734D01*
X4706607Y-17879686D01*
X4697083Y-17841591D01*
X4697083Y-17793972D01*
X4706607Y-17755876D01*
X4716131Y-17736829D01*
X4725655Y-17727305D01*
X4744702Y-17717781D01*
X4897083Y-17898734D02*
X4906607Y-17908257D01*
X4897083Y-17917781D01*
X4887560Y-17908257D01*
X4897083Y-17898734D01*
X4897083Y-17917781D01*
X5097083Y-17917781D02*
X4982798Y-17917781D01*
X5039940Y-17917781D02*
X5039940Y-17717781D01*
X5020893Y-17746353D01*
X5001845Y-17765400D01*
X4982798Y-17774924D01*
X5278036Y-17717781D02*
X5182798Y-17717781D01*
X5173274Y-17813019D01*
X5182798Y-17803495D01*
X5201845Y-17793972D01*
X5249464Y-17793972D01*
X5268512Y-17803495D01*
X5278036Y-17813019D01*
X5287560Y-17832067D01*
X5287560Y-17879686D01*
X5278036Y-17898734D01*
X5268512Y-17908257D01*
X5249464Y-17917781D01*
X5201845Y-17917781D01*
X5182798Y-17908257D01*
X5173274Y-17898734D01*
X5354226Y-17717781D02*
X5487560Y-17717781D01*
X5401845Y-17917781D01*
X5601845Y-17717781D02*
X5620893Y-17717781D01*
X5639940Y-17727305D01*
X5649464Y-17736829D01*
X5658988Y-17755876D01*
X5668512Y-17793972D01*
X5668512Y-17841591D01*
X5658988Y-17879686D01*
X5649464Y-17898734D01*
X5639940Y-17908257D01*
X5620893Y-17917781D01*
X5601845Y-17917781D01*
X5582798Y-17908257D01*
X5573274Y-17898734D01*
X5563750Y-17879686D01*
X5554226Y-17841591D01*
X5554226Y-17793972D01*
X5563750Y-17755876D01*
X5573274Y-17736829D01*
X5582798Y-17727305D01*
X5601845Y-17717781D01*
X5744702Y-17717781D02*
X5744702Y-17755876D01*
X5820893Y-17717781D02*
X5820893Y-17755876D01*
X6116131Y-17993972D02*
X6106607Y-17984448D01*
X6087559Y-17955876D01*
X6078036Y-17936829D01*
X6068512Y-17908257D01*
X6058988Y-17860638D01*
X6058988Y-17822543D01*
X6068512Y-17774924D01*
X6078036Y-17746353D01*
X6087559Y-17727305D01*
X6106607Y-17698734D01*
X6116131Y-17689210D01*
X6220893Y-17803495D02*
X6201845Y-17793972D01*
X6192321Y-17784448D01*
X6182798Y-17765400D01*
X6182798Y-17755876D01*
X6192321Y-17736829D01*
X6201845Y-17727305D01*
X6220893Y-17717781D01*
X6258988Y-17717781D01*
X6278036Y-17727305D01*
X6287559Y-17736829D01*
X6297083Y-17755876D01*
X6297083Y-17765400D01*
X6287559Y-17784448D01*
X6278036Y-17793972D01*
X6258988Y-17803495D01*
X6220893Y-17803495D01*
X6201845Y-17813019D01*
X6192321Y-17822543D01*
X6182798Y-17841591D01*
X6182798Y-17879686D01*
X6192321Y-17898734D01*
X6201845Y-17908257D01*
X6220893Y-17917781D01*
X6258988Y-17917781D01*
X6278036Y-17908257D01*
X6287559Y-17898734D01*
X6297083Y-17879686D01*
X6297083Y-17841591D01*
X6287559Y-17822543D01*
X6278036Y-17813019D01*
X6258988Y-17803495D01*
X6363750Y-17717781D02*
X6487559Y-17717781D01*
X6420893Y-17793972D01*
X6449464Y-17793972D01*
X6468512Y-17803495D01*
X6478036Y-17813019D01*
X6487559Y-17832067D01*
X6487559Y-17879686D01*
X6478036Y-17898734D01*
X6468512Y-17908257D01*
X6449464Y-17917781D01*
X6392321Y-17917781D01*
X6373274Y-17908257D01*
X6363750Y-17898734D01*
X6725655Y-17917781D02*
X6725655Y-17717781D01*
X6811369Y-17917781D02*
X6811369Y-17813019D01*
X6801845Y-17793972D01*
X6782798Y-17784448D01*
X6754226Y-17784448D01*
X6735178Y-17793972D01*
X6725655Y-17803495D01*
X6935178Y-17917781D02*
X6916131Y-17908257D01*
X6906607Y-17898734D01*
X6897083Y-17879686D01*
X6897083Y-17822543D01*
X6906607Y-17803495D01*
X6916131Y-17793972D01*
X6935178Y-17784448D01*
X6963750Y-17784448D01*
X6982798Y-17793972D01*
X6992321Y-17803495D01*
X7001845Y-17822543D01*
X7001845Y-17879686D01*
X6992321Y-17898734D01*
X6982798Y-17908257D01*
X6963750Y-17917781D01*
X6935178Y-17917781D01*
X7116131Y-17917781D02*
X7097083Y-17908257D01*
X7087559Y-17889210D01*
X7087559Y-17717781D01*
X7268512Y-17908257D02*
X7249464Y-17917781D01*
X7211369Y-17917781D01*
X7192321Y-17908257D01*
X7182798Y-17889210D01*
X7182798Y-17813019D01*
X7192321Y-17793972D01*
X7211369Y-17784448D01*
X7249464Y-17784448D01*
X7268512Y-17793972D01*
X7278036Y-17813019D01*
X7278036Y-17832067D01*
X7182798Y-17851115D01*
X7354226Y-17908257D02*
X7373274Y-17917781D01*
X7411369Y-17917781D01*
X7430417Y-17908257D01*
X7439940Y-17889210D01*
X7439940Y-17879686D01*
X7430417Y-17860638D01*
X7411369Y-17851115D01*
X7382798Y-17851115D01*
X7363750Y-17841591D01*
X7354226Y-17822543D01*
X7354226Y-17813019D01*
X7363750Y-17793972D01*
X7382798Y-17784448D01*
X7411369Y-17784448D01*
X7430417Y-17793972D01*
X7506607Y-17993972D02*
X7516131Y-17984448D01*
X7535178Y-17955876D01*
X7544702Y-17936829D01*
X7554226Y-17908257D01*
X7563750Y-17860638D01*
X7563750Y-17822543D01*
X7554226Y-17774924D01*
X7544702Y-17746353D01*
X7535178Y-17727305D01*
X7516131Y-17698734D01*
X7506607Y-17689210D01*
X7868512Y-17993972D02*
X7858988Y-17984448D01*
X7839940Y-17955876D01*
X7830417Y-17936829D01*
X7820893Y-17908257D01*
X7811369Y-17860638D01*
X7811369Y-17822543D01*
X7820893Y-17774924D01*
X7830417Y-17746353D01*
X7839940Y-17727305D01*
X7858988Y-17698734D01*
X7868512Y-17689210D01*
X7944702Y-17784448D02*
X7944702Y-17917781D01*
X7944702Y-17803495D02*
X7954226Y-17793972D01*
X7973274Y-17784448D01*
X8001845Y-17784448D01*
X8020893Y-17793972D01*
X8030417Y-17813019D01*
X8030417Y-17917781D01*
X8154226Y-17917781D02*
X8135178Y-17908257D01*
X8125655Y-17898734D01*
X8116131Y-17879686D01*
X8116131Y-17822543D01*
X8125655Y-17803495D01*
X8135178Y-17793972D01*
X8154226Y-17784448D01*
X8182798Y-17784448D01*
X8201845Y-17793972D01*
X8211369Y-17803495D01*
X8220893Y-17822543D01*
X8220893Y-17879686D01*
X8211369Y-17898734D01*
X8201845Y-17908257D01*
X8182798Y-17917781D01*
X8154226Y-17917781D01*
X8278036Y-17784448D02*
X8354226Y-17784448D01*
X8306607Y-17717781D02*
X8306607Y-17889210D01*
X8316131Y-17908257D01*
X8335178Y-17917781D01*
X8354226Y-17917781D01*
X8573274Y-17784448D02*
X8573274Y-17984448D01*
X8573274Y-17793972D02*
X8592321Y-17784448D01*
X8630417Y-17784448D01*
X8649464Y-17793972D01*
X8658988Y-17803495D01*
X8668512Y-17822543D01*
X8668512Y-17879686D01*
X8658988Y-17898734D01*
X8649464Y-17908257D01*
X8630417Y-17917781D01*
X8592321Y-17917781D01*
X8573274Y-17908257D01*
X8782798Y-17917781D02*
X8763750Y-17908257D01*
X8754226Y-17889210D01*
X8754226Y-17717781D01*
X8944702Y-17917781D02*
X8944702Y-17813019D01*
X8935179Y-17793972D01*
X8916131Y-17784448D01*
X8878036Y-17784448D01*
X8858988Y-17793972D01*
X8944702Y-17908257D02*
X8925655Y-17917781D01*
X8878036Y-17917781D01*
X8858988Y-17908257D01*
X8849464Y-17889210D01*
X8849464Y-17870162D01*
X8858988Y-17851115D01*
X8878036Y-17841591D01*
X8925655Y-17841591D01*
X8944702Y-17832067D01*
X9011369Y-17784448D02*
X9087560Y-17784448D01*
X9039940Y-17717781D02*
X9039940Y-17889210D01*
X9049464Y-17908257D01*
X9068512Y-17917781D01*
X9087560Y-17917781D01*
X9230417Y-17908257D02*
X9211369Y-17917781D01*
X9173274Y-17917781D01*
X9154226Y-17908257D01*
X9144702Y-17889210D01*
X9144702Y-17813019D01*
X9154226Y-17793972D01*
X9173274Y-17784448D01*
X9211369Y-17784448D01*
X9230417Y-17793972D01*
X9239940Y-17813019D01*
X9239940Y-17832067D01*
X9144702Y-17851115D01*
X9411369Y-17917781D02*
X9411369Y-17717781D01*
X9411369Y-17908257D02*
X9392321Y-17917781D01*
X9354226Y-17917781D01*
X9335179Y-17908257D01*
X9325655Y-17898734D01*
X9316131Y-17879686D01*
X9316131Y-17822543D01*
X9325655Y-17803495D01*
X9335179Y-17793972D01*
X9354226Y-17784448D01*
X9392321Y-17784448D01*
X9411369Y-17793972D01*
X9487560Y-17993972D02*
X9497083Y-17984448D01*
X9516131Y-17955876D01*
X9525655Y-17936829D01*
X9535179Y-17908257D01*
X9544702Y-17860638D01*
X9544702Y-17822543D01*
X9535179Y-17774924D01*
X9525655Y-17746353D01*
X9516131Y-17727305D01*
X9497083Y-17698734D01*
X9487560Y-17689210D01*
M02*
