M48
; DRILL file {KiCad (6.0.2)} date Fri Mar  4 19:39:14 2022
; FORMAT={-:-/ absolute / metric / decimal}
; #@! TF.CreationDate,2022-03-04T19:39:14-03:00
; #@! TF.GenerationSoftware,Kicad,Pcbnew,(6.0.2)
; #@! TF.FileFunction,Plated,1,2,PTH
FMAT,2
METRIC
; #@! TA.AperFunction,Plated,PTH,ViaDrill
T1C0.300
; #@! TA.AperFunction,Plated,PTH,ComponentDrill
T2C0.300
; #@! TA.AperFunction,Plated,PTH,ViaDrill
T3C0.400
; #@! TA.AperFunction,Plated,PTH,ViaDrill
T4C0.500
; #@! TA.AperFunction,Plated,PTH,ComponentDrill
T5C0.600
; #@! TA.AperFunction,Plated,PTH,ComponentDrill
T6C0.762
; #@! TA.AperFunction,Plated,PTH,ComponentDrill
T7C0.991
; #@! TA.AperFunction,Plated,PTH,ComponentDrill
T8C1.016
; #@! TA.AperFunction,Plated,PTH,ComponentDrill
T9C1.524
%
G90
G05
T1
X33.979Y-48.691
X37.865Y-44.094
X57.271Y-64.134
X84.144Y-65.48
X92.246Y-65.303
X103.092Y-65.43
X148.152Y-79.45
X155.238Y-79.501
X174.847Y-79.323
X187.42Y-76.529
X192.932Y-79.476
X206.216Y-76.529
X212.592Y-71.932
X214.09Y-76.631
X214.09Y-79.4
X225.469Y-76.606
X226.587Y-141.63
X228.34Y-141.63
X231.413Y-71.983
X231.438Y-79.323
X244.519Y-72.846
X246.221Y-74.523
X250.768Y-79.73
X252.139Y-76.656
X254.044Y-65.43
X254.273Y-61.569
X263.823Y-76.783
X266.16Y-74.548
X269.234Y-79.374
X271.088Y-76.428
X278.605Y-65.608
X279.299Y-50.386
X279.649Y-56.086
X280.435Y-73.202
X281.179Y-61.349
X281.476Y-64.464
X281.629Y-68.706
X281.654Y-66.954
X282.299Y-48.386
X282.492Y-76.631
X283.049Y-53.936
X283.099Y-55.886
X286.049Y-56.136
X286.129Y-59.936
X287.242Y-58.318
X287.429Y-60.536
X287.649Y-51.586
X288.479Y-50.336
X288.665Y-71.932
X289.099Y-66.386
X289.884Y-77.317
X289.888Y-48.474
X290.254Y-33.392
X290.599Y-47.186
X291.103Y-34.924
X292.411Y-37.409
X292.643Y-33.392
X292.849Y-60.986
X293.699Y-66.586
X294.329Y-69.595
X295.954Y-59.487
X296.716Y-77.596
X297.199Y-49.736
X298.864Y-54.797
X299.349Y-61.536
X299.711Y-54.796
X299.764Y-71.805
X300.974Y-54.386
X301.085Y-57.403
X301.34Y-60.267
X302.449Y-43.936
X304.057Y-40.385
X305.276Y-57.225
T2
X290.449Y-52.936
X290.449Y-53.936
X290.449Y-54.936
X290.449Y-55.936
X290.449Y-56.936
X291.449Y-52.936
X291.449Y-53.936
X291.449Y-54.936
X291.449Y-55.936
X291.449Y-56.936
X292.449Y-52.936
X292.449Y-53.936
X292.449Y-54.936
X292.449Y-55.936
X292.449Y-56.936
X293.449Y-52.936
X293.449Y-53.936
X293.449Y-54.936
X293.449Y-55.936
X293.449Y-56.936
X294.449Y-52.936
X294.449Y-53.936
X294.449Y-54.936
X294.449Y-55.936
X294.449Y-56.936
T3
X71.821Y-80.195
X72.243Y-68.608
X208.284Y-153.237
X227.529Y-143.332
X242.621Y-66.961
X245.198Y-66.939
X247.834Y-66.868
X252.145Y-61.26
X260.324Y-40.895
X260.861Y-43.735
X282.532Y-43.099
X291.199Y-42.883
X291.449Y-37.505
X293.433Y-42.884
X294.702Y-39.912
X296.567Y-41.832
X302.185Y-45.791
T4
X226.417Y-143.433
X270.499Y-53.586
X286.449Y-48.936
X287.649Y-35.167
X288.649Y-33.967
X294.249Y-33.967
X295.456Y-34.011
T6
X238.917Y-60.809
X238.917Y-63.349
X241.457Y-60.936
X241.457Y-63.476
X243.997Y-60.809
X243.997Y-63.349
X246.537Y-60.936
X246.537Y-63.476
X249.077Y-60.809
X249.077Y-63.349
T7
X37.766Y-144.457
X42.529Y-44.445
X44.91Y-96.832
X52.054Y-68.257
X56.816Y-125.407
X56.816Y-144.457
X61.579Y-44.445
X66.341Y-106.358
X71.104Y-87.307
X75.866Y-125.407
X75.866Y-144.457
X80.629Y-44.445
X80.629Y-68.257
X85.391Y-106.358
X90.154Y-87.307
X94.916Y-125.407
X94.916Y-144.457
X99.679Y-44.445
X99.679Y-68.257
X104.441Y-106.358
X109.204Y-87.307
X113.966Y-125.407
X116.347Y-144.457
X118.729Y-68.257
X123.491Y-106.358
X128.254Y-44.445
X128.254Y-87.307
X133.016Y-125.407
X137.779Y-68.257
X142.541Y-106.358
X147.304Y-44.445
X147.304Y-87.307
X152.066Y-125.407
X156.829Y-68.257
X161.591Y-106.358
X166.354Y-44.445
X166.354Y-87.307
X171.116Y-125.407
X175.879Y-68.257
X180.641Y-106.358
X185.404Y-44.445
X185.404Y-87.307
X187.785Y-144.457
X190.166Y-125.407
X194.929Y-68.257
X199.691Y-49.525
X199.691Y-106.358
X204.454Y-87.307
X209.216Y-125.407
X213.979Y-44.445
X213.979Y-68.257
X218.741Y-106.358
X223.504Y-87.307
X228.266Y-125.407
X233.029Y-44.445
X233.029Y-68.257
X237.791Y-106.358
X242.554Y-87.307
X247.316Y-125.407
X252.079Y-68.257
X252.084Y-44.445
X256.841Y-106.358
X259.222Y-144.457
X261.604Y-87.307
X266.366Y-125.407
X271.129Y-44.445
X271.129Y-68.257
X275.891Y-106.358
X280.654Y-87.307
X283.035Y-144.457
X285.416Y-125.407
X290.179Y-68.257
X302.085Y-106.358
X304.466Y-87.307
X306.847Y-125.407
X306.847Y-144.457
X309.228Y-44.445
X309.229Y-68.257
T8
X40.306Y-144.457
X45.069Y-44.445
X47.45Y-96.832
X54.594Y-68.257
X59.356Y-125.407
X59.356Y-144.457
X64.119Y-44.445
X68.881Y-106.358
X73.644Y-87.307
X78.406Y-125.407
X78.406Y-144.457
X83.169Y-44.445
X83.169Y-68.257
X87.931Y-106.358
X92.694Y-87.307
X97.456Y-125.407
X97.456Y-144.457
X102.219Y-44.445
X102.219Y-68.257
X106.981Y-106.358
X111.744Y-87.307
X116.506Y-125.407
X118.887Y-144.457
X121.269Y-68.257
X126.031Y-106.358
X130.794Y-44.445
X130.794Y-87.307
X135.556Y-125.407
X140.319Y-68.257
X145.081Y-106.358
X149.844Y-44.445
X149.844Y-87.307
X154.606Y-125.407
X159.369Y-68.257
X164.131Y-106.358
X168.894Y-44.445
X168.894Y-87.307
X173.656Y-125.407
X178.419Y-68.257
X183.181Y-106.358
X187.944Y-44.445
X187.944Y-87.307
X190.325Y-144.457
X192.706Y-125.407
X197.469Y-68.257
X202.231Y-49.525
X202.231Y-106.358
X206.994Y-87.307
X211.756Y-125.407
X216.519Y-44.445
X216.519Y-68.257
X221.281Y-106.358
X226.044Y-87.307
X230.806Y-125.407
X235.569Y-44.445
X235.569Y-68.257
X240.331Y-106.358
X245.094Y-87.307
X249.856Y-125.407
X254.619Y-68.257
X254.624Y-44.445
X259.381Y-106.358
X261.762Y-144.457
X264.144Y-87.307
X268.906Y-125.407
X273.669Y-44.445
X273.669Y-68.257
X278.431Y-106.358
X283.194Y-87.307
X285.575Y-144.457
X287.956Y-125.407
X292.719Y-68.257
X304.625Y-106.358
X307.006Y-87.307
X309.387Y-125.407
X309.387Y-144.457
X311.768Y-44.445
X311.769Y-68.257
T9
X35.226Y-152.077
X39.989Y-52.065
X41.576Y-154.618
X42.37Y-104.453
X46.339Y-54.605
X48.72Y-106.992
X49.514Y-75.877
X54.276Y-133.028
X54.276Y-152.077
X55.864Y-78.417
X59.039Y-52.065
X60.626Y-135.567
X60.626Y-154.618
X63.801Y-113.977
X65.389Y-54.605
X68.564Y-94.927
X70.151Y-116.517
X73.326Y-133.028
X73.326Y-152.077
X74.914Y-97.468
X78.089Y-52.065
X78.089Y-75.877
X79.676Y-135.567
X79.676Y-154.618
X82.851Y-113.977
X84.439Y-54.605
X84.439Y-78.417
X87.614Y-94.927
X89.201Y-116.517
X92.376Y-133.028
X92.376Y-152.077
X93.964Y-97.468
X97.139Y-52.065
X97.139Y-75.877
X98.726Y-135.567
X98.726Y-154.618
X101.901Y-113.977
X103.489Y-54.605
X103.489Y-78.417
X106.664Y-94.927
X108.251Y-116.517
X111.426Y-133.028
X113.014Y-97.468
X113.807Y-152.077
X116.189Y-75.877
X117.776Y-135.567
X120.157Y-154.618
X120.951Y-113.977
X122.539Y-78.417
X125.714Y-52.065
X125.714Y-94.927
X127.301Y-116.517
X130.476Y-133.028
X132.064Y-54.605
X132.064Y-97.468
X135.239Y-75.877
X136.826Y-135.567
X140.001Y-113.977
X141.589Y-78.417
X144.764Y-52.065
X144.764Y-94.927
X146.351Y-116.517
X149.526Y-133.028
X151.114Y-54.605
X151.114Y-97.468
X154.289Y-75.877
X155.876Y-135.567
X159.051Y-113.977
X160.639Y-78.417
X163.814Y-52.065
X163.814Y-94.927
X165.401Y-116.517
X168.576Y-133.028
X170.164Y-54.605
X170.164Y-97.468
X173.339Y-75.877
X174.926Y-135.567
X178.101Y-113.977
X179.689Y-78.417
X182.864Y-52.065
X182.864Y-94.927
X184.451Y-116.517
X185.245Y-152.077
X187.626Y-133.028
X189.214Y-54.605
X189.214Y-97.468
X191.595Y-154.618
X192.389Y-75.877
X193.976Y-135.567
X197.151Y-113.977
X198.739Y-78.417
X201.914Y-94.927
X203.501Y-116.517
X206.676Y-133.028
X208.264Y-97.468
X211.439Y-52.065
X211.439Y-75.877
X213.026Y-135.567
X216.201Y-113.977
X217.789Y-54.605
X217.789Y-78.417
X220.964Y-94.927
X222.551Y-116.517
X225.726Y-133.028
X227.314Y-97.468
X230.489Y-52.065
X230.489Y-75.877
X232.076Y-135.567
X235.251Y-113.977
X236.839Y-54.605
X236.839Y-78.417
X240.014Y-94.927
X241.601Y-116.517
X244.776Y-133.028
X246.364Y-97.468
X249.539Y-75.877
X249.544Y-52.065
X251.126Y-135.567
X254.301Y-113.977
X255.889Y-78.417
X255.894Y-54.605
X256.682Y-152.077
X259.064Y-94.927
X260.651Y-116.517
X263.032Y-154.618
X263.826Y-133.028
X265.414Y-97.468
X268.589Y-52.065
X268.589Y-75.877
X270.176Y-135.567
X273.351Y-113.977
X274.939Y-54.605
X274.939Y-78.417
X278.114Y-94.927
X279.701Y-116.517
X280.495Y-152.077
X282.876Y-133.028
X284.464Y-97.468
X286.845Y-154.618
X287.639Y-75.877
X289.226Y-135.567
X293.989Y-78.417
X299.545Y-113.977
X301.926Y-94.927
X304.307Y-133.028
X304.307Y-152.077
X305.895Y-116.517
X306.689Y-52.065
X306.689Y-75.877
X308.276Y-97.468
X310.657Y-135.567
X310.657Y-154.618
X313.039Y-54.605
X313.039Y-78.417
T5
X287.149Y-26.967G85X287.149Y-26.367
G05
X287.149Y-31.417G85X287.149Y-30.317
G05
X295.749Y-26.967G85X295.749Y-26.367
G05
X295.749Y-31.417G85X295.749Y-30.317
G05
T0
M30
