%TF.GenerationSoftware,KiCad,Pcbnew,(6.0.2)*%
%TF.CreationDate,2022-03-05T21:23:45-03:00*%
%TF.ProjectId,BareDevRev2,42617265-4465-4765-9265-76322e6b6963,V1.1.0*%
%TF.SameCoordinates,Original*%
%TF.FileFunction,Paste,Top*%
%TF.FilePolarity,Positive*%
%FSLAX46Y46*%
G04 Gerber Fmt 4.6, Leading zero omitted, Abs format (unit mm)*
G04 Created by KiCad (PCBNEW (6.0.2)) date 2022-03-05 21:23:45*
%MOMM*%
%LPD*%
G01*
G04 APERTURE LIST*
G04 Aperture macros list*
%AMRoundRect*
0 Rectangle with rounded corners*
0 $1 Rounding radius*
0 $2 $3 $4 $5 $6 $7 $8 $9 X,Y pos of 4 corners*
0 Add a 4 corners polygon primitive as box body*
4,1,4,$2,$3,$4,$5,$6,$7,$8,$9,$2,$3,0*
0 Add four circle primitives for the rounded corners*
1,1,$1+$1,$2,$3*
1,1,$1+$1,$4,$5*
1,1,$1+$1,$6,$7*
1,1,$1+$1,$8,$9*
0 Add four rect primitives between the rounded corners*
20,1,$1+$1,$2,$3,$4,$5,0*
20,1,$1+$1,$4,$5,$6,$7,0*
20,1,$1+$1,$6,$7,$8,$9,0*
20,1,$1+$1,$8,$9,$2,$3,0*%
G04 Aperture macros list end*
%ADD10RoundRect,0.250000X0.350000X-0.250000X0.350000X0.250000X-0.350000X0.250000X-0.350000X-0.250000X0*%
%ADD11RoundRect,0.200000X-0.537500X0.000000X0.537500X0.000000X0.537500X0.000000X-0.537500X0.000000X0*%
%ADD12R,1.475000X0.400000*%
%ADD13RoundRect,0.250000X-0.450000X0.262500X-0.450000X-0.262500X0.450000X-0.262500X0.450000X0.262500X0*%
%ADD14RoundRect,0.135000X0.185000X-0.135000X0.185000X0.135000X-0.185000X0.135000X-0.185000X-0.135000X0*%
%ADD15RoundRect,0.140000X-0.170000X0.140000X-0.170000X-0.140000X0.170000X-0.140000X0.170000X0.140000X0*%
%ADD16RoundRect,0.250000X-0.262500X-0.450000X0.262500X-0.450000X0.262500X0.450000X-0.262500X0.450000X0*%
%ADD17RoundRect,0.140000X0.140000X0.170000X-0.140000X0.170000X-0.140000X-0.170000X0.140000X-0.170000X0*%
%ADD18RoundRect,0.150000X-0.150000X0.587500X-0.150000X-0.587500X0.150000X-0.587500X0.150000X0.587500X0*%
%ADD19RoundRect,0.250000X0.300000X-0.300000X0.300000X0.300000X-0.300000X0.300000X-0.300000X-0.300000X0*%
%ADD20RoundRect,0.150000X0.000000X-0.750000X0.000000X0.750000X0.000000X0.750000X0.000000X-0.750000X0*%
%ADD21R,0.300000X1.800000*%
%ADD22R,1.800000X0.300000*%
%ADD23R,1.100000X1.800000*%
%ADD24RoundRect,0.250000X-0.250000X-0.350000X0.250000X-0.350000X0.250000X0.350000X-0.250000X0.350000X0*%
%ADD25RoundRect,0.135000X-0.135000X-0.185000X0.135000X-0.185000X0.135000X0.185000X-0.135000X0.185000X0*%
%ADD26RoundRect,0.135000X-0.185000X0.135000X-0.185000X-0.135000X0.185000X-0.135000X0.185000X0.135000X0*%
%ADD27RoundRect,0.250000X0.262500X0.450000X-0.262500X0.450000X-0.262500X-0.450000X0.262500X-0.450000X0*%
%ADD28RoundRect,0.250000X0.475000X-0.250000X0.475000X0.250000X-0.475000X0.250000X-0.475000X-0.250000X0*%
%ADD29RoundRect,0.325000X0.000000X-0.205000X0.000000X0.205000X0.000000X0.205000X0.000000X-0.205000X0*%
%ADD30R,0.650000X1.060000*%
%ADD31RoundRect,0.135000X0.135000X0.185000X-0.135000X0.185000X-0.135000X-0.185000X0.135000X-0.185000X0*%
%ADD32RoundRect,0.150000X-0.587500X-0.150000X0.587500X-0.150000X0.587500X0.150000X-0.587500X0.150000X0*%
%ADD33RoundRect,0.250000X0.425000X-0.537500X0.425000X0.537500X-0.425000X0.537500X-0.425000X-0.537500X0*%
%ADD34RoundRect,0.325000X0.000000X0.205000X0.000000X-0.205000X0.000000X-0.205000X0.000000X0.205000X0*%
%ADD35RoundRect,0.250000X0.450000X-0.262500X0.450000X0.262500X-0.450000X0.262500X-0.450000X-0.262500X0*%
%ADD36RoundRect,0.218750X0.218750X0.381250X-0.218750X0.381250X-0.218750X-0.381250X0.218750X-0.381250X0*%
%ADD37RoundRect,0.150000X0.150000X0.575000X-0.150000X0.575000X-0.150000X-0.575000X0.150000X-0.575000X0*%
%ADD38RoundRect,0.075000X0.075000X0.650000X-0.075000X0.650000X-0.075000X-0.650000X0.075000X-0.650000X0*%
%ADD39R,1.400000X1.200000*%
%ADD40RoundRect,0.250000X-0.250000X-0.475000X0.250000X-0.475000X0.250000X0.475000X-0.250000X0.475000X0*%
%ADD41RoundRect,0.250000X-0.350000X0.250000X-0.350000X-0.250000X0.350000X-0.250000X0.350000X0.250000X0*%
%ADD42RoundRect,0.250000X-0.375000X-0.625000X0.375000X-0.625000X0.375000X0.625000X-0.375000X0.625000X0*%
%ADD43RoundRect,0.140000X-0.140000X-0.170000X0.140000X-0.170000X0.140000X0.170000X-0.140000X0.170000X0*%
G04 APERTURE END LIST*
D10*
%TO.C,D_162*%
X165576012Y-136327500D03*
X165576012Y-133027500D03*
%TD*%
D11*
%TO.C,U1*%
X269731947Y-57456502D03*
D12*
X269731947Y-58106502D03*
X269731947Y-58756502D03*
X269731947Y-59406502D03*
X275456947Y-59406502D03*
X275456947Y-58756502D03*
X275456947Y-58106502D03*
X275456947Y-57456502D03*
%TD*%
D10*
%TO.C,D_148*%
X175101012Y-117277500D03*
X175101012Y-113977500D03*
%TD*%
%TO.C,D_130*%
X256063512Y-98227500D03*
X256063512Y-94927500D03*
%TD*%
D13*
%TO.C,R148*%
X186181012Y-104533000D03*
X186181012Y-106358000D03*
%TD*%
D14*
%TO.C,R303*%
X211401862Y-152283208D03*
X211401862Y-151263208D03*
%TD*%
D13*
%TO.C,R165*%
X119506012Y-123583000D03*
X119506012Y-125408000D03*
%TD*%
%TO.C,R108*%
X152843512Y-42620500D03*
X152843512Y-44445500D03*
%TD*%
D15*
%TO.C,C9*%
X289048512Y-64306116D03*
X289048512Y-65266116D03*
%TD*%
D13*
%TO.C,R166*%
X100456012Y-123583000D03*
X100456012Y-125408000D03*
%TD*%
D10*
%TO.C,D_171*%
X253682262Y-155377500D03*
X253682262Y-152077500D03*
%TD*%
D13*
%TO.C,R107*%
X171893512Y-42620500D03*
X171893512Y-44445500D03*
%TD*%
%TO.C,R110*%
X105218512Y-42620500D03*
X105218512Y-44445500D03*
%TD*%
D10*
%TO.C,D_114*%
X303688512Y-79177500D03*
X303688512Y-75877500D03*
%TD*%
%TO.C,D_116*%
X265588512Y-79177500D03*
X265588512Y-75877500D03*
%TD*%
D16*
%TO.C,R7*%
X199691012Y-51992200D03*
X201516012Y-51992200D03*
%TD*%
D13*
%TO.C,R157*%
X271906012Y-123583000D03*
X271906012Y-125408000D03*
%TD*%
D17*
%TO.C,C11*%
X299578540Y-52386117D03*
X298618540Y-52386117D03*
%TD*%
D10*
%TO.C,D_177*%
X32226012Y-155377500D03*
X32226012Y-152077500D03*
%TD*%
D17*
%TO.C,C1*%
X279578540Y-51586117D03*
X278618540Y-51586117D03*
%TD*%
D13*
%TO.C,R126*%
X86168512Y-66433000D03*
X86168512Y-68258000D03*
%TD*%
D14*
%TO.C,R307*%
X218249376Y-146113208D03*
X218249376Y-145093208D03*
%TD*%
D10*
%TO.C,D_142*%
X296544762Y-117277500D03*
X296544762Y-113977500D03*
%TD*%
D18*
%TO.C,Q302*%
X216815896Y-145093208D03*
X214915896Y-145093208D03*
X215865896Y-146968208D03*
%TD*%
D19*
%TO.C,U2*%
X291768512Y-52896116D03*
X294488512Y-54256116D03*
X293128512Y-55616116D03*
X294488512Y-56976116D03*
X293128512Y-52896116D03*
X290408512Y-54256116D03*
X290408512Y-56976116D03*
X291768512Y-54256116D03*
X290408512Y-52896116D03*
X290408512Y-55616116D03*
X294488512Y-55616116D03*
X294488512Y-52896116D03*
X291768512Y-55616116D03*
X293128512Y-56976116D03*
X291768512Y-56976116D03*
X293128512Y-54256116D03*
D20*
X289698512Y-58936116D03*
D21*
X290198512Y-58936116D03*
X290698512Y-58936116D03*
X291198512Y-58936116D03*
X291698512Y-58936116D03*
X292198512Y-58936116D03*
X292698512Y-58936116D03*
X293198512Y-58936116D03*
X293698512Y-58936116D03*
X294198512Y-58936116D03*
X294698512Y-58936116D03*
X295198512Y-58936116D03*
D22*
X296448512Y-57686116D03*
X296448512Y-57186116D03*
X296448512Y-56686116D03*
X296448512Y-56186116D03*
X296448512Y-55686116D03*
X296448512Y-55186116D03*
X296448512Y-54686116D03*
X296448512Y-54186116D03*
X296448512Y-53686116D03*
X296448512Y-53186116D03*
X296448512Y-52686116D03*
X296448512Y-52186116D03*
D21*
X295198512Y-50936116D03*
X294698512Y-50936116D03*
X294198512Y-50936116D03*
X293698512Y-50936116D03*
X293198512Y-50936116D03*
X292698512Y-50936116D03*
X292198512Y-50936116D03*
X291698512Y-50936116D03*
X291198512Y-50936116D03*
X290698512Y-50936116D03*
X290198512Y-50936116D03*
X289698512Y-50936116D03*
D22*
X288448512Y-52186116D03*
X288448512Y-52686116D03*
X288448512Y-53186116D03*
X288448512Y-53686116D03*
X288448512Y-54186116D03*
X288448512Y-54686116D03*
X288448512Y-55186116D03*
X288448512Y-55686116D03*
X288448512Y-56186116D03*
X288448512Y-56686116D03*
X288448512Y-57186116D03*
X288448512Y-57686116D03*
%TD*%
D13*
%TO.C,R109*%
X133793512Y-42620500D03*
X133793512Y-44445500D03*
%TD*%
D10*
%TO.C,D_118*%
X227488512Y-79177500D03*
X227488512Y-75877500D03*
%TD*%
D15*
%TO.C,C301*%
X212908809Y-151293208D03*
X212908809Y-152253208D03*
%TD*%
D23*
%TO.C,SW301*%
X227508497Y-145093208D03*
X227508497Y-151293208D03*
X223808497Y-151293208D03*
X223808497Y-145093208D03*
%TD*%
D13*
%TO.C,R103*%
X257623512Y-42620500D03*
X257623512Y-44445500D03*
%TD*%
D24*
%TO.C,D301*%
X218363968Y-151293208D03*
X221663968Y-151293208D03*
%TD*%
D13*
%TO.C,R101*%
X314767882Y-42620440D03*
X314767882Y-44445440D03*
%TD*%
%TO.C,R177*%
X43306012Y-142633000D03*
X43306012Y-144458000D03*
%TD*%
D10*
%TO.C,D_123*%
X132238512Y-79177500D03*
X132238512Y-75877500D03*
%TD*%
%TO.C,D_176*%
X51276012Y-155377500D03*
X51276012Y-152077500D03*
%TD*%
D25*
%TO.C,R301*%
X215529789Y-151293208D03*
X216549789Y-151293208D03*
%TD*%
D13*
%TO.C,R129*%
X286193512Y-85483000D03*
X286193512Y-87308000D03*
%TD*%
D10*
%TO.C,D_121*%
X170338512Y-79177500D03*
X170338512Y-75877500D03*
%TD*%
D13*
%TO.C,R143*%
X281431012Y-104533000D03*
X281431012Y-106358000D03*
%TD*%
D26*
%TO.C,R304*%
X204647665Y-150920578D03*
X204647665Y-151940578D03*
%TD*%
D27*
%TO.C,R118*%
X239465015Y-70549248D03*
X237640015Y-70549248D03*
%TD*%
D13*
%TO.C,R164*%
X138556012Y-123583000D03*
X138556012Y-125408000D03*
%TD*%
D10*
%TO.C,D_161*%
X184626012Y-136327500D03*
X184626012Y-133027500D03*
%TD*%
D28*
%TO.C,C202*%
X272665127Y-39565008D03*
X272665127Y-37665008D03*
%TD*%
D10*
%TO.C,D_117*%
X246538512Y-79177500D03*
X246538512Y-75877500D03*
%TD*%
%TO.C,D_111*%
X75088512Y-55365000D03*
X75088512Y-52065000D03*
%TD*%
D13*
%TO.C,R128*%
X310006012Y-85483000D03*
X310006012Y-87308000D03*
%TD*%
D10*
%TO.C,D_105*%
X208438512Y-55365000D03*
X208438512Y-52065000D03*
%TD*%
%TO.C,D_160*%
X203676012Y-136327500D03*
X203676012Y-133027500D03*
%TD*%
D16*
%TO.C,R6*%
X305624932Y-40371183D03*
X307449932Y-40371183D03*
%TD*%
D10*
%TO.C,D_154*%
X60801012Y-117277500D03*
X60801012Y-113977500D03*
%TD*%
D13*
%TO.C,R172*%
X193324762Y-142633000D03*
X193324762Y-144458000D03*
%TD*%
%TO.C,R170*%
X288574762Y-142633000D03*
X288574762Y-144458000D03*
%TD*%
%TO.C,R173*%
X121887262Y-142633000D03*
X121887262Y-144458000D03*
%TD*%
D10*
%TO.C,D_147*%
X194151012Y-117277500D03*
X194151012Y-113977500D03*
%TD*%
%TO.C,D_159*%
X222726012Y-136327500D03*
X222726012Y-133027500D03*
%TD*%
%TO.C,D_144*%
X251301012Y-117277500D03*
X251301012Y-113977500D03*
%TD*%
D13*
%TO.C,R149*%
X167131012Y-104533000D03*
X167131012Y-106358000D03*
%TD*%
D10*
%TO.C,D_113*%
X36988512Y-55365000D03*
X36988512Y-52065000D03*
%TD*%
%TO.C,D_110*%
X94138512Y-55365000D03*
X94138512Y-52065000D03*
%TD*%
D13*
%TO.C,R145*%
X243331012Y-104533000D03*
X243331012Y-106358000D03*
%TD*%
D10*
%TO.C,D_155*%
X301307262Y-136327500D03*
X301307262Y-133027500D03*
%TD*%
D26*
%TO.C,R402*%
X289625942Y-34649124D03*
X289625942Y-35669124D03*
%TD*%
D29*
%TO.C,U3*%
X290498512Y-41008119D03*
D30*
X291448512Y-41008119D03*
X292398512Y-41008119D03*
X292398512Y-38808119D03*
X291448512Y-38808119D03*
X290498512Y-38808119D03*
%TD*%
D10*
%TO.C,D_109*%
X122713512Y-55365000D03*
X122713512Y-52065000D03*
%TD*%
D31*
%TO.C,R401*%
X295687099Y-35401633D03*
X294667099Y-35401633D03*
%TD*%
D13*
%TO.C,R131*%
X248093512Y-85483000D03*
X248093512Y-87308000D03*
%TD*%
%TO.C,R135*%
X171893512Y-85483000D03*
X171893512Y-87308000D03*
%TD*%
D10*
%TO.C,D_122*%
X151288512Y-79177500D03*
X151288512Y-75877500D03*
%TD*%
D13*
%TO.C,R124*%
X124268512Y-66433000D03*
X124268512Y-68258000D03*
%TD*%
%TO.C,R175*%
X81406012Y-142633000D03*
X81406012Y-144458000D03*
%TD*%
D10*
%TO.C,D_132*%
X217963512Y-98227500D03*
X217963512Y-94927500D03*
%TD*%
D32*
%TO.C,Q1*%
X309424963Y-38471183D03*
X309424963Y-40371183D03*
X311299963Y-39421183D03*
%TD*%
D10*
%TO.C,D_133*%
X198913512Y-98227500D03*
X198913512Y-94927500D03*
%TD*%
D13*
%TO.C,R147*%
X205231012Y-104533000D03*
X205231012Y-106358000D03*
%TD*%
D17*
%TO.C,C10*%
X298158511Y-50586117D03*
X297198511Y-50586117D03*
%TD*%
D25*
%TO.C,R306*%
X219503968Y-145093208D03*
X220523968Y-145093208D03*
%TD*%
D17*
%TO.C,C2*%
X287428512Y-61536116D03*
X286468512Y-61536116D03*
%TD*%
D33*
%TO.C,C5*%
X285248512Y-46473616D03*
X285248512Y-43598616D03*
%TD*%
D13*
%TO.C,R122*%
X162368512Y-66433000D03*
X162368512Y-68258000D03*
%TD*%
D10*
%TO.C,D_173*%
X110807262Y-155377500D03*
X110807262Y-152077500D03*
%TD*%
%TO.C,D_163*%
X146526012Y-136327500D03*
X146526012Y-133027500D03*
%TD*%
D13*
%TO.C,R176*%
X62356012Y-142633000D03*
X62356012Y-144458000D03*
%TD*%
D16*
%TO.C,R201*%
X283504277Y-39533244D03*
X285329277Y-39533244D03*
%TD*%
D34*
%TO.C,U201*%
X278354268Y-37515008D03*
D30*
X277404268Y-37515008D03*
X276454268Y-37515008D03*
X276454268Y-39715008D03*
X278354268Y-39715008D03*
%TD*%
D13*
%TO.C,R119*%
X219518512Y-66433000D03*
X219518512Y-68258000D03*
%TD*%
D35*
%TO.C,R202*%
X270631768Y-39527508D03*
X270631768Y-37702508D03*
%TD*%
D10*
%TO.C,D_115*%
X284638512Y-79177500D03*
X284638512Y-75877500D03*
%TD*%
D36*
%TO.C,FB401*%
X300313969Y-37259910D03*
X298188969Y-37259910D03*
%TD*%
D13*
%TO.C,R104*%
X238568512Y-42620500D03*
X238568512Y-44445500D03*
%TD*%
D10*
%TO.C,D_166*%
X89376012Y-136327500D03*
X89376012Y-133027500D03*
%TD*%
D37*
%TO.C,J401*%
X294698512Y-31642354D03*
X293898512Y-31642354D03*
D38*
X292698512Y-31642354D03*
X291702512Y-31642354D03*
X291198512Y-31642354D03*
X290198512Y-31642354D03*
D37*
X288198512Y-31642354D03*
X288998512Y-31642354D03*
D38*
X289698512Y-31642354D03*
X290698512Y-31642354D03*
X292198512Y-31642354D03*
X293198512Y-31642354D03*
%TD*%
D13*
%TO.C,R163*%
X157606012Y-123583000D03*
X157606012Y-125408000D03*
%TD*%
D15*
%TO.C,C6*%
X298348512Y-61536116D03*
X298348512Y-62496116D03*
%TD*%
D13*
%TO.C,R174*%
X100456012Y-142633000D03*
X100456012Y-144458000D03*
%TD*%
%TO.C,R127*%
X57593512Y-66433000D03*
X57593512Y-68258000D03*
%TD*%
%TO.C,R111*%
X86168512Y-42620500D03*
X86168512Y-44445500D03*
%TD*%
%TO.C,R133*%
X209993512Y-85483000D03*
X209993512Y-87308000D03*
%TD*%
%TO.C,R169*%
X312387262Y-142633000D03*
X312387262Y-144458000D03*
%TD*%
%TO.C,R154*%
X71881012Y-104533000D03*
X71881012Y-106358000D03*
%TD*%
D27*
%TO.C,R5*%
X307449932Y-38471183D03*
X305624932Y-38471183D03*
%TD*%
D13*
%TO.C,R121*%
X181418512Y-66433000D03*
X181418512Y-68258000D03*
%TD*%
D10*
%TO.C,D_139*%
X84613512Y-98227500D03*
X84613512Y-94927500D03*
%TD*%
D39*
%TO.C,Y1*%
X293236012Y-63336116D03*
X291036012Y-63336116D03*
X291036012Y-65036116D03*
X293236012Y-65036116D03*
%TD*%
D10*
%TO.C,D_143*%
X270351012Y-117277500D03*
X270351012Y-113977500D03*
%TD*%
%TO.C,D_141*%
X39369762Y-107752500D03*
X39369762Y-104452500D03*
%TD*%
%TO.C,D_174*%
X89376012Y-155377500D03*
X89376012Y-152077500D03*
%TD*%
D13*
%TO.C,R153*%
X90931012Y-104533000D03*
X90931012Y-106358000D03*
%TD*%
%TO.C,R136*%
X152843512Y-85483000D03*
X152843512Y-87308000D03*
%TD*%
D10*
%TO.C,D_112*%
X56038512Y-55365000D03*
X56038512Y-52065000D03*
%TD*%
%TO.C,D_151*%
X117951012Y-117277500D03*
X117951012Y-113977500D03*
%TD*%
D13*
%TO.C,R161*%
X195706012Y-123583000D03*
X195706012Y-125408000D03*
%TD*%
%TO.C,R146*%
X224281012Y-104533000D03*
X224281012Y-106358000D03*
%TD*%
D26*
%TO.C,R302*%
X214307470Y-151293208D03*
X214307470Y-152313208D03*
%TD*%
D32*
%TO.C,Q301*%
X204647665Y-153306332D03*
X204647665Y-155206332D03*
X206522665Y-154256332D03*
%TD*%
D13*
%TO.C,R151*%
X129031012Y-104533000D03*
X129031012Y-106358000D03*
%TD*%
%TO.C,R105*%
X219518512Y-42620500D03*
X219518512Y-44445500D03*
%TD*%
D17*
%TO.C,C3*%
X286128512Y-58936116D03*
X285168512Y-58936116D03*
%TD*%
D10*
%TO.C,D_106*%
X179863512Y-55365000D03*
X179863512Y-52065000D03*
%TD*%
D13*
%TO.C,R112*%
X67118512Y-42620500D03*
X67118512Y-44445500D03*
%TD*%
D10*
%TO.C,D_101*%
X303688512Y-55365000D03*
X303688512Y-52065000D03*
%TD*%
D13*
%TO.C,R158*%
X252856012Y-123583000D03*
X252856012Y-125408000D03*
%TD*%
D10*
%TO.C,D_169*%
X301307262Y-155377500D03*
X301307262Y-152077500D03*
%TD*%
%TO.C,D_153*%
X79851012Y-117277500D03*
X79851012Y-113977500D03*
%TD*%
D13*
%TO.C,R132*%
X229043512Y-85483000D03*
X229043512Y-87308000D03*
%TD*%
D10*
%TO.C,D_175*%
X70326012Y-155377500D03*
X70326012Y-152077500D03*
%TD*%
D13*
%TO.C,R160*%
X214756012Y-123583000D03*
X214756012Y-125408000D03*
%TD*%
%TO.C,R120*%
X200468512Y-66433000D03*
X200468512Y-68258000D03*
%TD*%
D31*
%TO.C,R305*%
X204652774Y-148191314D03*
X203632774Y-148191314D03*
%TD*%
D13*
%TO.C,R171*%
X264762262Y-142633000D03*
X264762262Y-144458000D03*
%TD*%
D40*
%TO.C,C201*%
X283466777Y-41512422D03*
X285366777Y-41512422D03*
%TD*%
D13*
%TO.C,R125*%
X105218512Y-66433000D03*
X105218512Y-68258000D03*
%TD*%
D10*
%TO.C,D_138*%
X103663512Y-98227500D03*
X103663512Y-94927500D03*
%TD*%
D15*
%TO.C,C8*%
X295248512Y-62786116D03*
X295248512Y-63746116D03*
%TD*%
D31*
%TO.C,R1*%
X282208540Y-55936116D03*
X281188540Y-55936116D03*
%TD*%
D13*
%TO.C,R116*%
X276668512Y-66433000D03*
X276668512Y-68258000D03*
%TD*%
D10*
%TO.C,D_164*%
X127476012Y-136327500D03*
X127476012Y-133027500D03*
%TD*%
D13*
%TO.C,R141*%
X50449762Y-95008000D03*
X50449762Y-96833000D03*
%TD*%
D14*
%TO.C,R4*%
X290448513Y-46296118D03*
X290448513Y-45276118D03*
%TD*%
D13*
%TO.C,R142*%
X307624762Y-104533000D03*
X307624762Y-106358000D03*
%TD*%
%TO.C,R114*%
X314768512Y-66433000D03*
X314768512Y-68258000D03*
%TD*%
%TO.C,R123*%
X143318512Y-66433000D03*
X143318512Y-68258000D03*
%TD*%
%TO.C,R152*%
X109981012Y-104533000D03*
X109981012Y-106358000D03*
%TD*%
D10*
%TO.C,D_157*%
X260826012Y-136327500D03*
X260826012Y-133027500D03*
%TD*%
%TO.C,D_124*%
X113188512Y-79177500D03*
X113188512Y-75877500D03*
%TD*%
D35*
%TO.C,R308*%
X299864473Y-45800255D03*
X299864473Y-43975255D03*
%TD*%
D10*
%TO.C,D_146*%
X213201012Y-117277500D03*
X213201012Y-113977500D03*
%TD*%
D13*
%TO.C,R137*%
X133793512Y-85483000D03*
X133793512Y-87308000D03*
%TD*%
D10*
%TO.C,D_165*%
X108426012Y-136327500D03*
X108426012Y-133027500D03*
%TD*%
%TO.C,D_134*%
X179863512Y-98227500D03*
X179863512Y-94927500D03*
%TD*%
%TO.C,D_125*%
X94138512Y-79177500D03*
X94138512Y-75877500D03*
%TD*%
D13*
%TO.C,R156*%
X290956012Y-123583000D03*
X290956012Y-125408000D03*
%TD*%
D10*
%TO.C,D_137*%
X122713512Y-98227500D03*
X122713512Y-94927500D03*
%TD*%
D13*
%TO.C,R117*%
X257618512Y-66433000D03*
X257618512Y-68258000D03*
%TD*%
D10*
%TO.C,D_120*%
X189388512Y-79177500D03*
X189388512Y-75877500D03*
%TD*%
D31*
%TO.C,R2*%
X282208540Y-53936116D03*
X281188540Y-53936116D03*
%TD*%
D10*
%TO.C,D_149*%
X156051012Y-117277500D03*
X156051012Y-113977500D03*
%TD*%
D13*
%TO.C,R139*%
X95693512Y-85483000D03*
X95693512Y-87308000D03*
%TD*%
%TO.C,R155*%
X312387262Y-123583000D03*
X312387262Y-125408000D03*
%TD*%
D10*
%TO.C,D_131*%
X237013512Y-98227500D03*
X237013512Y-94927500D03*
%TD*%
D13*
%TO.C,R106*%
X190943512Y-42620500D03*
X190943512Y-44445500D03*
%TD*%
%TO.C,R159*%
X233806012Y-123583000D03*
X233806012Y-125408000D03*
%TD*%
D10*
%TO.C,D_152*%
X98901012Y-117277500D03*
X98901012Y-113977500D03*
%TD*%
D13*
%TO.C,R115*%
X295718512Y-66433000D03*
X295718512Y-68258000D03*
%TD*%
%TO.C,R134*%
X190943512Y-85483000D03*
X190943512Y-87308000D03*
%TD*%
%TO.C,R162*%
X176656012Y-123583000D03*
X176656012Y-125408000D03*
%TD*%
D10*
%TO.C,D_107*%
X160813512Y-55365000D03*
X160813512Y-52065000D03*
%TD*%
%TO.C,D_129*%
X275113512Y-98227500D03*
X275113512Y-94927500D03*
%TD*%
%TO.C,D_103*%
X246543512Y-55365000D03*
X246543512Y-52065000D03*
%TD*%
%TO.C,D_135*%
X160813512Y-98227500D03*
X160813512Y-94927500D03*
%TD*%
D13*
%TO.C,R130*%
X267143512Y-85483000D03*
X267143512Y-87308000D03*
%TD*%
D10*
%TO.C,D_167*%
X70326012Y-136327500D03*
X70326012Y-133027500D03*
%TD*%
%TO.C,D_119*%
X208438512Y-79177500D03*
X208438512Y-75877500D03*
%TD*%
%TO.C,D_140*%
X65563512Y-98227500D03*
X65563512Y-94927500D03*
%TD*%
D13*
%TO.C,R113*%
X48068512Y-42620500D03*
X48068512Y-44445500D03*
%TD*%
D10*
%TO.C,D_158*%
X241776012Y-136327500D03*
X241776012Y-133027500D03*
%TD*%
%TO.C,D_127*%
X46513512Y-79177500D03*
X46513512Y-75877500D03*
%TD*%
D41*
%TO.C,D201*%
X281180547Y-37515008D03*
X281180547Y-40815008D03*
%TD*%
D10*
%TO.C,D_108*%
X141763512Y-55365000D03*
X141763512Y-52065000D03*
%TD*%
D13*
%TO.C,R167*%
X81406012Y-123583000D03*
X81406012Y-125408000D03*
%TD*%
D10*
%TO.C,D_126*%
X75088512Y-79177500D03*
X75088512Y-75877500D03*
%TD*%
%TO.C,D_102*%
X265588512Y-55365000D03*
X265588512Y-52065000D03*
%TD*%
D13*
%TO.C,R138*%
X114743512Y-85483000D03*
X114743512Y-87308000D03*
%TD*%
%TO.C,R144*%
X262381012Y-104533000D03*
X262381012Y-106358000D03*
%TD*%
%TO.C,R140*%
X76643512Y-85483000D03*
X76643512Y-87308000D03*
%TD*%
D10*
%TO.C,D_168*%
X51276012Y-136327500D03*
X51276012Y-133027500D03*
%TD*%
%TO.C,D_172*%
X182244762Y-155377500D03*
X182244762Y-152077500D03*
%TD*%
%TO.C,D_156*%
X279876012Y-136327500D03*
X279876012Y-133027500D03*
%TD*%
D42*
%TO.C,F201*%
X283504277Y-37415008D03*
X286304277Y-37415008D03*
%TD*%
D10*
%TO.C,D_145*%
X232251012Y-117277500D03*
X232251012Y-113977500D03*
%TD*%
D43*
%TO.C,C203*%
X274149433Y-39715008D03*
X275109433Y-39715008D03*
%TD*%
D13*
%TO.C,R150*%
X148081012Y-104533000D03*
X148081012Y-106358000D03*
%TD*%
%TO.C,R102*%
X276668512Y-42620500D03*
X276668512Y-44445500D03*
%TD*%
D10*
%TO.C,D_170*%
X277494762Y-155377500D03*
X277494762Y-152077500D03*
%TD*%
D13*
%TO.C,R168*%
X62356012Y-123583000D03*
X62356012Y-125408000D03*
%TD*%
D10*
%TO.C,D_128*%
X298926012Y-98227500D03*
X298926012Y-94927500D03*
%TD*%
D43*
%TO.C,C302*%
X203662774Y-144590071D03*
X204622774Y-144590071D03*
%TD*%
D15*
%TO.C,C4*%
X288448512Y-48456116D03*
X288448512Y-49416116D03*
%TD*%
%TO.C,C7*%
X296848512Y-61536116D03*
X296848512Y-62496116D03*
%TD*%
D10*
%TO.C,D_104*%
X227488512Y-55365000D03*
X227488512Y-52065000D03*
%TD*%
%TO.C,D_136*%
X141763512Y-98227500D03*
X141763512Y-94927500D03*
%TD*%
%TO.C,D_150*%
X137001012Y-117277500D03*
X137001012Y-113977500D03*
%TD*%
M02*
