M48
; DRILL file {KiCad (6.0.2)} date Sun Mar  6 23:21:17 2022
; FORMAT={-:-/ absolute / inch / decimal}
; #@! TF.CreationDate,2022-03-06T23:21:17-03:00
; #@! TF.GenerationSoftware,Kicad,Pcbnew,(6.0.2)
; #@! TF.FileFunction,NonPlated,1,2,NPTH
FMAT,2
INCH
; #@! TA.AperFunction,NonPlated,NPTH,ComponentDrill
T1C0.0256
; #@! TA.AperFunction,NonPlated,NPTH,ComponentDrill
T2C0.0670
; #@! TA.AperFunction,NonPlated,NPTH,ComponentDrill
T3C0.1200
; #@! TA.AperFunction,NonPlated,NPTH,ComponentDrill
T4C0.1570
%
G90
G05
T1
X11.3606Y-1.1936
X11.5881Y-1.1936
T2
X1.3369Y-5.8873
X1.5244Y-1.9498
X1.6181Y-4.0123
X1.7369Y-5.8873
X1.8994Y-2.8873
X1.9244Y-1.9498
X2.0181Y-4.0123
X2.0869Y-5.1373
X2.0869Y-5.8873
X2.2744Y-1.9498
X2.2994Y-2.8873
X2.4619Y-4.3873
X2.4869Y-5.1373
X2.4869Y-5.8873
X2.6494Y-3.6373
X2.6744Y-1.9498
X2.8369Y-5.1373
X2.8369Y-5.8873
X2.8619Y-4.3873
X3.0244Y-1.9498
X3.0244Y-2.8873
X3.0494Y-3.6373
X3.2119Y-4.3873
X3.2369Y-5.1373
X3.2369Y-5.8873
X3.3994Y-3.6373
X3.4244Y-1.9498
X3.4244Y-2.8873
X3.5869Y-5.1373
X3.5869Y-5.8873
X3.6119Y-4.3873
X3.7744Y-1.9498
X3.7744Y-2.8873
X3.7994Y-3.6373
X3.9619Y-4.3873
X3.9869Y-5.1373
X3.9869Y-5.8873
X4.1494Y-3.6373
X4.1744Y-1.9498
X4.1744Y-2.8873
X4.3369Y-5.1373
X4.3619Y-4.3873
X4.4306Y-5.8873
X4.5244Y-2.8873
X4.5494Y-3.6373
X4.7119Y-4.3873
X4.7369Y-5.1373
X4.8306Y-5.8873
X4.8994Y-1.9498
X4.8994Y-3.6373
X4.9244Y-2.8873
X5.0869Y-5.1373
X5.1119Y-4.3873
X5.2744Y-2.8873
X5.2994Y-1.9498
X5.2994Y-3.6373
X5.4619Y-4.3873
X5.4869Y-5.1373
X5.6494Y-1.9498
X5.6494Y-3.6373
X5.6744Y-2.8873
X5.8369Y-5.1373
X5.8619Y-4.3873
X6.0244Y-2.8873
X6.0494Y-1.9498
X6.0494Y-3.6373
X6.2119Y-4.3873
X6.2369Y-5.1373
X6.3994Y-1.9498
X6.3994Y-3.6373
X6.4244Y-2.8873
X6.5869Y-5.1373
X6.6119Y-4.3873
X6.7744Y-2.8873
X6.7994Y-1.9498
X6.7994Y-3.6373
X6.9619Y-4.3873
X6.9869Y-5.1373
X7.1494Y-1.9498
X7.1494Y-3.6373
X7.1744Y-2.8873
X7.2431Y-5.8873
X7.3369Y-5.1373
X7.3619Y-4.3873
X7.5244Y-2.8873
X7.5494Y-1.9498
X7.5494Y-3.6373
X7.6431Y-5.8873
X7.7119Y-4.3873
X7.7369Y-5.1373
X7.8994Y-3.6373
X7.9244Y-2.8873
X8.0869Y-5.1373
X8.1119Y-4.3873
X8.2744Y-1.9498
X8.2744Y-2.8873
X8.2994Y-3.6373
X8.4619Y-4.3873
X8.4869Y-5.1373
X8.6494Y-3.6373
X8.6744Y-1.9498
X8.6744Y-2.8873
X8.8369Y-5.1373
X8.8619Y-4.3873
X9.0244Y-1.9498
X9.0244Y-2.8873
X9.0494Y-3.6373
X9.2119Y-4.3873
X9.2369Y-5.1373
X9.3994Y-3.6373
X9.4244Y-1.9498
X9.4244Y-2.8873
X9.5869Y-5.1373
X9.6119Y-4.3873
X9.7744Y-2.8873
X9.7745Y-1.9498
X9.7994Y-3.6373
X9.9619Y-4.3873
X9.9869Y-5.1373
X10.0556Y-5.8873
X10.1494Y-3.6373
X10.1744Y-2.8873
X10.1745Y-1.9498
X10.3369Y-5.1373
X10.3619Y-4.3873
X10.4556Y-5.8873
X10.5244Y-1.9498
X10.5244Y-2.8873
X10.5494Y-3.6373
X10.7119Y-4.3873
X10.7369Y-5.1373
X10.8994Y-3.6373
X10.9244Y-1.9498
X10.9244Y-2.8873
X10.9931Y-5.8873
X11.0869Y-5.1373
X11.1119Y-4.3873
X11.2744Y-2.8873
X11.2994Y-3.6373
X11.3931Y-5.8873
X11.4869Y-5.1373
X11.6744Y-2.8873
X11.7431Y-4.3873
X11.8369Y-3.6373
X11.9306Y-5.1373
X11.9306Y-5.8873
X12.0244Y-1.9498
X12.0244Y-2.8873
X12.1431Y-4.3873
X12.2369Y-3.6373
X12.3306Y-5.1373
X12.3306Y-5.8873
X12.4244Y-1.9498
X12.4244Y-2.8873
T3
X1.5431Y-3.5423
X1.5431Y-4.4823
X1.6294Y-2.6123
X2.5694Y-2.6123
X5.4731Y-6.1623
X9.4131Y-6.1623
T4
X1.5369Y-5.8873
X1.6294Y-3.2123
X1.7244Y-1.9498
X1.8181Y-4.0123
X2.0994Y-2.8873
X2.1431Y-3.5423
X2.1431Y-4.4823
X2.2869Y-5.1373
X2.2869Y-5.8873
X2.4744Y-1.9498
X2.5694Y-3.2123
X2.6619Y-4.3873
X2.8494Y-3.6373
X3.0369Y-5.1373
X3.0369Y-5.8873
X3.2244Y-1.9498
X3.2244Y-2.8873
X3.4119Y-4.3873
X3.5994Y-3.6373
X3.7869Y-5.1373
X3.7869Y-5.8873
X3.9744Y-1.9498
X3.9744Y-2.8873
X4.1619Y-4.3873
X4.3494Y-3.6373
X4.5369Y-5.1373
X4.6306Y-5.8873
X4.7244Y-2.8873
X4.9119Y-4.3873
X5.0994Y-1.9498
X5.0994Y-3.6373
X5.2869Y-5.1373
X5.4731Y-5.5623
X5.4744Y-2.8873
X5.6619Y-4.3873
X5.8494Y-1.9498
X5.8494Y-3.6373
X6.0369Y-5.1373
X6.2244Y-2.8873
X6.4119Y-4.3873
X6.5994Y-1.9498
X6.5994Y-3.6373
X6.7869Y-5.1373
X6.9744Y-2.8873
X7.1619Y-4.3873
X7.3494Y-1.9498
X7.3494Y-3.6373
X7.4431Y-5.8873
X7.5369Y-5.1373
X7.7244Y-2.8873
X7.9119Y-4.3873
X8.0994Y-3.6373
X8.2869Y-5.1373
X8.4744Y-1.9498
X8.4744Y-2.8873
X8.6619Y-4.3873
X8.8494Y-3.6373
X9.0369Y-5.1373
X9.2244Y-1.9498
X9.2244Y-2.8873
X9.4119Y-4.3873
X9.4131Y-5.5623
X9.5994Y-3.6373
X9.7869Y-5.1373
X9.9744Y-2.8873
X9.9745Y-1.9498
X10.1619Y-4.3873
X10.2556Y-5.8873
X10.3494Y-3.6373
X10.5369Y-5.1373
X10.7244Y-1.9498
X10.7244Y-2.8873
X10.9119Y-4.3873
X11.0994Y-3.6373
X11.1931Y-5.8873
X11.2869Y-5.1373
X11.4744Y-2.8873
X11.9431Y-4.3873
X12.0369Y-3.6373
X12.1306Y-5.1373
X12.1306Y-5.8873
X12.2244Y-1.9498
X12.2244Y-2.8873
T0
M30
