M48
; DRILL file {KiCad (6.0.2)} date Sun Mar  6 23:21:17 2022
; FORMAT={-:-/ absolute / inch / decimal}
; #@! TF.CreationDate,2022-03-06T23:21:17-03:00
; #@! TF.GenerationSoftware,Kicad,Pcbnew,(6.0.2)
; #@! TF.FileFunction,Plated,1,2,PTH
FMAT,2
INCH
; #@! TA.AperFunction,Plated,PTH,ViaDrill
T1C0.0118
; #@! TA.AperFunction,Plated,PTH,ComponentDrill
T2C0.0118
; #@! TA.AperFunction,Plated,PTH,ViaDrill
T3C0.0157
; #@! TA.AperFunction,Plated,PTH,ViaDrill
T4C0.0197
; #@! TA.AperFunction,Plated,PTH,ComponentDrill
T5C0.0236
; #@! TA.AperFunction,Plated,PTH,ComponentDrill
T6C0.0300
; #@! TA.AperFunction,Plated,PTH,ComponentDrill
T7C0.0390
; #@! TA.AperFunction,Plated,PTH,ComponentDrill
T8C0.0400
; #@! TA.AperFunction,Plated,PTH,ComponentDrill
T9C0.0600
%
G90
G05
T1
X1.3377Y-1.917
X1.4907Y-1.736
X2.2547Y-2.525
X3.3127Y-2.578
X3.6317Y-2.571
X4.0587Y-2.576
X5.8327Y-3.128
X6.1117Y-3.13
X6.8837Y-3.123
X7.3787Y-3.013
X7.5957Y-3.129
X8.1187Y-3.013
X8.3697Y-2.832
X8.4287Y-3.017
X8.4287Y-3.126
X8.8767Y-3.016
X8.9207Y-5.576
X8.9897Y-5.576
X9.1107Y-2.834
X9.1117Y-3.123
X9.6267Y-2.868
X9.6937Y-2.934
X9.8727Y-3.139
X9.9267Y-3.018
X10.0017Y-2.576
X10.0107Y-2.424
X10.3867Y-3.023
X10.4787Y-2.935
X10.5997Y-3.125
X10.6727Y-3.009
X10.9687Y-2.583
X10.996Y-1.9837
X11.0098Y-2.2081
X11.0407Y-2.882
X11.0701Y-2.4153
X11.0817Y-2.538
X11.0877Y-2.705
X11.0887Y-2.636
X11.1141Y-1.905
X11.1217Y-3.017
X11.1436Y-2.1235
X11.1456Y-2.2002
X11.2618Y-2.2101
X11.2649Y-2.3597
X11.3087Y-2.296
X11.3161Y-2.3833
X11.3247Y-2.0309
X11.3574Y-1.9817
X11.3647Y-2.832
X11.3818Y-2.6136
X11.4127Y-3.044
X11.4129Y-1.9084
X11.4273Y-1.3146
X11.4409Y-1.8577
X11.4607Y-1.375
X11.5122Y-1.4728
X11.5214Y-1.3146
X11.5295Y-2.401
X11.5629Y-2.6215
X11.5877Y-2.74
X11.6517Y-2.342
X11.6817Y-3.055
X11.7007Y-1.9581
X11.7663Y-2.1574
X11.7854Y-2.4227
X11.7996Y-2.1573
X11.8017Y-2.827
X11.8494Y-2.1412
X11.8537Y-2.26
X11.8638Y-2.3727
X11.9074Y-1.7298
X11.9707Y-1.59
X12.0187Y-2.253
T2
X11.435Y-2.0841
X11.435Y-2.1235
X11.435Y-2.1628
X11.435Y-2.2022
X11.435Y-2.2416
X11.4744Y-2.0841
X11.4744Y-2.1235
X11.4744Y-2.1628
X11.4744Y-2.2022
X11.4744Y-2.2416
X11.5137Y-2.0841
X11.5137Y-2.1235
X11.5137Y-2.1628
X11.5137Y-2.2022
X11.5137Y-2.2416
X11.5531Y-2.0841
X11.5531Y-2.1235
X11.5531Y-2.1628
X11.5531Y-2.2022
X11.5531Y-2.2416
X11.5925Y-2.0841
X11.5925Y-2.1235
X11.5925Y-2.1628
X11.5925Y-2.2022
X11.5925Y-2.2416
T3
X2.8276Y-3.1573
X2.8442Y-2.7011
X8.2001Y-6.033
X8.9578Y-5.643
X9.552Y-2.6363
X9.6535Y-2.6354
X9.7573Y-2.6326
X9.927Y-2.4118
X10.249Y-1.61
X10.2701Y-1.7218
X11.1233Y-1.6968
X11.4645Y-1.6883
X11.4744Y-1.4766
X11.5525Y-1.6883
X11.6024Y-1.5713
X11.6759Y-1.6469
X11.897Y-1.8028
T4
X8.9141Y-5.6469
X10.6495Y-2.1097
X11.2775Y-1.9266
X11.3247Y-1.3845
X11.3641Y-1.3373
X11.5846Y-1.3373
X11.6321Y-1.339
T6
X9.4062Y-2.394
X9.4062Y-2.494
X9.5062Y-2.399
X9.5062Y-2.499
X9.6062Y-2.394
X9.6062Y-2.494
X9.7062Y-2.399
X9.7062Y-2.499
X9.8062Y-2.394
X9.8062Y-2.494
T7
X1.4869Y-5.6873
X1.6744Y-1.7498
X1.7681Y-3.8123
X2.0494Y-2.6873
X2.2369Y-4.9373
X2.2369Y-5.6873
X2.4244Y-1.7498
X2.6119Y-4.1873
X2.7994Y-3.4373
X2.9869Y-4.9373
X2.9869Y-5.6873
X3.1744Y-1.7498
X3.1744Y-2.6873
X3.3619Y-4.1873
X3.5494Y-3.4373
X3.7369Y-4.9373
X3.7369Y-5.6873
X3.9244Y-1.7498
X3.9244Y-2.6873
X4.1119Y-4.1873
X4.2994Y-3.4373
X4.4869Y-4.9373
X4.5806Y-5.6873
X4.6744Y-2.6873
X4.8619Y-4.1873
X5.0494Y-1.7498
X5.0494Y-3.4373
X5.2369Y-4.9373
X5.4244Y-2.6873
X5.6119Y-4.1873
X5.7994Y-1.7498
X5.7994Y-3.4373
X5.9869Y-4.9373
X6.1744Y-2.6873
X6.3619Y-4.1873
X6.5494Y-1.7498
X6.5494Y-3.4373
X6.7369Y-4.9373
X6.9244Y-2.6873
X7.1119Y-4.1873
X7.2994Y-1.7498
X7.2994Y-3.4373
X7.3931Y-5.6873
X7.4869Y-4.9373
X7.6744Y-2.6873
X7.8619Y-1.9498
X7.8619Y-4.1873
X8.0494Y-3.4373
X8.2369Y-4.9373
X8.4244Y-1.7498
X8.4244Y-2.6873
X8.6119Y-4.1873
X8.7994Y-3.4373
X8.9869Y-4.9373
X9.1744Y-1.7498
X9.1744Y-2.6873
X9.3619Y-4.1873
X9.5494Y-3.4373
X9.7369Y-4.9373
X9.9244Y-2.6873
X9.9245Y-1.7498
X10.1119Y-4.1873
X10.2056Y-5.6873
X10.2994Y-3.4373
X10.4869Y-4.9373
X10.6744Y-1.7498
X10.6744Y-2.6873
X10.8619Y-4.1873
X11.0494Y-3.4373
X11.1431Y-5.6873
X11.2369Y-4.9373
X11.4244Y-2.6873
X11.8931Y-4.1873
X11.9869Y-3.4373
X12.0806Y-4.9373
X12.0806Y-5.6873
X12.1743Y-1.7498
X12.1744Y-2.6873
T8
X1.5869Y-5.6873
X1.7744Y-1.7498
X1.8681Y-3.8123
X2.1494Y-2.6873
X2.3369Y-4.9373
X2.3369Y-5.6873
X2.5244Y-1.7498
X2.7119Y-4.1873
X2.8994Y-3.4373
X3.0869Y-4.9373
X3.0869Y-5.6873
X3.2744Y-1.7498
X3.2744Y-2.6873
X3.4619Y-4.1873
X3.6494Y-3.4373
X3.8369Y-4.9373
X3.8369Y-5.6873
X4.0244Y-1.7498
X4.0244Y-2.6873
X4.2119Y-4.1873
X4.3994Y-3.4373
X4.5869Y-4.9373
X4.6806Y-5.6873
X4.7744Y-2.6873
X4.9619Y-4.1873
X5.1494Y-1.7498
X5.1494Y-3.4373
X5.3369Y-4.9373
X5.5244Y-2.6873
X5.7119Y-4.1873
X5.8994Y-1.7498
X5.8994Y-3.4373
X6.0869Y-4.9373
X6.2744Y-2.6873
X6.4619Y-4.1873
X6.6494Y-1.7498
X6.6494Y-3.4373
X6.8369Y-4.9373
X7.0244Y-2.6873
X7.2119Y-4.1873
X7.3994Y-1.7498
X7.3994Y-3.4373
X7.4931Y-5.6873
X7.5869Y-4.9373
X7.7744Y-2.6873
X7.9619Y-1.9498
X7.9619Y-4.1873
X8.1494Y-3.4373
X8.3369Y-4.9373
X8.5244Y-1.7498
X8.5244Y-2.6873
X8.7119Y-4.1873
X8.8994Y-3.4373
X9.0869Y-4.9373
X9.2744Y-1.7498
X9.2744Y-2.6873
X9.4619Y-4.1873
X9.6494Y-3.4373
X9.8369Y-4.9373
X10.0244Y-2.6873
X10.0245Y-1.7498
X10.2119Y-4.1873
X10.3056Y-5.6873
X10.3994Y-3.4373
X10.5869Y-4.9373
X10.7744Y-1.7498
X10.7744Y-2.6873
X10.9619Y-4.1873
X11.1494Y-3.4373
X11.2431Y-5.6873
X11.3369Y-4.9373
X11.5244Y-2.6873
X11.9931Y-4.1873
X12.0869Y-3.4373
X12.1806Y-4.9373
X12.1806Y-5.6873
X12.2743Y-1.7498
X12.2744Y-2.6873
T9
X1.3869Y-5.9873
X1.5744Y-2.0498
X1.6369Y-6.0873
X1.6681Y-4.1123
X1.8244Y-2.1498
X1.9181Y-4.2123
X1.9494Y-2.9873
X2.1369Y-5.2373
X2.1369Y-5.9873
X2.1994Y-3.0873
X2.3244Y-2.0498
X2.3869Y-5.3373
X2.3869Y-6.0873
X2.5119Y-4.4873
X2.5744Y-2.1498
X2.6994Y-3.7373
X2.7619Y-4.5873
X2.8869Y-5.2373
X2.8869Y-5.9873
X2.9494Y-3.8373
X3.0744Y-2.0498
X3.0744Y-2.9873
X3.1369Y-5.3373
X3.1369Y-6.0873
X3.2619Y-4.4873
X3.3244Y-2.1498
X3.3244Y-3.0873
X3.4494Y-3.7373
X3.5119Y-4.5873
X3.6369Y-5.2373
X3.6369Y-5.9873
X3.6994Y-3.8373
X3.8244Y-2.0498
X3.8244Y-2.9873
X3.8869Y-5.3373
X3.8869Y-6.0873
X4.0119Y-4.4873
X4.0744Y-2.1498
X4.0744Y-3.0873
X4.1994Y-3.7373
X4.2619Y-4.5873
X4.3869Y-5.2373
X4.4494Y-3.8373
X4.4806Y-5.9873
X4.5744Y-2.9873
X4.6369Y-5.3373
X4.7306Y-6.0873
X4.7619Y-4.4873
X4.8244Y-3.0873
X4.9494Y-2.0498
X4.9494Y-3.7373
X5.0119Y-4.5873
X5.1369Y-5.2373
X5.1994Y-2.1498
X5.1994Y-3.8373
X5.3244Y-2.9873
X5.3869Y-5.3373
X5.5119Y-4.4873
X5.5744Y-3.0873
X5.6994Y-2.0498
X5.6994Y-3.7373
X5.7619Y-4.5873
X5.8869Y-5.2373
X5.9494Y-2.1498
X5.9494Y-3.8373
X6.0744Y-2.9873
X6.1369Y-5.3373
X6.2619Y-4.4873
X6.3244Y-3.0873
X6.4494Y-2.0498
X6.4494Y-3.7373
X6.5119Y-4.5873
X6.6369Y-5.2373
X6.6994Y-2.1498
X6.6994Y-3.8373
X6.8244Y-2.9873
X6.8869Y-5.3373
X7.0119Y-4.4873
X7.0744Y-3.0873
X7.1994Y-2.0498
X7.1994Y-3.7373
X7.2619Y-4.5873
X7.2931Y-5.9873
X7.3869Y-5.2373
X7.4494Y-2.1498
X7.4494Y-3.8373
X7.5431Y-6.0873
X7.5744Y-2.9873
X7.6369Y-5.3373
X7.7619Y-4.4873
X7.8244Y-3.0873
X7.9494Y-3.7373
X8.0119Y-4.5873
X8.1369Y-5.2373
X8.1994Y-3.8373
X8.3244Y-2.0498
X8.3244Y-2.9873
X8.3869Y-5.3373
X8.5119Y-4.4873
X8.5744Y-2.1498
X8.5744Y-3.0873
X8.6994Y-3.7373
X8.7619Y-4.5873
X8.8869Y-5.2373
X8.9494Y-3.8373
X9.0744Y-2.0498
X9.0744Y-2.9873
X9.1369Y-5.3373
X9.2619Y-4.4873
X9.3244Y-2.1498
X9.3244Y-3.0873
X9.4494Y-3.7373
X9.5119Y-4.5873
X9.6369Y-5.2373
X9.6994Y-3.8373
X9.8244Y-2.9873
X9.8245Y-2.0498
X9.8869Y-5.3373
X10.0119Y-4.4873
X10.0744Y-3.0873
X10.0745Y-2.1498
X10.1056Y-5.9873
X10.1994Y-3.7373
X10.2619Y-4.5873
X10.3556Y-6.0873
X10.3869Y-5.2373
X10.4494Y-3.8373
X10.5744Y-2.0498
X10.5744Y-2.9873
X10.6369Y-5.3373
X10.7619Y-4.4873
X10.8244Y-2.1498
X10.8244Y-3.0873
X10.9494Y-3.7373
X11.0119Y-4.5873
X11.0431Y-5.9873
X11.1369Y-5.2373
X11.1994Y-3.8373
X11.2931Y-6.0873
X11.3244Y-2.9873
X11.3869Y-5.3373
X11.5744Y-3.0873
X11.7931Y-4.4873
X11.8869Y-3.7373
X11.9806Y-5.2373
X11.9806Y-5.9873
X12.0431Y-4.5873
X12.0744Y-2.0498
X12.0744Y-2.9873
X12.1369Y-3.8373
X12.2306Y-5.3373
X12.2306Y-6.0873
X12.3244Y-2.1498
X12.3244Y-3.0873
T5
G00X11.3051Y-1.0617
M15
G01X11.3051Y-1.0381
M16
G05
G00X11.3051Y-1.2369
M15
G01X11.3051Y-1.1936
M16
G05
G00X11.6436Y-1.0617
M15
G01X11.6436Y-1.0381
M16
G05
G00X11.6436Y-1.2369
M15
G01X11.6436Y-1.1936
M16
G05
T0
M30
