999
dxfrw 0.6.3
  0
SECTION
  2
HEADER
  9
$ACADVER
  1
AC1021
  9
$DWGCODEPAGE
  3
ANSI_1252
  9
$INSBASE
 10
0
 20
0
 30
0
  9
$EXTMIN
 10
0.09508460000000001
 20
0.300412
 30
0
  9
$EXTMAX
 10
324.608
 20
153.363
 30
0
  9
$LIMMIN
 10
0
 20
0
  9
$LIMMAX
 10
420
 20
297
  9
$ORTHOMODE
 70
    0
  9
$REGENMODE
 70
    1
  9
$FILLMODE
 70
    0
  9
$QTEXTMODE
 70
    0
  9
$MIRRTEXT
 70
    0
  9
$LTSCALE
 40
1
  9
$ATTMODE
 70
    0
  9
$TEXTSIZE
 40
2.5
  9
$TRACEWID
 40
15.68
  9
$TEXTSTYLE
  7
STANDARD
  9
$CLAYER
  8
noname
  9
$CELTYPE
  6
BYLAYER
  9
$CECOLOR
 62
  256
  9
$CELTSCALE
 40
1
  9
$DISPSILH
 70
    0
  9
$DIMSCALE
 40
2.5
  9
$DIMASZ
 40
2.5
  9
$DIMEXO
 40
0.625
  9
$DIMDLI
 40
3.75
  9
$DIMRND
 40
0
  9
$DIMDLE
 40
0
  9
$DIMEXE
 40
1.25
  9
$DIMTP
 40
0
  9
$DIMTM
 40
0
  9
$DIMTXT
 40
2.5
  9
$DIMCEN
 40
2.5
  9
$DIMTSZ
 40
0
  9
$DIMTOL
 70
    0
  9
$DIMLIM
 70
    0
  9
$DIMTIH
 70
    0
  9
$DIMTOH
 70
    0
  9
$DIMSE1
 70
    0
  9
$DIMSE2
 70
    0
  9
$DIMTAD
 70
    1
  9
$DIMZIN
 70
    8
  9
$DIMBLK
  1

  9
$DIMASO
 70
    1
  9
$DIMSHO
 70
    1
  9
$DIMPOST
  1

  9
$DIMAPOST
  1

  9
$DIMALT
 70
    0
  9
$DIMALTD
 70
    3
  9
$DIMALTF
 40
0.03937
  9
$DIMLFAC
 40
1
  9
$DIMTOFL
 70
    1
  9
$DIMTVP
 40
0
  9
$DIMTIX
 70
    0
  9
$DIMSOXD
 70
    0
  9
$DIMSAH
 70
    0
  9
$DIMBLK1
  1

  9
$DIMBLK2
  1

  9
$DIMSTYLE
  2
Standard
  9
$DIMCLRD
 70
    0
  9
$DIMCLRE
 70
    0
  9
$DIMCLRT
 70
    0
  9
$DIMTFAC
 40
1
  9
$DIMGAP
 40
0.625
  9
$DIMJUST
 70
    0
  9
$DIMSD1
 70
    0
  9
$DIMSD2
 70
    0
  9
$DIMTOLJ
 70
    0
  9
$DIMTZIN
 70
    8
  9
$DIMALTZ
 70
    0
  9
$DIMALTTZ
 70
    0
  9
$DIMUPT
 70
    0
  9
$DIMDEC
 70
    2
  9
$DIMTDEC
 70
    2
  9
$DIMALTU
 70
    2
  9
$DIMALTTD
 70
    3
  9
$DIMTXSTY
  7
STANDARD
  9
$DIMAUNIT
 70
    0
  9
$DIMADEC
 70
    0
  9
$DIMALTRND
 40
0
  9
$DIMAZIN
 70
    0
  9
$DIMDSEP
 70
   44
  9
$DIMATFIT
 70
    3
  9
$DIMFRAC
 70
    0
  9
$DIMLDRBLK
  1
STANDARD
  9
$DIMLUNIT
 70
    2
  9
$DIMLWD
 70
   -2
  9
$DIMLWE
 70
   -2
  9
$DIMTMOVE
 70
    0
  9
$DIMFXL
 40
1
  9
$DIMFXLON
 70
    0
  9
$DIMJOGANG
 40
0.7854
  9
$DIMTFILL
 70
    0
  9
$DIMTFILLCLR
 70
    0
  9
$DIMARCSYM
 70
    0
  9
$DIMLTYPE
  6

  9
$DIMLTEX1
  6

  9
$DIMLTEX2
  6

  9
$LUNITS
 70
    2
  9
$LUPREC
 70
    4
  9
$SKETCHINC
 40
1
  9
$FILLETRAD
 40
0
  9
$AUNITS
 70
    0
  9
$AUPREC
 70
    2
  9
$MENU
  1
.
  9
$ELEVATION
 40
0
  9
$PELEVATION
 40
0
  9
$THICKNESS
 40
0
  9
$LIMCHECK
 70
    0
  9
$CHAMFERA
 40
0
  9
$CHAMFERB
 40
0
  9
$CHAMFERC
 40
0
  9
$CHAMFERD
 40
0
  9
$SKPOLY
 70
    0
  9
$USRTIMER
 70
    1
  9
$ANGBASE
 50
0
  9
$ANGDIR
 70
    0
  9
$PDMODE
 70
   34
  9
$PDSIZE
 40
0
  9
$PLINEWID
 40
0
  9
$SPLFRAME
 70
    1
  9
$SPLINETYPE
 70
    2
  9
$SPLINESEGS
 70
    8
  9
$HANDSEED
  5
20000
  9
$SURFTAB1
 70
    6
  9
$SURFTAB2
 70
    6
  9
$SURFTYPE
 70
    6
  9
$SURFU
 70
    6
  9
$SURFV
 70
    6
  9
$UCSBASE
  2

  9
$UCSNAME
  2

  9
$UCSORG
 10
0
 20
0
 30
0
  9
$UCSXDIR
 10
1
 20
0
 30
0
  9
$UCSYDIR
 10
0
 20
1
 30
0
  9
$UCSORTHOREF
  2

  9
$UCSORTHOVIEW
 70
    0
  9
$UCSORGTOP
 10
0
 20
0
 30
0
  9
$UCSORGBOTTOM
 10
0
 20
0
 30
0
  9
$UCSORGLEFT
 10
0
 20
0
 30
0
  9
$UCSORGRIGHT
 10
0
 20
0
 30
0
  9
$UCSORGFRONT
 10
0
 20
0
 30
0
  9
$UCSORGBACK
 10
0
 20
0
 30
0
  9
$PUCSBASE
  2

  9
$PUCSNAME
  2

  9
$PUCSORG
 10
0
 20
0
 30
0
  9
$PUCSXDIR
 10
1
 20
0
 30
0
  9
$PUCSYDIR
 10
0
 20
1
 30
0
  9
$PUCSORTHOREF
  2

  9
$PUCSORTHOVIEW
 70
    0
  9
$PUCSORGTOP
 10
0
 20
0
 30
0
  9
$PUCSORGBOTTOM
 10
0
 20
0
 30
0
  9
$PUCSORGLEFT
 10
0
 20
0
 30
0
  9
$PUCSORGRIGHT
 10
0
 20
0
 30
0
  9
$PUCSORGFRONT
 10
0
 20
0
 30
0
  9
$PUCSORGBACK
 10
0
 20
0
 30
0
  9
$USERI1
 70
    0
  9
$USERI2
 70
    0
  9
$USERI3
 70
    0
  9
$USERI4
 70
    0
  9
$USERI5
 70
    0
  9
$USERR1
 40
0
  9
$USERR2
 40
0
  9
$USERR3
 40
0
  9
$USERR4
 40
0
  9
$USERR5
 40
0
  9
$WORLDVIEW
 70
    1
  9
$SHADEDGE
 70
    3
  9
$SHADEDIF
 70
   70
  9
$TILEMODE
 70
    1
  9
$MAXACTVP
 70
   64
  9
$PINSBASE
 10
0
 20
0
 30
0
  9
$PLIMCHECK
 70
    0
  9
$PEXTMIN
 10
0
 20
0
 30
0
  9
$PEXTMAX
 10
0
 20
0
 30
0
  9
$GRIDMODE
 70
    1
  9
$SNAPSTYLE
 70
    0
  9
$PLIMMIN
 10
0
 20
0
  9
$PLIMMAX
 10
210
 20
297
  9
$UNITMODE
 70
    0
  9
$VISRETAIN
 70
    1
  9
$PLINEGEN
 70
    0
  9
$PSLTSCALE
 70
    1
  9
$TREEDEPTH
 70
 3020
  9
$CMLSTYLE
  2
Standard
  9
$CMLJUST
 70
    0
  9
$CMLSCALE
 40
20
  9
$PROXYGRAPHICS
 70
    1
  9
$MEASUREMENT
 70
    1
  9
$CELWEIGHT
370
   -1
  9
$ENDCAPS
280
    0
  9
$JOINSTYLE
280
    0
  9
$LWDISPLAY
290
    0
  9
$INSUNITS
 70
    4
  9
$HYPERLINKBASE
  1

  9
$STYLESHEET
  1

  9
$XEDIT
290
    1
  9
$CEPSNTYPE
380
    0
  9
$PSTYLEMODE
290
    1
  9
$EXTNAMES
290
    1
  9
$PSVPSCALE
 40
1
  9
$OLESTARTUP
290
    0
  9
$SORTENTS
280
  127
  9
$INDEXCTL
280
    0
  9
$HIDETEXT
280
    1
  9
$XCLIPFRAME
290
    0
  9
$HALOGAP
280
    0
  9
$OBSCOLOR
 70
  257
  9
$OBSLTYPE
280
    0
  9
$INTERSECTIONDISPLAY
280
    0
  9
$INTERSECTIONCOLOR
 70
  257
  9
$DIMASSOC
280
    1
  9
$PROJECTNAME
  1

  9
$CAMERADISPLAY
290
    0
  9
$LENSLENGTH
 40
50
  9
$CAMERAHEIGHT
 40
0
  9
$STEPSPERSEC
 40
2
  9
$STEPSIZE
 40
50
  9
$3DDWFPREC
 40
2
  9
$PSOLWIDTH
 40
5
  9
$PSOLHEIGHT
 40
80
  9
$LOFTANG1
 40
1.570796326794897
  9
$LOFTANG2
 40
1.570796326794897
  9
$LOFTMAG1
 40
0
  9
$LOFTMAG2
 40
0
  9
$LOFTPARAM
 70
    7
  9
$LOFTNORMALS
280
    1
  9
$LATITUDE
 40
1
  9
$LONGITUDE
 40
1
  9
$NORTHDIRECTION
 40
0
  9
$TIMEZONE
 70
-8000
  9
$LIGHTGLYPHDISPLAY
280
    1
  9
$TILEMODELIGHTSYNCH
280
    1
  9
$SOLIDHIST
280
    1
  9
$SHOWHIST
280
    1
  9
$DWFFRAME
280
    2
  9
$DGNFRAME
280
    0
  9
$REALWORLDSCALE
290
    1
  9
$INTERFERECOLOR
 62
    1
  9
$CSHADOW
280
    0
  9
$SHADOWPLANELOCATION
 40
0
  0
ENDSEC
  0
SECTION
  2
CLASSES
  0
ENDSEC
  0
SECTION
  2
TABLES
  0
TABLE
  2
VPORT
  5
8
330
0
100
AcDbSymbolTable
 70
    1
  0
VPORT
  5
31
330
2
100
AcDbSymbolTableRecord
100
AcDbViewportTableRecord
  2
*ACTIVE
 70
    0
 10
0
 20
0
 11
1
 21
1
 12
162.8744033975085
 22
79.59565693672211
 13
0
 23
0
 14
10
 24
10
 15
10
 25
10
 16
0
 26
0
 36
1
 17
0
 27
0
 37
0
 40
168.6036537682751
 41
1.944174757281553
 42
50
 43
0
 44
0
 50
0
 51
0
 71
    0
 72
  100
 73
    1
 74
    3
 75
    0
 76
    1
 77
    0
 78
    0
281
    0
 65
    1
110
0
120
0
130
0
111
1
121
0
131
0
112
0
122
1
132
0
 79
    0
146
0
348
10020
 60
    7
 61
    5
292
1
282
    1
141
0
142
0
 63
  250
421
3358443
  0
ENDTAB
  0
TABLE
  2
LTYPE
  5
5
330
0
100
AcDbSymbolTable
 70
    4
  0
LTYPE
  5
14
330
5
100
AcDbSymbolTableRecord
100
AcDbLinetypeTableRecord
  2
ByBlock
 70
    0
  3

 72
   65
 73
    0
 40
0
  0
LTYPE
  5
15
330
5
100
AcDbSymbolTableRecord
100
AcDbLinetypeTableRecord
  2
ByLayer
 70
    0
  3

 72
   65
 73
    0
 40
0
  0
LTYPE
  5
16
330
5
100
AcDbSymbolTableRecord
100
AcDbLinetypeTableRecord
  2
Continuous
 70
    0
  3
Solid line
 72
   65
 73
    0
 40
0
  0
LTYPE
  5
32
330
5
100
AcDbSymbolTableRecord
100
AcDbLinetypeTableRecord
  2
DOT
 70
    0
  3
Dot . . . . . . . . . . . . . . . . . . . . . .
 72
   65
 73
    2
 40
6.35
 49
0
 74
    0
 49
-6.35
 74
    0
  0
LTYPE
  5
33
330
5
100
AcDbSymbolTableRecord
100
AcDbLinetypeTableRecord
  2
DOTTINY
 70
    0
  3
Dot (.15x) .....................................
 72
   65
 73
    2
 40
0.9525
 49
0
 74
    0
 49
-0.9525
 74
    0
  0
LTYPE
  5
34
330
5
100
AcDbSymbolTableRecord
100
AcDbLinetypeTableRecord
  2
DOT2
 70
    0
  3
Dot (.5x) .....................................
 72
   65
 73
    2
 40
3.175
 49
0
 74
    0
 49
-3.175
 74
    0
  0
LTYPE
  5
35
330
5
100
AcDbSymbolTableRecord
100
AcDbLinetypeTableRecord
  2
DOTX2
 70
    0
  3
Dot (2x) .  .  .  .  .  .  .  .  .  .  .  .  .
 72
   65
 73
    2
 40
12.7
 49
0
 74
    0
 49
-12.7
 74
    0
  0
LTYPE
  5
36
330
5
100
AcDbSymbolTableRecord
100
AcDbLinetypeTableRecord
  2
DASHED
 70
    0
  3
Dashed _ _ _ _ _ _ _ _ _ _ _ _ _ _ _ _ _
 72
   65
 73
    2
 40
19.05
 49
12.7
 74
    0
 49
-6.35
 74
    0
  0
LTYPE
  5
37
330
5
100
AcDbSymbolTableRecord
100
AcDbLinetypeTableRecord
  2
DASHEDTINY
 70
    0
  3
Dashed (.15x) _ _ _ _ _ _ _ _ _ _ _ _ _ _ _ _ _
 72
   65
 73
    2
 40
2.8575
 49
1.905
 74
    0
 49
-0.9525
 74
    0
  0
LTYPE
  5
38
330
5
100
AcDbSymbolTableRecord
100
AcDbLinetypeTableRecord
  2
DASHED2
 70
    0
  3
Dashed (.5x) _ _ _ _ _ _ _ _ _ _ _ _ _ _ _ _ _
 72
   65
 73
    2
 40
9.524999999999999
 49
6.35
 74
    0
 49
-3.175
 74
    0
  0
LTYPE
  5
39
330
5
100
AcDbSymbolTableRecord
100
AcDbLinetypeTableRecord
  2
DASHEDX2
 70
    0
  3
Dashed (2x) ____  ____  ____  ____  ____  ___
 72
   65
 73
    2
 40
38.09999999999999
 49
25.4
 74
    0
 49
-12.7
 74
    0
  0
LTYPE
  5
3A
330
5
100
AcDbSymbolTableRecord
100
AcDbLinetypeTableRecord
  2
DASHDOT
 70
    0
  3
Dash dot __ . __ . __ . __ . __ . __ . __ . __
 72
   65
 73
    4
 40
25.4
 49
12.7
 74
    0
 49
-6.35
 74
    0
 49
0
 74
    0
 49
-6.35
 74
    0
  0
LTYPE
  5
3B
330
5
100
AcDbSymbolTableRecord
100
AcDbLinetypeTableRecord
  2
DASHDOTTINY
 70
    0
  3
Dash dot (.15x) _._._._._._._._._._._._._._._.
 72
   65
 73
    4
 40
3.81
 49
1.905
 74
    0
 49
-0.9525
 74
    0
 49
0
 74
    0
 49
-0.9525
 74
    0
  0
LTYPE
  5
3C
330
5
100
AcDbSymbolTableRecord
100
AcDbLinetypeTableRecord
  2
DASHDOT2
 70
    0
  3
Dash dot (.5x) _._._._._._._._._._._._._._._.
 72
   65
 73
    4
 40
12.7
 49
6.35
 74
    0
 49
-3.175
 74
    0
 49
0
 74
    0
 49
-3.175
 74
    0
  0
LTYPE
  5
3D
330
5
100
AcDbSymbolTableRecord
100
AcDbLinetypeTableRecord
  2
DASHDOTX2
 70
    0
  3
Dash dot (2x) ____  .  ____  .  ____  .  ___
 72
   65
 73
    4
 40
50.8
 49
25.4
 74
    0
 49
-12.7
 74
    0
 49
0
 74
    0
 49
-12.7
 74
    0
  0
LTYPE
  5
3E
330
5
100
AcDbSymbolTableRecord
100
AcDbLinetypeTableRecord
  2
DIVIDE
 70
    0
  3
Divide ____ . . ____ . . ____ . . ____ . . ____
 72
   65
 73
    6
 40
31.75
 49
12.7
 74
    0
 49
-6.35
 74
    0
 49
0
 74
    0
 49
-6.35
 74
    0
 49
0
 74
    0
 49
-6.35
 74
    0
  0
LTYPE
  5
3F
330
5
100
AcDbSymbolTableRecord
100
AcDbLinetypeTableRecord
  2
DIVIDETINY
 70
    0
  3
Divide (.15x) __..__..__..__..__..__..__..__.._
 72
   65
 73
    6
 40
4.7625
 49
1.905
 74
    0
 49
-0.9525
 74
    0
 49
0
 74
    0
 49
-0.9525
 74
    0
 49
0
 74
    0
 49
-0.9525
 74
    0
  0
LTYPE
  5
40
330
5
100
AcDbSymbolTableRecord
100
AcDbLinetypeTableRecord
  2
DIVIDE2
 70
    0
  3
Divide (.5x) __..__..__..__..__..__..__..__.._
 72
   65
 73
    6
 40
15.875
 49
6.35
 74
    0
 49
-3.175
 74
    0
 49
0
 74
    0
 49
-3.175
 74
    0
 49
0
 74
    0
 49
-3.175
 74
    0
  0
LTYPE
  5
41
330
5
100
AcDbSymbolTableRecord
100
AcDbLinetypeTableRecord
  2
DIVIDEX2
 70
    0
  3
Divide (2x) ________  .  .  ________  .  .  _
 72
   65
 73
    6
 40
63.5
 49
25.4
 74
    0
 49
-12.7
 74
    0
 49
0
 74
    0
 49
-12.7
 74
    0
 49
0
 74
    0
 49
-12.7
 74
    0
  0
LTYPE
  5
42
330
5
100
AcDbSymbolTableRecord
100
AcDbLinetypeTableRecord
  2
BORDER
 70
    0
  3
Border __ __ . __ __ . __ __ . __ __ . __ __ .
 72
   65
 73
    6
 40
44.45
 49
12.7
 74
    0
 49
-6.35
 74
    0
 49
12.7
 74
    0
 49
-6.35
 74
    0
 49
0
 74
    0
 49
-6.35
 74
    0
  0
LTYPE
  5
43
330
5
100
AcDbSymbolTableRecord
100
AcDbLinetypeTableRecord
  2
BORDERTINY
 70
    0
  3
Border (.15x) __.__.__.__.__.__.__.__.__.__.__.
 72
   65
 73
    6
 40
6.6675
 49
1.905
 74
    0
 49
-0.9525
 74
    0
 49
1.905
 74
    0
 49
-0.9525
 74
    0
 49
0
 74
    0
 49
-0.9525
 74
    0
  0
LTYPE
  5
44
330
5
100
AcDbSymbolTableRecord
100
AcDbLinetypeTableRecord
  2
BORDER2
 70
    0
  3
Border (.5x) __.__.__.__.__.__.__.__.__.__.__.
 72
   65
 73
    6
 40
22.225
 49
6.35
 74
    0
 49
-3.175
 74
    0
 49
6.35
 74
    0
 49
-3.175
 74
    0
 49
0
 74
    0
 49
-3.175
 74
    0
  0
LTYPE
  5
45
330
5
100
AcDbSymbolTableRecord
100
AcDbLinetypeTableRecord
  2
BORDERX2
 70
    0
  3
Border (2x) ____  ____  .  ____  ____  .  ___
 72
   65
 73
    6
 40
88.89999999999999
 49
25.4
 74
    0
 49
-12.7
 74
    0
 49
25.4
 74
    0
 49
-12.7
 74
    0
 49
0
 74
    0
 49
-12.7
 74
    0
  0
LTYPE
  5
46
330
5
100
AcDbSymbolTableRecord
100
AcDbLinetypeTableRecord
  2
CENTER
 70
    0
  3
Center ____ _ ____ _ ____ _ ____ _ ____ _ ____
 72
   65
 73
    4
 40
50.8
 49
31.75
 74
    0
 49
-6.35
 74
    0
 49
6.35
 74
    0
 49
-6.35
 74
    0
  0
LTYPE
  5
47
330
5
100
AcDbSymbolTableRecord
100
AcDbLinetypeTableRecord
  2
CENTERTINY
 70
    0
  3
Center (.15x) ___ _ ___ _ ___ _ ___ _ ___ _ ___
 72
   65
 73
    4
 40
7.62
 49
4.7625
 74
    0
 49
-0.9525
 74
    0
 49
0.9525
 74
    0
 49
-0.9525
 74
    0
  0
LTYPE
  5
48
330
5
100
AcDbSymbolTableRecord
100
AcDbLinetypeTableRecord
  2
CENTER2
 70
    0
  3
Center (.5x) ___ _ ___ _ ___ _ ___ _ ___ _ ___
 72
   65
 73
    4
 40
28.575
 49
19.05
 74
    0
 49
-3.175
 74
    0
 49
3.175
 74
    0
 49
-3.175
 74
    0
  0
LTYPE
  5
49
330
5
100
AcDbSymbolTableRecord
100
AcDbLinetypeTableRecord
  2
CENTERX2
 70
    0
  3
Center (2x) ________  __  ________  __  _____
 72
   65
 73
    4
 40
101.6
 49
63.5
 74
    0
 49
-12.7
 74
    0
 49
12.7
 74
    0
 49
-12.7
 74
    0
  0
ENDTAB
  0
TABLE
  2
LAYER
  5
2
330
0
100
AcDbSymbolTable
 70
    1
  0
LAYER
  5
10
330
2
100
AcDbSymbolTableRecord
100
AcDbLayerTableRecord
  2
0
 70
    0
 62
    7
  6
CONTINUOUS
370
   -3
390
F
  0
LAYER
  5
4A
330
2
100
AcDbSymbolTableRecord
100
AcDbLayerTableRecord
  2
noname
 70
    0
 62
    7
  6
CONTINUOUS
370
    0
390
F
  0
ENDTAB
  0
TABLE
  2
STYLE
  5
3
330
0
100
AcDbSymbolTable
 70
    3
  0
STYLE
  5
4B
330
2
100
AcDbSymbolTableRecord
100
AcDbTextStyleTableRecord
  2
Standard
 70
    0
 40
0
 41
1
 50
0
 71
    0
 42
1
  3
txt
  4

  0
ENDTAB
  0
TABLE
  2
VIEW
  5
6
330
0
100
AcDbSymbolTable
 70
    0
  0
ENDTAB
  0
TABLE
  2
UCS
  5
7
330
0
100
AcDbSymbolTable
 70
    0
  0
ENDTAB
  0
TABLE
  2
APPID
  5
9
330
0
100
AcDbSymbolTable
 70
    1
  0
APPID
  5
12
330
9
100
AcDbSymbolTableRecord
100
AcDbRegAppTableRecord
  2
ACAD
 70
    0
  0
APPID
  5
4C
330
9
100
AcDbSymbolTableRecord
100
AcDbRegAppTableRecord
  2
LibreCad
 70
    0
  0
ENDTAB
  0
TABLE
  2
DIMSTYLE
  5
A
330
0
100
AcDbSymbolTable
 70
    1
100
AcDbDimStyleTable
 71
    1
  0
DIMSTYLE
105
4D
330
A
100
AcDbSymbolTableRecord
100
AcDbDimStyleTableRecord
  2
Standard
 70
    0
 40
2.5
 41
2.5
 42
0.625
 43
0.38
 44
1.25
 45
0
 46
0
 47
0
 48
0
 49
1
140
2.5
141
0.09
142
0
143
25.4
144
1
145
0
146
1
147
0.625
148
0
 71
    0
 72
    0
 73
    0
 74
    1
 75
    0
 76
    0
 77
    0
 78
    8
 79
    0
170
    0
171
    2
172
    0
173
    0
174
    0
175
    0
176
    0
177
    0
178
    0
179
    0
271
    2
272
    4
273
    2
274
    2
275
    0
276
    0
277
    2
278
   44
279
    0
280
    0
281
    0
282
    0
283
    1
284
    0
285
    0
286
    0
288
    0
289
    3
340
STANDARD
341

371
   -2
372
   -2
  0
ENDTAB
  0
TABLE
  2
BLOCK_RECORD
  5
1
330
0
100
AcDbSymbolTable
 70
    2
  0
BLOCK_RECORD
  5
1F
330
1
100
AcDbSymbolTableRecord
100
AcDbBlockTableRecord
  2
*Model_Space
 70
    0
280
    1
281
    0
  0
BLOCK_RECORD
  5
1E
330
1
100
AcDbSymbolTableRecord
100
AcDbBlockTableRecord
  2
*Paper_Space
 70
    0
280
    1
281
    0
  0
BLOCK_RECORD
  5
4E
330
1
100
AcDbSymbolTableRecord
100
AcDbBlockTableRecord
  2
Front
 70
    0
280
    1
281
    0
  0
BLOCK_RECORD
  5
51
330
1
100
AcDbSymbolTableRecord
100
AcDbBlockTableRecord
  2
TopLeftB
 70
    0
280
    1
281
    0
  0
BLOCK_RECORD
  5
54
330
1
100
AcDbSymbolTableRecord
100
AcDbBlockTableRecord
  2
TopLeftA
 70
    0
280
    1
281
    0
  0
BLOCK_RECORD
  5
57
330
1
100
AcDbSymbolTableRecord
100
AcDbBlockTableRecord
  2
TopRight
 70
    0
280
    1
281
    0
  0
BLOCK_RECORD
  5
5A
330
1
100
AcDbSymbolTableRecord
100
AcDbBlockTableRecord
  2
BottomLeft
 70
    0
280
    1
281
    0
  0
BLOCK_RECORD
  5
5D
330
1
100
AcDbSymbolTableRecord
100
AcDbBlockTableRecord
  2
BottomRight
 70
    0
280
    1
281
    0
  0
BLOCK_RECORD
  5
60
330
1
100
AcDbSymbolTableRecord
100
AcDbBlockTableRecord
  2
Bottom
 70
    0
280
    1
281
    0
  0
BLOCK_RECORD
  5
63
330
1
100
AcDbSymbolTableRecord
100
AcDbBlockTableRecord
  2
Feet_A
 70
    0
280
    1
281
    0
  0
BLOCK_RECORD
  5
66
330
1
100
AcDbSymbolTableRecord
100
AcDbBlockTableRecord
  2
Feet_A-0
 70
    0
280
    1
281
    0
  0
ENDTAB
  0
ENDSEC
  0
SECTION
  2
BLOCKS
  0
BLOCK
  5
20
330
1F
100
AcDbEntity
  8
0
100
AcDbBlockBegin
  2
*Model_Space
 70
    0
 10
0
 20
0
 30
0
  3
*Model_Space
  1

  0
ENDBLK
  5
21
330
1F
100
AcDbEntity
  8
0
100
AcDbBlockEnd
  0
BLOCK
  5
1C
330
1B
100
AcDbEntity
  8
0
100
AcDbBlockBegin
  2
*Paper_Space
 70
    0
 10
0
 20
0
 30
0
  3
*Paper_Space
  1

  0
ENDBLK
  5
1D
330
1F
100
AcDbEntity
  8
0
100
AcDbBlockEnd
  0
BLOCK
  5
4F
330
4E
100
AcDbEntity
  8
0
100
AcDbBlockBegin
  2
Front
 70
    0
 10
0
 20
0
  3
Front
  1

  0
LINE
  5
69
100
AcDbEntity
  8
0
  6
ByLayer
 62
  256
370
   -1
100
AcDbLine
 10
8.150000000000034
 20
30
 11
8.150000000000034
 21
0
  0
LINE
  5
6A
100
AcDbEntity
  8
0
  6
ByLayer
 62
  256
370
   -1
100
AcDbLine
 10
191.8500000000001
 20
30
 11
191.8500000000001
 21
0
  0
LINE
  5
6B
100
AcDbEntity
  8
0
  6
ByLayer
 62
  256
370
   -1
100
AcDbLine
 10
8.150000000000034
 20
0
 11
191.8500000000001
 21
0
  0
ARC
  5
6C
100
AcDbEntity
  8
0
  6
ByLayer
 62
  256
370
   -1
100
AcDbCircle
 10
0.7071067811866669
 20
39.2928932188135
 40
0.7071067811865532
100
AcDbArc
 50
90
 51
180
  0
ARC
  5
6D
100
AcDbEntity
  8
0
  6
ByLayer
 62
  256
370
   -1
100
AcDbCircle
 10
0.7071067811866669
 20
0.7071067811865959
 40
0.7071067811865532
100
AcDbArc
 50
180
 51
270
  0
LINE
  5
6E
100
AcDbEntity
  8
0
  6
ByLayer
 62
  256
370
   -1
100
AcDbLine
 10
5.684341886080801e-014
 20
39.2928932188135
 11
5.684341886080801e-014
 21
0.7071067811865959
  0
ARC
  5
6F
100
AcDbEntity
  8
0
  6
ByLayer
 62
  256
370
   -1
100
AcDbCircle
 10
199.2928932188134
 20
0.7071067811865959
 40
0.7071067811865532
100
AcDbArc
 50
270
 51
360.0000000000012
  0
ARC
  5
70
100
AcDbEntity
  8
0
  6
ByLayer
 62
  256
370
   -1
100
AcDbCircle
 10
199.2928932188134
 20
39.29289321881339
 40
0.7071067811865532
100
AcDbArc
 50
6.684420531941575e-005
 51
89.99998770699392
  0
LINE
  5
71
100
AcDbEntity
  8
0
  6
ByLayer
 62
  256
370
   -1
100
AcDbLine
 10
199.2928933705257
 20
40
 11
0.7071067811866669
 21
40.00000000000011
  0
LINE
  5
72
100
AcDbEntity
  8
0
  6
ByLayer
 62
  256
370
   -1
100
AcDbLine
 10
200.0000000000001
 20
0.7071067811865959
 11
200.0000000000001
 21
39.29289404376061
  0
LINE
  5
73
100
AcDbEntity
  8
0
  6
ByLayer
 62
  256
370
   -1
100
AcDbLine
 10
15.32833366666671
 20
9.010000000000005
 11
21.33833300000003
 21
14.99999955555555
  0
LINE
  5
74
100
AcDbEntity
  8
0
  6
ByLayer
 62
  256
370
   -1
100
AcDbLine
 10
21.33833300000003
 20
14.99999955555555
 11
21.33833300000003
 21
11.00000044444445
  0
LINE
  5
75
100
AcDbEntity
  8
0
  6
ByLayer
 62
  256
370
   -1
100
AcDbLine
 10
21.33833300000003
 20
11.00000044444445
 11
23.33833411111118
 21
11.00000044444445
  0
LINE
  5
76
100
AcDbEntity
  8
0
  6
ByLayer
 62
  256
370
   -1
100
AcDbLine
 10
23.33833411111118
 20
8.999999333333335
 11
15.32833366666671
 21
9.010000000000005
  0
LINE
  5
77
100
AcDbEntity
  8
0
  6
ByLayer
 62
  256
370
   -1
100
AcDbLine
 10
15.32833366666671
 20
27
 11
21.32833388888895
 21
20.99999977777779
  0
LINE
  5
78
100
AcDbEntity
  8
0
  6
ByLayer
 62
  256
370
   -1
100
AcDbLine
 10
21.32833388888895
 20
27
 11
15.32833366666671
 21
27
  0
LINE
  5
79
100
AcDbEntity
  8
0
  6
ByLayer
 62
  256
370
   -1
100
AcDbLine
 10
30.00500033333338
 20
13
 11
30.00500033333338
 21
22.99999933333334
  0
LINE
  5
7A
100
AcDbEntity
  8
0
  6
ByLayer
 62
  256
370
   -1
100
AcDbLine
 10
42.00500077777787
 20
22.99999933333334
 11
42.00500077777787
 21
22.99999933333334
  0
LINE
  5
7B
100
AcDbEntity
  8
0
  6
ByLayer
 62
  256
370
   -1
100
AcDbLine
 10
42.00500077777787
 20
22.99999933333334
 11
42.00500077777787
 21
22.99999933333334
  0
LINE
  5
7C
100
AcDbEntity
  8
0
  6
ByLayer
 62
  256
370
   -1
100
AcDbLine
 10
42.00500077777787
 20
22.99999933333334
 11
43.75500077777787
 21
22.74999977777779
  0
LINE
  5
7D
100
AcDbEntity
  8
0
  6
ByLayer
 62
  256
370
   -1
100
AcDbLine
 10
43.75500077777787
 20
22.74999977777779
 11
45.00500011111117
 21
21.99999955555555
  0
LINE
  5
7E
100
AcDbEntity
  8
0
  6
ByLayer
 62
  256
370
   -1
100
AcDbLine
 10
45.00500011111117
 20
21.99999955555555
 11
45.75500033333338
 21
20.75000022222221
  0
LINE
  5
7F
100
AcDbEntity
  8
0
  6
ByLayer
 62
  256
370
   -1
100
AcDbLine
 10
45.75500033333338
 20
20.75000022222221
 11
46.00500144444456
 21
19.00000022222221
  0
LINE
  5
80
100
AcDbEntity
  8
0
  6
ByLayer
 62
  256
370
   -1
100
AcDbLine
 10
46.00500144444456
 20
19.00000022222221
 11
46.00500144444456
 21
13
  0
LINE
  5
81
100
AcDbEntity
  8
0
  6
ByLayer
 62
  256
370
   -1
100
AcDbLine
 10
40.00500122222235
 20
14.99999955555555
 11
40.00500122222235
 21
17.00000066666666
  0
LINE
  5
82
100
AcDbEntity
  8
0
  6
ByLayer
 62
  256
370
   -1
100
AcDbLine
 10
36.00500055555563
 20
17.00000066666666
 11
36.00500055555563
 21
14.99999955555555
  0
LINE
  5
83
100
AcDbEntity
  8
0
  6
ByLayer
 62
  256
370
   -1
100
AcDbLine
 10
40.00500122222235
 20
19.00000022222221
 11
40.00500122222235
 21
19.00000022222221
  0
LINE
  5
84
100
AcDbEntity
  8
0
  6
ByLayer
 62
  256
370
   -1
100
AcDbLine
 10
40.00500122222235
 20
19.00000022222221
 11
40.00500122222235
 21
19.00000022222221
  0
LINE
  5
85
100
AcDbEntity
  8
0
  6
ByLayer
 62
  256
370
   -1
100
AcDbLine
 10
40.00500122222235
 20
19.00000022222221
 11
39.88000144444459
 21
19.87500022222221
  0
LINE
  5
86
100
AcDbEntity
  8
0
  6
ByLayer
 62
  256
370
   -1
100
AcDbLine
 10
39.88000144444459
 20
19.87500022222221
 11
39.50500055555563
 21
20.50000066666666
  0
LINE
  5
87
100
AcDbEntity
  8
0
  6
ByLayer
 62
  256
370
   -1
100
AcDbLine
 10
39.50500055555563
 20
20.50000066666666
 11
38.88000011111114
 21
20.875
  0
LINE
  5
88
100
AcDbEntity
  8
0
  6
ByLayer
 62
  256
370
   -1
100
AcDbLine
 10
38.88000011111114
 20
20.875
 11
38.00500011111114
 21
20.99999977777779
  0
LINE
  5
89
100
AcDbEntity
  8
0
  6
ByLayer
 62
  256
370
   -1
100
AcDbLine
 10
36.00500055555563
 20
20.99999977777779
 11
36.00500055555563
 21
19.00000022222221
  0
LINE
  5
8A
100
AcDbEntity
  8
0
  6
ByLayer
 62
  256
370
   -1
100
AcDbLine
 10
46.00500144444456
 20
25.00000044444445
 11
28.00500077777787
 21
25.00000044444445
  0
LINE
  5
8B
100
AcDbEntity
  8
0
  6
ByLayer
 62
  256
370
   -1
100
AcDbLine
 10
54.67166722222231
 20
13
 11
54.67166722222231
 21
14.99000044444445
  0
LINE
  5
8C
100
AcDbEntity
  8
0
  6
ByLayer
 62
  256
370
   -1
100
AcDbLine
 10
54.67166722222231
 20
14.99000044444445
 11
54.67166722222231
 21
14.99000044444445
  0
LINE
  5
8D
100
AcDbEntity
  8
0
  6
ByLayer
 62
  256
370
   -1
100
AcDbLine
 10
54.67166722222231
 20
14.99000044444445
 11
54.67166722222231
 21
14.99000044444445
  0
LINE
  5
8E
100
AcDbEntity
  8
0
  6
ByLayer
 62
  256
370
   -1
100
AcDbLine
 10
54.67166722222231
 20
14.99000044444445
 11
54.79666700000007
 21
15.86562577777777
  0
LINE
  5
8F
100
AcDbEntity
  8
0
  6
ByLayer
 62
  256
370
   -1
100
AcDbLine
 10
54.79666700000007
 20
15.86562577777777
 11
55.17166788888898
 21
16.49250066666666
  0
LINE
  5
90
100
AcDbEntity
  8
0
  6
ByLayer
 62
  256
370
   -1
100
AcDbLine
 10
55.17166788888898
 20
16.49250066666666
 11
55.7966683333334
 21
16.87062511111111
  0
LINE
  5
91
100
AcDbEntity
  8
0
  6
ByLayer
 62
  256
370
   -1
100
AcDbLine
 10
55.7966683333334
 20
16.87062511111111
 11
56.6716683333334
 21
17.00000066666666
  0
LINE
  5
92
100
AcDbEntity
  8
0
  6
ByLayer
 62
  256
370
   -1
100
AcDbLine
 10
60.66166833333338
 20
16.98999999999999
 11
60.66166833333338
 21
16.98999999999999
  0
LINE
  5
93
100
AcDbEntity
  8
0
  6
ByLayer
 62
  256
370
   -1
100
AcDbLine
 10
60.66166833333338
 20
16.98999999999999
 11
60.66166833333338
 21
16.98999999999999
  0
LINE
  5
94
100
AcDbEntity
  8
0
  6
ByLayer
 62
  256
370
   -1
100
AcDbLine
 10
60.66166833333338
 20
16.98999999999999
 11
60.60354344444451
 21
17.43187577777778
  0
LINE
  5
95
100
AcDbEntity
  8
0
  6
ByLayer
 62
  256
370
   -1
100
AcDbLine
 10
60.60354344444451
 20
17.43187577777778
 11
60.41916811111119
 21
17.74749955555555
  0
LINE
  5
96
100
AcDbEntity
  8
0
  6
ByLayer
 62
  256
370
   -1
100
AcDbLine
 10
60.41916811111119
 20
17.74749955555555
 11
60.10854233333339
 21
17.93687444444444
  0
LINE
  5
97
100
AcDbEntity
  8
0
  6
ByLayer
 62
  256
370
   -1
100
AcDbLine
 10
60.10854233333339
 20
17.93687444444444
 11
59.67166766666674
 21
18.00000044444445
  0
LINE
  5
98
100
AcDbEntity
  8
0
  6
ByLayer
 62
  256
370
   -1
100
AcDbLine
 10
59.67166766666674
 20
18.00000044444445
 11
56.6716683333334
 21
18.00000044444445
  0
LINE
  5
99
100
AcDbEntity
  8
0
  6
ByLayer
 62
  256
370
   -1
100
AcDbLine
 10
56.6716683333334
 20
18.00000044444445
 11
56.6716683333334
 21
18.98999955555556
  0
LINE
  5
9A
100
AcDbEntity
  8
0
  6
ByLayer
 62
  256
370
   -1
100
AcDbLine
 10
56.6716683333334
 20
18.98999955555556
 11
61.67166722222231
 21
19.00000022222221
  0
LINE
  5
9B
100
AcDbEntity
  8
0
  6
ByLayer
 62
  256
370
   -1
100
AcDbLine
 10
61.67166722222231
 20
19.00000022222221
 11
61.67166722222231
 21
19.00000022222221
  0
LINE
  5
9C
100
AcDbEntity
  8
0
  6
ByLayer
 62
  256
370
   -1
100
AcDbLine
 10
61.67166722222231
 20
19.00000022222221
 11
61.67166722222231
 21
19.00000022222221
  0
LINE
  5
9D
100
AcDbEntity
  8
0
  6
ByLayer
 62
  256
370
   -1
100
AcDbLine
 10
61.67166722222231
 20
19.00000022222221
 11
62.97979300000009
 21
18.81249977777779
  0
LINE
  5
9E
100
AcDbEntity
  8
0
  6
ByLayer
 62
  256
370
   -1
100
AcDbLine
 10
62.97979300000009
 20
18.81249977777779
 11
63.91416700000005
 21
18.25
  0
LINE
  5
9F
100
AcDbEntity
  8
0
  6
ByLayer
 62
  256
370
   -1
100
AcDbLine
 10
63.91416700000005
 20
18.25
 11
64.47479233333343
 21
17.31249933333334
  0
LINE
  5
A0
100
AcDbEntity
  8
0
  6
ByLayer
 62
  256
370
   -1
100
AcDbLine
 10
64.47479233333343
 20
17.31249933333334
 11
64.6616674444445
 21
15.99999933333334
  0
LINE
  5
A1
100
AcDbEntity
  8
0
  6
ByLayer
 62
  256
370
   -1
100
AcDbLine
 10
64.6616674444445
 20
15.99999933333334
 11
64.67166811111116
 21
13
  0
LINE
  5
A2
100
AcDbEntity
  8
0
  6
ByLayer
 62
  256
370
   -1
100
AcDbLine
 10
58.67166788888898
 20
15.99999933333334
 11
58.67166788888898
 21
15.99999933333334
  0
LINE
  5
A3
100
AcDbEntity
  8
0
  6
ByLayer
 62
  256
370
   -1
100
AcDbLine
 10
58.67166788888898
 20
15.99999933333334
 11
58.67166788888898
 21
15.99999933333334
  0
LINE
  5
A4
100
AcDbEntity
  8
0
  6
ByLayer
 62
  256
370
   -1
100
AcDbLine
 10
58.67166788888898
 20
15.99999933333334
 11
58.23041744444453
 21
15.93374977777778
  0
LINE
  5
A5
100
AcDbEntity
  8
0
  6
ByLayer
 62
  256
370
   -1
100
AcDbLine
 10
58.23041744444453
 20
15.93374977777778
 11
57.91666811111116
 21
15.74500022222223
  0
LINE
  5
A6
100
AcDbEntity
  8
0
  6
ByLayer
 62
  256
370
   -1
100
AcDbLine
 10
57.91666811111116
 20
15.74500022222223
 11
57.73041833333338
 21
15.43375066666667
  0
LINE
  5
A7
100
AcDbEntity
  8
0
  6
ByLayer
 62
  256
370
   -1
100
AcDbLine
 10
57.73041833333338
 20
15.43375066666667
 11
57.67166811111116
 21
14.99999955555555
  0
LINE
  5
A8
100
AcDbEntity
  8
0
  6
ByLayer
 62
  256
370
   -1
100
AcDbLine
 10
60.67166744444449
 20
14.99999955555555
 11
60.66166833333338
 21
15.99000022222224
  0
LINE
  5
A9
100
AcDbEntity
  8
0
  6
ByLayer
 62
  256
370
   -1
100
AcDbLine
 10
73.33833388888897
 20
13
 11
73.33833388888897
 21
14.99999955555555
  0
LINE
  5
AA
100
AcDbEntity
  8
0
  6
ByLayer
 62
  256
370
   -1
100
AcDbLine
 10
73.33833388888897
 20
14.99999955555555
 11
73.33833388888897
 21
14.99999955555555
  0
LINE
  5
AB
100
AcDbEntity
  8
0
  6
ByLayer
 62
  256
370
   -1
100
AcDbLine
 10
73.33833388888897
 20
14.99999955555555
 11
73.33833388888897
 21
14.99999955555555
  0
LINE
  5
AC
100
AcDbEntity
  8
0
  6
ByLayer
 62
  256
370
   -1
100
AcDbLine
 10
73.33833388888897
 20
14.99999955555555
 11
73.58833500000006
 21
16.74999955555555
  0
LINE
  5
AD
100
AcDbEntity
  8
0
  6
ByLayer
 62
  256
370
   -1
100
AcDbLine
 10
73.58833500000006
 20
16.74999955555555
 11
74.33833366666673
 21
18.00000044444445
  0
LINE
  5
AE
100
AcDbEntity
  8
0
  6
ByLayer
 62
  256
370
   -1
100
AcDbLine
 10
74.33833366666673
 20
18.00000044444445
 11
75.58833455555563
 21
18.75000066666666
  0
LINE
  5
AF
100
AcDbEntity
  8
0
  6
ByLayer
 62
  256
370
   -1
100
AcDbLine
 10
75.58833455555563
 20
18.75000066666666
 11
77.33833455555563
 21
19.00000022222221
  0
LINE
  5
B0
100
AcDbEntity
  8
0
  6
ByLayer
 62
  256
370
   -1
100
AcDbLine
 10
77.33833455555563
 20
19.00000022222221
 11
83.33833477777782
 21
18.98999955555556
  0
LINE
  5
B1
100
AcDbEntity
  8
0
  6
ByLayer
 62
  256
370
   -1
100
AcDbLine
 10
83.33833477777782
 20
18.98999955555556
 11
83.33833477777782
 21
18.00000044444445
  0
LINE
  5
B2
100
AcDbEntity
  8
0
  6
ByLayer
 62
  256
370
   -1
100
AcDbLine
 10
83.33833477777782
 20
18.00000044444445
 11
79.33833411111115
 21
18.00000044444445
  0
LINE
  5
B3
100
AcDbEntity
  8
0
  6
ByLayer
 62
  256
370
   -1
100
AcDbLine
 10
79.33833411111115
 20
18.00000044444445
 11
79.33833411111115
 21
18.00000044444445
  0
LINE
  5
B4
100
AcDbEntity
  8
0
  6
ByLayer
 62
  256
370
   -1
100
AcDbLine
 10
79.33833411111115
 20
18.00000044444445
 11
79.33833411111115
 21
18.00000044444445
  0
LINE
  5
B5
100
AcDbEntity
  8
0
  6
ByLayer
 62
  256
370
   -1
100
AcDbLine
 10
79.33833411111115
 20
18.00000044444445
 11
78.46333411111115
 21
17.87500066666666
  0
LINE
  5
B6
100
AcDbEntity
  8
0
  6
ByLayer
 62
  256
370
   -1
100
AcDbLine
 10
78.46333411111115
 20
17.87500066666666
 11
77.83833366666673
 21
17.49999977777779
  0
LINE
  5
B7
100
AcDbEntity
  8
0
  6
ByLayer
 62
  256
370
   -1
100
AcDbLine
 10
77.83833366666673
 20
17.49999977777779
 11
77.46333433333339
 21
16.87499933333334
  0
LINE
  5
B8
100
AcDbEntity
  8
0
  6
ByLayer
 62
  256
370
   -1
100
AcDbLine
 10
77.46333433333339
 20
16.87499933333334
 11
77.33833455555563
 21
15.99999933333334
  0
LINE
  5
B9
100
AcDbEntity
  8
0
  6
ByLayer
 62
  256
370
   -1
100
AcDbLine
 10
77.33833455555563
 20
15.99999933333334
 11
77.33833455555563
 21
13
  0
LINE
  5
BA
100
AcDbEntity
  8
0
  6
ByLayer
 62
  256
370
   -1
100
AcDbLine
 10
77.33833455555563
 20
13
 11
73.33833388888897
 21
13
  0
LINE
  5
BB
100
AcDbEntity
  8
0
  6
ByLayer
 62
  256
370
   -1
100
AcDbLine
 10
92.00500055555563
 20
13
 11
92.00500055555563
 21
15.99999933333334
  0
LINE
  5
BC
100
AcDbEntity
  8
0
  6
ByLayer
 62
  256
370
   -1
100
AcDbLine
 10
92.00500055555563
 20
15.99999933333334
 11
92.00500055555563
 21
15.99999933333334
  0
LINE
  5
BD
100
AcDbEntity
  8
0
  6
ByLayer
 62
  256
370
   -1
100
AcDbLine
 10
92.00500055555563
 20
15.99999933333334
 11
92.00500055555563
 21
15.99999933333334
  0
LINE
  5
BE
100
AcDbEntity
  8
0
  6
ByLayer
 62
  256
370
   -1
100
AcDbLine
 10
92.00500055555563
 20
15.99999933333334
 11
92.19250100000005
 21
17.31249933333334
  0
LINE
  5
BF
100
AcDbEntity
  8
0
  6
ByLayer
 62
  256
370
   -1
100
AcDbLine
 10
92.19250100000005
 20
17.31249933333334
 11
92.75500077777781
 21
18.25
  0
LINE
  5
C0
100
AcDbEntity
  8
0
  6
ByLayer
 62
  256
370
   -1
100
AcDbLine
 10
92.75500077777781
 20
18.25
 11
93.69250144444447
 21
18.81249977777779
  0
LINE
  5
C1
100
AcDbEntity
  8
0
  6
ByLayer
 62
  256
370
   -1
100
AcDbLine
 10
93.69250144444447
 20
18.81249977777779
 11
95.00500144444447
 21
19.00000022222221
  0
LINE
  5
C2
100
AcDbEntity
  8
0
  6
ByLayer
 62
  256
370
   -1
100
AcDbLine
 10
101.9950007777778
 20
19.00000022222221
 11
101.9950007777778
 21
19.00000022222221
  0
LINE
  5
C3
100
AcDbEntity
  8
0
  6
ByLayer
 62
  256
370
   -1
100
AcDbLine
 10
101.9950007777778
 20
19.00000022222221
 11
101.9950007777778
 21
19.00000022222221
  0
LINE
  5
C4
100
AcDbEntity
  8
0
  6
ByLayer
 62
  256
370
   -1
100
AcDbLine
 10
101.9950007777778
 20
19.00000022222221
 11
102.8743765555556
 21
18.87874933333333
  0
LINE
  5
C5
100
AcDbEntity
  8
0
  6
ByLayer
 62
  256
370
   -1
100
AcDbLine
 10
102.8743765555556
 20
18.87874933333333
 11
103.5025005555556
 21
18.50500066666666
  0
LINE
  5
C6
100
AcDbEntity
  8
0
  6
ByLayer
 62
  256
370
   -1
100
AcDbLine
 10
103.5025005555556
 20
18.50500066666666
 11
103.8793758888889
 21
17.87874955555557
  0
LINE
  5
C7
100
AcDbEntity
  8
0
  6
ByLayer
 62
  256
370
   -1
100
AcDbLine
 10
103.8793758888889
 20
17.87874955555557
 11
104.005001
 21
17.00000066666666
  0
LINE
  5
C8
100
AcDbEntity
  8
0
  6
ByLayer
 62
  256
370
   -1
100
AcDbLine
 10
104.005001
 20
17.00000066666666
 11
99.00500055555563
 21
14.99999955555555
  0
LINE
  5
C9
100
AcDbEntity
  8
0
  6
ByLayer
 62
  256
370
   -1
100
AcDbLine
 10
99.00500055555563
 20
14.99999955555555
 11
104.005001
 21
14.99999955555555
  0
LINE
  5
CA
100
AcDbEntity
  8
0
  6
ByLayer
 62
  256
370
   -1
100
AcDbLine
 10
104.005001
 20
14.99999955555555
 11
104.005001
 21
13
  0
LINE
  5
CB
100
AcDbEntity
  8
0
  6
ByLayer
 62
  256
370
   -1
100
AcDbLine
 10
100.0050003333334
 20
16.98999999999999
 11
100.0050003333334
 21
16.98999999999999
  0
LINE
  5
CC
100
AcDbEntity
  8
0
  6
ByLayer
 62
  256
370
   -1
100
AcDbLine
 10
100.0050003333334
 20
16.98999999999999
 11
100.0050003333334
 21
16.98999999999999
  0
LINE
  5
CD
100
AcDbEntity
  8
0
  6
ByLayer
 62
  256
370
   -1
100
AcDbLine
 10
100.0050003333334
 20
16.98999999999999
 11
99.94250122222229
 21
17.42749999999999
  0
LINE
  5
CE
100
AcDbEntity
  8
0
  6
ByLayer
 62
  256
370
   -1
100
AcDbLine
 10
99.94250122222229
 20
17.42749999999999
 11
99.75500077777781
 21
17.74000022222224
  0
LINE
  5
CF
100
AcDbEntity
  8
0
  6
ByLayer
 62
  256
370
   -1
100
AcDbLine
 10
99.75500077777781
 20
17.74000022222224
 11
99.44250055555563
 21
17.92750066666667
  0
LINE
  5
D0
100
AcDbEntity
  8
0
  6
ByLayer
 62
  256
370
   -1
100
AcDbLine
 10
99.44250055555563
 20
17.92750066666667
 11
99.00500055555563
 21
17.98999977777778
  0
LINE
  5
D1
100
AcDbEntity
  8
0
  6
ByLayer
 62
  256
370
   -1
100
AcDbLine
 10
97.00500100000005
 20
18.00000044444445
 11
97.00500100000005
 21
18.00000044444445
  0
LINE
  5
D2
100
AcDbEntity
  8
0
  6
ByLayer
 62
  256
370
   -1
100
AcDbLine
 10
97.00500100000005
 20
18.00000044444445
 11
97.00500100000005
 21
18.00000044444445
  0
LINE
  5
D3
100
AcDbEntity
  8
0
  6
ByLayer
 62
  256
370
   -1
100
AcDbLine
 10
97.00500100000005
 20
18.00000044444445
 11
96.13000100000005
 21
17.87500066666666
  0
LINE
  5
D4
100
AcDbEntity
  8
0
  6
ByLayer
 62
  256
370
   -1
100
AcDbLine
 10
96.13000100000005
 20
17.87500066666666
 11
95.50500055555563
 21
17.49999977777779
  0
LINE
  5
D5
100
AcDbEntity
  8
0
  6
ByLayer
 62
  256
370
   -1
100
AcDbLine
 10
95.50500055555563
 20
17.49999977777779
 11
95.13000122222229
 21
16.87499933333334
  0
LINE
  5
D6
100
AcDbEntity
  8
0
  6
ByLayer
 62
  256
370
   -1
100
AcDbLine
 10
95.13000122222229
 20
16.87499933333334
 11
95.00500144444447
 21
15.99999933333334
  0
LINE
  5
D7
100
AcDbEntity
  8
0
  6
ByLayer
 62
  256
370
   -1
100
AcDbLine
 10
95.00500144444447
 20
15.99999933333334
 11
95.00500144444447
 21
14.99999955555555
  0
LINE
  5
D8
100
AcDbEntity
  8
0
  6
ByLayer
 62
  256
370
   -1
100
AcDbLine
 10
112.6716667777779
 20
13
 11
112.6716667777779
 21
22.99999933333334
  0
LINE
  5
D9
100
AcDbEntity
  8
0
  6
ByLayer
 62
  256
370
   -1
100
AcDbLine
 10
124.6716672222223
 20
22.99999933333334
 11
124.6716672222223
 21
22.99999933333334
  0
LINE
  5
DA
100
AcDbEntity
  8
0
  6
ByLayer
 62
  256
370
   -1
100
AcDbLine
 10
124.6716672222223
 20
22.99999933333334
 11
124.6716672222223
 21
22.99999933333334
  0
LINE
  5
DB
100
AcDbEntity
  8
0
  6
ByLayer
 62
  256
370
   -1
100
AcDbLine
 10
124.6716672222223
 20
22.99999933333334
 11
126.4216672222223
 21
22.74999977777779
  0
LINE
  5
DC
100
AcDbEntity
  8
0
  6
ByLayer
 62
  256
370
   -1
100
AcDbLine
 10
126.4216672222223
 20
22.74999977777779
 11
127.6716665555556
 21
21.99999955555555
  0
LINE
  5
DD
100
AcDbEntity
  8
0
  6
ByLayer
 62
  256
370
   -1
100
AcDbLine
 10
127.6716665555556
 20
21.99999955555555
 11
128.4216667777779
 21
20.75000022222221
  0
LINE
  5
DE
100
AcDbEntity
  8
0
  6
ByLayer
 62
  256
370
   -1
100
AcDbLine
 10
128.4216667777779
 20
20.75000022222221
 11
128.6716678888889
 21
19.00000022222221
  0
LINE
  5
DF
100
AcDbEntity
  8
0
  6
ByLayer
 62
  256
370
   -1
100
AcDbLine
 10
128.6716678888889
 20
19.00000022222221
 11
128.6716678888889
 21
13
  0
LINE
  5
E0
100
AcDbEntity
  8
0
  6
ByLayer
 62
  256
370
   -1
100
AcDbLine
 10
122.6716676666667
 20
14.99999955555555
 11
122.6716676666667
 21
19.00000022222221
  0
LINE
  5
E1
100
AcDbEntity
  8
0
  6
ByLayer
 62
  256
370
   -1
100
AcDbLine
 10
122.6716676666667
 20
19.00000022222221
 11
122.6716676666667
 21
19.00000022222221
  0
LINE
  5
E2
100
AcDbEntity
  8
0
  6
ByLayer
 62
  256
370
   -1
100
AcDbLine
 10
122.6716676666667
 20
19.00000022222221
 11
122.6716676666667
 21
19.00000022222221
  0
LINE
  5
E3
100
AcDbEntity
  8
0
  6
ByLayer
 62
  256
370
   -1
100
AcDbLine
 10
122.6716676666667
 20
19.00000022222221
 11
122.5466678888889
 21
19.87500022222221
  0
LINE
  5
E4
100
AcDbEntity
  8
0
  6
ByLayer
 62
  256
370
   -1
100
AcDbLine
 10
122.5466678888889
 20
19.87500022222221
 11
122.171667
 21
20.50000066666666
  0
LINE
  5
E5
100
AcDbEntity
  8
0
  6
ByLayer
 62
  256
370
   -1
100
AcDbLine
 10
122.171667
 20
20.50000066666666
 11
121.5466665555556
 21
20.875
  0
LINE
  5
E6
100
AcDbEntity
  8
0
  6
ByLayer
 62
  256
370
   -1
100
AcDbLine
 10
121.5466665555556
 20
20.875
 11
120.6716665555556
 21
20.99999977777779
  0
LINE
  5
E7
100
AcDbEntity
  8
0
  6
ByLayer
 62
  256
370
   -1
100
AcDbLine
 10
118.671667
 20
20.99999977777779
 11
118.671667
 21
14.99999955555555
  0
LINE
  5
E8
100
AcDbEntity
  8
0
  6
ByLayer
 62
  256
370
   -1
100
AcDbLine
 10
137.3383336666667
 20
13
 11
137.3383336666667
 21
15.99999933333334
  0
LINE
  5
E9
100
AcDbEntity
  8
0
  6
ByLayer
 62
  256
370
   -1
100
AcDbLine
 10
137.3383336666667
 20
15.99999933333334
 11
137.3383336666667
 21
15.99999933333334
  0
LINE
  5
EA
100
AcDbEntity
  8
0
  6
ByLayer
 62
  256
370
   -1
100
AcDbLine
 10
137.3383336666667
 20
15.99999933333334
 11
137.3383336666667
 21
15.99999933333334
  0
LINE
  5
EB
100
AcDbEntity
  8
0
  6
ByLayer
 62
  256
370
   -1
100
AcDbLine
 10
137.3383336666667
 20
15.99999933333334
 11
137.5258341111112
 21
17.31249933333334
  0
LINE
  5
EC
100
AcDbEntity
  8
0
  6
ByLayer
 62
  256
370
   -1
100
AcDbLine
 10
137.5258341111112
 20
17.31249933333334
 11
138.0883338888889
 21
18.25
  0
LINE
  5
ED
100
AcDbEntity
  8
0
  6
ByLayer
 62
  256
370
   -1
100
AcDbLine
 10
138.0883338888889
 20
18.25
 11
139.0258345555556
 21
18.81249977777779
  0
LINE
  5
EE
100
AcDbEntity
  8
0
  6
ByLayer
 62
  256
370
   -1
100
AcDbLine
 10
139.0258345555556
 20
18.81249977777779
 11
140.3383345555556
 21
19.00000022222221
  0
LINE
  5
EF
100
AcDbEntity
  8
0
  6
ByLayer
 62
  256
370
   -1
100
AcDbLine
 10
147.3283338888889
 20
19.00000022222221
 11
147.3283338888889
 21
19.00000022222221
  0
LINE
  5
F0
100
AcDbEntity
  8
0
  6
ByLayer
 62
  256
370
   -1
100
AcDbLine
 10
147.3283338888889
 20
19.00000022222221
 11
147.3283338888889
 21
19.00000022222221
  0
LINE
  5
F1
100
AcDbEntity
  8
0
  6
ByLayer
 62
  256
370
   -1
100
AcDbLine
 10
147.3283338888889
 20
19.00000022222221
 11
148.2077096666667
 21
18.87874933333333
  0
LINE
  5
F2
100
AcDbEntity
  8
0
  6
ByLayer
 62
  256
370
   -1
100
AcDbLine
 10
148.2077096666667
 20
18.87874933333333
 11
148.8358336666667
 21
18.50500066666666
  0
LINE
  5
F3
100
AcDbEntity
  8
0
  6
ByLayer
 62
  256
370
   -1
100
AcDbLine
 10
148.8358336666667
 20
18.50500066666666
 11
149.212709
 21
17.87874955555557
  0
LINE
  5
F4
100
AcDbEntity
  8
0
  6
ByLayer
 62
  256
370
   -1
100
AcDbLine
 10
149.212709
 20
17.87874955555557
 11
149.3383341111112
 21
17.00000066666666
  0
LINE
  5
F5
100
AcDbEntity
  8
0
  6
ByLayer
 62
  256
370
   -1
100
AcDbLine
 10
149.3383341111112
 20
17.00000066666666
 11
144.3383336666667
 21
14.99999955555555
  0
LINE
  5
F6
100
AcDbEntity
  8
0
  6
ByLayer
 62
  256
370
   -1
100
AcDbLine
 10
144.3383336666667
 20
14.99999955555555
 11
149.3383341111112
 21
14.99999955555555
  0
LINE
  5
F7
100
AcDbEntity
  8
0
  6
ByLayer
 62
  256
370
   -1
100
AcDbLine
 10
149.3383341111112
 20
14.99999955555555
 11
149.3383341111112
 21
13
  0
LINE
  5
F8
100
AcDbEntity
  8
0
  6
ByLayer
 62
  256
370
   -1
100
AcDbLine
 10
145.3383334444445
 20
16.98999999999999
 11
145.3383334444445
 21
16.98999999999999
  0
LINE
  5
F9
100
AcDbEntity
  8
0
  6
ByLayer
 62
  256
370
   -1
100
AcDbLine
 10
145.3383334444445
 20
16.98999999999999
 11
145.3383334444445
 21
16.98999999999999
  0
LINE
  5
FA
100
AcDbEntity
  8
0
  6
ByLayer
 62
  256
370
   -1
100
AcDbLine
 10
145.3383334444445
 20
16.98999999999999
 11
145.2758343333334
 21
17.42749999999999
  0
LINE
  5
FB
100
AcDbEntity
  8
0
  6
ByLayer
 62
  256
370
   -1
100
AcDbLine
 10
145.2758343333334
 20
17.42749999999999
 11
145.0883338888889
 21
17.74000022222224
  0
LINE
  5
FC
100
AcDbEntity
  8
0
  6
ByLayer
 62
  256
370
   -1
100
AcDbLine
 10
145.0883338888889
 20
17.74000022222224
 11
144.7758336666667
 21
17.92750066666667
  0
LINE
  5
FD
100
AcDbEntity
  8
0
  6
ByLayer
 62
  256
370
   -1
100
AcDbLine
 10
144.7758336666667
 20
17.92750066666667
 11
144.3383336666667
 21
17.98999977777778
  0
LINE
  5
FE
100
AcDbEntity
  8
0
  6
ByLayer
 62
  256
370
   -1
100
AcDbLine
 10
142.3383341111112
 20
18.00000044444445
 11
142.3383341111112
 21
18.00000044444445
  0
LINE
  5
FF
100
AcDbEntity
  8
0
  6
ByLayer
 62
  256
370
   -1
100
AcDbLine
 10
142.3383341111112
 20
18.00000044444445
 11
142.3383341111112
 21
18.00000044444445
  0
LINE
  5
100
100
AcDbEntity
  8
0
  6
ByLayer
 62
  256
370
   -1
100
AcDbLine
 10
142.3383341111112
 20
18.00000044444445
 11
141.4633341111112
 21
17.87500066666666
  0
LINE
  5
101
100
AcDbEntity
  8
0
  6
ByLayer
 62
  256
370
   -1
100
AcDbLine
 10
141.4633341111112
 20
17.87500066666666
 11
140.8383336666667
 21
17.49999977777779
  0
LINE
  5
102
100
AcDbEntity
  8
0
  6
ByLayer
 62
  256
370
   -1
100
AcDbLine
 10
140.8383336666667
 20
17.49999977777779
 11
140.4633343333334
 21
16.87499933333334
  0
LINE
  5
103
100
AcDbEntity
  8
0
  6
ByLayer
 62
  256
370
   -1
100
AcDbLine
 10
140.4633343333334
 20
16.87499933333334
 11
140.3383345555556
 21
15.99999933333334
  0
LINE
  5
104
100
AcDbEntity
  8
0
  6
ByLayer
 62
  256
370
   -1
100
AcDbLine
 10
140.3383345555556
 20
15.99999933333334
 11
140.3383345555556
 21
14.99999955555555
  0
LINE
  5
105
100
AcDbEntity
  8
0
  6
ByLayer
 62
  256
370
   -1
100
AcDbLine
 10
158.004999888889
 20
13
 11
158.004999888889
 21
19.00000022222221
  0
LINE
  5
106
100
AcDbEntity
  8
0
  6
ByLayer
 62
  256
370
   -1
100
AcDbLine
 10
158.004999888889
 20
19.00000022222221
 11
162.0050005555556
 21
19.00000022222221
  0
LINE
  5
107
100
AcDbEntity
  8
0
  6
ByLayer
 62
  256
370
   -1
100
AcDbLine
 10
162.0050005555556
 20
19.00000022222221
 11
162.0050005555556
 21
14.99999955555555
  0
LINE
  5
108
100
AcDbEntity
  8
0
  6
ByLayer
 62
  256
370
   -1
100
AcDbLine
 10
162.0050005555556
 20
14.99999955555555
 11
166.0049996666667
 21
19.00000022222221
  0
LINE
  5
109
100
AcDbEntity
  8
0
  6
ByLayer
 62
  256
370
   -1
100
AcDbLine
 10
166.0049996666667
 20
19.00000022222221
 11
170.0050003333334
 21
19.00000022222221
  0
LINE
  5
10A
100
AcDbEntity
  8
0
  6
ByLayer
 62
  256
370
   -1
100
AcDbLine
 10
170.0050003333334
 20
19.00000022222221
 11
164.0050001111111
 21
13
  0
LINE
  5
10B
100
AcDbEntity
  8
0
  6
ByLayer
 62
  256
370
   -1
100
AcDbLine
 10
164.0050001111111
 20
13
 11
158.004999888889
 21
13
  0
LINE
  5
10C
100
AcDbEntity
  8
0
  6
ByLayer
 62
  256
370
   -1
100
AcDbLine
 10
178.6716661111112
 20
14.99999955555555
 11
184.6716663333334
 21
8.999999333333335
  0
LINE
  5
10D
100
AcDbEntity
  8
0
  6
ByLayer
 62
  256
370
   -1
100
AcDbLine
 10
184.6716663333334
 20
8.999999333333335
 11
178.6716661111112
 21
8.999999333333335
  0
LINE
  5
10E
100
AcDbEntity
  8
0
  6
ByLayer
 62
  256
370
   -1
100
AcDbLine
 10
176.6716665555556
 20
27
 11
184.6716663333334
 21
27
  0
LINE
  5
10F
100
AcDbEntity
  8
0
  6
ByLayer
 62
  256
370
   -1
100
AcDbLine
 10
184.6716663333334
 20
27
 11
178.6716661111112
 21
20.99999977777779
  0
LINE
  5
110
100
AcDbEntity
  8
0
  6
ByLayer
 62
  256
370
   -1
100
AcDbLine
 10
178.6716661111112
 20
20.99999977777779
 11
178.6716661111112
 21
25.00000044444445
  0
LINE
  5
111
100
AcDbEntity
  8
0
  6
ByLayer
 62
  256
370
   -1
100
AcDbLine
 10
178.6716661111112
 20
25.00000044444445
 11
176.6716665555556
 21
25.00000044444445
  0
LINE
  5
112
100
AcDbEntity
  8
0
  6
ByLayer
 62
  256
370
   -1
100
AcDbLine
 10
21.32833388888895
 20
27
 11
176.6716665555556
 21
27
  0
LINE
  5
113
100
AcDbEntity
  8
0
  6
ByLayer
 62
  256
370
   -1
100
AcDbLine
 10
176.6716665555556
 20
25.00000044444445
 11
21.32833388888895
 21
25.00000044444445
  0
LINE
  5
114
100
AcDbEntity
  8
0
  6
ByLayer
 62
  256
370
   -1
100
AcDbLine
 10
21.32833388888895
 20
20.99999977777779
 11
21.32833388888895
 21
25.00000044444445
  0
LINE
  5
115
100
AcDbEntity
  8
0
  6
ByLayer
 62
  256
370
   -1
100
AcDbLine
 10
23.33833411111118
 20
8.999999333333335
 11
178.6716661111112
 21
8.999999333333335
  0
LINE
  5
116
100
AcDbEntity
  8
0
  6
ByLayer
 62
  256
370
   -1
100
AcDbLine
 10
23.33833411111118
 20
11.00000044444445
 11
178.6716661111112
 21
11.00000044444445
  0
LINE
  5
117
100
AcDbEntity
  8
0
  6
ByLayer
 62
  256
370
   -1
100
AcDbLine
 10
178.6716661111112
 20
11.00000044444445
 11
178.6716661111112
 21
14.99999955555555
  0
LINE
  5
118
100
AcDbEntity
  8
0
  6
ByLayer
 62
  256
370
   -1
100
AcDbLine
 10
8.150000000000034
 20
30
 11
5.200000000000034
 21
30
  0
LINE
  5
119
100
AcDbEntity
  8
0
  6
ByLayer
 62
  256
370
   -1
100
AcDbLine
 10
5.200000000000034
 20
30
 11
5.200000000000032
 21
0
  0
LINE
  5
11A
100
AcDbEntity
  8
0
  6
ByLayer
 62
  256
370
   -1
100
AcDbLine
 10
5.200000000000032
 20
0
 11
0.7071067811866668
 21
4.263256414560601e-014
  0
LINE
  5
11B
100
AcDbEntity
  8
0
  6
ByLayer
 62
  256
370
   -1
100
AcDbLine
 10
191.8500000000001
 20
30
 11
194.8000000000001
 21
30
  0
LINE
  5
11C
100
AcDbEntity
  8
0
  6
ByLayer
 62
  256
370
   -1
100
AcDbLine
 10
194.8000000000001
 20
30
 11
194.8000000000001
 21
0
  0
LINE
  5
11D
100
AcDbEntity
  8
0
  6
ByLayer
 62
  256
370
   -1
100
AcDbLine
 10
194.8000000000001
 20
0
 11
199.2928932188134
 21
4.263256414560601e-014
  0
LINE
  5
11E
100
AcDbEntity
  8
0
  6
ByLayer
 62
  256
370
   -1
100
AcDbLine
 10
36.00500055555563
 20
13
 11
36.00500055555563
 21
23
  0
LINE
  5
11F
100
AcDbEntity
  8
noname
  6
ByLayer
 62
  256
370
   -1
100
AcDbLine
 10
42.00500077777787
 20
22.99999933333334
 11
37.00500055555563
 21
23
  0
LINE
  5
120
100
AcDbEntity
  8
noname
  6
ByLayer
 62
  256
370
   -1
100
AcDbLine
 10
36.00500055555563
 20
23
 11
30.00500033333338
 21
22.99999933333334
  0
LINE
  5
121
100
AcDbEntity
  8
noname
  6
ByLayer
 62
  256
370
   -1
100
AcDbLine
 10
46.00500144444456
 20
13
 11
37
 21
13
  0
LINE
  5
122
100
AcDbEntity
  8
noname
  6
ByLayer
 62
  256
370
   -1
100
AcDbLine
 10
36.00500055555563
 20
13
 11
30.00500033333338
 21
13
  0
LINE
  5
123
100
AcDbEntity
  8
0
  6
ByLayer
 62
  256
370
   -1
100
AcDbLine
 10
37.00500055555563
 20
23
 11
37.00400044433338
 21
20.99999977777779
  0
LINE
  5
124
100
AcDbEntity
  8
0
  6
ByLayer
 62
  256
370
   -1
100
AcDbLine
 10
37.00100011088888
 20
14.99999955555555
 11
37
 21
13
  0
LINE
  5
125
100
AcDbEntity
  8
0
  6
ByLayer
 62
  256
370
   -1
100
AcDbLine
 10
37.0030003334445
 20
19.00000022222221
 11
37.00200022255562
 21
17.00000066666666
  0
LINE
  5
126
100
AcDbEntity
  8
noname
  6
ByLayer
 62
  256
370
   -1
100
AcDbLine
 10
40.00500122222235
 20
19.00000022222221
 11
37.0030003334445
 21
19.00000022222221
  0
LINE
  5
127
100
AcDbEntity
  8
noname
  6
ByLayer
 62
  256
370
   -1
100
AcDbLine
 10
40.00500122222235
 20
14.99999955555555
 11
37.00100011088888
 21
14.99999955555555
  0
LINE
  5
128
100
AcDbEntity
  8
noname
  6
ByLayer
 62
  256
370
   -1
100
AcDbLine
 10
40.00500122222235
 20
17.00000066666666
 11
37.00200022255562
 21
17.00000066666666
  0
LINE
  5
129
100
AcDbEntity
  8
noname
  6
ByLayer
 62
  256
370
   -1
100
AcDbLine
 10
38.00500011111114
 20
20.99999977777779
 11
37.00400044433338
 21
20.99999977777779
  0
LINE
  5
12A
100
AcDbEntity
  8
noname
  6
ByLayer
 62
  256
370
   -1
100
AcDbLine
 10
60.66166833333338
 20
16.98999999999999
 11
60.66166833333338
 21
13
  0
LINE
  5
12B
100
AcDbEntity
  8
noname
  6
ByLayer
 62
  256
370
   -1
100
AcDbLine
 10
54.67166722222231
 20
13
 11
59.66166833333338
 21
13
  0
LINE
  5
12C
100
AcDbEntity
  8
noname
  6
ByLayer
 62
  256
370
   -1
100
AcDbLine
 10
60.66166833333338
 20
13
 11
64.67166811111116
 21
13
  0
LINE
  5
12D
100
AcDbEntity
  8
noname
  6
ByLayer
 62
  256
370
   -1
100
AcDbLine
 10
58.67166788888898
 20
15.99999933333334
 11
59.66166833333338
 21
15.99999933333334
  0
LINE
  5
12E
100
AcDbEntity
  8
noname
  6
ByLayer
 62
  256
370
   -1
100
AcDbLine
 10
57.67166811111116
 20
14.99999955555555
 11
59.66166833333338
 21
14.99999955555555
  0
LINE
  5
12F
100
AcDbEntity
  8
noname
  6
ByLayer
 62
  256
370
   -1
100
AcDbLine
 10
59.66166833333338
 20
13
 11
59.66166833333338
 21
14.99999955555555
  0
LINE
  5
130
100
AcDbEntity
  8
noname
  6
ByLayer
 62
  256
370
   -1
100
AcDbLine
 10
59.66166833333338
 20
15.99999933333334
 11
59.66166833333338
 21
16.98999999999999
  0
LINE
  5
131
100
AcDbEntity
  8
noname
  6
ByLayer
 62
  256
370
   -1
100
AcDbLine
 10
59.66166833333338
 20
16.98999999999999
 11
56.6716683333334
 21
17.00000066666666
  0
LINE
  5
132
100
AcDbEntity
  8
noname
  6
ByLayer
 62
  256
370
   -1
100
AcDbLine
 10
96.00500144444447
 20
14.99999955555555
 11
96.00500144444447
 21
13
  0
LINE
  5
133
100
AcDbEntity
  8
noname
  6
ByLayer
 62
  256
370
   -1
100
AcDbLine
 10
95.00000000000001
 20
15
 11
95.00000000000001
 21
13
  0
LINE
  5
134
100
AcDbEntity
  8
noname
  6
ByLayer
 62
  256
370
   -1
100
AcDbLine
 10
92.00500055555563
 20
13
 11
95.00000000000001
 21
13
  0
LINE
  5
135
100
AcDbEntity
  8
noname
  6
ByLayer
 62
  256
370
   -1
100
AcDbLine
 10
96.00500144444447
 20
13
 11
104.005001
 21
13
  0
LINE
  5
136
100
AcDbEntity
  8
0
  6
ByLayer
 62
  256
370
   -1
100
AcDbLine
 10
96.00000000000001
 20
15.3960091571131
 11
100.0050003333334
 21
16.98999999999999
  0
LINE
  5
137
100
AcDbEntity
  8
noname
  6
ByLayer
 62
  256
370
   -1
100
AcDbLine
 10
96.00000000000001
 20
15
 11
96.00000000000001
 21
15.3960091571131
  0
LINE
  5
138
100
AcDbEntity
  8
noname
  6
ByLayer
 62
  256
370
   -1
100
AcDbLine
 10
99.00500055555563
 20
17.98999977777778
 11
99.00500055555563
 21
19
  0
LINE
  5
139
100
AcDbEntity
  8
noname
  6
ByLayer
 62
  256
370
   -1
100
AcDbLine
 10
98.00500055555563
 20
19
 11
98.00500055555563
 21
18
  0
LINE
  5
13A
100
AcDbEntity
  8
noname
  6
ByLayer
 62
  256
370
   -1
100
AcDbLine
 10
101.9950007777778
 20
19.00000022222221
 11
99.00500055555563
 21
19
  0
LINE
  5
13B
100
AcDbEntity
  8
noname
  6
ByLayer
 62
  256
370
   -1
100
AcDbLine
 10
98.00500055555563
 20
19
 11
95.00500144444447
 21
19.00000022222221
  0
LINE
  5
13C
100
AcDbEntity
  8
noname
  6
ByLayer
 62
  256
370
   -1
100
AcDbLine
 10
97.00500100000005
 20
18.00000044444445
 11
98.00500055555563
 21
18
  0
LINE
  5
13D
100
AcDbEntity
  8
noname
  6
ByLayer
 62
  256
370
   -1
100
AcDbLine
 10
118.671667
 20
20.99999977777779
 11
118.671667
 21
23
  0
LINE
  5
13E
100
AcDbEntity
  8
noname
  6
ByLayer
 62
  256
370
   -1
100
AcDbLine
 10
119.671667
 20
23
 11
119.671667
 21
21
  0
LINE
  5
13F
100
AcDbEntity
  8
noname
  6
ByLayer
 62
  256
370
   -1
100
AcDbLine
 10
119.671667
 20
14.99999955555555
 11
119.671667
 21
13
  0
LINE
  5
140
100
AcDbEntity
  8
noname
  6
ByLayer
 62
  256
370
   -1
100
AcDbLine
 10
118.671667
 20
14.99999955555555
 11
118.671667
 21
13
  0
LINE
  5
141
100
AcDbEntity
  8
noname
  6
ByLayer
 62
  256
370
   -1
100
AcDbLine
 10
118.671667
 20
23
 11
112.6716667777779
 21
22.99999933333334
  0
LINE
  5
142
100
AcDbEntity
  8
noname
  6
ByLayer
 62
  256
370
   -1
100
AcDbLine
 10
119.671667
 20
23
 11
124.6716672222223
 21
22.99999933333334
  0
LINE
  5
143
100
AcDbEntity
  8
noname
  6
ByLayer
 62
  256
370
   -1
100
AcDbLine
 10
120.6716665555556
 20
20.99999977777779
 11
119.671667
 21
21
  0
LINE
  5
144
100
AcDbEntity
  8
noname
  6
ByLayer
 62
  256
370
   -1
100
AcDbLine
 10
122.6716676666667
 20
14.99999955555555
 11
119.671667
 21
14.99999955555555
  0
LINE
  5
145
100
AcDbEntity
  8
noname
  6
ByLayer
 62
  256
370
   -1
100
AcDbLine
 10
128.6716678888889
 20
13
 11
119.671667
 21
13
  0
LINE
  5
146
100
AcDbEntity
  8
noname
  6
ByLayer
 62
  256
370
   -1
100
AcDbLine
 10
118.671667
 20
13
 11
112.6716667777779
 21
13
  0
LINE
  5
147
100
AcDbEntity
  8
noname
  6
ByLayer
 62
  256
370
   -1
100
AcDbLine
 10
140.3383345555556
 20
14.99999955555555
 11
140.3383345555556
 21
13
  0
LINE
  5
148
100
AcDbEntity
  8
0
  6
ByLayer
 62
  256
370
   -1
100
AcDbLine
 10
141.3383345555556
 20
15.39799973288893
 11
145.3383334444445
 21
16.98999999999999
  0
LINE
  5
149
100
AcDbEntity
  8
noname
  6
ByLayer
 62
  256
370
   -1
100
AcDbLine
 10
141.3383345555556
 20
13
 11
141.3383345555556
 21
15.39799973288893
  0
LINE
  5
14A
100
AcDbEntity
  8
noname
  6
ByLayer
 62
  256
370
   -1
100
AcDbLine
 10
141.3383345555556
 20
13
 11
149.3383341111112
 21
13
  0
LINE
  5
14B
100
AcDbEntity
  8
noname
  6
ByLayer
 62
  256
370
   -1
100
AcDbLine
 10
140.3383345555556
 20
13
 11
137.3383336666667
 21
13
  0
LINE
  5
14C
100
AcDbEntity
  8
noname
  6
ByLayer
 62
  256
370
   -1
100
AcDbLine
 10
144.3383336666667
 20
17.98999977777778
 11
144.3383336666667
 21
19
  0
LINE
  5
14D
100
AcDbEntity
  8
noname
  6
ByLayer
 62
  256
370
   -1
100
AcDbLine
 10
143.3383336666667
 20
19
 11
143.3383336666667
 21
18
  0
LINE
  5
14E
100
AcDbEntity
  8
noname
  6
ByLayer
 62
  256
370
   -1
100
AcDbLine
 10
143.3383336666667
 20
18
 11
142.3383341111112
 21
18.00000044444445
  0
LINE
  5
14F
100
AcDbEntity
  8
noname
  6
ByLayer
 62
  256
370
   -1
100
AcDbLine
 10
144.3383336666667
 20
19
 11
147.3283338888889
 21
19.00000022222221
  0
LINE
  5
150
100
AcDbEntity
  8
noname
  6
ByLayer
 62
  256
370
   -1
100
AcDbLine
 10
143.3383336666667
 20
19
 11
140.3383345555556
 21
19.00000022222221
  0
ENDBLK
  5
50
330
4E
100
AcDbEntity
  8
0
100
AcDbBlockEnd
  0
BLOCK
  5
52
330
51
100
AcDbEntity
  8
0
100
AcDbBlockBegin
  2
TopLeftB
 70
    0
 10
0
 20
0
  3
TopLeftB
  1

  0
LINE
  5
151
100
AcDbEntity
  8
0
  6
ByLayer
 62
    0
370
   -1
100
AcDbLine
 10
35.2557154
 20
61.33170000000001
 11
12.5002154
 21
61.33170000000001
  0
LINE
  5
152
100
AcDbEntity
  8
0
  6
ByLayer
 62
    0
370
   -1
100
AcDbLine
 10
0
 20
68.83069999999998
 11
0.01515840000000424
 21
69.22570000000002
  0
LINE
  5
153
100
AcDbEntity
  8
0
  6
ByLayer
 62
    0
370
   -1
100
AcDbLine
 10
0.01515840000000424
 20
69.22570000000002
 11
0.06201240000000041
 21
69.61469999999997
  0
LINE
  5
154
100
AcDbEntity
  8
0
  6
ByLayer
 62
    0
370
   -1
100
AcDbLine
 10
0.06201240000000041
 20
69.61469999999997
 11
0.1378033999999957
 21
69.99970000000002
  0
LINE
  5
155
100
AcDbEntity
  8
0
  6
ByLayer
 62
    0
370
   -1
100
AcDbLine
 10
0.1378033999999957
 20
69.99970000000002
 11
0.2439133999999967
 21
70.3777
  0
LINE
  5
156
100
AcDbEntity
  8
0
  6
ByLayer
 62
    0
370
   -1
100
AcDbLine
 10
0.2439133999999967
 20
70.3777
 11
0.3803393999999969
 21
70.74470000000002
  0
LINE
  5
157
100
AcDbEntity
  8
0
  6
ByLayer
 62
    0
370
   -1
100
AcDbLine
 10
0.3803393999999969
 20
70.74470000000002
 11
0.5443254000000053
 21
71.10169999999999
  0
LINE
  5
158
100
AcDbEntity
  8
0
  6
ByLayer
 62
    0
370
   -1
100
AcDbLine
 10
0.5443254000000053
 20
71.10169999999999
 11
0.7358724000000052
 21
71.44569999999999
  0
LINE
  5
159
100
AcDbEntity
  8
0
  6
ByLayer
 62
    0
370
   -1
100
AcDbLine
 10
0.7358724000000052
 20
71.44569999999999
 11
0.954975399999995
 21
71.77069999999998
  0
LINE
  5
15A
100
AcDbEntity
  8
0
  6
ByLayer
 62
    0
370
   -1
100
AcDbLine
 10
0.954975399999995
 20
71.77069999999998
 11
1.1975154
 21
72.07870000000003
  0
LINE
  5
15B
100
AcDbEntity
  8
0
  6
ByLayer
 62
    0
370
   -1
100
AcDbLine
 10
1.1975154
 20
72.07870000000003
 11
1.464855400000005
 21
72.36669999999998
  0
LINE
  5
15C
100
AcDbEntity
  8
0
  6
ByLayer
 62
    0
370
   -1
100
AcDbLine
 10
1.464855400000005
 20
72.36669999999998
 11
1.752865400000005
 21
72.63470000000001
  0
LINE
  5
15D
100
AcDbEntity
  8
0
  6
ByLayer
 62
    0
370
   -1
100
AcDbLine
 10
1.752865400000005
 20
72.63470000000001
 11
2.0615454
 21
72.87669999999997
  0
LINE
  5
15E
100
AcDbEntity
  8
0
  6
ByLayer
 62
    0
370
   -1
100
AcDbLine
 10
2.0615454
 20
72.87669999999997
 11
2.386765400000002
 21
73.0967
  0
LINE
  5
15F
100
AcDbEntity
  8
0
  6
ByLayer
 62
    0
370
   -1
100
AcDbLine
 10
2.386765400000002
 20
73.0967
 11
2.729895400000004
 21
73.28769999999997
  0
LINE
  5
160
100
AcDbEntity
  8
0
  6
ByLayer
 62
    0
370
   -1
100
AcDbLine
 10
2.729895400000004
 20
73.28769999999997
 11
3.086805400000003
 21
73.45170000000002
  0
LINE
  5
161
100
AcDbEntity
  8
0
  6
ByLayer
 62
    0
370
   -1
100
AcDbLine
 10
3.086805400000003
 20
73.45170000000002
 11
3.454745400000007
 21
73.58769999999998
  0
LINE
  5
162
100
AcDbEntity
  8
0
  6
ByLayer
 62
    0
370
   -1
100
AcDbLine
 10
3.454745400000007
 20
73.58769999999998
 11
3.832315399999999
 21
73.69369999999998
  0
LINE
  5
163
100
AcDbEntity
  8
0
  6
ByLayer
 62
    0
370
   -1
100
AcDbLine
 10
3.832315399999999
 20
73.69369999999998
 11
4.216815400000002
 21
73.7697
  0
LINE
  5
164
100
AcDbEntity
  8
0
  6
ByLayer
 62
    0
370
   -1
100
AcDbLine
 10
4.216815400000002
 20
73.7697
 11
4.606775400000004
 21
73.81670000000003
  0
LINE
  5
165
100
AcDbEntity
  8
0
  6
ByLayer
 62
    0
370
   -1
100
AcDbLine
 10
4.606775400000004
 20
73.81670000000003
 11
5.000895400000005
 21
73.83170000000001
  0
LINE
  5
166
100
AcDbEntity
  8
0
  6
ByLayer
 62
    0
370
   -1
100
AcDbLine
 10
5.000895400000005
 20
73.83170000000001
 11
35.2557154
 21
73.83170000000001
  0
LINE
  5
167
100
AcDbEntity
  8
0
  6
ByLayer
 62
    0
370
   -1
100
AcDbLine
 10
5.477715399999994
 20
69.9597
 11
4.780405400000006
 21
69.6037
  0
LINE
  5
168
100
AcDbEntity
  8
0
  6
ByLayer
 62
    0
370
   -1
100
AcDbLine
 10
4.780405400000006
 20
69.6037
 11
4.227815399999997
 21
69.05169999999998
  0
LINE
  5
169
100
AcDbEntity
  8
0
  6
ByLayer
 62
    0
370
   -1
100
AcDbLine
 10
4.227815399999997
 20
69.05169999999998
 11
3.872285399999996
 21
68.35469999999998
  0
LINE
  5
16A
100
AcDbEntity
  8
0
  6
ByLayer
 62
    0
370
   -1
100
AcDbLine
 10
3.872285399999996
 20
68.35469999999998
 11
3.749625399999999
 21
67.58170000000001
  0
LINE
  5
16B
100
AcDbEntity
  8
0
  6
ByLayer
 62
    0
370
   -1
100
AcDbLine
 10
3.749625399999999
 20
67.58170000000001
 11
3.872285399999996
 21
66.80970000000002
  0
LINE
  5
16C
100
AcDbEntity
  8
0
  6
ByLayer
 62
    0
370
   -1
100
AcDbLine
 10
3.872285399999996
 20
66.80970000000002
 11
4.227815399999997
 21
66.11270000000002
  0
LINE
  5
16D
100
AcDbEntity
  8
0
  6
ByLayer
 62
    0
370
   -1
100
AcDbLine
 10
4.227815399999997
 20
66.11270000000002
 11
4.780405400000006
 21
65.55970000000002
  0
LINE
  5
16E
100
AcDbEntity
  8
0
  6
ByLayer
 62
    0
370
   -1
100
AcDbLine
 10
4.780405400000006
 20
65.55970000000002
 11
5.477715399999994
 21
65.20370000000003
  0
LINE
  5
16F
100
AcDbEntity
  8
0
  6
ByLayer
 62
    0
370
   -1
100
AcDbLine
 10
5.477715399999994
 20
65.20370000000003
 11
6.250785399999998
 21
65.08170000000001
  0
LINE
  5
170
100
AcDbEntity
  8
0
  6
ByLayer
 62
    0
370
   -1
100
AcDbLine
 10
6.250785399999998
 20
65.08170000000001
 11
7.022485399999994
 21
65.20370000000003
  0
LINE
  5
171
100
AcDbEntity
  8
0
  6
ByLayer
 62
    0
370
   -1
100
AcDbLine
 10
7.022485399999994
 20
65.20370000000003
 11
7.719755399999997
 21
65.55970000000002
  0
LINE
  5
172
100
AcDbEntity
  8
0
  6
ByLayer
 62
    0
370
   -1
100
AcDbLine
 10
7.719755399999997
 20
65.55970000000002
 11
8.272385400000005
 21
66.11270000000002
  0
LINE
  5
173
100
AcDbEntity
  8
0
  6
ByLayer
 62
    0
370
   -1
100
AcDbLine
 10
8.272385400000005
 20
66.11270000000002
 11
8.627915400000006
 21
66.80970000000002
  0
LINE
  5
174
100
AcDbEntity
  8
0
  6
ByLayer
 62
    0
370
   -1
100
AcDbLine
 10
8.627915400000006
 20
66.80970000000002
 11
8.750535400000004
 21
67.58170000000001
  0
LINE
  5
175
100
AcDbEntity
  8
0
  6
ByLayer
 62
    0
370
   -1
100
AcDbLine
 10
8.750535400000004
 20
67.58170000000001
 11
8.627915400000006
 21
68.35469999999998
  0
LINE
  5
176
100
AcDbEntity
  8
0
  6
ByLayer
 62
    0
370
   -1
100
AcDbLine
 10
8.627915400000006
 20
68.35469999999998
 11
8.272385400000005
 21
69.05169999999998
  0
LINE
  5
177
100
AcDbEntity
  8
0
  6
ByLayer
 62
    0
370
   -1
100
AcDbLine
 10
8.272385400000005
 20
69.05169999999998
 11
7.719755399999997
 21
69.6037
  0
LINE
  5
178
100
AcDbEntity
  8
0
  6
ByLayer
 62
    0
370
   -1
100
AcDbLine
 10
7.719755399999997
 20
69.6037
 11
7.022485399999994
 21
69.9597
  0
LINE
  5
179
100
AcDbEntity
  8
0
  6
ByLayer
 62
    0
370
   -1
100
AcDbLine
 10
7.022485399999994
 20
69.9597
 11
6.250785399999998
 21
70.08069999999998
  0
LINE
  5
17A
100
AcDbEntity
  8
0
  6
ByLayer
 62
    0
370
   -1
100
AcDbLine
 10
6.250785399999998
 20
70.08069999999998
 11
5.477715399999994
 21
69.9597
  0
LINE
  5
17B
100
AcDbEntity
  8
0
  6
ByLayer
 62
  256
370
   -1
100
AcDbLine
 10
35.2557154
 20
61.33170000000001
 11
55.25641540000001
 21
61.33170000000001
  0
LINE
  5
17C
100
AcDbEntity
  8
0
  6
ByLayer
 62
    0
370
   -1
100
AcDbLine
 10
65.47771539999999
 20
69.9597
 11
64.78040539999999
 21
69.6037
  0
LINE
  5
17D
100
AcDbEntity
  8
0
  6
ByLayer
 62
    0
370
   -1
100
AcDbLine
 10
64.78040539999999
 20
69.6037
 11
64.2278154
 21
69.05169999999998
  0
LINE
  5
17E
100
AcDbEntity
  8
0
  6
ByLayer
 62
    0
370
   -1
100
AcDbLine
 10
64.2278154
 20
69.05169999999998
 11
63.8722854
 21
68.35469999999998
  0
LINE
  5
17F
100
AcDbEntity
  8
0
  6
ByLayer
 62
    0
370
   -1
100
AcDbLine
 10
63.8722854
 20
68.35469999999998
 11
63.7496254
 21
67.58170000000001
  0
LINE
  5
180
100
AcDbEntity
  8
0
  6
ByLayer
 62
    0
370
   -1
100
AcDbLine
 10
63.7496254
 20
67.58170000000001
 11
63.8722854
 21
66.80970000000002
  0
LINE
  5
181
100
AcDbEntity
  8
0
  6
ByLayer
 62
    0
370
   -1
100
AcDbLine
 10
63.8722854
 20
66.80970000000002
 11
64.2278154
 21
66.11270000000002
  0
LINE
  5
182
100
AcDbEntity
  8
0
  6
ByLayer
 62
    0
370
   -1
100
AcDbLine
 10
64.2278154
 20
66.11270000000002
 11
64.78040539999999
 21
65.55970000000002
  0
LINE
  5
183
100
AcDbEntity
  8
0
  6
ByLayer
 62
    0
370
   -1
100
AcDbLine
 10
64.78040539999999
 20
65.55970000000002
 11
65.47771539999999
 21
65.20370000000003
  0
LINE
  5
184
100
AcDbEntity
  8
0
  6
ByLayer
 62
    0
370
   -1
100
AcDbLine
 10
65.47771539999999
 20
65.20370000000003
 11
66.25078539999998
 21
65.08170000000001
  0
LINE
  5
185
100
AcDbEntity
  8
0
  6
ByLayer
 62
    0
370
   -1
100
AcDbLine
 10
66.25078539999998
 20
65.08170000000001
 11
67.02248539999999
 21
65.20370000000003
  0
LINE
  5
186
100
AcDbEntity
  8
0
  6
ByLayer
 62
    0
370
   -1
100
AcDbLine
 10
67.02248539999999
 20
65.20370000000003
 11
67.7197554
 21
65.55970000000002
  0
LINE
  5
187
100
AcDbEntity
  8
0
  6
ByLayer
 62
    0
370
   -1
100
AcDbLine
 10
67.7197554
 20
65.55970000000002
 11
68.27238539999999
 21
66.11270000000002
  0
LINE
  5
188
100
AcDbEntity
  8
0
  6
ByLayer
 62
    0
370
   -1
100
AcDbLine
 10
68.27238539999999
 20
66.11270000000002
 11
68.62791539999999
 21
66.80970000000002
  0
LINE
  5
189
100
AcDbEntity
  8
0
  6
ByLayer
 62
    0
370
   -1
100
AcDbLine
 10
68.62791539999999
 20
66.80970000000002
 11
68.75053539999999
 21
67.58170000000001
  0
LINE
  5
18A
100
AcDbEntity
  8
0
  6
ByLayer
 62
    0
370
   -1
100
AcDbLine
 10
68.75053539999999
 20
67.58170000000001
 11
68.62791539999999
 21
68.35469999999998
  0
LINE
  5
18B
100
AcDbEntity
  8
0
  6
ByLayer
 62
    0
370
   -1
100
AcDbLine
 10
68.62791539999999
 20
68.35469999999998
 11
68.27238539999999
 21
69.05169999999998
  0
LINE
  5
18C
100
AcDbEntity
  8
0
  6
ByLayer
 62
    0
370
   -1
100
AcDbLine
 10
68.27238539999999
 20
69.05169999999998
 11
67.7197554
 21
69.6037
  0
LINE
  5
18D
100
AcDbEntity
  8
0
  6
ByLayer
 62
    0
370
   -1
100
AcDbLine
 10
67.7197554
 20
69.6037
 11
67.02248539999999
 21
69.9597
  0
LINE
  5
18E
100
AcDbEntity
  8
0
  6
ByLayer
 62
    0
370
   -1
100
AcDbLine
 10
67.02248539999999
 20
69.9597
 11
66.25078539999998
 21
70.08069999999998
  0
LINE
  5
18F
100
AcDbEntity
  8
0
  6
ByLayer
 62
    0
370
   -1
100
AcDbLine
 10
66.25078539999998
 20
70.08069999999998
 11
65.47771539999999
 21
69.9597
  0
LINE
  5
190
100
AcDbEntity
  8
0
  6
ByLayer
 62
  256
370
   -1
100
AcDbLine
 10
35.2557154
 20
73.83170000000001
 11
40.2557154
 21
73.83170000000001
  0
LINE
  5
191
100
AcDbEntity
  8
0
  6
ByLayer
 62
  256
370
   -1
100
AcDbLine
 10
52.25641540000001
 20
73.83170000000001
 11
55.25641540000001
 21
73.83170000000001
  0
LINE
  5
192
100
AcDbEntity
  8
0
  6
ByLayer
 62
  256
370
   -1
100
AcDbLine
 10
40.2557154
 20
63.33170000000001
 11
52.25641540000001
 21
63.33170000000001
  0
LINE
  5
193
100
AcDbEntity
  8
noname
  6
ByLayer
 62
  256
370
   -1
100
AcDbLine
 10
108.1075154
 20
73.83170000000001
 11
111.1075154
 21
73.83170000000001
  0
LINE
  5
194
100
AcDbEntity
  8
noname
  6
ByLayer
 62
  256
370
   -1
100
AcDbLine
 10
111.1075154
 20
73.83170000000001
 11
111.1075154
 21
70.83170000000001
  0
LINE
  5
195
100
AcDbEntity
  8
noname
  6
ByLayer
 62
  256
370
   -1
100
AcDbLine
 10
111.1075154
 20
70.83170000000001
 11
105.1075154
 21
70.83170000000001
  0
LINE
  5
196
100
AcDbEntity
  8
noname
  6
ByLayer
 62
  256
370
   -1
100
AcDbLine
 10
105.1075154
 20
70.83170000000001
 11
105.1075154
 21
67.83170000000001
  0
LINE
  5
197
100
AcDbEntity
  8
noname
  6
ByLayer
 62
  256
370
   -1
100
AcDbLine
 10
105.1075154
 20
67.83170000000001
 11
111.1075154
 21
67.83170000000001
  0
LINE
  5
198
100
AcDbEntity
  8
noname
  6
ByLayer
 62
  256
370
   -1
100
AcDbLine
 10
111.1075154
 20
67.83170000000001
 11
111.1075154
 21
64.83170000000001
  0
LINE
  5
199
100
AcDbEntity
  8
noname
  6
ByLayer
 62
  256
370
   -1
100
AcDbLine
 10
111.1075154
 20
64.83170000000001
 11
105.1075154
 21
64.83170000000001
  0
LINE
  5
19A
100
AcDbEntity
  8
noname
  6
ByLayer
 62
  256
370
   -1
100
AcDbLine
 10
105.1075154
 20
64.83170000000001
 11
105.1075154
 21
61.33170000000001
  0
LINE
  5
19B
100
AcDbEntity
  8
0
  6
ByLayer
 62
  256
370
   -1
100
AcDbLine
 10
0
 20
0
 11
3
 21
0
  0
LINE
  5
19C
100
AcDbEntity
  8
0
  6
ByLayer
 62
  256
370
   -1
100
AcDbLine
 10
3
 20
0
 11
3
 21
-6
  0
LINE
  5
19D
100
AcDbEntity
  8
0
  6
ByLayer
 62
  256
370
   -1
100
AcDbLine
 10
3
 20
-6
 11
6
 21
-6
  0
LINE
  5
19E
100
AcDbEntity
  8
0
  6
ByLayer
 62
  256
370
   -1
100
AcDbLine
 10
6
 20
-6
 11
6
 21
0
  0
LINE
  5
19F
100
AcDbEntity
  8
0
  6
ByLayer
 62
  256
370
   -1
100
AcDbLine
 10
6
 20
0
 11
9
 21
0
  0
LINE
  5
1A0
100
AcDbEntity
  8
0
  6
ByLayer
 62
  256
370
   -1
100
AcDbLine
 10
9
 20
0
 11
9
 21
-6
  0
LINE
  5
1A1
100
AcDbEntity
  8
0
  6
ByLayer
 62
  256
370
   -1
100
AcDbLine
 10
9
 20
-6
 11
12.5
 21
-6
  0
LINE
  5
1A2
100
AcDbEntity
  8
0
  6
ByLayer
 62
    0
370
   -1
100
AcDbLine
 10
55.25641540000001
 20
73.83170000000001
 11
111.1075154
 21
73.83170000000001
  0
LINE
  5
1A3
100
AcDbEntity
  8
0
  6
ByLayer
 62
    0
370
   -1
100
AcDbLine
 10
105.1075154
 20
61.33170000000001
 11
55.25641540000001
 21
61.33170000000001
  0
LINE
  5
1A4
100
AcDbEntity
  8
0
  6
ByLayer
 62
  256
370
   -1
100
AcDbLine
 10
12.5
 20
-6
 11
12.5002154
 21
61.33170000000001
  0
LINE
  5
1A5
100
AcDbEntity
  8
noname
  6
ByLayer
 62
  256
370
   -1
100
AcDbLine
 10
0
 20
0
 11
0
 21
68.83069999999998
  0
LINE
  5
1A6
100
AcDbEntity
  8
0
  6
ByLayer
 62
  256
370
   -1
100
AcDbLine
 10
40.2557154
 20
73.83170000000001
 11
52.25641540000001
 21
73.83170000000001
  0
LINE
  5
1A7
100
AcDbEntity
  8
0
  6
ByLayer
 62
  256
370
   -1
100
AcDbLine
 10
51.25641540000001
 20
70.83170000000001
 11
52.25641540000001
 21
70.83170000000001
  0
LINE
  5
1A8
100
AcDbEntity
  8
0
  6
ByLayer
 62
  256
370
   -1
100
AcDbLine
 10
52.25641540000001
 20
70.83170000000001
 11
52.25641540000001
 21
63.33170000000001
  0
LINE
  5
1A9
100
AcDbEntity
  8
0
  6
ByLayer
 62
  256
370
   -1
100
AcDbLine
 10
51.25641540000001
 20
70.83170000000001
 11
51.25641540000001
 21
63.33170000000001
  0
LINE
  5
1AA
100
AcDbEntity
  8
0
  6
ByLayer
 62
  256
370
   -1
100
AcDbLine
 10
41.2557154
 20
70.83170000000001
 11
40.2557154
 21
70.83170000000001
  0
LINE
  5
1AB
100
AcDbEntity
  8
0
  6
ByLayer
 62
  256
370
   -1
100
AcDbLine
 10
41.2557154
 20
70.83170000000001
 11
41.2557154
 21
63.33170000000001
  0
LINE
  5
1AC
100
AcDbEntity
  8
0
  6
ByLayer
 62
  256
370
   -1
100
AcDbLine
 10
40.2557154
 20
70.83170000000001
 11
40.2557154
 21
63.33170000000001
  0
ENDBLK
  5
53
330
51
100
AcDbEntity
  8
0
100
AcDbBlockEnd
  0
BLOCK
  5
55
330
54
100
AcDbEntity
  8
0
100
AcDbBlockBegin
  2
TopLeftA
 70
    0
 10
0
 20
0
  3
TopLeftA
  1

  0
LINE
  5
1AD
100
AcDbEntity
  8
noname
  6
ByLayer
 62
    0
370
   -1
100
AcDbLine
 10
0
 20
68.83069999999998
 11
0.01515839999999002
 21
69.22570000000002
  0
LINE
  5
1AE
100
AcDbEntity
  8
noname
  6
ByLayer
 62
    0
370
   -1
100
AcDbLine
 10
0.01515839999999002
 20
69.22570000000002
 11
0.0620123999999862
 21
69.61469999999997
  0
LINE
  5
1AF
100
AcDbEntity
  8
noname
  6
ByLayer
 62
    0
370
   -1
100
AcDbLine
 10
0.0620123999999862
 20
69.61469999999997
 11
0.1378033999999957
 21
69.99970000000002
  0
LINE
  5
1B0
100
AcDbEntity
  8
noname
  6
ByLayer
 62
    0
370
   -1
100
AcDbLine
 10
0.1378033999999957
 20
69.99970000000002
 11
0.2439133999999967
 21
70.3777
  0
LINE
  5
1B1
100
AcDbEntity
  8
noname
  6
ByLayer
 62
    0
370
   -1
100
AcDbLine
 10
0.2439133999999967
 20
70.3777
 11
0.3803393999999969
 21
70.74470000000002
  0
LINE
  5
1B2
100
AcDbEntity
  8
noname
  6
ByLayer
 62
    0
370
   -1
100
AcDbLine
 10
0.3803393999999969
 20
70.74470000000002
 11
0.5443253999999911
 21
71.10169999999999
  0
LINE
  5
1B3
100
AcDbEntity
  8
noname
  6
ByLayer
 62
    0
370
   -1
100
AcDbLine
 10
0.5443253999999911
 20
71.10169999999999
 11
0.735872399999991
 21
71.44569999999999
  0
LINE
  5
1B4
100
AcDbEntity
  8
noname
  6
ByLayer
 62
    0
370
   -1
100
AcDbLine
 10
0.735872399999991
 20
71.44569999999999
 11
0.954975399999995
 21
71.77069999999998
  0
LINE
  5
1B5
100
AcDbEntity
  8
noname
  6
ByLayer
 62
    0
370
   -1
100
AcDbLine
 10
0.954975399999995
 20
71.77069999999998
 11
1.197515399999986
 21
72.07870000000003
  0
LINE
  5
1B6
100
AcDbEntity
  8
noname
  6
ByLayer
 62
    0
370
   -1
100
AcDbLine
 10
1.197515399999986
 20
72.07870000000003
 11
1.46485539999999
 21
72.36669999999998
  0
LINE
  5
1B7
100
AcDbEntity
  8
noname
  6
ByLayer
 62
    0
370
   -1
100
AcDbLine
 10
1.46485539999999
 20
72.36669999999998
 11
1.75286539999999
 21
72.63470000000001
  0
LINE
  5
1B8
100
AcDbEntity
  8
noname
  6
ByLayer
 62
    0
370
   -1
100
AcDbLine
 10
1.75286539999999
 20
72.63470000000001
 11
2.0615454
 21
72.87669999999997
  0
LINE
  5
1B9
100
AcDbEntity
  8
noname
  6
ByLayer
 62
    0
370
   -1
100
AcDbLine
 10
2.0615454
 20
72.87669999999997
 11
2.386765399999987
 21
73.0967
  0
LINE
  5
1BA
100
AcDbEntity
  8
noname
  6
ByLayer
 62
    0
370
   -1
100
AcDbLine
 10
2.386765399999987
 20
73.0967
 11
2.72989539999999
 21
73.28769999999997
  0
LINE
  5
1BB
100
AcDbEntity
  8
noname
  6
ByLayer
 62
    0
370
   -1
100
AcDbLine
 10
2.72989539999999
 20
73.28769999999997
 11
3.086805399999989
 21
73.45170000000002
  0
LINE
  5
1BC
100
AcDbEntity
  8
noname
  6
ByLayer
 62
    0
370
   -1
100
AcDbLine
 10
3.086805399999989
 20
73.45170000000002
 11
3.454745399999993
 21
73.58769999999998
  0
LINE
  5
1BD
100
AcDbEntity
  8
noname
  6
ByLayer
 62
    0
370
   -1
100
AcDbLine
 10
3.454745399999993
 20
73.58769999999998
 11
3.832315399999999
 21
73.69369999999998
  0
LINE
  5
1BE
100
AcDbEntity
  8
noname
  6
ByLayer
 62
    0
370
   -1
100
AcDbLine
 10
3.832315399999999
 20
73.69369999999998
 11
4.216815399999987
 21
73.7697
  0
LINE
  5
1BF
100
AcDbEntity
  8
noname
  6
ByLayer
 62
    0
370
   -1
100
AcDbLine
 10
4.216815399999987
 20
73.7697
 11
4.606775399999989
 21
73.81670000000003
  0
LINE
  5
1C0
100
AcDbEntity
  8
noname
  6
ByLayer
 62
    0
370
   -1
100
AcDbLine
 10
4.606775399999989
 20
73.81670000000003
 11
5.00089539999999
 21
73.83170000000001
  0
CIRCLE
  5
1C1
100
AcDbEntity
  8
noname
  6
ByLayer
 62
  256
370
   -1
100
AcDbCircle
 10
6.25078539999997
 20
67.58170000000001
 40
2.499750000000025
  0
CIRCLE
  5
1C2
100
AcDbEntity
  8
noname
  6
ByLayer
 62
  256
370
   -1
100
AcDbCircle
 10
66.25078539999998
 20
67.58170000000001
 40
2.499750000000006
  0
LINE
  5
1C3
100
AcDbEntity
  8
noname
  6
ByLayer
 62
  256
370
   -1
100
AcDbLine
 10
111.1075154
 20
73.83170000000001
 11
111.1075154
 21
70.83170000000001
  0
LINE
  5
1C4
100
AcDbEntity
  8
noname
  6
ByLayer
 62
  256
370
   -1
100
AcDbLine
 10
111.1075154
 20
70.83170000000001
 11
105.1075154
 21
70.83170000000001
  0
LINE
  5
1C5
100
AcDbEntity
  8
noname
  6
ByLayer
 62
  256
370
   -1
100
AcDbLine
 10
105.1075154
 20
70.83170000000001
 11
105.1075154
 21
67.83170000000001
  0
LINE
  5
1C6
100
AcDbEntity
  8
noname
  6
ByLayer
 62
  256
370
   -1
100
AcDbLine
 10
105.1075154
 20
67.83170000000001
 11
111.1075154
 21
67.83170000000001
  0
LINE
  5
1C7
100
AcDbEntity
  8
noname
  6
ByLayer
 62
  256
370
   -1
100
AcDbLine
 10
111.1075154
 20
67.83170000000001
 11
111.1075154
 21
64.83170000000001
  0
LINE
  5
1C8
100
AcDbEntity
  8
noname
  6
ByLayer
 62
  256
370
   -1
100
AcDbLine
 10
111.1075154
 20
64.83170000000001
 11
105.1075154
 21
64.83170000000001
  0
LINE
  5
1C9
100
AcDbEntity
  8
noname
  6
ByLayer
 62
  256
370
   -1
100
AcDbLine
 10
105.1075154
 20
64.83170000000001
 11
105.1075154
 21
61.33170000000001
  0
LINE
  5
1CA
100
AcDbEntity
  8
noname
  6
ByLayer
 62
  256
370
   -1
100
AcDbLine
 10
0
 20
0
 11
3
 21
0
  0
LINE
  5
1CB
100
AcDbEntity
  8
noname
  6
ByLayer
 62
  256
370
   -1
100
AcDbLine
 10
3
 20
0
 11
3
 21
-6
  0
LINE
  5
1CC
100
AcDbEntity
  8
noname
  6
ByLayer
 62
  256
370
   -1
100
AcDbLine
 10
3
 20
-6
 11
6
 21
-6
  0
LINE
  5
1CD
100
AcDbEntity
  8
noname
  6
ByLayer
 62
  256
370
   -1
100
AcDbLine
 10
6
 20
-6
 11
6
 21
0
  0
LINE
  5
1CE
100
AcDbEntity
  8
noname
  6
ByLayer
 62
  256
370
   -1
100
AcDbLine
 10
6
 20
0
 11
9
 21
0
  0
LINE
  5
1CF
100
AcDbEntity
  8
noname
  6
ByLayer
 62
  256
370
   -1
100
AcDbLine
 10
9
 20
0
 11
9
 21
-6
  0
LINE
  5
1D0
100
AcDbEntity
  8
noname
  6
ByLayer
 62
  256
370
   -1
100
AcDbLine
 10
9
 20
-6
 11
12.5
 21
-6
  0
LINE
  5
1D1
100
AcDbEntity
  8
noname
  6
ByLayer
 62
    0
370
   -1
100
AcDbLine
 10
5.00089539999999
 20
73.83170000000001
 11
111.1075154
 21
73.83170000000001
  0
LINE
  5
1D2
100
AcDbEntity
  8
noname
  6
ByLayer
 62
    0
370
   -1
100
AcDbLine
 10
12.50021539999999
 20
61.33170000000001
 11
105.1075154
 21
61.33170000000001
  0
LINE
  5
1D3
100
AcDbEntity
  8
noname
  6
ByLayer
 62
    0
370
   -1
100
AcDbLine
 10
0
 20
0
 11
0
 21
68.83069999999998
  0
LINE
  5
1D4
100
AcDbEntity
  8
noname
  6
ByLayer
 62
  256
370
   -1
100
AcDbLine
 10
12.50021539999999
 20
61.33170000000001
 11
12.5
 21
-6
  0
ENDBLK
  5
56
330
54
100
AcDbEntity
  8
0
100
AcDbBlockEnd
  0
BLOCK
  5
58
330
57
100
AcDbEntity
  8
0
100
AcDbBlockBegin
  2
TopRight
 70
    0
 10
0
 20
0
  3
TopRight
  1

  0
LINE
  5
1D5
100
AcDbEntity
  8
0
  6
ByLayer
 62
    0
370
   -1
100
AcDbLine
 10
106.2038
 20
12.5
 11
106.5958
 21
12.48500000000001
  0
LINE
  5
1D6
100
AcDbEntity
  8
0
  6
ByLayer
 62
    0
370
   -1
100
AcDbLine
 10
106.5958
 20
12.48500000000001
 11
106.9858
 21
12.43799999999999
  0
LINE
  5
1D7
100
AcDbEntity
  8
0
  6
ByLayer
 62
    0
370
   -1
100
AcDbLine
 10
106.9858
 20
12.43799999999999
 11
107.3708
 21
12.36199999999999
  0
LINE
  5
1D8
100
AcDbEntity
  8
0
  6
ByLayer
 62
    0
370
   -1
100
AcDbLine
 10
107.3708
 20
12.36199999999999
 11
107.7478
 21
12.256
  0
LINE
  5
1D9
100
AcDbEntity
  8
0
  6
ByLayer
 62
    0
370
   -1
100
AcDbLine
 10
107.7478
 20
12.256
 11
108.1158
 21
12.12
  0
LINE
  5
1DA
100
AcDbEntity
  8
0
  6
ByLayer
 62
    0
370
   -1
100
AcDbLine
 10
108.1158
 20
12.12
 11
108.4728
 21
11.95599999999999
  0
LINE
  5
1DB
100
AcDbEntity
  8
0
  6
ByLayer
 62
    0
370
   -1
100
AcDbLine
 10
108.4728
 20
11.95599999999999
 11
108.8158
 21
11.76499999999999
  0
LINE
  5
1DC
100
AcDbEntity
  8
0
  6
ByLayer
 62
    0
370
   -1
100
AcDbLine
 10
108.8158
 20
11.76499999999999
 11
109.1428
 21
11.54499999999999
  0
LINE
  5
1DD
100
AcDbEntity
  8
0
  6
ByLayer
 62
    0
370
   -1
100
AcDbLine
 10
109.1428
 20
11.54499999999999
 11
109.4498
 21
11.303
  0
LINE
  5
1DE
100
AcDbEntity
  8
0
  6
ByLayer
 62
    0
370
   -1
100
AcDbLine
 10
109.4498
 20
11.303
 11
109.7388
 21
11.035
  0
LINE
  5
1DF
100
AcDbEntity
  8
0
  6
ByLayer
 62
    0
370
   -1
100
AcDbLine
 10
109.7388
 20
11.035
 11
110.0048
 21
10.74700000000001
  0
LINE
  5
1E0
100
AcDbEntity
  8
0
  6
ByLayer
 62
    0
370
   -1
100
AcDbLine
 10
110.0048
 20
10.74700000000001
 11
110.2478
 21
10.43899999999999
  0
LINE
  5
1E1
100
AcDbEntity
  8
0
  6
ByLayer
 62
    0
370
   -1
100
AcDbLine
 10
110.2478
 20
10.43899999999999
 11
110.4668
 21
10.114
  0
LINE
  5
1E2
100
AcDbEntity
  8
0
  6
ByLayer
 62
    0
370
   -1
100
AcDbLine
 10
110.4668
 20
10.114
 11
110.6578
 21
9.77000000000001
  0
LINE
  5
1E3
100
AcDbEntity
  8
0
  6
ByLayer
 62
    0
370
   -1
100
AcDbLine
 10
110.6578
 20
9.77000000000001
 11
110.8218
 21
9.413000000000011
  0
LINE
  5
1E4
100
AcDbEntity
  8
0
  6
ByLayer
 62
    0
370
   -1
100
AcDbLine
 10
110.8218
 20
9.413000000000011
 11
110.9588
 21
9.045999999999992
  0
LINE
  5
1E5
100
AcDbEntity
  8
0
  6
ByLayer
 62
    0
370
   -1
100
AcDbLine
 10
110.9588
 20
9.045999999999992
 11
111.0648
 21
8.668000000000006
  0
LINE
  5
1E6
100
AcDbEntity
  8
0
  6
ByLayer
 62
    0
370
   -1
100
AcDbLine
 10
111.0648
 20
8.668000000000006
 11
111.1408
 21
8.282999999999987
  0
LINE
  5
1E7
100
AcDbEntity
  8
0
  6
ByLayer
 62
    0
370
   -1
100
AcDbLine
 10
111.1408
 20
8.282999999999987
 11
111.1888
 21
7.894000000000005
  0
LINE
  5
1E8
100
AcDbEntity
  8
0
  6
ByLayer
 62
    0
370
   -1
100
AcDbLine
 10
111.1888
 20
7.894000000000005
 11
111.2028
 21
7.498999999999995
  0
LINE
  5
1E9
100
AcDbEntity
  8
0
  6
ByLayer
 62
    0
370
   -1
100
AcDbLine
 10
97.28958726547242
 20
0
 11
98.70379999999997
 21
0
  0
LINE
  5
1EA
100
AcDbEntity
  8
0
  6
ByLayer
 62
    0
370
   -1
100
AcDbLine
 10
98.70379999999997
 20
0
 11
98.70379999999997
 21
-1.414213562373106
  0
CIRCLE
  5
1EB
100
AcDbEntity
  8
0
  6
ByLayer
 62
  256
370
   -1
100
AcDbCircle
 10
104.9538000000001
 20
6.249999999999886
 40
2.49899999999991
  0
LINE
  5
1EC
100
AcDbEntity
  8
0
  6
ByLayer
 62
    0
370
   -1
100
AcDbLine
 10
6
 20
12.5
 11
106.2038
 21
12.5
  0
LINE
  5
1ED
100
AcDbEntity
  8
0
  6
ByLayer
 62
    0
370
   -1
100
AcDbLine
 10
0
 20
0
 11
97.28958726547242
 21
0
  0
LINE
  5
1EE
100
AcDbEntity
  8
0
  6
ByLayer
 62
    0
370
   -1
100
AcDbLine
 10
98.70379999999997
 20
-1.414213562373106
 11
98.70379999999997
 21
-61.3317
  0
LINE
  5
1EF
100
AcDbEntity
  8
0
  6
ByLayer
 62
    0
370
   -1
100
AcDbLine
 10
111.2028
 20
7.498999999999995
 11
111.2028
 21
-67.3317
  0
LINE
  5
1F0
100
AcDbEntity
  8
noname
  6
ByLayer
 62
  256
370
   -1
100
AcDbLine
 10
6
 20
12.5
 11
6
 21
9.5
  0
LINE
  5
1F1
100
AcDbEntity
  8
noname
  6
ByLayer
 62
  256
370
   -1
100
AcDbLine
 10
6
 20
9.5
 11
0
 21
9.5
  0
LINE
  5
1F2
100
AcDbEntity
  8
noname
  6
ByLayer
 62
  256
370
   -1
100
AcDbLine
 10
0
 20
9.5
 11
0
 21
6.5
  0
LINE
  5
1F3
100
AcDbEntity
  8
noname
  6
ByLayer
 62
  256
370
   -1
100
AcDbLine
 10
0
 20
6.5
 11
6
 21
6.5
  0
LINE
  5
1F4
100
AcDbEntity
  8
noname
  6
ByLayer
 62
  256
370
   -1
100
AcDbLine
 10
6
 20
6.5
 11
6
 21
3.5
  0
LINE
  5
1F5
100
AcDbEntity
  8
noname
  6
ByLayer
 62
  256
370
   -1
100
AcDbLine
 10
6
 20
3.5
 11
0
 21
3.5
  0
LINE
  5
1F6
100
AcDbEntity
  8
noname
  6
ByLayer
 62
  256
370
   -1
100
AcDbLine
 10
0
 20
3.5
 11
0
 21
0
  0
LINE
  5
1F7
100
AcDbEntity
  8
noname
  6
ByLayer
 62
  256
370
   -1
100
AcDbLine
 10
98.7028
 20
-61.3317
 11
101.7028
 21
-61.3317
  0
LINE
  5
1F8
100
AcDbEntity
  8
noname
  6
ByLayer
 62
  256
370
   -1
100
AcDbLine
 10
101.7028
 20
-61.3317
 11
101.7028
 21
-67.3317
  0
LINE
  5
1F9
100
AcDbEntity
  8
noname
  6
ByLayer
 62
  256
370
   -1
100
AcDbLine
 10
101.7028
 20
-67.3317
 11
104.7028
 21
-67.3317
  0
LINE
  5
1FA
100
AcDbEntity
  8
noname
  6
ByLayer
 62
  256
370
   -1
100
AcDbLine
 10
104.7028
 20
-67.3317
 11
104.7028
 21
-61.3317
  0
LINE
  5
1FB
100
AcDbEntity
  8
noname
  6
ByLayer
 62
  256
370
   -1
100
AcDbLine
 10
104.7028
 20
-61.3317
 11
107.7028
 21
-61.3317
  0
LINE
  5
1FC
100
AcDbEntity
  8
noname
  6
ByLayer
 62
  256
370
   -1
100
AcDbLine
 10
107.7028
 20
-61.3317
 11
107.7028
 21
-67.3317
  0
LINE
  5
1FD
100
AcDbEntity
  8
noname
  6
ByLayer
 62
  256
370
   -1
100
AcDbLine
 10
107.7028
 20
-67.3317
 11
111.2028
 21
-67.3317
  0
ENDBLK
  5
59
330
57
100
AcDbEntity
  8
0
100
AcDbBlockEnd
  0
BLOCK
  5
5B
330
5A
100
AcDbEntity
  8
0
100
AcDbBlockBegin
  2
BottomLeft
 70
    0
 10
0
 20
0
  3
BottomLeft
  1

  0
LINE
  5
1FE
100
AcDbEntity
  8
noname
  6
ByLayer
 62
    0
370
   -1
100
AcDbLine
 10
5.095979999999997
 20
0.3004119999999997
 11
4.701859999999996
 21
0.3141929999999995
  0
LINE
  5
1FF
100
AcDbEntity
  8
noname
  6
ByLayer
 62
    0
370
   -1
100
AcDbLine
 10
4.701859999999996
 20
0.3141929999999995
 11
4.311899999999994
 21
0.3624229999999997
  0
LINE
  5
200
100
AcDbEntity
  8
noname
  6
ByLayer
 62
    0
370
   -1
100
AcDbLine
 10
4.311899999999994
 20
0.3624229999999997
 11
3.927400000000006
 21
0.4382169999999999
  0
LINE
  5
201
100
AcDbEntity
  8
noname
  6
ByLayer
 62
    0
370
   -1
100
AcDbLine
 10
3.927400000000006
 20
0.4382169999999999
 11
3.54983
 21
0.5443259999999999
  0
LINE
  5
202
100
AcDbEntity
  8
noname
  6
ByLayer
 62
    0
370
   -1
100
AcDbLine
 10
3.54983
 20
0.5443259999999999
 11
3.181889999999996
 21
0.680752
  0
LINE
  5
203
100
AcDbEntity
  8
noname
  6
ByLayer
 62
    0
370
   -1
100
AcDbLine
 10
3.181889999999996
 20
0.680752
 11
2.824979999999996
 21
0.8447370000000003
  0
LINE
  5
204
100
AcDbEntity
  8
noname
  6
ByLayer
 62
    0
370
   -1
100
AcDbLine
 10
2.824979999999996
 20
0.8447370000000003
 11
2.481849999999994
 21
1.03628
  0
LINE
  5
205
100
AcDbEntity
  8
noname
  6
ByLayer
 62
    0
370
   -1
100
AcDbLine
 10
2.481849999999994
 20
1.03628
 11
2.156630000000007
 21
1.25539
  0
LINE
  5
206
100
AcDbEntity
  8
noname
  6
ByLayer
 62
    0
370
   -1
100
AcDbLine
 10
2.156630000000007
 20
1.25539
 11
1.847949999999997
 21
1.49793
  0
LINE
  5
207
100
AcDbEntity
  8
noname
  6
ByLayer
 62
    0
370
   -1
100
AcDbLine
 10
1.847949999999997
 20
1.49793
 11
1.559939999999997
 21
1.76389
  0
LINE
  5
208
100
AcDbEntity
  8
noname
  6
ByLayer
 62
    0
370
   -1
100
AcDbLine
 10
1.559939999999997
 20
1.76389
 11
1.292599999999993
 21
2.053280000000001
  0
LINE
  5
209
100
AcDbEntity
  8
noname
  6
ByLayer
 62
    0
370
   -1
100
AcDbLine
 10
1.292599999999993
 20
2.053280000000001
 11
1.050060000000002
 21
2.360580000000001
  0
LINE
  5
20A
100
AcDbEntity
  8
noname
  6
ByLayer
 62
    0
370
   -1
100
AcDbLine
 10
1.050060000000002
 20
2.360580000000001
 11
0.8309569999999979
 21
2.68718
  0
LINE
  5
20B
100
AcDbEntity
  8
noname
  6
ByLayer
 62
    0
370
   -1
100
AcDbLine
 10
0.8309569999999979
 20
2.68718
 11
0.639409999999998
 21
3.0303
  0
LINE
  5
20C
100
AcDbEntity
  8
noname
  6
ByLayer
 62
    0
370
   -1
100
AcDbLine
 10
0.639409999999998
 20
3.0303
 11
0.4754240000000038
 21
3.387219999999999
  0
LINE
  5
20D
100
AcDbEntity
  8
noname
  6
ByLayer
 62
    0
370
   -1
100
AcDbLine
 10
0.4754240000000038
 20
3.387219999999999
 11
0.3389980000000037
 21
3.755140000000001
  0
LINE
  5
20E
100
AcDbEntity
  8
noname
  6
ByLayer
 62
    0
370
   -1
100
AcDbLine
 10
0.3389980000000037
 20
3.755140000000001
 11
0.2328880000000026
 21
4.132719999999999
  0
LINE
  5
20F
100
AcDbEntity
  8
noname
  6
ByLayer
 62
    0
370
   -1
100
AcDbLine
 10
0.2328880000000026
 20
4.132719999999999
 11
0.1570969999999932
 21
4.51721
  0
LINE
  5
210
100
AcDbEntity
  8
noname
  6
ByLayer
 62
    0
370
   -1
100
AcDbLine
 10
0.1570969999999932
 20
4.51721
 11
0.110242999999997
 21
4.907209999999999
  0
LINE
  5
211
100
AcDbEntity
  8
noname
  6
ByLayer
 62
    0
370
   -1
100
AcDbLine
 10
0.110242999999997
 20
4.907209999999999
 11
0.09508460000000696
 21
5.29992
  0
CIRCLE
  5
212
100
AcDbEntity
  8
noname
  6
ByLayer
 62
  256
370
   -1
100
AcDbCircle
 10
6.345870000000005
 20
6.549810000000001
 40
2.499750000000001
  0
LINE
  5
213
100
AcDbEntity
  8
noname
  6
ByLayer
 62
  256
370
   -1
100
AcDbLine
 10
111.2026
 20
12.7992
 11
111.2026
 21
9.799199999999999
  0
LINE
  5
214
100
AcDbEntity
  8
noname
  6
ByLayer
 62
  256
370
   -1
100
AcDbLine
 10
111.2026
 20
9.799199999999999
 11
105.2026
 21
9.799199999999999
  0
LINE
  5
215
100
AcDbEntity
  8
noname
  6
ByLayer
 62
  256
370
   -1
100
AcDbLine
 10
105.2026
 20
9.799199999999999
 11
105.2026
 21
6.799199999999999
  0
LINE
  5
216
100
AcDbEntity
  8
noname
  6
ByLayer
 62
  256
370
   -1
100
AcDbLine
 10
105.2026
 20
6.799199999999999
 11
111.2026
 21
6.799199999999999
  0
LINE
  5
217
100
AcDbEntity
  8
noname
  6
ByLayer
 62
  256
370
   -1
100
AcDbLine
 10
111.2026
 20
6.799199999999999
 11
111.2026
 21
3.799200000000001
  0
LINE
  5
218
100
AcDbEntity
  8
noname
  6
ByLayer
 62
  256
370
   -1
100
AcDbLine
 10
111.2026
 20
3.799200000000001
 11
105.2026
 21
3.799200000000001
  0
LINE
  5
219
100
AcDbEntity
  8
noname
  6
ByLayer
 62
    0
370
   -1
100
AcDbLine
 10
105.2026
 20
0.3004119999999997
 11
5.095979999999997
 21
0.3004119999999997
  0
LINE
  5
21A
100
AcDbEntity
  8
noname
  6
ByLayer
 62
    0
370
   -1
100
AcDbLine
 10
0.09508460000000696
 20
5.29992
 11
0.09508460000000696
 21
79.5313
  0
LINE
  5
21B
100
AcDbEntity
  8
noname
  6
ByLayer
 62
  256
370
   -1
100
AcDbLine
 10
0.09508460000000696
 20
79.5313
 11
3.095084600000007
 21
79.5313
  0
LINE
  5
21C
100
AcDbEntity
  8
noname
  6
ByLayer
 62
  256
370
   -1
100
AcDbLine
 10
3.095084600000007
 20
79.5313
 11
3.095084600000007
 21
73.5313
  0
LINE
  5
21D
100
AcDbEntity
  8
noname
  6
ByLayer
 62
  256
370
   -1
100
AcDbLine
 10
3.095084600000007
 20
73.5313
 11
6.095084600000007
 21
73.5313
  0
LINE
  5
21E
100
AcDbEntity
  8
noname
  6
ByLayer
 62
  256
370
   -1
100
AcDbLine
 10
6.095084600000007
 20
73.5313
 11
6.095084600000007
 21
79.5313
  0
LINE
  5
21F
100
AcDbEntity
  8
noname
  6
ByLayer
 62
  256
370
   -1
100
AcDbLine
 10
6.095084600000007
 20
79.5313
 11
9.095084600000007
 21
79.5313
  0
LINE
  5
220
100
AcDbEntity
  8
noname
  6
ByLayer
 62
  256
370
   -1
100
AcDbLine
 10
9.095084600000007
 20
79.5313
 11
9.095084600000007
 21
73.5313
  0
LINE
  5
221
100
AcDbEntity
  8
noname
  6
ByLayer
 62
  256
370
   -1
100
AcDbLine
 10
9.095084600000007
 20
73.5313
 11
12.59508460000001
 21
73.5313
  0
LINE
  5
222
100
AcDbEntity
  8
noname
  6
ByLayer
 62
  256
370
   -1
100
AcDbLine
 10
12.59508460000001
 20
73.5313
 11
12.59529999999999
 21
12.7992
  0
LINE
  5
223
100
AcDbEntity
  8
noname
  6
ByLayer
 62
  256
370
   -1
100
AcDbLine
 10
111.2026
 20
12.7992
 11
12.59529999999999
 21
12.7992
  0
LINE
  5
224
100
AcDbEntity
  8
noname
  6
ByLayer
 62
  256
370
   -1
100
AcDbLine
 10
105.2026
 20
3.799200000000001
 11
105.2026
 21
0.3004119999999997
  0
ENDBLK
  5
5C
330
5A
100
AcDbEntity
  8
0
100
AcDbBlockEnd
  0
BLOCK
  5
5E
330
5D
100
AcDbEntity
  8
0
100
AcDbBlockBegin
  2
BottomRight
 70
    0
 10
0
 20
0
  3
BottomRight
  1

  0
LINE
  5
225
100
AcDbEntity
  8
noname
  6
ByLayer
 62
    0
370
   -1
100
AcDbLine
 10
111.2028
 20
5.000720000000001
 11
111.1888
 21
4.60801
  0
LINE
  5
226
100
AcDbEntity
  8
noname
  6
ByLayer
 62
    0
370
   -1
100
AcDbLine
 10
111.1888
 20
4.60801
 11
111.1408
 21
4.218010000000001
  0
LINE
  5
227
100
AcDbEntity
  8
noname
  6
ByLayer
 62
    0
370
   -1
100
AcDbLine
 10
111.1408
 20
4.218010000000001
 11
111.0648
 21
3.83352
  0
LINE
  5
228
100
AcDbEntity
  8
noname
  6
ByLayer
 62
    0
370
   -1
100
AcDbLine
 10
111.0648
 20
3.83352
 11
110.9588
 21
3.455940000000002
  0
LINE
  5
229
100
AcDbEntity
  8
noname
  6
ByLayer
 62
    0
370
   -1
100
AcDbLine
 10
110.9588
 20
3.455940000000002
 11
110.8218
 21
3.08802
  0
LINE
  5
22A
100
AcDbEntity
  8
noname
  6
ByLayer
 62
    0
370
   -1
100
AcDbLine
 10
110.8218
 20
3.08802
 11
110.6578
 21
2.731100000000001
  0
LINE
  5
22B
100
AcDbEntity
  8
noname
  6
ByLayer
 62
    0
370
   -1
100
AcDbLine
 10
110.6578
 20
2.731100000000001
 11
110.4668
 21
2.387980000000001
  0
LINE
  5
22C
100
AcDbEntity
  8
noname
  6
ByLayer
 62
    0
370
   -1
100
AcDbLine
 10
110.4668
 20
2.387980000000001
 11
110.2478
 21
2.061380000000002
  0
LINE
  5
22D
100
AcDbEntity
  8
noname
  6
ByLayer
 62
    0
370
   -1
100
AcDbLine
 10
110.2478
 20
2.061380000000002
 11
110.0048
 21
1.754080000000002
  0
LINE
  5
22E
100
AcDbEntity
  8
noname
  6
ByLayer
 62
    0
370
   -1
100
AcDbLine
 10
110.0048
 20
1.754080000000002
 11
109.7388
 21
1.464690000000001
  0
LINE
  5
22F
100
AcDbEntity
  8
noname
  6
ByLayer
 62
    0
370
   -1
100
AcDbLine
 10
109.7388
 20
1.464690000000001
 11
109.4498
 21
1.198730000000001
  0
LINE
  5
230
100
AcDbEntity
  8
noname
  6
ByLayer
 62
    0
370
   -1
100
AcDbLine
 10
109.4498
 20
1.198730000000001
 11
109.1428
 21
0.9561900000000012
  0
LINE
  5
231
100
AcDbEntity
  8
noname
  6
ByLayer
 62
    0
370
   -1
100
AcDbLine
 10
109.1428
 20
0.9561900000000012
 11
108.8158
 21
0.7370800000000006
  0
LINE
  5
232
100
AcDbEntity
  8
noname
  6
ByLayer
 62
    0
370
   -1
100
AcDbLine
 10
108.8158
 20
0.7370800000000006
 11
108.4728
 21
0.5455370000000013
  0
LINE
  5
233
100
AcDbEntity
  8
noname
  6
ByLayer
 62
    0
370
   -1
100
AcDbLine
 10
108.4728
 20
0.5455370000000013
 11
108.1158
 21
0.381552000000001
  0
LINE
  5
234
100
AcDbEntity
  8
noname
  6
ByLayer
 62
    0
370
   -1
100
AcDbLine
 10
108.1158
 20
0.381552000000001
 11
107.7478
 21
0.2451260000000008
  0
LINE
  5
235
100
AcDbEntity
  8
noname
  6
ByLayer
 62
    0
370
   -1
100
AcDbLine
 10
107.7478
 20
0.2451260000000008
 11
107.3708
 21
0.1390170000000008
  0
LINE
  5
236
100
AcDbEntity
  8
noname
  6
ByLayer
 62
    0
370
   -1
100
AcDbLine
 10
107.3708
 20
0.1390170000000008
 11
106.9858
 21
0.0632230000000007
  0
LINE
  5
237
100
AcDbEntity
  8
noname
  6
ByLayer
 62
    0
370
   -1
100
AcDbLine
 10
106.9858
 20
0.0632230000000007
 11
106.5958
 21
0.01499300000000048
  0
LINE
  5
238
100
AcDbEntity
  8
noname
  6
ByLayer
 62
    0
370
   -1
100
AcDbLine
 10
106.5958
 20
0.01499300000000048
 11
106.2038
 21
0.001212000000000657
  0
LINE
  5
239
100
AcDbEntity
  8
noname
  6
ByLayer
 62
    0
370
   -1
100
AcDbLine
 10
98.70379999999997
 20
13.91421859185478
 11
98.70379999999997
 21
12.5
  0
CIRCLE
  5
23A
100
AcDbEntity
  8
noname
  6
ByLayer
 62
  256
370
   -1
100
AcDbCircle
 10
104.9538
 20
6.25061000000003
 40
2.499000000000024
  0
LINE
  5
23B
100
AcDbEntity
  8
noname
  6
ByLayer
 62
  256
370
   -1
100
AcDbLine
 10
98.70379999999997
 20
79.2321
 11
101.7038
 21
79.2321
  0
LINE
  5
23C
100
AcDbEntity
  8
noname
  6
ByLayer
 62
  256
370
   -1
100
AcDbLine
 10
101.7038
 20
79.2321
 11
101.7038
 21
73.2321
  0
LINE
  5
23D
100
AcDbEntity
  8
noname
  6
ByLayer
 62
  256
370
   -1
100
AcDbLine
 10
101.7038
 20
73.2321
 11
104.7038
 21
73.2321
  0
LINE
  5
23E
100
AcDbEntity
  8
noname
  6
ByLayer
 62
  256
370
   -1
100
AcDbLine
 10
104.7038
 20
73.2321
 11
104.7038
 21
79.2321
  0
LINE
  5
23F
100
AcDbEntity
  8
noname
  6
ByLayer
 62
  256
370
   -1
100
AcDbLine
 10
104.7038
 20
79.2321
 11
107.7038
 21
79.2321
  0
LINE
  5
240
100
AcDbEntity
  8
noname
  6
ByLayer
 62
  256
370
   -1
100
AcDbLine
 10
107.7038
 20
79.2321
 11
107.7038
 21
73.2321
  0
LINE
  5
241
100
AcDbEntity
  8
noname
  6
ByLayer
 62
  256
370
   -1
100
AcDbLine
 10
107.7038
 20
73.2321
 11
111.2038
 21
73.2321
  0
LINE
  5
242
100
AcDbEntity
  8
noname
  6
ByLayer
 62
    0
370
   -1
100
AcDbLine
 10
98.70379999999997
 20
79.2321
 11
98.70379999999997
 21
13.91421859185478
  0
LINE
  5
243
100
AcDbEntity
  8
noname
  6
ByLayer
 62
    0
370
   -1
100
AcDbLine
 10
111.2028
 20
73.2321
 11
111.2028
 21
5.000720000000001
  0
LINE
  5
244
100
AcDbEntity
  8
noname
  6
ByLayer
 62
    0
370
   -1
100
AcDbLine
 10
98.70379999999997
 20
12.5
 11
6
 21
12.5
  0
LINE
  5
245
100
AcDbEntity
  8
noname
  6
ByLayer
 62
    0
370
   -1
100
AcDbLine
 10
106.2038
 20
0.001212000000000657
 11
0
 21
0.001212000000000657
  0
LINE
  5
246
100
AcDbEntity
  8
noname
  6
ByLayer
 62
  256
370
   -1
100
AcDbLine
 10
6
 20
12.5
 11
6
 21
9.5
  0
LINE
  5
247
100
AcDbEntity
  8
noname
  6
ByLayer
 62
  256
370
   -1
100
AcDbLine
 10
6
 20
9.5
 11
0
 21
9.5
  0
LINE
  5
248
100
AcDbEntity
  8
noname
  6
ByLayer
 62
  256
370
   -1
100
AcDbLine
 10
0
 20
9.5
 11
0
 21
6.5
  0
LINE
  5
249
100
AcDbEntity
  8
noname
  6
ByLayer
 62
  256
370
   -1
100
AcDbLine
 10
0
 20
6.5
 11
6
 21
6.5
  0
LINE
  5
24A
100
AcDbEntity
  8
noname
  6
ByLayer
 62
  256
370
   -1
100
AcDbLine
 10
6
 20
6.5
 11
6
 21
3.5
  0
LINE
  5
24B
100
AcDbEntity
  8
noname
  6
ByLayer
 62
  256
370
   -1
100
AcDbLine
 10
6
 20
3.5
 11
0
 21
3.5
  0
LINE
  5
24C
100
AcDbEntity
  8
noname
  6
ByLayer
 62
  256
370
   -1
100
AcDbLine
 10
0
 20
3.5
 11
0
 21
0
  0
ENDBLK
  5
5F
330
5D
100
AcDbEntity
  8
0
100
AcDbBlockEnd
  0
BLOCK
  5
61
330
60
100
AcDbEntity
  8
0
100
AcDbBlockBegin
  2
Bottom
 70
    0
 10
0
 20
0
  3
Bottom
  1

  0
CIRCLE
  5
24D
100
AcDbEntity
  8
noname
  6
ByLayer
 62
  256
370
   -1
100
AcDbCircle
 10
57.1484
 20
6.250610000000041
 40
2.501000000000005
  0
LINE
  5
24E
100
AcDbEntity
  8
noname
  6
ByLayer
 62
  256
370
   -1
100
AcDbLine
 10
114.2026
 20
12.5
 11
114.2026
 21
9.5
  0
LINE
  5
24F
100
AcDbEntity
  8
noname
  6
ByLayer
 62
  256
370
   -1
100
AcDbLine
 10
114.2026
 20
9.5
 11
108.2026
 21
9.5
  0
LINE
  5
250
100
AcDbEntity
  8
noname
  6
ByLayer
 62
  256
370
   -1
100
AcDbLine
 10
108.2026
 20
9.5
 11
108.2026
 21
6.5
  0
LINE
  5
251
100
AcDbEntity
  8
noname
  6
ByLayer
 62
  256
370
   -1
100
AcDbLine
 10
108.2026
 20
6.5
 11
114.2026
 21
6.5
  0
LINE
  5
252
100
AcDbEntity
  8
noname
  6
ByLayer
 62
  256
370
   -1
100
AcDbLine
 10
114.2026
 20
6.5
 11
114.2026
 21
3.499999999999998
  0
LINE
  5
253
100
AcDbEntity
  8
noname
  6
ByLayer
 62
  256
370
   -1
100
AcDbLine
 10
114.2026
 20
3.499999999999998
 11
108.2026
 21
3.499999999999998
  0
LINE
  5
254
100
AcDbEntity
  8
noname
  6
ByLayer
 62
  256
370
   -1
100
AcDbLine
 10
108.2026
 20
3.499999999999998
 11
108.2026
 21
-1.77635683940025e-015
  0
LINE
  5
255
100
AcDbEntity
  8
noname
  6
ByLayer
 62
    0
370
   -1
100
AcDbLine
 10
114.2026
 20
12.5
 11
6
 21
12.5
  0
LINE
  5
256
100
AcDbEntity
  8
noname
  6
ByLayer
 62
    0
370
   -1
100
AcDbLine
 10
108.2026
 20
0.001211999999997104
 11
0
 21
0.001211999999997104
  0
LINE
  5
257
100
AcDbEntity
  8
noname
  6
ByLayer
 62
  256
370
   -1
100
AcDbLine
 10
6
 20
12.5
 11
6
 21
9.5
  0
LINE
  5
258
100
AcDbEntity
  8
noname
  6
ByLayer
 62
  256
370
   -1
100
AcDbLine
 10
6
 20
9.5
 11
0
 21
9.5
  0
LINE
  5
259
100
AcDbEntity
  8
noname
  6
ByLayer
 62
  256
370
   -1
100
AcDbLine
 10
0
 20
9.5
 11
0
 21
6.5
  0
LINE
  5
25A
100
AcDbEntity
  8
noname
  6
ByLayer
 62
  256
370
   -1
100
AcDbLine
 10
0
 20
6.5
 11
6
 21
6.5
  0
LINE
  5
25B
100
AcDbEntity
  8
noname
  6
ByLayer
 62
  256
370
   -1
100
AcDbLine
 10
6
 20
6.5
 11
6
 21
3.5
  0
LINE
  5
25C
100
AcDbEntity
  8
noname
  6
ByLayer
 62
  256
370
   -1
100
AcDbLine
 10
6
 20
3.5
 11
0
 21
3.5
  0
LINE
  5
25D
100
AcDbEntity
  8
noname
  6
ByLayer
 62
  256
370
   -1
100
AcDbLine
 10
0
 20
3.5
 11
0
 21
0
  0
ENDBLK
  5
62
330
60
100
AcDbEntity
  8
0
100
AcDbBlockEnd
  0
BLOCK
  5
64
330
63
100
AcDbEntity
  8
0
100
AcDbBlockBegin
  2
Feet_A
 70
    0
 10
0
 20
0
  3
Feet_A
  1

  0
LINE
  5
25E
100
AcDbEntity
  8
0
  6
ByLayer
 62
  256
370
   -1
100
AcDbLine
 10
78.00000000000003
 20
-1.13686837721616e-013
 11
1.176602527093379
 21
0
  0
CIRCLE
  5
25F
100
AcDbEntity
  8
0
  6
ByLayer
 62
  256
370
   -1
100
AcDbCircle
 10
68.00000000000003
 20
4
 40
2.7
  0
CIRCLE
  5
260
100
AcDbEntity
  8
0
  6
ByLayer
 62
  256
370
   -1
100
AcDbCircle
 10
10
 20
9
 40
2.7
  0
LINE
  5
261
100
AcDbEntity
  8
0
  6
ByLayer
 62
  256
370
   -1
100
AcDbLine
 10
1.176602527093379
 20
0
 11
0
 21
0
  0
ARC
  5
262
100
AcDbEntity
  8
0
  6
ByLayer
 62
  256
370
   -1
100
AcDbCircle
 10
1.819390136779933
 20
12.68258398111959
 40
0.709162577067076
100
AcDbArc
 50
90.05148542517152
 51
170.6362517147987
  0
LINE
  5
263
100
AcDbEntity
  8
0
  6
ByLayer
 62
  256
370
   -1
100
AcDbLine
 10
1.119676936618239
 20
12.797965947742
 11
0
 21
0
  0
LINE
  5
264
100
AcDbEntity
  8
0
  6
ByLayer
 62
  256
370
   -1
100
AcDbLine
 10
33.4999999999999
 20
8.320000000000107
 11
33.4999999999999
 21
9.12000000000009
  0
LINE
  5
265
100
AcDbEntity
  8
0
  6
ByLayer
 62
  256
370
   -1
100
AcDbLine
 10
33.4999999999999
 20
9.12000000000009
 11
26.4999999999999
 21
9.12000000000009
  0
LINE
  5
266
100
AcDbEntity
  8
0
  6
ByLayer
 62
  256
370
   -1
100
AcDbLine
 10
26.4999999999999
 20
9.12000000000009
 11
26.4999999999999
 21
8.320000000000107
  0
LINE
  5
267
100
AcDbEntity
  8
0
  6
ByLayer
 62
  256
370
   -1
100
AcDbLine
 10
26.4999999999999
 20
8.320000000000107
 11
33.4999999999999
 21
8.320000000000107
  0
ARC
  5
268
100
AcDbEntity
  8
0
  6
ByLayer
 62
  256
370
   -1
100
AcDbCircle
 10
77.26272266318958
 20
5.967965058613203
 40
0.7500000000002968
100
AcDbArc
 50
10.56846377563707
 51
74.6786840018254
  0
LINE
  5
269
100
AcDbEntity
  8
0
  6
ByLayer
 62
  256
370
   -1
100
AcDbLine
 10
1.81875289033364
 20
13.3917462718731
 11
77.46089657333283
 21
6.691309445019186
  0
LINE
  5
26A
100
AcDbEntity
  8
0
  6
ByLayer
 62
  256
370
   -1
100
AcDbLine
 10
78.00000000000003
 20
-1.13686837721616e-013
 11
78.00000000000786
 21
6.105522786911592
  0
ENDBLK
  5
65
330
63
100
AcDbEntity
  8
0
100
AcDbBlockEnd
  0
BLOCK
  5
67
330
66
100
AcDbEntity
  8
0
100
AcDbBlockBegin
  2
Feet_A-0
 70
    0
 10
0
 20
0
  3
Feet_A-0
  1

  0
LINE
  5
26B
100
AcDbEntity
  8
0
  6
ByLayer
 62
  256
370
   -1
100
AcDbLine
 10
78.00000000000003
 20
-1.13686837721616e-013
 11
1.176602527093379
 21
0
  0
CIRCLE
  5
26C
100
AcDbEntity
  8
0
  6
ByLayer
 62
  256
370
   -1
100
AcDbCircle
 10
68.00000000000003
 20
4
 40
2.7
  0
CIRCLE
  5
26D
100
AcDbEntity
  8
0
  6
ByLayer
 62
  256
370
   -1
100
AcDbCircle
 10
10
 20
9
 40
2.7
  0
LINE
  5
26E
100
AcDbEntity
  8
0
  6
ByLayer
 62
  256
370
   -1
100
AcDbLine
 10
1.176602527093379
 20
0
 11
0
 21
0
  0
ARC
  5
26F
100
AcDbEntity
  8
0
  6
ByLayer
 62
  256
370
   -1
100
AcDbCircle
 10
1.819390136779933
 20
12.68258398111959
 40
0.709162577067076
100
AcDbArc
 50
90.05148542517152
 51
170.6362517147987
  0
LINE
  5
270
100
AcDbEntity
  8
0
  6
ByLayer
 62
  256
370
   -1
100
AcDbLine
 10
1.119676936618239
 20
12.797965947742
 11
0
 21
0
  0
LINE
  5
271
100
AcDbEntity
  8
0
  6
ByLayer
 62
  256
370
   -1
100
AcDbLine
 10
33.4999999999999
 20
8.320000000000107
 11
33.4999999999999
 21
9.12000000000009
  0
LINE
  5
272
100
AcDbEntity
  8
0
  6
ByLayer
 62
  256
370
   -1
100
AcDbLine
 10
33.4999999999999
 20
9.12000000000009
 11
26.4999999999999
 21
9.12000000000009
  0
LINE
  5
273
100
AcDbEntity
  8
0
  6
ByLayer
 62
  256
370
   -1
100
AcDbLine
 10
26.4999999999999
 20
9.12000000000009
 11
26.4999999999999
 21
8.320000000000107
  0
LINE
  5
274
100
AcDbEntity
  8
0
  6
ByLayer
 62
  256
370
   -1
100
AcDbLine
 10
26.4999999999999
 20
8.320000000000107
 11
33.4999999999999
 21
8.320000000000107
  0
ARC
  5
275
100
AcDbEntity
  8
0
  6
ByLayer
 62
  256
370
   -1
100
AcDbCircle
 10
77.26272266318958
 20
5.967965058613203
 40
0.7500000000002968
100
AcDbArc
 50
10.56846377563707
 51
74.6786840018254
  0
LINE
  5
276
100
AcDbEntity
  8
0
  6
ByLayer
 62
  256
370
   -1
100
AcDbLine
 10
1.81875289033364
 20
13.3917462718731
 11
77.46089657333283
 21
6.691309445019186
  0
LINE
  5
277
100
AcDbEntity
  8
0
  6
ByLayer
 62
  256
370
   -1
100
AcDbLine
 10
78.00000000000003
 20
-1.13686837721616e-013
 11
78.00000000000786
 21
6.105522786911592
  0
ENDBLK
  5
68
330
66
100
AcDbEntity
  8
0
100
AcDbBlockEnd
  0
ENDSEC
  0
SECTION
  2
ENTITIES
  0
LINE
  5
278
100
AcDbEntity
  8
0
  6
ByLayer
 62
    0
370
   -1
100
AcDbLine
 10
319.609
 20
153.363
 11
320.001
 21
153.348
  0
LINE
  5
279
100
AcDbEntity
  8
0
  6
ByLayer
 62
    0
370
   -1
100
AcDbLine
 10
320.001
 20
153.348
 11
320.391
 21
153.301
  0
LINE
  5
27A
100
AcDbEntity
  8
0
  6
ByLayer
 62
    0
370
   -1
100
AcDbLine
 10
320.391
 20
153.301
 11
320.776
 21
153.225
  0
LINE
  5
27B
100
AcDbEntity
  8
0
  6
ByLayer
 62
    0
370
   -1
100
AcDbLine
 10
320.776
 20
153.225
 11
321.153
 21
153.119
  0
LINE
  5
27C
100
AcDbEntity
  8
0
  6
ByLayer
 62
    0
370
   -1
100
AcDbLine
 10
321.153
 20
153.119
 11
321.521
 21
152.983
  0
LINE
  5
27D
100
AcDbEntity
  8
0
  6
ByLayer
 62
    0
370
   -1
100
AcDbLine
 10
321.521
 20
152.983
 11
321.878
 21
152.819
  0
LINE
  5
27E
100
AcDbEntity
  8
0
  6
ByLayer
 62
    0
370
   -1
100
AcDbLine
 10
321.878
 20
152.819
 11
322.221
 21
152.628
  0
LINE
  5
27F
100
AcDbEntity
  8
0
  6
ByLayer
 62
    0
370
   -1
100
AcDbLine
 10
322.221
 20
152.628
 11
322.548
 21
152.408
  0
LINE
  5
280
100
AcDbEntity
  8
0
  6
ByLayer
 62
    0
370
   -1
100
AcDbLine
 10
322.548
 20
152.408
 11
322.855
 21
152.166
  0
LINE
  5
281
100
AcDbEntity
  8
0
  6
ByLayer
 62
    0
370
   -1
100
AcDbLine
 10
322.855
 20
152.166
 11
323.144
 21
151.898
  0
LINE
  5
282
100
AcDbEntity
  8
0
  6
ByLayer
 62
    0
370
   -1
100
AcDbLine
 10
323.144
 20
151.898
 11
323.41
 21
151.61
  0
LINE
  5
283
100
AcDbEntity
  8
0
  6
ByLayer
 62
    0
370
   -1
100
AcDbLine
 10
323.41
 20
151.61
 11
323.653
 21
151.302
  0
LINE
  5
284
100
AcDbEntity
  8
0
  6
ByLayer
 62
    0
370
   -1
100
AcDbLine
 10
323.653
 20
151.302
 11
323.872
 21
150.977
  0
LINE
  5
285
100
AcDbEntity
  8
0
  6
ByLayer
 62
    0
370
   -1
100
AcDbLine
 10
323.872
 20
150.977
 11
324.063
 21
150.633
  0
LINE
  5
286
100
AcDbEntity
  8
0
  6
ByLayer
 62
    0
370
   -1
100
AcDbLine
 10
324.063
 20
150.633
 11
324.227
 21
150.276
  0
LINE
  5
287
100
AcDbEntity
  8
0
  6
ByLayer
 62
    0
370
   -1
100
AcDbLine
 10
324.227
 20
150.276
 11
324.364
 21
149.909
  0
LINE
  5
288
100
AcDbEntity
  8
0
  6
ByLayer
 62
    0
370
   -1
100
AcDbLine
 10
324.364
 20
149.909
 11
324.47
 21
149.531
  0
LINE
  5
289
100
AcDbEntity
  8
0
  6
ByLayer
 62
    0
370
   -1
100
AcDbLine
 10
324.47
 20
149.531
 11
324.546
 21
149.146
  0
LINE
  5
28A
100
AcDbEntity
  8
0
  6
ByLayer
 62
    0
370
   -1
100
AcDbLine
 10
324.546
 20
149.146
 11
324.594
 21
148.757
  0
LINE
  5
28B
100
AcDbEntity
  8
0
  6
ByLayer
 62
    0
370
   -1
100
AcDbLine
 10
324.594
 20
148.757
 11
324.608
 21
148.362
  0
LINE
  5
28C
100
AcDbEntity
  8
0
  6
ByLayer
 62
    0
370
   -1
100
AcDbLine
 10
324.608
 20
148.362
 11
324.608
 21
5.29992
  0
LINE
  5
28D
100
AcDbEntity
  8
0
  6
ByLayer
 62
    0
370
   -1
100
AcDbLine
 10
324.608
 20
5.29992
 11
324.594
 21
4.90721
  0
LINE
  5
28E
100
AcDbEntity
  8
0
  6
ByLayer
 62
    0
370
   -1
100
AcDbLine
 10
324.594
 20
4.90721
 11
324.546
 21
4.51721
  0
LINE
  5
28F
100
AcDbEntity
  8
0
  6
ByLayer
 62
    0
370
   -1
100
AcDbLine
 10
324.546
 20
4.51721
 11
324.47
 21
4.13272
  0
LINE
  5
290
100
AcDbEntity
  8
0
  6
ByLayer
 62
    0
370
   -1
100
AcDbLine
 10
324.47
 20
4.13272
 11
324.364
 21
3.75514
  0
LINE
  5
291
100
AcDbEntity
  8
0
  6
ByLayer
 62
    0
370
   -1
100
AcDbLine
 10
324.364
 20
3.75514
 11
324.227
 21
3.38722
  0
LINE
  5
292
100
AcDbEntity
  8
0
  6
ByLayer
 62
    0
370
   -1
100
AcDbLine
 10
324.227
 20
3.38722
 11
324.063
 21
3.0303
  0
LINE
  5
293
100
AcDbEntity
  8
0
  6
ByLayer
 62
    0
370
   -1
100
AcDbLine
 10
324.063
 20
3.0303
 11
323.872
 21
2.68718
  0
LINE
  5
294
100
AcDbEntity
  8
0
  6
ByLayer
 62
    0
370
   -1
100
AcDbLine
 10
323.872
 20
2.68718
 11
323.653
 21
2.36058
  0
LINE
  5
295
100
AcDbEntity
  8
0
  6
ByLayer
 62
    0
370
   -1
100
AcDbLine
 10
323.653
 20
2.36058
 11
323.41
 21
2.05328
  0
LINE
  5
296
100
AcDbEntity
  8
0
  6
ByLayer
 62
    0
370
   -1
100
AcDbLine
 10
323.41
 20
2.05328
 11
323.144
 21
1.76389
  0
LINE
  5
297
100
AcDbEntity
  8
0
  6
ByLayer
 62
    0
370
   -1
100
AcDbLine
 10
323.144
 20
1.76389
 11
322.855
 21
1.49793
  0
LINE
  5
298
100
AcDbEntity
  8
0
  6
ByLayer
 62
    0
370
   -1
100
AcDbLine
 10
322.855
 20
1.49793
 11
322.548
 21
1.25539
  0
LINE
  5
299
100
AcDbEntity
  8
0
  6
ByLayer
 62
    0
370
   -1
100
AcDbLine
 10
322.548
 20
1.25539
 11
322.221
 21
1.03628
  0
LINE
  5
29A
100
AcDbEntity
  8
0
  6
ByLayer
 62
    0
370
   -1
100
AcDbLine
 10
322.221
 20
1.03628
 11
321.878
 21
0.844737
  0
LINE
  5
29B
100
AcDbEntity
  8
0
  6
ByLayer
 62
    0
370
   -1
100
AcDbLine
 10
321.878
 20
0.844737
 11
321.521
 21
0.680752
  0
LINE
  5
29C
100
AcDbEntity
  8
0
  6
ByLayer
 62
    0
370
   -1
100
AcDbLine
 10
321.521
 20
0.680752
 11
321.153
 21
0.544326
  0
LINE
  5
29D
100
AcDbEntity
  8
0
  6
ByLayer
 62
    0
370
   -1
100
AcDbLine
 10
321.153
 20
0.544326
 11
320.776
 21
0.438217
  0
LINE
  5
29E
100
AcDbEntity
  8
0
  6
ByLayer
 62
    0
370
   -1
100
AcDbLine
 10
320.776
 20
0.438217
 11
320.391
 21
0.362423
  0
LINE
  5
29F
100
AcDbEntity
  8
0
  6
ByLayer
 62
    0
370
   -1
100
AcDbLine
 10
320.391
 20
0.362423
 11
320.001
 21
0.314193
  0
LINE
  5
2A0
100
AcDbEntity
  8
0
  6
ByLayer
 62
    0
370
   -1
100
AcDbLine
 10
320.001
 20
0.314193
 11
319.609
 21
0.300412
  0
LINE
  5
2A1
100
AcDbEntity
  8
0
  6
ByLayer
 62
    0
370
   -1
100
AcDbLine
 10
319.609
 20
0.300412
 11
5.09598
 21
0.300412
  0
LINE
  5
2A2
100
AcDbEntity
  8
0
  6
ByLayer
 62
    0
370
   -1
100
AcDbLine
 10
5.09598
 20
0.300412
 11
4.70186
 21
0.314193
  0
LINE
  5
2A3
100
AcDbEntity
  8
0
  6
ByLayer
 62
    0
370
   -1
100
AcDbLine
 10
4.70186
 20
0.314193
 11
4.3119
 21
0.362423
  0
LINE
  5
2A4
100
AcDbEntity
  8
0
  6
ByLayer
 62
    0
370
   -1
100
AcDbLine
 10
4.3119
 20
0.362423
 11
3.9274
 21
0.438217
  0
LINE
  5
2A5
100
AcDbEntity
  8
0
  6
ByLayer
 62
    0
370
   -1
100
AcDbLine
 10
3.9274
 20
0.438217
 11
3.54983
 21
0.544326
  0
LINE
  5
2A6
100
AcDbEntity
  8
0
  6
ByLayer
 62
    0
370
   -1
100
AcDbLine
 10
3.54983
 20
0.544326
 11
3.18189
 21
0.680752
  0
LINE
  5
2A7
100
AcDbEntity
  8
0
  6
ByLayer
 62
    0
370
   -1
100
AcDbLine
 10
3.18189
 20
0.680752
 11
2.82498
 21
0.844737
  0
LINE
  5
2A8
100
AcDbEntity
  8
0
  6
ByLayer
 62
    0
370
   -1
100
AcDbLine
 10
2.82498
 20
0.844737
 11
2.48185
 21
1.03628
  0
LINE
  5
2A9
100
AcDbEntity
  8
0
  6
ByLayer
 62
    0
370
   -1
100
AcDbLine
 10
2.48185
 20
1.03628
 11
2.15663
 21
1.25539
  0
LINE
  5
2AA
100
AcDbEntity
  8
0
  6
ByLayer
 62
    0
370
   -1
100
AcDbLine
 10
2.15663
 20
1.25539
 11
1.84795
 21
1.49793
  0
LINE
  5
2AB
100
AcDbEntity
  8
0
  6
ByLayer
 62
    0
370
   -1
100
AcDbLine
 10
1.84795
 20
1.49793
 11
1.55994
 21
1.76389
  0
LINE
  5
2AC
100
AcDbEntity
  8
0
  6
ByLayer
 62
    0
370
   -1
100
AcDbLine
 10
1.55994
 20
1.76389
 11
1.2926
 21
2.05328
  0
LINE
  5
2AD
100
AcDbEntity
  8
0
  6
ByLayer
 62
    0
370
   -1
100
AcDbLine
 10
1.2926
 20
2.05328
 11
1.05006
 21
2.36058
  0
LINE
  5
2AE
100
AcDbEntity
  8
0
  6
ByLayer
 62
    0
370
   -1
100
AcDbLine
 10
1.05006
 20
2.36058
 11
0.8309569999999999
 21
2.68718
  0
LINE
  5
2AF
100
AcDbEntity
  8
0
  6
ByLayer
 62
    0
370
   -1
100
AcDbLine
 10
0.8309569999999999
 20
2.68718
 11
0.63941
 21
3.0303
  0
LINE
  5
2B0
100
AcDbEntity
  8
0
  6
ByLayer
 62
    0
370
   -1
100
AcDbLine
 10
0.63941
 20
3.0303
 11
0.475424
 21
3.38722
  0
LINE
  5
2B1
100
AcDbEntity
  8
0
  6
ByLayer
 62
    0
370
   -1
100
AcDbLine
 10
0.475424
 20
3.38722
 11
0.338998
 21
3.75514
  0
LINE
  5
2B2
100
AcDbEntity
  8
0
  6
ByLayer
 62
    0
370
   -1
100
AcDbLine
 10
0.338998
 20
3.75514
 11
0.232888
 21
4.13272
  0
LINE
  5
2B3
100
AcDbEntity
  8
0
  6
ByLayer
 62
    0
370
   -1
100
AcDbLine
 10
0.232888
 20
4.13272
 11
0.157097
 21
4.51721
  0
LINE
  5
2B4
100
AcDbEntity
  8
0
  6
ByLayer
 62
    0
370
   -1
100
AcDbLine
 10
0.157097
 20
4.51721
 11
0.110243
 21
4.90721
  0
LINE
  5
2B5
100
AcDbEntity
  8
0
  6
ByLayer
 62
    0
370
   -1
100
AcDbLine
 10
0.110243
 20
4.90721
 11
0.09508460000000001
 21
5.29992
  0
LINE
  5
2B6
100
AcDbEntity
  8
0
  6
ByLayer
 62
    0
370
   -1
100
AcDbLine
 10
0.09508460000000001
 20
5.29992
 11
0.09508460000000001
 21
148.362
  0
LINE
  5
2B7
100
AcDbEntity
  8
0
  6
ByLayer
 62
    0
370
   -1
100
AcDbLine
 10
0.09508460000000001
 20
148.362
 11
0.110243
 21
148.757
  0
LINE
  5
2B8
100
AcDbEntity
  8
0
  6
ByLayer
 62
    0
370
   -1
100
AcDbLine
 10
0.110243
 20
148.757
 11
0.157097
 21
149.146
  0
LINE
  5
2B9
100
AcDbEntity
  8
0
  6
ByLayer
 62
    0
370
   -1
100
AcDbLine
 10
0.157097
 20
149.146
 11
0.232888
 21
149.531
  0
LINE
  5
2BA
100
AcDbEntity
  8
0
  6
ByLayer
 62
    0
370
   -1
100
AcDbLine
 10
0.232888
 20
149.531
 11
0.338998
 21
149.909
  0
LINE
  5
2BB
100
AcDbEntity
  8
0
  6
ByLayer
 62
    0
370
   -1
100
AcDbLine
 10
0.338998
 20
149.909
 11
0.475424
 21
150.276
  0
LINE
  5
2BC
100
AcDbEntity
  8
0
  6
ByLayer
 62
    0
370
   -1
100
AcDbLine
 10
0.475424
 20
150.276
 11
0.63941
 21
150.633
  0
LINE
  5
2BD
100
AcDbEntity
  8
0
  6
ByLayer
 62
    0
370
   -1
100
AcDbLine
 10
0.63941
 20
150.633
 11
0.8309569999999999
 21
150.977
  0
LINE
  5
2BE
100
AcDbEntity
  8
0
  6
ByLayer
 62
    0
370
   -1
100
AcDbLine
 10
0.8309569999999999
 20
150.977
 11
1.05006
 21
151.302
  0
LINE
  5
2BF
100
AcDbEntity
  8
0
  6
ByLayer
 62
    0
370
   -1
100
AcDbLine
 10
1.05006
 20
151.302
 11
1.2926
 21
151.61
  0
LINE
  5
2C0
100
AcDbEntity
  8
0
  6
ByLayer
 62
    0
370
   -1
100
AcDbLine
 10
1.2926
 20
151.61
 11
1.55994
 21
151.898
  0
LINE
  5
2C1
100
AcDbEntity
  8
0
  6
ByLayer
 62
    0
370
   -1
100
AcDbLine
 10
1.55994
 20
151.898
 11
1.84795
 21
152.166
  0
LINE
  5
2C2
100
AcDbEntity
  8
0
  6
ByLayer
 62
    0
370
   -1
100
AcDbLine
 10
1.84795
 20
152.166
 11
2.15663
 21
152.408
  0
LINE
  5
2C3
100
AcDbEntity
  8
0
  6
ByLayer
 62
    0
370
   -1
100
AcDbLine
 10
2.15663
 20
152.408
 11
2.48185
 21
152.628
  0
LINE
  5
2C4
100
AcDbEntity
  8
0
  6
ByLayer
 62
    0
370
   -1
100
AcDbLine
 10
2.48185
 20
152.628
 11
2.82498
 21
152.819
  0
LINE
  5
2C5
100
AcDbEntity
  8
0
  6
ByLayer
 62
    0
370
   -1
100
AcDbLine
 10
2.82498
 20
152.819
 11
3.18189
 21
152.983
  0
LINE
  5
2C6
100
AcDbEntity
  8
0
  6
ByLayer
 62
    0
370
   -1
100
AcDbLine
 10
3.18189
 20
152.983
 11
3.54983
 21
153.119
  0
LINE
  5
2C7
100
AcDbEntity
  8
0
  6
ByLayer
 62
    0
370
   -1
100
AcDbLine
 10
3.54983
 20
153.119
 11
3.9274
 21
153.225
  0
LINE
  5
2C8
100
AcDbEntity
  8
0
  6
ByLayer
 62
    0
370
   -1
100
AcDbLine
 10
3.9274
 20
153.225
 11
4.3119
 21
153.301
  0
LINE
  5
2C9
100
AcDbEntity
  8
0
  6
ByLayer
 62
    0
370
   -1
100
AcDbLine
 10
4.3119
 20
153.301
 11
4.70186
 21
153.348
  0
LINE
  5
2CA
100
AcDbEntity
  8
0
  6
ByLayer
 62
    0
370
   -1
100
AcDbLine
 10
4.70186
 20
153.348
 11
5.09598
 21
153.363
  0
LINE
  5
2CB
100
AcDbEntity
  8
0
  6
ByLayer
 62
    0
370
   -1
100
AcDbLine
 10
5.09598
 20
153.363
 11
319.609
 21
153.363
  0
LINE
  5
2CC
100
AcDbEntity
  8
0
  6
ByLayer
 62
  256
370
   -1
100
AcDbLine
 10
303.846
 20
55.3999
 11
303.846
 21
113.551
  0
LINE
  5
2CD
100
AcDbEntity
  8
0
  6
ByLayer
 62
  256
370
   -1
100
AcDbLine
 10
289.558
 20
54.3999
 11
289.558
 21
53.3999
  0
LINE
  5
2CE
100
AcDbEntity
  8
0
  6
ByLayer
 62
  256
370
   -1
100
AcDbLine
 10
289.558
 20
53.3999
 11
289.558
 21
37.3513
  0
LINE
  5
2CF
100
AcDbEntity
  8
0
  6
ByLayer
 62
  256
370
   -1
100
AcDbLine
 10
16.0946
 20
136.364
 11
16.0946
 21
137.364
  0
LINE
  5
2D0
100
AcDbEntity
  8
0
  6
ByLayer
 62
  256
370
   -1
100
AcDbLine
 10
16.0946
 20
117.312
 11
16.0946
 21
116.312
  0
LINE
  5
2D1
100
AcDbEntity
  8
0
  6
ByLayer
 62
  256
370
   -1
100
AcDbLine
 10
16.0946
 20
117.312
 11
16.0946
 21
136.364
  0
LINE
  5
2D2
100
AcDbEntity
  8
0
  6
ByLayer
 62
  256
370
   -1
100
AcDbLine
 10
54.1946
 20
137.364
 11
54.1946
 21
116.312
  0
LINE
  5
2D3
100
AcDbEntity
  8
0
  6
ByLayer
 62
  256
370
   -1
100
AcDbLine
 10
139.918
 20
137.364
 11
139.918
 21
116.312
  0
LINE
  5
2D4
100
AcDbEntity
  8
0
  6
ByLayer
 62
  256
370
   -1
100
AcDbLine
 10
303.846
 20
116.312
 11
303.846
 21
137.364
  0
LINE
  5
2D5
100
AcDbEntity
  8
0
  6
ByLayer
 62
  256
370
   -1
100
AcDbLine
 10
303.846
 20
137.364
 11
225.645
 21
137.364
  0
LINE
  5
2D6
100
AcDbEntity
  8
0
  6
ByLayer
 62
  256
370
   -1
100
AcDbLine
 10
225.645
 20
137.364
 11
225.645
 21
116.312
  0
LINE
  5
2D7
100
AcDbEntity
  8
0
  6
ByLayer
 62
  256
370
   -1
100
AcDbLine
 10
225.645
 20
116.312
 11
303.846
 21
116.312
  0
LINE
  5
2D8
100
AcDbEntity
  8
0
  6
ByLayer
 62
  256
370
   -1
100
AcDbLine
 10
217.121
 20
137.364
 11
217.121
 21
116.312
  0
LINE
  5
2D9
100
AcDbEntity
  8
0
  6
ByLayer
 62
  256
370
   -1
100
AcDbLine
 10
139.918
 20
116.312
 11
217.121
 21
116.312
  0
LINE
  5
2DA
100
AcDbEntity
  8
0
  6
ByLayer
 62
  256
370
   -1
100
AcDbLine
 10
217.121
 20
137.364
 11
139.918
 21
137.364
  0
LINE
  5
2DB
100
AcDbEntity
  8
0
  6
ByLayer
 62
  256
370
   -1
100
AcDbLine
 10
131.396
 20
137.364
 11
131.396
 21
116.312
  0
LINE
  5
2DC
100
AcDbEntity
  8
0
  6
ByLayer
 62
  256
370
   -1
100
AcDbLine
 10
54.1946
 20
116.312
 11
131.396
 21
116.312
  0
LINE
  5
2DD
100
AcDbEntity
  8
0
  6
ByLayer
 62
  256
370
   -1
100
AcDbLine
 10
131.396
 20
137.364
 11
54.1946
 21
137.364
  0
LINE
  5
2DE
100
AcDbEntity
  8
0
  6
ByLayer
 62
  256
370
   -1
100
AcDbLine
 10
36.146
 20
137.364
 11
36.146
 21
116.312
  0
LINE
  5
2DF
100
AcDbEntity
  8
0
  6
ByLayer
 62
  256
370
   -1
100
AcDbLine
 10
36.146
 20
116.312
 11
16.0946
 21
116.312
  0
LINE
  5
2E0
100
AcDbEntity
  8
0
  6
ByLayer
 62
  256
370
   -1
100
AcDbLine
 10
16.0946
 20
137.364
 11
36.146
 21
137.364
  0
LINE
  5
2E1
100
AcDbEntity
  8
0
  6
ByLayer
 62
  256
370
   -1
100
AcDbLine
 10
16.0946
 20
113.551
 11
303.846
 21
113.551
  0
LINE
  5
2E2
100
AcDbEntity
  8
0
  6
ByLayer
 62
  256
370
   -1
100
AcDbLine
 10
16.0946
 20
16.4023
 11
308.608
 21
16.4023
  0
LINE
  5
2E3
100
AcDbEntity
  8
0
  6
ByLayer
 62
  256
370
   -1
100
AcDbLine
 10
308.608
 20
16.4023
 11
308.608
 21
36.3513
  0
LINE
  5
2E4
100
AcDbEntity
  8
0
  6
ByLayer
 62
  256
370
   -1
100
AcDbLine
 10
16.0946
 20
113.551
 11
16.0946
 21
16.4023
  0
LINE
  5
2E5
100
AcDbEntity
  8
0
  6
ByLayer
 62
  256
370
   -1
100
AcDbLine
 10
308.608
 20
36.8513
 11
290.558
 21
36.8513
  0
LINE
  5
2E6
100
AcDbEntity
  8
0
  6
ByLayer
 62
  256
370
   -1
100
AcDbLine
 10
289.558
 20
54.8999
 11
303.846
 21
54.8999
  0
LINE
  5
2E7
100
AcDbEntity
  8
0
  6
ByLayer
 62
  256
370
   -1
100
AcDbLine
 10
303.846
 20
55.3999
 11
303.846
 21
54.8999
  0
LINE
  5
2E8
100
AcDbEntity
  8
0
  6
ByLayer
 62
  256
370
   -1
100
AcDbLine
 10
308.608
 20
36.8513
 11
308.608
 21
36.3513
  0
LINE
  5
2E9
100
AcDbEntity
  8
0
  6
ByLayer
 62
  256
370
   -1
100
AcDbLine
 10
289.558
 20
54.8999
 11
289.558
 21
54.3999
  0
LINE
  5
2EA
100
AcDbEntity
  8
0
  6
ByLayer
 62
  256
370
   -1
100
AcDbLine
 10
290.558
 20
36.8513
 11
289.558
 21
36.8513
  0
LINE
  5
2EB
100
AcDbEntity
  8
0
  6
ByLayer
 62
  256
370
   -1
100
AcDbLine
 10
289.558
 20
36.8513
 11
289.558
 21
37.3513
  0
CIRCLE
  5
2EC
100
AcDbEntity
  8
0
  6
ByLayer
 62
  256
370
   -1
100
AcDbCircle
 10
6.34587
 20
6.54981
 40
2.499750000000001
  0
CIRCLE
  5
2ED
100
AcDbEntity
  8
0
  6
ByLayer
 62
  256
370
   -1
100
AcDbCircle
 10
162.351
 20
6.549809999999999
 40
2.501000000000005
  0
CIRCLE
  5
2EE
100
AcDbEntity
  8
0
  6
ByLayer
 62
  256
370
   -1
100
AcDbCircle
 10
318.359
 20
6.549809999999999
 40
2.499000000000024
  0
CIRCLE
  5
2EF
100
AcDbEntity
  8
0
  6
ByLayer
 62
  256
370
   -1
100
AcDbCircle
 10
318.3590000000001
 20
147.113
 40
2.49899999999991
  0
CIRCLE
  5
2F0
100
AcDbEntity
  8
0
  6
ByLayer
 62
  256
370
   -1
100
AcDbCircle
 10
162.351
 20
147.113
 40
2.501000000000005
  0
CIRCLE
  5
2F1
100
AcDbEntity
  8
0
  6
ByLayer
 62
  256
370
   -1
100
AcDbCircle
 10
66.34586999999999
 20
147.113
 40
2.499750000000006
  0
CIRCLE
  5
2F2
100
AcDbEntity
  8
0
  6
ByLayer
 62
  256
370
   -1
100
AcDbCircle
 10
6.345870000000036
 20
147.113
 40
2.499749999999964
  0
INSERT
  5
2F3
100
AcDbEntity
  8
0
  6
ByLayer
 62
  256
370
   -1
100
AcDbBlockReference
  2
TopLeftB
 10
16.0946
 20
39.71929999999999
 30
0
 41
1
 42
1
 43
0
 50
0
 70
    1
 71
    1
 44
0
 45
0
  0
INSERT
  5
2F4
100
AcDbEntity
  8
noname
  6
ByLayer
 62
  256
370
   -1
100
AcDbBlockReference
  2
BottomRight
 10
139.7975516731269
 20
101.051
 30
0
 41
1
 42
1
 43
0
 50
180
 70
    1
 71
    1
 44
0
 45
0
  0
INSERT
  5
2F5
100
AcDbEntity
  8
noname
  6
ByLayer
 62
  256
370
   -1
100
AcDbBlockReference
  2
BottomLeft
 10
289.6530846
 20
113.851412
 30
0
 41
1
 42
1
 43
0
 50
180
 70
    1
 71
    1
 44
0
 45
0
  0
INSERT
  5
2F6
100
AcDbEntity
  8
0
  6
ByLayer
 62
  256
370
   -1
100
AcDbBlockReference
  2
TopRight
 10
165.8550175395576
 20
88.55221200000004
 30
0
 41
1
 42
1
 43
0
 50
360
 70
    1
 71
    1
 44
0
 45
0
  0
INSERT
  5
2F7
100
AcDbEntity
  8
0
  6
ByLayer
 62
  256
370
   -1
100
AcDbBlockReference
  2
Front
 10
41.09375167312689
 20
16.4
 30
0
 41
1
 42
1
 43
0
 50
0
 70
    1
 71
    1
 44
0
 45
0
  0
INSERT
  5
2F8
100
AcDbEntity
  8
noname
  6
ByLayer
 62
  256
370
   -1
100
AcDbBlockReference
  2
Bottom
 10
41.09375167312695
 20
56.40000000000011
 30
0
 41
1
 42
1
 43
0
 50
0
 70
    1
 71
    1
 44
0
 45
0
  0
INSERT
  5
2F9
100
AcDbEntity
  8
0
  6
ByLayer
 62
  256
370
   -1
100
AcDbBlockReference
  2
Feet_A-0
 10
41.09375167312695
 20
68.90000000000012
 30
0
 41
1
 42
1
 43
0
 50
360
 70
    1
 71
    1
 44
0
 45
0
  0
INSERT
  5
2FA
100
AcDbEntity
  8
0
  6
ByLayer
 62
  256
370
   -1
100
AcDbBlockReference
  2
Feet_A-0
 10
125.9233493747958
 20
88.49143721230733
 30
0
 41
1
 42
1
 43
0
 50
180
 70
    1
 71
    1
 44
0
 45
0
  0
INSERT
  5
2FB
100
AcDbEntity
  8
0
  6
ByLayer
 62
  256
370
   -1
100
AcDbBlockReference
  2
Feet_A-0
 10
124.2092829117292
 20
68.90000000000012
 30
0
 41
1
 42
1
 43
0
 50
360
 70
    1
 71
    1
 44
0
 45
0
  0
INSERT
  5
2FC
100
AcDbEntity
  8
0
  6
ByLayer
 62
  256
370
   -1
100
AcDbBlockReference
  2
Feet_A-0
 10
209.0388806133981
 20
88.49143721230733
 30
0
 41
1
 42
1
 43
0
 50
180
 70
    1
 71
    1
 44
0
 45
0
  0
ENDSEC
  0
SECTION
  2
OBJECTS
  0
DICTIONARY
  5
C
330
0
100
AcDbDictionary
281
    1
  3
ACAD_GROUP
350
D
  0
DICTIONARY
  5
D
330
C
100
AcDbDictionary
281
    1
  0
ENDSEC
  0
EOF
